<?xml version="1.0" encoding="utf-8"?>
<!-- Generator: Adobe Illustrator 19.1.0, SVG Export Plug-In . SVG Version: 6.00 Build 0)  -->
<svg version="1.1" id="Layer_1" xmlns="http://www.w3.org/2000/svg" xmlns:xlink="http://www.w3.org/1999/xlink" x="0px" y="0px"
	 viewBox="-1545 1317.1 15.7 10.9" style="enable-background:new -1545 1317.1 15.7 10.9;" xml:space="preserve">
<style type="text/css">
	.st0{fill:#76899A;}
</style>
<path class="st0" d="M-1531.1,1322.1L-1531.1,1322.1v-0.3c0-2.6-2.1-4.7-4.7-4.7c-1.9,0-3.5,1.1-4.2,2.7c-0.4-0.3-0.8-0.5-1.3-0.5
	c-1.2,0-2.2,1-2.2,2.2c0,0.2,0,0.4,0.1,0.6c-0.9,0.6-1.6,1.6-1.6,2.7c0,1.7,1.4,3.2,3.1,3.2l0,0l0,0h9.3h0.2c1.7,0,3.1-1.4,3.1-3.1
	C-1529.2,1323.7-1530,1322.6-1531.1,1322.1z M-1534.6,1325.8c0,0.2-0.2,0.4-0.4,0.4h-4c-0.2,0-0.4-0.2-0.4-0.4v-2h4.8V1325.8z
	 M-1534.6,1323.6h-4.8v-0.6c0-0.2,0.2-0.4,0.4-0.4h0.4v-1c0-0.9,0.7-1.6,1.6-1.6s1.6,0.7,1.6,1.6v1h0.4c0.2,0,0.4,0.2,0.4,0.4
	V1323.6z"/>
<path class="st0" d="M-1537.1,1321.1c-0.4,0-0.6,0.2-0.6,0.6v0.8h1.2v-0.8C-1536.5,1321.4-1536.7,1321.1-1537.1,1321.1z"/>
</svg>
