<?xml version="1.0" encoding="utf-8"?>
<!-- Generator: Adobe Illustrator 19.1.0, SVG Export Plug-In . SVG Version: 6.00 Build 0)  -->
<svg version="1.1" id="Layer_2" xmlns="http://www.w3.org/2000/svg" xmlns:xlink="http://www.w3.org/1999/xlink" x="0px" y="0px"
	 viewBox="-1423.5 2042.1 21.6 21.6" style="enable-background:new -1423.5 2042.1 21.6 21.6;" xml:space="preserve">
<style type="text/css">
	.st0{fill:#4FBBCD;}
</style>
<path class="st0" d="M-1412.7,2042.1c-6,0-10.8,4.8-10.8,10.8s4.8,10.8,10.8,10.8s10.8-4.8,10.8-10.8
	C-1401.9,2046.9-1406.7,2042.1-1412.7,2042.1z M-1412.7,2062.7c-5.4,0-9.8-4.4-9.8-9.8c0-2.2,0.7-4.2,1.9-5.8
	c1.8,0.7,3.1,2.5,3.1,4.5c-0.1,0.4-0.2,0.8-0.2,1.2c0,2.7,2.2,4.9,4.9,4.9s4.9-2.2,4.9-4.9c0-0.4-0.1-0.8-0.2-1.2
	c0.2-2,1.5-3.7,3.3-4.5c1.2,1.6,1.9,3.6,1.9,5.8C-1402.9,2058.3-1407.3,2062.7-1412.7,2062.7z"/>
</svg>
