<?xml version="1.0" encoding="utf-8"?>
<!-- Generator: Adobe Illustrator 18.1.0, SVG Export Plug-In . SVG Version: 6.00 Build 0)  -->
<!DOCTYPE svg PUBLIC "-//W3C//DTD SVG 1.1//EN" "http://www.w3.org/Graphics/SVG/1.1/DTD/svg11.dtd">
<svg version="1.1" id="Layer_1" xmlns="http://www.w3.org/2000/svg" xmlns:xlink="http://www.w3.org/1999/xlink" x="0px" y="0px"
	 width="52px" height="37px" viewBox="0 0 52 37" enable-background="new 0 0 52 37" xml:space="preserve">
<path fill="#80C11A" d="M45.7,16.9c0-0.3,0-0.6,0-0.9c0-8.5-7.1-16-15.6-16c-6.2,0-11.3,4.1-13.8,9.3c-1.2-0.9-2.7-1.5-4.4-1.5
	C8,7.9,4.8,11,4.8,15c0,0.7,0.1,1.5,0.3,2.1c-3.1,1.8-5.1,5.2-5.1,9C0,31.8,4.3,36.9,10,37v0h0.1c0,0,0,0,0,0s0,0,0,0l31.4,0
	c0.2,0,0.4,0,0.6,0c5.7,0,9.9-5,9.9-10.6C52,22.1,49.4,18.5,45.7,16.9z"/>
<path fill="#FFFFFF" d="M38,11c-1.7,0-3,1.3-3,3c0,0.3,0.1,0.7,0.2,1l-5.6,8.1C29.4,23,29.2,23,29,23c-0.3,0-0.6,0.1-0.9,0.1
	l-5.2-4.5c0-0.2,0.1-0.4,0.1-0.7c0-1.7-1.3-3-3-3s-3,1.3-3,3c0,0.3,0.1,0.6,0.1,0.9l-5.5,6.2C11.5,25,11.2,25,11,25
	c-1.7,0-3,1.3-3,3s1.3,3,3,3s3-1.3,3-3c0-0.3-0.1-0.6-0.1-0.9l5.5-6.2C19.5,21,19.8,21,20,21c0.3,0,0.6-0.1,0.9-0.1l5.2,4.5
	c0,0.2-0.1,0.4-0.1,0.7c0,1.7,1.3,3,3,3s3-1.3,3-3c0-0.3-0.1-0.7-0.2-1l5.6-8.1c0.2,0,0.3,0.1,0.5,0.1c1.7,0,3-1.3,3-3
	S39.7,11,38,11z M19,17h2c0,0.7,0,1.4,0,2c-0.9,0-1.4,0-2,0C19,18.3,19,17.6,19,17z M12,29c-0.9,0-1.4,0-2,0c0-0.7,0-1.4,0-2h2
	C12,27.7,12,28.4,12,29z M30,27c-0.9,0-1.4,0-2,0c0-0.7,0-1.4,0-2h2C30,25.7,30,26.4,30,27z M39,15c-0.9,0-1.4,0-2,0
	c0-0.7,0-1.4,0-2h2C39,13.7,39,14.4,39,15z"/>
</svg>
