<?xml version="1.0" encoding="utf-8"?>
<!-- Generator: Adobe Illustrator 18.1.0, SVG Export Plug-In . SVG Version: 6.00 Build 0)  -->
<!DOCTYPE svg PUBLIC "-//W3C//DTD SVG 1.1//EN" "http://www.w3.org/Graphics/SVG/1.1/DTD/svg11.dtd">
<svg version="1.1" id="Layer_1" xmlns="http://www.w3.org/2000/svg" xmlns:xlink="http://www.w3.org/1999/xlink" x="0px" y="0px"
	 width="52px" height="37px" viewBox="0 0 52 37" enable-background="new 0 0 52 37" xml:space="preserve">
<path fill="#8596A5" d="M45.7,16.9c0-0.3,0-0.6,0-0.9c0-8.5-7.1-16-15.6-16c-6.2,0-11.3,4.1-13.8,9.3c-1.2-0.9-2.7-1.5-4.4-1.5
	C8,7.9,4.8,11,4.8,15c0,0.7,0.1,1.5,0.3,2.1c-3.1,1.8-5.1,5.2-5.1,9C0,31.8,4.3,36.9,10,37v0h0.1c0,0,0,0,0,0s0,0,0,0l31.4,0
	c0.2,0,0.4,0,0.6,0c5.7,0,9.9-5,9.9-10.6C52,22.1,49.4,18.5,45.7,16.9z"/>
<path fill="#FFFFFF" d="M35.5,20.9v1.2c0,0.3-0.2,0.5-0.5,0.6L32.3,23c-0.2,0.7-0.4,1.3-0.8,1.9l1.6,2.1c0.2,0.2,0.2,0.6-0.1,0.8
	l-0.8,0.8c-0.1,0.1-0.3,0.2-0.4,0.2c-0.1,0-0.3,0-0.4-0.1l-2.1-1.6c-0.6,0.3-1.2,0.6-1.9,0.8l-0.4,2.6c0,0.3-0.3,0.5-0.6,0.5h-1.2
	c-0.3,0-0.5-0.2-0.6-0.5l-0.4-2.6c-0.7-0.2-1.3-0.4-1.9-0.8l-2.1,1.6c-0.1,0.1-0.2,0.1-0.4,0.1c-0.2,0-0.3-0.1-0.4-0.2l-0.8-0.8
	c-0.2-0.2-0.2-0.5-0.1-0.8l1.6-2.1c-0.3-0.6-0.6-1.2-0.8-1.9L17,22.7c-0.3,0-0.5-0.3-0.5-0.6v-1.2c0-0.3,0.2-0.5,0.5-0.6l2.6-0.4
	c0.2-0.7,0.4-1.3,0.8-1.9L18.8,16c-0.2-0.2-0.2-0.6,0.1-0.8l0.8-0.8c0.1-0.1,0.3-0.2,0.4-0.2c0.1,0,0.3,0,0.4,0.1l2.1,1.6
	c0.6-0.3,1.2-0.6,1.9-0.8l0.4-2.6c0-0.3,0.3-0.5,0.6-0.5h1.2c0.3,0,0.5,0.2,0.6,0.5l0.4,2.6c0.7,0.2,1.3,0.4,1.9,0.8l2.1-1.6
	c0.1-0.1,0.2-0.1,0.4-0.1c0.2,0,0.3,0.1,0.4,0.2l0.8,0.8c0.2,0.2,0.2,0.5,0.1,0.8l-1.6,2.1c0.3,0.6,0.6,1.2,0.8,1.9l2.6,0.4
	C35.3,20.4,35.5,20.6,35.5,20.9z M26,25.1c2,0,3.6-1.6,3.6-3.6S28,17.9,26,17.9s-3.6,1.6-3.6,3.6S24,25.1,26,25.1z"/>
</svg>
