<?xml version="1.0" encoding="utf-8"?>
<!-- Generator: Adobe Illustrator 19.1.0, SVG Export Plug-In . SVG Version: 6.00 Build 0)  -->
<svg version="1.1" id="Layer_1" xmlns="http://www.w3.org/2000/svg" xmlns:xlink="http://www.w3.org/1999/xlink" x="0px" y="0px"
	 viewBox="-1842.5 1707.7 14.7 10.5" style="enable-background:new -1842.5 1707.7 14.7 10.5;" xml:space="preserve">
<style type="text/css">
	.st0{fill:none;stroke:#76899A;stroke-miterlimit:10;}
	.st1{fill:#76899A;}
</style>
<path class="st0" d="M-1829.9,1712.6L-1829.9,1712.6v-0.3c0-2.3-1.8-4.1-4.1-4.1c-1.7,0-3,1-3.7,2.3c-0.3-0.3-0.7-0.4-1.1-0.4
	c-1,0-1.9,0.9-1.9,1.9c0,0.2,0,0.3,0.1,0.5c-0.8,0.5-1.4,1.4-1.4,2.3c0,1.5,1.2,2.8,2.7,2.8l0,0l0,0h8.1h0.2c1.5,0,2.7-1.2,2.7-2.7
	C-1828.3,1713.9-1828.9,1713-1829.9,1712.6z"/>
<path class="st1" d="M-1833.3,1713.1h-0.3v-0.9c0-0.7-0.6-1.4-1.4-1.4s-1.4,0.6-1.4,1.4v0.9h-0.3c-0.2,0-0.3,0.1-0.3,0.3v0.5v0.1
	v1.7c0,0.2,0.1,0.3,0.3,0.3h3.4c0.2,0,0.3-0.1,0.3-0.3v-1.7v-0.1v-0.5C-1833,1713.2-1833.1,1713.1-1833.3,1713.1z M-1835.8,1712.1
	c0-0.4,0.3-0.7,0.7-0.7s0.7,0.3,0.7,0.7v1h-1.5V1712.1z"/>
</svg>
