<?xml version="1.0" encoding="utf-8"?>
<!-- Generator: Adobe Illustrator 19.1.0, SVG Export Plug-In . SVG Version: 6.00 Build 0)  -->
<svg version="1.1" id="Layer_1" xmlns="http://www.w3.org/2000/svg" xmlns:xlink="http://www.w3.org/1999/xlink" x="0px" y="0px"
	 viewBox="-287 411.1 20.8 20.8" style="enable-background:new -287 411.1 20.8 20.8;" xml:space="preserve">
<style type="text/css">
	.st0{fill:#57626C;}
	.st1{fill:none;stroke:#57626C;stroke-width:2;stroke-miterlimit:10;}
	.st2{fill:none;stroke:#57626C;stroke-width:3;stroke-linecap:square;stroke-miterlimit:10;}
	.st3{fill:#53DD4B;}
	.st4{fill:#072305;}
	.st5{fill:#565656;}
	.st6{fill:none;stroke:#53DD4B;stroke-width:3;stroke-miterlimit:10;}
	.st7{fill:#4FBBCD;}
	.st8{fill:#939393;}
	.st9{fill:#7A7A7A;}
	.st10{fill:#EFEFEF;}
	.st11{fill:#D1D1D1;}
</style>
<g>
	<circle class="st0" cx="-206.5" cy="476.4" r="4.8"/>
	<line class="st1" x1="-208.4" y1="476.3" x2="-215.4" y2="476.3"/>
</g>
<path class="st2" d="M-212.7,470.1c-1.7,1.6-2.7,3.9-2.7,6.4s1,4.8,2.7,6.4"/>
<path class="st0" d="M-206.5,486.8c-0.2,0-0.4,0-0.5,0l-1.6-0.1l0.2-3l1.6,0.1c0.1,0,0.2,0,0.3,0c4.1,0,7.4-3.3,7.4-7.4
	s-3.3-7.4-7.4-7.4c-0.1,0-0.2,0-0.3,0l-1.6,0.1l-0.2-3l1.6-0.1c0.2,0,0.4,0,0.5,0c5.7,0,10.4,4.7,10.4,10.4
	S-200.8,486.8-206.5,486.8z"/>
<circle class="st3" cx="-207.9" cy="456.3" r="5.4"/>
<g>
	<path class="st3" d="M-208,443.9c-3.5,0-6.6,1.5-8.9,3.8l2.6,1.7c1.7-1.5,3.9-2.5,6.3-2.5c5.1,0,9.3,4.2,9.3,9.3s-4.2,9.3-9.3,9.3
		c-2.5,0-4.8-1-6.5-2.6l-2.6,1.7c2.3,2.4,5.4,3.9,9,3.9c6.8,0,12.3-5.5,12.3-12.3C-195.7,449.5-201.2,443.9-208,443.9z"/>
	<path class="st3" d="M-216.5,460c-0.5-1.2-0.8-2.4-0.8-3.8s0.3-2.7,0.9-3.9l-2.5-1.7c-0.9,1.7-1.4,3.6-1.4,5.6s0.5,3.8,1.3,5.5
		L-216.5,460z"/>
</g>
<circle class="st3" cx="-173.7" cy="460.3" r="4.3"/>
<g>
	<path class="st3" d="M-173.9,447.9c-2.6,0-4.9,0.8-6.9,2.1l2.8,1.8c1.2-0.6,2.6-1,4.1-1c5.1,0,9.3,4.2,9.3,9.3s-4.2,9.3-9.3,9.3
		c-1.5,0-3-0.4-4.3-1.1l-2.8,1.8c2,1.4,4.4,2.2,7.1,2.2c6.8,0,12.3-5.5,12.3-12.3C-161.5,453.5-167,447.9-173.9,447.9z"/>
	<path class="st3" d="M-181.1,466.2c-1.3-1.6-2.1-3.7-2.1-5.9c0-2.3,0.8-4.4,2.2-6l-2.5-1.7c-1.7,2.1-2.7,4.8-2.7,7.7s1,5.5,2.6,7.6
		L-181.1,466.2z"/>
</g>
<path class="st3" d="M-141.8,450.9c5.1,0,9.3,4.2,9.3,9.3s-4.2,9.3-9.3,9.3s-9.3-4.2-9.3-9.3S-147,450.9-141.8,450.9 M-141.8,447.9
	c-6.8,0-12.3,5.5-12.3,12.3s5.5,12.3,12.3,12.3s12.3-5.5,12.3-12.3C-129.5,453.5-135,447.9-141.8,447.9L-141.8,447.9z"/>
<circle class="st3" cx="-141.7" cy="460.3" r="4.3"/>
<polygon class="st4" points="-142.7,455.3 -145.1,458.1 -155.5,451.2 -153.1,448.4 "/>
<polygon class="st4" points="-155.5,469.1 -153.1,471.9 -142.7,465 -145.1,462.2 "/>
<circle class="st3" cx="-328.6" cy="435.4" r="4.3"/>
<rect x="-218.2" y="454.7" class="st3" width="10.2" height="3.1"/>
<circle class="st5" cx="-264.3" cy="472.2" r="4.5"/>
<rect x="-265.3" y="463.5" class="st5" width="2" height="8.6"/>
<g>
	<path class="st5" d="M-254,472c0-2.1-0.7-4.1-1.8-5.8l-1.5,2.3c0.5,1,0.8,2.2,0.8,3.4c0,4.3-3.5,7.8-7.8,7.8s-7.8-3.5-7.8-7.8
		c0-1.3,0.3-2.5,0.9-3.6l-1.5-2.3c-1.2,1.7-1.9,3.7-1.9,5.9c0,5.7,4.6,10.3,10.3,10.3S-254,477.7-254,472z"/>
	<path class="st5" d="M-269.3,466c1.3-1.1,3.1-1.8,4.9-1.8c1.9,0,3.7,0.7,5.1,1.9l1.4-2.1c-1.8-1.4-4-2.3-6.4-2.3s-4.6,0.8-6.3,2.2
		L-269.3,466z"/>
</g>
<g>
	<path class="st3" d="M-320.6,425.9c-2.2-1.9-5-3-8-3c-3.1,0-5.9,1.1-8,3H-320.6z"/>
	<path class="st3" d="M-321.8,428.9c1.5,1.7,2.5,3.9,2.5,6.3c0,5.1-4.2,9.3-9.3,9.3s-9.3-4.2-9.3-9.3c0-2.4,1-4.7,2.5-6.3h-3.7
		c-1.1,1.9-1.8,4-1.8,6.3c0,6.8,5.5,12.3,12.3,12.3s12.3-5.5,12.3-12.3c0-2.3-0.7-4.5-1.8-6.3H-321.8z"/>
</g>
<line class="st6" x1="-328.6" y1="425.9" x2="-328.6" y2="433"/>
<circle class="st7" cx="-276.7" cy="421.7" r="4"/>
<circle class="st3" cx="-299.5" cy="450.9" r="3.7"/>
<g>
	<path class="st3" d="M-292.7,445.9c0,0.2,0,4.4,0,4.6c0,3.7-3,6.7-6.7,6.7s-6.7-3-6.7-6.7c0-0.2-0.1-4.4,0-4.6h-2.7
		c-1,1.7-1,3.6-1,3.8c0,5.8,4.7,10.5,10.5,10.5s10.5-4.7,10.5-10.5c0-0.3-0.2-2.6-1-3.8H-292.7z"/>
	<path class="st3" d="M-305.1,444.1h11.3h3.2c-1.9-2.9-5.1-4.9-8.9-4.9c-3.7,0-7,2-8.9,4.9H-305.1z"/>
</g>
<rect x="-301.1" y="441.4" class="st3" width="3.2" height="6.5"/>
<path class="st7" d="M-281.8,415.1h10.3h3c-1.7-2.4-4.7-4-8.1-4s-6.4,1.6-8.1,4H-281.8z"/>
<rect x="-279.4" y="414" class="st7" width="5.6" height="7.5"/>
<g>
	<path class="st8" d="M-198.3,425.5c0,1.1,0,2.8,0,4c0,4.3-3.5,7.8-7.8,7.8s-7.8-3.5-7.8-7.8c0-1.2,0-2.9,0-4h-1.7
		c-0.5,1.2-0.8,2.6-0.8,4c0,5.7,4.6,10.3,10.3,10.3s10.3-4.6,10.3-10.3c0-1.4-0.3-2.8-0.8-4"/>
</g>
<rect x="-210.1" y="422" class="st9" width="7.9" height="7.5"/>
<circle class="st8" cx="-206.1" cy="429.7" r="4"/>
<path class="st8" d="M-211.3,423.2h10.3h3c-1.7-2.4-4.7-4-8.1-4s-6.4,1.6-8.1,4H-211.3z"/>
<rect x="-208.3" y="422" class="st8" width="4.4" height="7.5"/>
<g>
	<path class="st10" d="M-225.3,418.7c0,1.1,0,2.8,0,4c0,4.3-3.5,7.8-7.8,7.8s-7.8-3.5-7.8-7.8c0-1.2,0-2.9,0-4h-1.7
		c-0.5,1.2-0.8,2.6-0.8,4c0,5.7,4.6,10.3,10.3,10.3s10.3-4.6,10.3-10.3c0-1.4-0.3-2.8-0.8-4"/>
</g>
<rect x="-237.1" y="415.2" class="st11" width="7.9" height="7.5"/>
<circle class="st10" cx="-233.1" cy="422.9" r="4"/>
<path class="st10" d="M-238.3,416.3h10.3h3c-1.7-2.4-4.7-4-8.1-4s-6.4,1.6-8.1,4H-238.3z"/>
<rect x="-235.3" y="415.2" class="st10" width="4.4" height="7.5"/>
<g>
	<path class="st0" d="M-256.5,447.3c0,1,0,2.1,0,3c0,4.3-3.5,7.8-7.8,7.8s-7.8-3.5-7.8-7.8c0-0.9,0-2,0-3h-2c-0.3,1-0.5,2-0.5,3
		c0,5.7,4.6,10.3,10.3,10.3s10.3-4.6,10.3-10.3c0-1.1-0.2-2.1-0.5-3"/>
</g>
<circle class="st0" cx="-264.4" cy="450.5" r="4"/>
<path class="st0" d="M-269.5,444h10.3h3c-1.7-2.4-4.7-4-8.1-4s-6.4,1.6-8.1,4H-269.5z"/>
<rect x="-266.7" y="442.8" class="st0" width="4.7" height="7.5"/>
<path class="st7" d="M-268.9,418.5c0,1,0,2.2,0,3.1c0,4.3-3.5,7.8-7.8,7.8s-7.8-3.5-7.8-7.8c0-0.9,0-2.1,0-3.1h-2
	c-0.3,1-0.5,2-0.5,3.1c0,5.7,4.6,10.3,10.3,10.3s10.3-4.6,10.3-10.3c0-1.1-0.2-2.1-0.5-3.1H-268.9z"/>
</svg>
