<?xml version="1.0" encoding="utf-8"?>
<!-- Generator: Adobe Illustrator 19.1.0, SVG Export Plug-In . SVG Version: 6.00 Build 0)  -->
<svg version="1.1" id="Layer_2" xmlns="http://www.w3.org/2000/svg" xmlns:xlink="http://www.w3.org/1999/xlink" x="0px" y="0px"
	 viewBox="-1137.5 1631.8 21.6 21.6" style="enable-background:new -1137.5 1631.8 21.6 21.6;" xml:space="preserve">
<style type="text/css">
	.st0{fill:#5DD08B;}
</style>
<path class="st0" d="M-1126.7,1631.8c-6,0-10.8,4.8-10.8,10.8c0,6,4.8,10.8,10.8,10.8s10.8-4.8,10.8-10.8
	C-1115.9,1636.6-1120.7,1631.8-1126.7,1631.8z M-1126.7,1652.4c-5.4,0-9.8-4.4-9.8-9.8c0-2.2,0.7-4.2,1.9-5.8
	c1.8,0.7,3.1,2.5,3.1,4.5c-0.1,0.4-0.2,0.8-0.2,1.2c0,2.7,2.2,4.9,4.9,4.9s4.9-2.2,4.9-4.9c0-0.4-0.1-0.8-0.2-1.2
	c0.2-2,1.5-3.7,3.3-4.5c1.2,1.6,1.9,3.6,1.9,5.8C-1116.9,1648-1121.3,1652.4-1126.7,1652.4z"/>
</svg>
