<svg xmlns="http://www.w3.org/2000/svg" width="52" height="37" viewBox="0 0 52 37">
  <g fill="none" fill-rule="evenodd">
    <path fill="#7355A6" d="M45.7 16.9V16c0-8.5-7.1-16-15.6-16-6.2 0-11.3 4.1-13.8 9.3-1.2-.9-2.7-1.5-4.4-1.5C8 7.9 4.8 11 4.8 15c0 .7.1 1.5.3 2.1C2 18.9 0 22.3 0 26.1 0 31.8 4.3 36.9 10 37h32.1c5.7 0 9.9-5 9.9-10.6 0-4.3-2.6-7.9-6.3-9.5z"/>
    <path fill="#FFF" d="M17.885 17.89v-2.387h13.26v.395c.52-.437.933-.825 1.347-1.19-.297-.454-.81-.742-1.398-.742H17.92c-.922 0-1.725.71-1.725 1.617v3.892l1.647-1.582.043-.002zm0 10.55v-4c-.52-.518-1.04-1.054-1.69-1.604v5.728c0 .908.803 1.67 1.725 1.67h5.415c-.483-.512-1.008-1.152-1.577-1.793h-3.873zm22.548-16.99c-.26-.23-.438-.358-.533-.385-.096-.028-.173-.04-.226-.04l-.432.283c-.316.175-.843.574-1.583 1.195l-2.695 2.25c-1.055.877-2.468 2.14-4.235 3.788-1.768 1.65-3.68 3.486-5.737 5.51l-5.88-5.064-2.2 2.168c4.385 4.323 7.566 7.7 9.54 10.13l2.365-3.626c4.797-7.132 8.908-12.197 12.337-15.195-.22-.446-.46-.783-.722-1.013zm-9.288 16.99H30c-.002 0-.005.043-.008.047l-1.118 1.748h2.22c.92 0 1.61-.763 1.61-1.67V24.5c-.52.733-1.04 1.495-1.56 2.284v1.655z"/>
  </g>
</svg>
