<svg width="12" height="12" viewBox="0 0 12 12" xmlns="http://www.w3.org/2000/svg"><title>icon-list-view</title><path d="M1.95 7H.052L0 6.948V5.05L.054 5H1.95l.05.05V6.95L1.95 7zm0-5H.052L0 1.948V.05L.054 0H1.95L2 .05V1.95L1.95 2zm0 10H.052L0 11.948V10.05L.054 10H1.95l.05.05v1.898L1.95 12zm9.844-10H4.207C4.097 2 4 1.976 4 1.948V.05c0-.027.097-.05.207-.05h7.587c.11 0 .207.023.207.05V1.95c0 .028-.096.052-.206.052zm0 5H4.207C4.097 7 4 6.976 4 6.948V5.05c0-.027.097-.05.207-.05h7.587c.11 0 .207.023.207.05V6.95c0 .028-.096.052-.206.052zm0 5H4.207c-.11 0-.207-.024-.207-.052V10.05c0-.027.097-.05.207-.05h7.587c.11 0 .207.023.207.05v1.898c0 .028-.096.052-.206.052z" fill="#57626C" fill-rule="evenodd"></path></svg>