<svg width="12" height="12" viewBox="0 0 12 12" xmlns="http://www.w3.org/2000/svg" xmlns:sketch="http://www.bohemiancoding.com/sketch/ns"><title>Fill 205</title><desc>Created with Sketch.</desc><path d="M1.273 12h9.454c.588 0 .972-.169 1.163-.491.192-.337.133-.729-.177-1.192l-4.138-6.21v-3.112h.53c.133 0 .251-.056.354-.154.103-.098.162-.21.162-.35 0-.126-.059-.239-.162-.337-.103-.098-.221-.154-.368-.154h-4.182c-.147 0-.265.056-.368.154-.103.098-.162.21-.162.337 0 .14.059.252.162.35.103.098.221.154.368.154h.516v3.112l-4.138 6.21c-.31.463-.369.855-.177 1.192.192.322.575.491 1.163.491zm4.035-7.36l.161-.239v-3.406h1.061v3.406l.161.239 2.238 3.35h-5.86l2.238-3.35z" fill="#57626C" sketch:type="MSShapeGroup"></path></svg>