<svg width="200" height="14" viewBox="0 0 200 14" xmlns="http://www.w3.org/2000/svg"><title>API browser logo</title><g fill="none" fill-rule="evenodd"><path d="M70.3 0h-6.2c-.6 0-1.1.2-1.5.6-.4.4-.6.9-.6 1.5v8.8c0 .6.2 1.1.6 1.5.4.4.9.6 1.5.6h6.2c.6 0 1.1-.2 1.5-.6.4-.4.6-.9.6-1.5v-.6h-7.7V2.7h7.7v-.6c0-.6-.2-1.1-.6-1.5-.4-.4-.9-.6-1.5-.6zM82 0h-6.2c-.6 0-1.1.2-1.5.6-.4.4-.6.9-.6 1.5v.6h7.8v2.5h-5.6c-.6 0-1.1.2-1.5.6-.4.4-.6.9-.6 1.5v3.6c0 .6.2 1.1.6 1.5.4.4.9.6 1.5.6H82c.6 0 1.1-.2 1.5-.6.4-.4.6-.9.6-1.5V2.1c0-.6-.2-1.1-.6-1.5-.4-.4-.9-.6-1.5-.6zm-.6 10.3h-5V7.8h5v2.5zm9.2 0H88V2.1c0-.6-.2-1.1-.6-1.5-.4-.4-.9-.6-1.5-.6h-.6v10.9c0 .6.2 1.1.6 1.5.4.4.9.6 1.5.6H91c.6 0 1.1-.2 1.5-.6.4-.4.6-.9.6-1.5v-.6h-2.5zm12.2-2.5c.6 0 1.1-.2 1.5-.6.4-.4.6-.9.6-1.5V2.1c0-.6-.2-1.1-.6-1.5-.4-.4-.9-.6-1.5-.6h-6.2c-.6 0-1.1.2-1.5.6-.4.4-.6.9-.6 1.5v8.8c0 .6.2 1.1.6 1.5.4.4.9.6 1.5.6h6.2c.6 0 1.1-.2 1.5-.6.4-.4.6-.9.6-1.5v-.6h-7.8V7.8h5.7zm-5.7-5.1h5v2.5h-5V2.7zM58.7 0h-6.2c-.6 0-1.1.2-1.5.6-.4.4-.6.9-.6 1.5v3.6c0 .6.2 1.1.6 1.5.4.4.9.6 1.5.6h5.6v2.5h-7.7v.6c0 .6.2 1.1.6 1.5.4.4.9.6 1.5.6h6.2c.6 0 1.1-.2 1.5-.6.4-.4.6-.9.6-1.5V7.3c0-.6-.2-1.1-.6-1.5-.4-.4-.9-.6-1.5-.6h-5.6V2.7h7.8v-.6c0-.6-.2-1.1-.6-1.5-.5-.4-1.1-.6-1.6-.6zM8.3 0H0v13h2.7v-2.6h5v.5c0 .6.2 1.1.6 1.5.5.4 1 .6 1.5.6h.6V9.9c0-.6-.2-1.1-.6-1.5-.3-.3-.6-.5-1-.6.4-.1.7-.3 1-.6.4-.4.6-.9.6-1.5V2.1c0-.6-.2-1.1-.6-1.5C9.4.2 8.9 0 8.3 0zm-.6 7.7h-5v-5h5v5zm4.5-4.6h-.6V13h2.7V5.3c0-.6-.2-1.1-.6-1.5-.4-.5-.9-.7-1.5-.7zm4-2.5c-.4.4-.6.9-.6 1.5v8.8c0 .6.2 1.1.6 1.5.4.4.9.6 1.5.6h6.2c.6 0 1.1-.2 1.5-.6.4-.4.6-.9.6-1.5V5.2h-2.7v5.2h-5V2.7H26V0h-8.3c-.6 0-1.1.2-1.5.6zM35 5.2h-5V0h-2.7v13H30V7.8h5V13h2.7V0H35v5.2zM38.9 0v2.7h2.6V13h.6c.6 0 1.1-.2 1.5-.6.4-.4.6-.9.6-1.5V2.7h2.6V0h-7.9z" opacity=".25" fill="#000"/><path d="M70.3 1h-6.2c-.6 0-1.1.2-1.5.6-.4.4-.6.9-.6 1.5v8.8c0 .6.2 1.1.6 1.5.4.4.9.6 1.5.6h6.2c.6 0 1.1-.2 1.5-.6.4-.4.6-.9.6-1.5v-.6h-7.7V3.7h7.7v-.6c0-.6-.2-1.1-.6-1.5-.4-.4-.9-.6-1.5-.6zM82 1h-6.2c-.6 0-1.1.2-1.5.6-.4.4-.6.9-.6 1.5v.6h7.8v2.5h-5.6c-.6 0-1.1.2-1.5.6-.4.4-.6.9-.6 1.5v3.6c0 .6.2 1.1.6 1.5.4.4.9.6 1.5.6H82c.6 0 1.1-.2 1.5-.6.4-.4.6-.9.6-1.5V3.1c0-.6-.2-1.1-.6-1.5-.4-.4-.9-.6-1.5-.6zm-.6 10.3h-5V8.8h5v2.5zm9.2 0H88V3.1c0-.6-.2-1.1-.6-1.5-.4-.4-.9-.6-1.5-.6h-.6v10.9c0 .6.2 1.1.6 1.5.4.4.9.6 1.5.6H91c.6 0 1.1-.2 1.5-.6.4-.4.6-.9.6-1.5v-.6h-2.5zm12.2-2.5c.6 0 1.1-.2 1.5-.6.4-.4.6-.9.6-1.5V3.1c0-.6-.2-1.1-.6-1.5-.4-.4-.9-.6-1.5-.6h-6.2c-.6 0-1.1.2-1.5.6-.4.4-.6.9-.6 1.5v8.8c0 .6.2 1.1.6 1.5.4.4.9.6 1.5.6h6.2c.6 0 1.1-.2 1.5-.6.4-.4.6-.9.6-1.5v-.6h-7.8V8.8h5.7zm-5.7-5.1h5v2.5h-5V3.7zM58.7 1h-6.2c-.6 0-1.1.2-1.5.6-.4.4-.6.9-.6 1.5v3.6c0 .6.2 1.1.6 1.5.4.4.9.6 1.5.6h5.6v2.5h-7.7v.6c0 .6.2 1.1.6 1.5.4.4.9.6 1.5.6h6.2c.6 0 1.1-.2 1.5-.6.4-.4.6-.9.6-1.5V8.3c0-.6-.2-1.1-.6-1.5-.4-.4-.9-.6-1.5-.6h-5.6V3.7h7.8v-.6c0-.6-.2-1.1-.6-1.5-.5-.4-1.1-.6-1.6-.6zM8.3 1H0v13h2.7v-2.6h5v.5c0 .6.2 1.1.6 1.5.5.4 1 .6 1.5.6h.6v-3.1c0-.6-.2-1.1-.6-1.5-.3-.3-.6-.5-1-.6.4-.1.7-.3 1-.6.4-.4.6-.9.6-1.5V3.1c0-.6-.2-1.1-.6-1.5-.4-.4-.9-.6-1.5-.6zm-.6 7.7h-5v-5h5v5zm4.5-4.6h-.6V14h2.7V6.3c0-.6-.2-1.1-.6-1.5-.4-.5-.9-.7-1.5-.7zm4-2.5c-.4.4-.6.9-.6 1.5v8.8c0 .6.2 1.1.6 1.5.4.4.9.6 1.5.6h6.2c.6 0 1.1-.2 1.5-.6.4-.4.6-.9.6-1.5V6.2h-2.7v5.2h-5V3.7H26V1h-8.3c-.6 0-1.1.2-1.5.6zM35 6.2h-5V1h-2.7v13H30V8.8h5V14h2.7V1H35v5.2zM38.9 1v2.7h2.6V14h.6c.6 0 1.1-.2 1.5-.6.4-.4.6-.9.6-1.5V3.7h2.6V1h-7.9z" fill="#fff"/><path d="M11.7 1.6c0 .6.2 1.1.6 1.5.4.4.9.6 1.5.6h.6V1h-2.7v.6z" fill="#F3A02D"/><g><path d="M114.216 7.28l1.936-5.328h.032l1.904 5.328h-3.872zm1.136-6.704L110.904 12h1.552l1.28-3.44h4.832l1.248 3.44h1.68L117.032.576h-1.68zm8.784 5.472V1.856h2.976c.864 0 1.496.18 1.896.536.4.357.6.877.6 1.56s-.2 1.205-.6 1.568c-.4.363-1.032.54-1.896.528h-2.976zm-1.52-5.472V12h1.52V7.328h3.488c1.152.01 2.024-.283 2.616-.88.592-.597.888-1.43.888-2.496 0-1.067-.296-1.896-.888-2.488-.592-.592-1.464-.888-2.616-.888h-5.008zm10.432 0V12h1.52V.576h-1.52zm10.048 4.912V1.856h3.04c.33 0 .643.02.936.056.293.037.552.12.776.248.224.128.4.31.528.544.128.235.192.555.192.96 0 .608-.19 1.064-.568 1.368-.38.304-1 .456-1.864.456h-3.04zm-1.52-4.912V12h5.52c.565 0 1.064-.093 1.496-.28.432-.187.795-.432 1.088-.736.293-.304.515-.653.664-1.048.15-.395.224-.8.224-1.216 0-.704-.187-1.3-.56-1.792-.373-.49-.912-.81-1.616-.96v-.032c.544-.213.963-.54 1.256-.984.293-.443.44-.968.44-1.576 0-.576-.13-1.06-.392-1.456-.26-.395-.58-.704-.952-.928-.17-.107-.376-.187-.616-.24-.24-.053-.5-.093-.776-.12-.277-.027-.557-.043-.84-.048-.283-.005-.547-.008-.792-.008h-4.144zm1.52 10.144V6.768h3.472c.32 0 .63.03.928.088.3.06.563.16.792.304.23.144.413.34.552.584.14.245.208.555.208.928 0 .64-.19 1.14-.568 1.504-.38.363-.904.544-1.576.544h-3.808zm9.168-6.992V12h1.36V8.32c0-.533.053-1.005.16-1.416.107-.41.277-.76.512-1.048.235-.288.544-.507.928-.656.384-.15.848-.224 1.392-.224v-1.44c-.736-.02-1.344.128-1.824.448s-.885.816-1.216 1.488h-.032V3.728h-1.28zm6.08 4.144c0-.5.067-.947.2-1.336.133-.39.317-.717.552-.984.235-.267.51-.47.824-.608.315-.14.648-.208 1-.208s.685.07 1 .208c.315.14.59.34.824.608.235.267.42.595.552.984.133.39.2.835.2 1.336 0 .5-.067.947-.2 1.336-.133.39-.317.715-.552.976-.235.26-.51.46-.824.6-.315.14-.648.208-1 .208s-.685-.07-1-.208c-.315-.14-.59-.34-.824-.6-.235-.26-.42-.587-.552-.976-.133-.39-.2-.835-.2-1.336zm-1.44 0c0 .608.085 1.173.256 1.696.17.523.427.98.768 1.368.34.39.763.693 1.264.912.5.22 1.077.328 1.728.328.66 0 1.24-.11 1.736-.328.496-.22.915-.523 1.256-.912.34-.39.597-.845.768-1.368.17-.523.256-1.088.256-1.696 0-.608-.085-1.176-.256-1.704-.17-.528-.427-.987-.768-1.376-.34-.39-.76-.696-1.256-.92-.496-.224-1.075-.336-1.736-.336-.65 0-1.227.112-1.728.336-.5.224-.923.53-1.264.92-.34.39-.597.848-.768 1.376-.17.528-.256 1.096-.256 1.704zM174.728 12l2.64-8.272h-1.408l-1.856 6.768h-.032l-1.728-6.768h-1.488l-1.664 6.768h-.032l-1.872-6.768h-1.504L168.44 12h1.472l1.664-6.576h.032l1.68 6.576h1.44zm4.768-2.608h-1.36c.02.512.128.947.32 1.304.192.357.448.645.768.864.32.22.688.376 1.104.472.416.096.853.144 1.312.144.416 0 .835-.04 1.256-.12.42-.08.8-.22 1.136-.424.336-.203.608-.47.816-.8.208-.33.312-.747.312-1.248 0-.395-.077-.725-.232-.992-.155-.267-.357-.488-.608-.664-.25-.176-.54-.317-.864-.424-.325-.107-.66-.197-1-.272-.32-.075-.64-.147-.96-.216-.32-.07-.608-.155-.864-.256-.256-.1-.467-.23-.632-.384-.165-.155-.248-.35-.248-.584 0-.213.053-.387.16-.52.107-.133.245-.24.416-.32.17-.08.36-.136.568-.168.208-.032.413-.048.616-.048.224 0 .445.024.664.072.22.048.42.125.6.232.18.107.33.248.448.424.117.176.187.397.208.664h1.36c-.032-.5-.14-.92-.32-1.256-.18-.336-.424-.603-.728-.8-.304-.197-.653-.336-1.048-.416-.395-.08-.827-.12-1.296-.12-.363 0-.728.045-1.096.136-.368.09-.7.23-.992.416-.293.187-.533.43-.72.728-.187.3-.28.656-.28 1.072 0 .533.133.95.4 1.248.267.3.6.53 1 .696.4.165.835.293 1.304.384.47.09.904.192 1.304.304.4.112.733.26 1 .44s.4.448.4.8c0 .256-.064.467-.192.632-.128.165-.29.29-.488.376-.197.085-.413.144-.648.176-.235.032-.46.048-.672.048-.277 0-.547-.027-.808-.08-.26-.053-.496-.14-.704-.264-.208-.123-.376-.288-.504-.496-.128-.208-.197-.46-.208-.76zm12.912-2.32h-4.752c.02-.32.09-.62.208-.904.117-.283.277-.53.48-.744.203-.213.445-.38.728-.504.283-.123.6-.184.952-.184.34 0 .653.06.936.184.283.123.528.288.736.496.208.208.373.456.496.744s.195.592.216.912zm1.312 2.304h-1.344c-.117.544-.36.95-.728 1.216-.368.267-.84.4-1.416.4-.448 0-.837-.075-1.168-.224-.33-.15-.603-.35-.816-.6-.213-.25-.368-.54-.464-.864-.096-.325-.14-.67-.128-1.032h6.192c.02-.5-.024-1.03-.136-1.584-.112-.555-.315-1.067-.608-1.536-.293-.47-.683-.856-1.168-1.16-.485-.304-1.096-.456-1.832-.456-.565 0-1.085.107-1.56.32-.475.213-.885.512-1.232.896s-.616.837-.808 1.36c-.192.523-.288 1.1-.288 1.728.02.63.115 1.21.28 1.744.165.533.413.992.744 1.376.33.384.74.683 1.224.896.485.213 1.06.32 1.72.32.94 0 1.717-.235 2.336-.704.62-.47 1.02-1.168 1.2-2.096zm1.488-5.648V12h1.36V8.32c0-.533.053-1.005.16-1.416.107-.41.277-.76.512-1.048.235-.288.544-.507.928-.656.384-.15.848-.224 1.392-.224v-1.44c-.736-.02-1.344.128-1.824.448s-.885.816-1.216 1.488h-.032V3.728h-1.28z" fill-opacity=".25" fill="#000"/><path d="M114.216 8.28l1.936-5.328h.032l1.904 5.328h-3.872zm1.136-6.704L110.904 13h1.552l1.28-3.44h4.832l1.248 3.44h1.68l-4.464-11.424h-1.68zm8.784 5.472V2.856h2.976c.864 0 1.496.18 1.896.536.4.357.6.877.6 1.56s-.2 1.205-.6 1.568c-.4.363-1.032.54-1.896.528h-2.976zm-1.52-5.472V13h1.52V8.328h3.488c1.152.01 2.024-.283 2.616-.88.592-.597.888-1.43.888-2.496 0-1.067-.296-1.896-.888-2.488-.592-.592-1.464-.888-2.616-.888h-5.008zm10.432 0V13h1.52V1.576h-1.52zm10.048 4.912V2.856h3.04c.33 0 .643.02.936.056.293.037.552.12.776.248.224.128.4.31.528.544.128.235.192.555.192.96 0 .608-.19 1.064-.568 1.368-.38.304-1 .456-1.864.456h-3.04zm-1.52-4.912V13h5.52c.565 0 1.064-.093 1.496-.28.432-.187.795-.432 1.088-.736.293-.304.515-.653.664-1.048.15-.395.224-.8.224-1.216 0-.704-.187-1.3-.56-1.792-.373-.49-.912-.81-1.616-.96v-.032c.544-.213.963-.54 1.256-.984.293-.443.44-.968.44-1.576 0-.576-.13-1.06-.392-1.456-.26-.395-.58-.704-.952-.928-.17-.107-.376-.187-.616-.24-.24-.053-.5-.093-.776-.12-.277-.027-.557-.043-.84-.048-.283-.005-.547-.008-.792-.008h-4.144zm1.52 10.144V7.768h3.472c.32 0 .63.03.928.088.3.06.563.16.792.304.23.144.413.34.552.584.14.245.208.555.208.928 0 .64-.19 1.14-.568 1.504-.38.363-.904.544-1.576.544h-3.808zm9.168-6.992V13h1.36V9.32c0-.533.053-1.005.16-1.416.107-.41.277-.76.512-1.048.235-.288.544-.507.928-.656.384-.15.848-.224 1.392-.224v-1.44c-.736-.02-1.344.128-1.824.448s-.885.816-1.216 1.488h-.032V4.728h-1.28zm6.08 4.144c0-.5.067-.947.2-1.336.133-.39.317-.717.552-.984.235-.267.51-.47.824-.608.315-.14.648-.208 1-.208s.685.07 1 .208c.315.14.59.34.824.608.235.267.42.595.552.984.133.39.2.835.2 1.336 0 .5-.067.947-.2 1.336-.133.39-.317.715-.552.976-.235.26-.51.46-.824.6-.315.14-.648.208-1 .208s-.685-.07-1-.208c-.315-.14-.59-.34-.824-.6-.235-.26-.42-.587-.552-.976-.133-.39-.2-.835-.2-1.336zm-1.44 0c0 .608.085 1.173.256 1.696.17.523.427.98.768 1.368.34.39.763.693 1.264.912.5.22 1.077.328 1.728.328.66 0 1.24-.11 1.736-.328.496-.22.915-.523 1.256-.912.34-.39.597-.845.768-1.368.17-.523.256-1.088.256-1.696 0-.608-.085-1.176-.256-1.704-.17-.528-.427-.987-.768-1.376-.34-.39-.76-.696-1.256-.92-.496-.224-1.075-.336-1.736-.336-.65 0-1.227.112-1.728.336-.5.224-.923.53-1.264.92-.34.39-.597.848-.768 1.376-.17.528-.256 1.096-.256 1.704zM174.728 13l2.64-8.272h-1.408l-1.856 6.768h-.032l-1.728-6.768h-1.488l-1.664 6.768h-.032l-1.872-6.768h-1.504L168.44 13h1.472l1.664-6.576h.032l1.68 6.576h1.44zm4.768-2.608h-1.36c.02.512.128.947.32 1.304.192.357.448.645.768.864.32.22.688.376 1.104.472.416.096.853.144 1.312.144.416 0 .835-.04 1.256-.12.42-.08.8-.22 1.136-.424.336-.203.608-.47.816-.8.208-.33.312-.747.312-1.248 0-.395-.077-.725-.232-.992-.155-.267-.357-.488-.608-.664-.25-.176-.54-.317-.864-.424-.325-.107-.66-.197-1-.272-.32-.075-.64-.147-.96-.216-.32-.07-.608-.155-.864-.256-.256-.1-.467-.23-.632-.384-.165-.155-.248-.35-.248-.584 0-.213.053-.387.16-.52.107-.133.245-.24.416-.32.17-.08.36-.136.568-.168.208-.032.413-.048.616-.048.224 0 .445.024.664.072.22.048.42.125.6.232.18.107.33.248.448.424.117.176.187.397.208.664h1.36c-.032-.5-.14-.92-.32-1.256-.18-.336-.424-.603-.728-.8-.304-.197-.653-.336-1.048-.416-.395-.08-.827-.12-1.296-.12-.363 0-.728.045-1.096.136-.368.09-.7.23-.992.416-.293.187-.533.43-.72.728-.187.3-.28.656-.28 1.072 0 .533.133.95.4 1.248.267.3.6.53 1 .696.4.165.835.293 1.304.384.47.09.904.192 1.304.304.4.112.733.26 1 .44s.4.448.4.8c0 .256-.064.467-.192.632-.128.165-.29.29-.488.376-.197.085-.413.144-.648.176-.235.032-.46.048-.672.048-.277 0-.547-.027-.808-.08-.26-.053-.496-.14-.704-.264-.208-.123-.376-.288-.504-.496-.128-.208-.197-.46-.208-.76zm12.912-2.32h-4.752c.02-.32.09-.62.208-.904.117-.283.277-.53.48-.744.203-.213.445-.38.728-.504.283-.123.6-.184.952-.184.34 0 .653.06.936.184.283.123.528.288.736.496.208.208.373.456.496.744s.195.592.216.912zm1.312 2.304h-1.344c-.117.544-.36.95-.728 1.216-.368.267-.84.4-1.416.4-.448 0-.837-.075-1.168-.224-.33-.15-.603-.35-.816-.6-.213-.25-.368-.54-.464-.864-.096-.325-.14-.67-.128-1.032h6.192c.02-.5-.024-1.03-.136-1.584-.112-.555-.315-1.067-.608-1.536-.293-.47-.683-.856-1.168-1.16-.485-.304-1.096-.456-1.832-.456-.565 0-1.085.107-1.56.32-.475.213-.885.512-1.232.896s-.616.837-.808 1.36c-.192.523-.288 1.1-.288 1.728.02.63.115 1.21.28 1.744.165.533.413.992.744 1.376.33.384.74.683 1.224.896.485.213 1.06.32 1.72.32.94 0 1.717-.235 2.336-.704.62-.47 1.02-1.168 1.2-2.096zm1.488-5.648V13h1.36V9.32c0-.533.053-1.005.16-1.416.107-.41.277-.76.512-1.048.235-.288.544-.507.928-.656.384-.15.848-.224 1.392-.224v-1.44c-.736-.02-1.344.128-1.824.448s-.885.816-1.216 1.488h-.032V4.728h-1.28z" fill="#fff"/></g></g></svg>