<svg width="252" height="17" viewBox="0 0 252 17" xmlns="http://www.w3.org/2000/svg"><title>CM logo</title><g fill="none" fill-rule="evenodd"><path d="M120.28 4.016h1.52c-.085-.608-.267-1.144-.544-1.608-.277-.464-.624-.85-1.04-1.16-.416-.31-.89-.544-1.424-.704-.533-.16-1.1-.24-1.696-.24-.875 0-1.65.157-2.328.472-.677.315-1.243.744-1.696 1.288-.453.544-.797 1.18-1.032 1.912-.235.73-.352 1.512-.352 2.344 0 .832.11 1.61.328 2.336.22.725.547 1.355.984 1.888.437.533.987.952 1.648 1.256.66.304 1.435.456 2.32.456 1.46 0 2.613-.4 3.456-1.2.843-.8 1.34-1.92 1.488-3.36h-1.52c-.032.47-.128.907-.288 1.312-.16.405-.38.755-.664 1.048-.283.293-.62.523-1.008.688-.39.165-.835.248-1.336.248-.683 0-1.27-.128-1.76-.384s-.893-.6-1.208-1.032c-.315-.432-.547-.94-.696-1.52-.15-.58-.224-1.197-.224-1.848 0-.597.075-1.173.224-1.728.15-.555.38-1.048.696-1.48.315-.432.715-.776 1.2-1.032s1.07-.384 1.752-.384c.8 0 1.49.203 2.072.608.58.405.957 1.013 1.128 1.824zm3.376-3.44V12h1.36V.576h-1.36zm4.464 7.296c0-.5.067-.947.2-1.336.133-.39.317-.717.552-.984.235-.267.51-.47.824-.608.315-.14.648-.208 1-.208s.685.07 1 .208c.315.14.59.34.824.608.235.267.42.595.552.984.133.39.2.835.2 1.336 0 .5-.067.947-.2 1.336-.133.39-.317.715-.552.976-.235.26-.51.46-.824.6-.315.14-.648.208-1 .208s-.685-.07-1-.208c-.315-.14-.59-.34-.824-.6-.235-.26-.42-.587-.552-.976-.133-.39-.2-.835-.2-1.336zm-1.44 0c0 .608.085 1.173.256 1.696.17.523.427.98.768 1.368.34.39.763.693 1.264.912.5.22 1.077.328 1.728.328.66 0 1.24-.11 1.736-.328.496-.22.915-.523 1.256-.912.34-.39.597-.845.768-1.368.17-.523.256-1.088.256-1.696 0-.608-.085-1.176-.256-1.704-.17-.528-.427-.987-.768-1.376-.34-.39-.76-.696-1.256-.92-.496-.224-1.075-.336-1.736-.336-.65 0-1.227.112-1.728.336-.5.224-.923.53-1.264.92-.34.39-.597.848-.768 1.376-.17.528-.256 1.096-.256 1.704zM143.16 12V3.728h-1.36V8.4c0 .373-.05.717-.152 1.032-.1.315-.253.59-.456.824-.203.235-.456.416-.76.544-.304.128-.664.192-1.08.192-.523 0-.933-.15-1.232-.448-.3-.3-.448-.704-.448-1.216v-5.6h-1.36v5.44c0 .448.045.856.136 1.224.09.368.248.685.472.952.224.267.517.472.88.616.363.144.816.216 1.36.216.608 0 1.136-.12 1.584-.36.448-.24.816-.616 1.104-1.128h.032V12h1.28zm3.04-4.064c0-.405.043-.8.128-1.184.085-.384.224-.725.416-1.024.192-.3.448-.54.768-.72.32-.18.71-.272 1.168-.272.47 0 .87.088 1.2.264.33.176.6.408.808.696.208.288.36.62.456 1 .096.38.144.77.144 1.176 0 .384-.045.763-.136 1.136-.09.373-.237.707-.44 1-.203.293-.464.53-.784.712-.32.18-.71.272-1.168.272-.437 0-.82-.085-1.144-.256-.325-.17-.592-.4-.8-.688-.208-.288-.363-.616-.464-.984-.1-.368-.152-.744-.152-1.128zM152.6 12V.576h-1.36v4.256h-.032c-.15-.245-.333-.45-.552-.616-.22-.165-.45-.3-.696-.4-.245-.1-.49-.173-.736-.216-.245-.043-.475-.064-.688-.064-.63 0-1.18.115-1.656.344-.475.23-.87.54-1.184.928-.315.39-.55.845-.704 1.368-.155.523-.232 1.077-.232 1.664s.08 1.14.24 1.664c.16.523.397.98.712 1.376.315.395.71.71 1.184.944.475.235 1.032.352 1.672.352.576 0 1.104-.1 1.584-.304.48-.203.832-.533 1.056-.992h.032V12h1.36zM159.4.576V12h1.44V2.496h.032L164.44 12h1.296l3.568-9.504h.032V12h1.44V.576h-2.08l-3.616 9.6-3.6-9.6h-2.08zm21.008 11.392c-.235.14-.56.208-.976.208-.352 0-.632-.1-.84-.296-.208-.197-.312-.52-.312-.968-.373.448-.808.77-1.304.968-.496.197-1.032.296-1.608.296-.373 0-.728-.043-1.064-.128-.336-.085-.627-.22-.872-.4-.245-.18-.44-.42-.584-.712-.144-.293-.216-.648-.216-1.064 0-.47.08-.853.24-1.152.16-.3.37-.54.632-.728.26-.187.56-.328.896-.424.336-.096.68-.176 1.032-.24.373-.075.728-.13 1.064-.168.336-.037.632-.09.888-.16s.46-.17.608-.304c.15-.133.224-.328.224-.584 0-.3-.056-.54-.168-.72-.112-.18-.256-.32-.432-.416-.176-.096-.373-.16-.592-.192-.22-.032-.435-.048-.648-.048-.576 0-1.056.11-1.44.328-.384.22-.592.632-.624 1.24h-1.36c.02-.512.128-.944.32-1.296.192-.352.448-.637.768-.856.32-.22.685-.376 1.096-.472.41-.096.85-.144 1.32-.144.373 0 .744.027 1.112.08.368.053.7.163 1 .328.3.165.54.397.72.696.18.3.272.688.272 1.168v4.256c0 .32.02.555.056.704.037.15.163.224.376.224.117 0 .256-.027.416-.08v1.056zm-2.208-4.24c-.17.128-.395.22-.672.28-.277.06-.568.107-.872.144-.304.037-.61.08-.92.128-.31.048-.587.125-.832.232-.245.107-.445.26-.6.456-.155.197-.232.467-.232.808 0 .224.045.413.136.568.09.155.208.28.352.376.144.096.312.165.504.208.192.043.395.064.608.064.448 0 .832-.06 1.152-.184.32-.123.58-.277.784-.464.203-.187.352-.39.448-.608.096-.22.144-.424.144-.616V7.728zm3.472-4V12h1.36V7.328c0-.373.05-.717.152-1.032.1-.315.253-.59.456-.824.203-.235.456-.416.76-.544.304-.128.664-.192 1.08-.192.523 0 .933.15 1.232.448.3.3.448.704.448 1.216V12h1.36V6.56c0-.448-.045-.856-.136-1.224-.09-.368-.248-.685-.472-.952-.224-.267-.517-.475-.88-.624-.363-.15-.816-.224-1.36-.224-1.227 0-2.123.5-2.688 1.504h-.032V3.728h-1.28zm16.224 8.24c-.235.14-.56.208-.976.208-.352 0-.632-.1-.84-.296-.208-.197-.312-.52-.312-.968-.373.448-.808.77-1.304.968-.496.197-1.032.296-1.608.296-.373 0-.728-.043-1.064-.128-.336-.085-.627-.22-.872-.4-.245-.18-.44-.42-.584-.712-.144-.293-.216-.648-.216-1.064 0-.47.08-.853.24-1.152.16-.3.37-.54.632-.728.26-.187.56-.328.896-.424.336-.096.68-.176 1.032-.24.373-.075.728-.13 1.064-.168.336-.037.632-.09.888-.16s.46-.17.608-.304c.15-.133.224-.328.224-.584 0-.3-.056-.54-.168-.72-.112-.18-.256-.32-.432-.416-.176-.096-.373-.16-.592-.192-.22-.032-.435-.048-.648-.048-.576 0-1.056.11-1.44.328-.384.22-.592.632-.624 1.24h-1.36c.02-.512.128-.944.32-1.296.192-.352.448-.637.768-.856.32-.22.685-.376 1.096-.472.41-.096.85-.144 1.32-.144.373 0 .744.027 1.112.08.368.053.7.163 1 .328.3.165.54.397.72.696.18.3.272.688.272 1.168v4.256c0 .32.02.555.056.704.037.15.163.224.376.224.117 0 .256-.027.416-.08v1.056zm-2.208-4.24c-.17.128-.395.22-.672.28-.277.06-.568.107-.872.144-.304.037-.61.08-.92.128-.31.048-.587.125-.832.232-.245.107-.445.26-.6.456-.155.197-.232.467-.232.808 0 .224.045.413.136.568.09.155.208.28.352.376.144.096.312.165.504.208.192.043.395.064.608.064.448 0 .832-.06 1.152-.184.32-.123.58-.277.784-.464.203-.187.352-.39.448-.608.096-.22.144-.424.144-.616V7.728zm10.608 3.568V3.728h-1.28v1.184H205c-.245-.46-.587-.803-1.024-1.032-.437-.23-.917-.344-1.44-.344-.715 0-1.317.136-1.808.408-.49.272-.885.62-1.184 1.04-.3.42-.512.89-.64 1.408-.128.517-.192 1.02-.192 1.512 0 .565.077 1.1.232 1.608.155.507.387.95.696 1.328.31.38.693.68 1.152.904.46.224.997.336 1.616.336.533 0 1.037-.12 1.512-.36.475-.24.83-.616 1.064-1.128h.032v.544c0 .46-.045.88-.136 1.264-.09.384-.237.712-.44.984s-.46.485-.768.64c-.31.155-.688.232-1.136.232-.224 0-.46-.024-.704-.072-.245-.048-.472-.125-.68-.232-.208-.107-.384-.245-.528-.416-.144-.17-.22-.38-.232-.624h-1.36c.02.448.14.827.352 1.136.213.31.483.56.808.752.325.192.688.33 1.088.416.4.085.792.128 1.176.128 1.323 0 2.293-.336 2.912-1.008.62-.672.928-1.685.928-3.04zm-3.808-.4c-.448 0-.82-.093-1.12-.28-.3-.187-.54-.432-.72-.736-.18-.304-.31-.643-.384-1.016-.075-.373-.112-.747-.112-1.12 0-.395.045-.773.136-1.136.09-.363.235-.683.432-.96.197-.277.45-.5.76-.664.31-.165.683-.248 1.12-.248.427 0 .79.085 1.088.256.3.17.54.397.728.68.187.283.323.6.408.952.085.352.128.71.128 1.072 0 .384-.045.768-.136 1.152-.09.384-.232.728-.424 1.032-.192.304-.445.55-.76.736-.315.187-.696.28-1.144.28zm11.6-3.824h-4.752c.02-.32.09-.62.208-.904.117-.283.277-.53.48-.744.203-.213.445-.38.728-.504.283-.123.6-.184.952-.184.34 0 .653.06.936.184.283.123.528.288.736.496.208.208.373.456.496.744s.195.592.216.912zm1.312 2.304h-1.344c-.117.544-.36.95-.728 1.216-.368.267-.84.4-1.416.4-.448 0-.837-.075-1.168-.224-.33-.15-.603-.35-.816-.6-.213-.25-.368-.54-.464-.864-.096-.325-.14-.67-.128-1.032h6.192c.02-.5-.024-1.03-.136-1.584-.112-.555-.315-1.067-.608-1.536-.293-.47-.683-.856-1.168-1.16-.485-.304-1.096-.456-1.832-.456-.565 0-1.085.107-1.56.32-.475.213-.885.512-1.232.896s-.616.837-.808 1.36c-.192.523-.288 1.1-.288 1.728.02.63.115 1.21.28 1.744.165.533.413.992.744 1.376.33.384.74.683 1.224.896.485.213 1.06.32 1.72.32.94 0 1.717-.235 2.336-.704.62-.47 1.02-1.168 1.2-2.096zm1.536-5.648V12h1.36V6.848c0-.16.04-.36.12-.6.08-.24.208-.472.384-.696.176-.224.405-.416.688-.576.283-.16.62-.24 1.016-.24.31 0 .563.045.76.136.197.09.355.22.472.384.117.165.2.36.248.584.048.224.072.47.072.736V12h1.36V6.848c0-.64.192-1.152.576-1.536.384-.384.912-.576 1.584-.576.33 0 .6.048.808.144.208.096.37.227.488.392.117.165.197.36.24.584.043.224.064.464.064.72V12h1.36V5.936c0-.427-.067-.792-.2-1.096-.133-.304-.32-.552-.56-.744-.24-.192-.528-.333-.864-.424-.336-.09-.712-.136-1.128-.136-.544 0-1.043.123-1.496.368-.453.245-.82.592-1.096 1.04-.17-.512-.464-.875-.88-1.088-.416-.213-.88-.32-1.392-.32-1.163 0-2.053.47-2.672 1.408h-.032V3.728h-1.28zm19.392 3.344h-4.752c.02-.32.09-.62.208-.904.117-.283.277-.53.48-.744.203-.213.445-.38.728-.504.283-.123.6-.184.952-.184.34 0 .653.06.936.184.283.123.528.288.736.496.208.208.373.456.496.744s.195.592.216.912zm1.312 2.304h-1.344c-.117.544-.36.95-.728 1.216-.368.267-.84.4-1.416.4-.448 0-.837-.075-1.168-.224-.33-.15-.603-.35-.816-.6-.213-.25-.368-.54-.464-.864-.096-.325-.14-.67-.128-1.032h6.192c.02-.5-.024-1.03-.136-1.584-.112-.555-.315-1.067-.608-1.536-.293-.47-.683-.856-1.168-1.16-.485-.304-1.096-.456-1.832-.456-.565 0-1.085.107-1.56.32-.475.213-.885.512-1.232.896s-.616.837-.808 1.36c-.192.523-.288 1.1-.288 1.728.02.63.115 1.21.28 1.744.165.533.413.992.744 1.376.33.384.74.683 1.224.896.485.213 1.06.32 1.72.32.94 0 1.717-.235 2.336-.704.62-.47 1.02-1.168 1.2-2.096zm1.536-5.648V12h1.36V7.328c0-.373.05-.717.152-1.032.1-.315.253-.59.456-.824.203-.235.456-.416.76-.544.304-.128.664-.192 1.08-.192.523 0 .933.15 1.232.448.3.3.448.704.448 1.216V12h1.36V6.56c0-.448-.045-.856-.136-1.224-.09-.368-.248-.685-.472-.952-.224-.267-.517-.475-.88-.624-.363-.15-.816-.224-1.36-.224-1.227 0-2.123.5-2.688 1.504h-.032V3.728h-1.28zm10.784 0v-2.48h-1.36v2.48h-1.408v1.2h1.408v5.264c0 .384.037.693.112.928.075.235.19.416.344.544.155.128.357.216.608.264.25.048.552.072.904.072h1.04v-1.2h-.624c-.213 0-.387-.008-.52-.024s-.237-.05-.312-.104c-.075-.053-.125-.128-.152-.224-.027-.096-.04-.224-.04-.384V4.928h1.648v-1.2h-1.648z" fill-opacity=".25" fill="#000"/><path d="M120.28 5.016h1.52c-.085-.608-.267-1.144-.544-1.608-.277-.464-.624-.85-1.04-1.16-.416-.31-.89-.544-1.424-.704-.533-.16-1.1-.24-1.696-.24-.875 0-1.65.157-2.328.472-.677.315-1.243.744-1.696 1.288-.453.544-.797 1.18-1.032 1.912-.235.73-.352 1.512-.352 2.344 0 .832.11 1.61.328 2.336.22.725.547 1.355.984 1.888.437.533.987.952 1.648 1.256.66.304 1.435.456 2.32.456 1.46 0 2.613-.4 3.456-1.2.843-.8 1.34-1.92 1.488-3.36h-1.52c-.032.47-.128.907-.288 1.312-.16.405-.38.755-.664 1.048-.283.293-.62.523-1.008.688-.39.165-.835.248-1.336.248-.683 0-1.27-.128-1.76-.384s-.893-.6-1.208-1.032c-.315-.432-.547-.94-.696-1.52-.15-.58-.224-1.197-.224-1.848 0-.597.075-1.173.224-1.728.15-.555.38-1.048.696-1.48.315-.432.715-.776 1.2-1.032s1.07-.384 1.752-.384c.8 0 1.49.203 2.072.608.58.405.957 1.013 1.128 1.824zm3.376-3.44V13h1.36V1.576h-1.36zm4.464 7.296c0-.5.067-.947.2-1.336.133-.39.317-.717.552-.984.235-.267.51-.47.824-.608.315-.14.648-.208 1-.208s.685.07 1 .208c.315.14.59.34.824.608.235.267.42.595.552.984.133.39.2.835.2 1.336 0 .5-.067.947-.2 1.336-.133.39-.317.715-.552.976-.235.26-.51.46-.824.6-.315.14-.648.208-1 .208s-.685-.07-1-.208c-.315-.14-.59-.34-.824-.6-.235-.26-.42-.587-.552-.976-.133-.39-.2-.835-.2-1.336zm-1.44 0c0 .608.085 1.173.256 1.696.17.523.427.98.768 1.368.34.39.763.693 1.264.912.5.22 1.077.328 1.728.328.66 0 1.24-.11 1.736-.328.496-.22.915-.523 1.256-.912.34-.39.597-.845.768-1.368.17-.523.256-1.088.256-1.696 0-.608-.085-1.176-.256-1.704-.17-.528-.427-.987-.768-1.376-.34-.39-.76-.696-1.256-.92-.496-.224-1.075-.336-1.736-.336-.65 0-1.227.112-1.728.336-.5.224-.923.53-1.264.92-.34.39-.597.848-.768 1.376-.17.528-.256 1.096-.256 1.704zM143.16 13V4.728h-1.36V9.4c0 .373-.05.717-.152 1.032-.1.315-.253.59-.456.824-.203.235-.456.416-.76.544-.304.128-.664.192-1.08.192-.523 0-.933-.15-1.232-.448-.3-.3-.448-.704-.448-1.216v-5.6h-1.36v5.44c0 .448.045.856.136 1.224.09.368.248.685.472.952.224.267.517.472.88.616.363.144.816.216 1.36.216.608 0 1.136-.12 1.584-.36.448-.24.816-.616 1.104-1.128h.032V13h1.28zm3.04-4.064c0-.405.043-.8.128-1.184.085-.384.224-.725.416-1.024.192-.3.448-.54.768-.72.32-.18.71-.272 1.168-.272.47 0 .87.088 1.2.264.33.176.6.408.808.696.208.288.36.62.456 1 .096.38.144.77.144 1.176 0 .384-.045.763-.136 1.136-.09.373-.237.707-.44 1-.203.293-.464.53-.784.712-.32.18-.71.272-1.168.272-.437 0-.82-.085-1.144-.256-.325-.17-.592-.4-.8-.688-.208-.288-.363-.616-.464-.984-.1-.368-.152-.744-.152-1.128zM152.6 13V1.576h-1.36v4.256h-.032c-.15-.245-.333-.45-.552-.616-.22-.165-.45-.3-.696-.4-.245-.1-.49-.173-.736-.216-.245-.043-.475-.064-.688-.064-.63 0-1.18.115-1.656.344-.475.23-.87.54-1.184.928-.315.39-.55.845-.704 1.368-.155.523-.232 1.077-.232 1.664s.08 1.14.24 1.664c.16.523.397.98.712 1.376.315.395.71.71 1.184.944.475.235 1.032.352 1.672.352.576 0 1.104-.1 1.584-.304.48-.203.832-.533 1.056-.992h.032V13h1.36zm6.8-11.424V13h1.44V3.496h.032L164.44 13h1.296l3.568-9.504h.032V13h1.44V1.576h-2.08l-3.616 9.6-3.6-9.6h-2.08zm21.008 11.392c-.235.14-.56.208-.976.208-.352 0-.632-.1-.84-.296-.208-.197-.312-.52-.312-.968-.373.448-.808.77-1.304.968-.496.197-1.032.296-1.608.296-.373 0-.728-.043-1.064-.128-.336-.085-.627-.22-.872-.4-.245-.18-.44-.42-.584-.712-.144-.293-.216-.648-.216-1.064 0-.47.08-.853.24-1.152.16-.3.37-.54.632-.728.26-.187.56-.328.896-.424.336-.096.68-.176 1.032-.24.373-.075.728-.13 1.064-.168.336-.037.632-.09.888-.16s.46-.17.608-.304c.15-.133.224-.328.224-.584 0-.3-.056-.54-.168-.72-.112-.18-.256-.32-.432-.416-.176-.096-.373-.16-.592-.192-.22-.032-.435-.048-.648-.048-.576 0-1.056.11-1.44.328-.384.22-.592.632-.624 1.24h-1.36c.02-.512.128-.944.32-1.296.192-.352.448-.637.768-.856.32-.22.685-.376 1.096-.472.41-.096.85-.144 1.32-.144.373 0 .744.027 1.112.08.368.053.7.163 1 .328.3.165.54.397.72.696.18.3.272.688.272 1.168v4.256c0 .32.02.555.056.704.037.15.163.224.376.224.117 0 .256-.027.416-.08v1.056zm-2.208-4.24c-.17.128-.395.22-.672.28-.277.06-.568.107-.872.144-.304.037-.61.08-.92.128-.31.048-.587.125-.832.232-.245.107-.445.26-.6.456-.155.197-.232.467-.232.808 0 .224.045.413.136.568.09.155.208.28.352.376.144.096.312.165.504.208.192.043.395.064.608.064.448 0 .832-.06 1.152-.184.32-.123.58-.277.784-.464.203-.187.352-.39.448-.608.096-.22.144-.424.144-.616V8.728zm3.472-4V13h1.36V8.328c0-.373.05-.717.152-1.032.1-.315.253-.59.456-.824.203-.235.456-.416.76-.544.304-.128.664-.192 1.08-.192.523 0 .933.15 1.232.448.3.3.448.704.448 1.216V13h1.36V7.56c0-.448-.045-.856-.136-1.224-.09-.368-.248-.685-.472-.952-.224-.267-.517-.475-.88-.624-.363-.15-.816-.224-1.36-.224-1.227 0-2.123.5-2.688 1.504h-.032V4.728h-1.28zm16.224 8.24c-.235.14-.56.208-.976.208-.352 0-.632-.1-.84-.296-.208-.197-.312-.52-.312-.968-.373.448-.808.77-1.304.968-.496.197-1.032.296-1.608.296-.373 0-.728-.043-1.064-.128-.336-.085-.627-.22-.872-.4-.245-.18-.44-.42-.584-.712-.144-.293-.216-.648-.216-1.064 0-.47.08-.853.24-1.152.16-.3.37-.54.632-.728.26-.187.56-.328.896-.424.336-.096.68-.176 1.032-.24.373-.075.728-.13 1.064-.168.336-.037.632-.09.888-.16s.46-.17.608-.304c.15-.133.224-.328.224-.584 0-.3-.056-.54-.168-.72-.112-.18-.256-.32-.432-.416-.176-.096-.373-.16-.592-.192-.22-.032-.435-.048-.648-.048-.576 0-1.056.11-1.44.328-.384.22-.592.632-.624 1.24h-1.36c.02-.512.128-.944.32-1.296.192-.352.448-.637.768-.856.32-.22.685-.376 1.096-.472.41-.096.85-.144 1.32-.144.373 0 .744.027 1.112.08.368.053.7.163 1 .328.3.165.54.397.72.696.18.3.272.688.272 1.168v4.256c0 .32.02.555.056.704.037.15.163.224.376.224.117 0 .256-.027.416-.08v1.056zm-2.208-4.24c-.17.128-.395.22-.672.28-.277.06-.568.107-.872.144-.304.037-.61.08-.92.128-.31.048-.587.125-.832.232-.245.107-.445.26-.6.456-.155.197-.232.467-.232.808 0 .224.045.413.136.568.09.155.208.28.352.376.144.096.312.165.504.208.192.043.395.064.608.064.448 0 .832-.06 1.152-.184.32-.123.58-.277.784-.464.203-.187.352-.39.448-.608.096-.22.144-.424.144-.616V8.728zm10.608 3.568V4.728h-1.28v1.184H205c-.245-.46-.587-.803-1.024-1.032-.437-.23-.917-.344-1.44-.344-.715 0-1.317.136-1.808.408-.49.272-.885.62-1.184 1.04-.3.42-.512.89-.64 1.408-.128.517-.192 1.02-.192 1.512 0 .565.077 1.1.232 1.608.155.507.387.95.696 1.328.31.38.693.68 1.152.904.46.224.997.336 1.616.336.533 0 1.037-.12 1.512-.36.475-.24.83-.616 1.064-1.128h.032v.544c0 .46-.045.88-.136 1.264-.09.384-.237.712-.44.984s-.46.485-.768.64c-.31.155-.688.232-1.136.232-.224 0-.46-.024-.704-.072-.245-.048-.472-.125-.68-.232-.208-.107-.384-.245-.528-.416-.144-.17-.22-.38-.232-.624h-1.36c.02.448.14.827.352 1.136.213.31.483.56.808.752.325.192.688.33 1.088.416.4.085.792.128 1.176.128 1.323 0 2.293-.336 2.912-1.008.62-.672.928-1.685.928-3.04zm-3.808-.4c-.448 0-.82-.093-1.12-.28-.3-.187-.54-.432-.72-.736-.18-.304-.31-.643-.384-1.016-.075-.373-.112-.747-.112-1.12 0-.395.045-.773.136-1.136.09-.363.235-.683.432-.96.197-.277.45-.5.76-.664.31-.165.683-.248 1.12-.248.427 0 .79.085 1.088.256.3.17.54.397.728.68.187.283.323.6.408.952.085.352.128.71.128 1.072 0 .384-.045.768-.136 1.152-.09.384-.232.728-.424 1.032-.192.304-.445.55-.76.736-.315.187-.696.28-1.144.28zm11.6-3.824h-4.752c.02-.32.09-.62.208-.904.117-.283.277-.53.48-.744.203-.213.445-.38.728-.504.283-.123.6-.184.952-.184.34 0 .653.06.936.184.283.123.528.288.736.496.208.208.373.456.496.744s.195.592.216.912zm1.312 2.304h-1.344c-.117.544-.36.95-.728 1.216-.368.267-.84.4-1.416.4-.448 0-.837-.075-1.168-.224-.33-.15-.603-.35-.816-.6-.213-.25-.368-.54-.464-.864-.096-.325-.14-.67-.128-1.032h6.192c.02-.5-.024-1.03-.136-1.584-.112-.555-.315-1.067-.608-1.536-.293-.47-.683-.856-1.168-1.16-.485-.304-1.096-.456-1.832-.456-.565 0-1.085.107-1.56.32-.475.213-.885.512-1.232.896s-.616.837-.808 1.36c-.192.523-.288 1.1-.288 1.728.02.63.115 1.21.28 1.744.165.533.413.992.744 1.376.33.384.74.683 1.224.896.485.213 1.06.32 1.72.32.94 0 1.717-.235 2.336-.704.62-.47 1.02-1.168 1.2-2.096zm1.536-5.648V13h1.36V7.848c0-.16.04-.36.12-.6.08-.24.208-.472.384-.696.176-.224.405-.416.688-.576.283-.16.62-.24 1.016-.24.31 0 .563.045.76.136.197.09.355.22.472.384.117.165.2.36.248.584.048.224.072.47.072.736V13h1.36V7.848c0-.64.192-1.152.576-1.536.384-.384.912-.576 1.584-.576.33 0 .6.048.808.144.208.096.37.227.488.392.117.165.197.36.24.584.043.224.064.464.064.72V13h1.36V6.936c0-.427-.067-.792-.2-1.096-.133-.304-.32-.552-.56-.744-.24-.192-.528-.333-.864-.424-.336-.09-.712-.136-1.128-.136-.544 0-1.043.123-1.496.368-.453.245-.82.592-1.096 1.04-.17-.512-.464-.875-.88-1.088-.416-.213-.88-.32-1.392-.32-1.163 0-2.053.47-2.672 1.408h-.032V4.728h-1.28zm19.392 3.344h-4.752c.02-.32.09-.62.208-.904.117-.283.277-.53.48-.744.203-.213.445-.38.728-.504.283-.123.6-.184.952-.184.34 0 .653.06.936.184.283.123.528.288.736.496.208.208.373.456.496.744s.195.592.216.912zm1.312 2.304h-1.344c-.117.544-.36.95-.728 1.216-.368.267-.84.4-1.416.4-.448 0-.837-.075-1.168-.224-.33-.15-.603-.35-.816-.6-.213-.25-.368-.54-.464-.864-.096-.325-.14-.67-.128-1.032h6.192c.02-.5-.024-1.03-.136-1.584-.112-.555-.315-1.067-.608-1.536-.293-.47-.683-.856-1.168-1.16-.485-.304-1.096-.456-1.832-.456-.565 0-1.085.107-1.56.32-.475.213-.885.512-1.232.896s-.616.837-.808 1.36c-.192.523-.288 1.1-.288 1.728.02.63.115 1.21.28 1.744.165.533.413.992.744 1.376.33.384.74.683 1.224.896.485.213 1.06.32 1.72.32.94 0 1.717-.235 2.336-.704.62-.47 1.02-1.168 1.2-2.096zm1.536-5.648V13h1.36V8.328c0-.373.05-.717.152-1.032.1-.315.253-.59.456-.824.203-.235.456-.416.76-.544.304-.128.664-.192 1.08-.192.523 0 .933.15 1.232.448.3.3.448.704.448 1.216V13h1.36V7.56c0-.448-.045-.856-.136-1.224-.09-.368-.248-.685-.472-.952-.224-.267-.517-.475-.88-.624-.363-.15-.816-.224-1.36-.224-1.227 0-2.123.5-2.688 1.504h-.032V4.728h-1.28zm10.784 0v-2.48h-1.36v2.48h-1.408v1.2h1.408v5.264c0 .384.037.693.112.928.075.235.19.416.344.544.155.128.357.216.608.264.25.048.552.072.904.072h1.04v-1.2h-.624c-.213 0-.387-.008-.52-.024s-.237-.05-.312-.104c-.075-.053-.125-.128-.152-.224-.027-.096-.04-.224-.04-.384V5.928h1.648v-1.2h-1.648z" fill="#fff"/><g><path d="M70.3 0h-6.2c-.6 0-1.1.2-1.5.6-.4.4-.6.9-.6 1.5v8.8c0 .6.2 1.1.6 1.5.4.4.9.6 1.5.6h6.2c.6 0 1.1-.2 1.5-.6.4-.4.6-.9.6-1.5v-.6h-7.7V2.7h7.7v-.6c0-.6-.2-1.1-.6-1.5-.4-.4-.9-.6-1.5-.6zM82 0h-6.2c-.6 0-1.1.2-1.5.6-.4.4-.6.9-.6 1.5v.6h7.8v2.5h-5.6c-.6 0-1.1.2-1.5.6-.4.4-.6.9-.6 1.5v3.6c0 .6.2 1.1.6 1.5.4.4.9.6 1.5.6H82c.6 0 1.1-.2 1.5-.6.4-.4.6-.9.6-1.5V2.1c0-.6-.2-1.1-.6-1.5-.4-.4-.9-.6-1.5-.6zm-.6 10.3h-5V7.8h5v2.5zm9.2 0H88V2.1c0-.6-.2-1.1-.6-1.5-.4-.4-.9-.6-1.5-.6h-.6v10.9c0 .6.2 1.1.6 1.5.4.4.9.6 1.5.6H91c.6 0 1.1-.2 1.5-.6.4-.4.6-.9.6-1.5v-.6h-2.5zm12.2-2.5c.6 0 1.1-.2 1.5-.6.4-.4.6-.9.6-1.5V2.1c0-.6-.2-1.1-.6-1.5-.4-.4-.9-.6-1.5-.6h-6.2c-.6 0-1.1.2-1.5.6-.4.4-.6.9-.6 1.5v8.8c0 .6.2 1.1.6 1.5.4.4.9.6 1.5.6h6.2c.6 0 1.1-.2 1.5-.6.4-.4.6-.9.6-1.5v-.6h-7.8V7.8h5.7zm-5.7-5.1h5v2.5h-5V2.7zM58.7 0h-6.2c-.6 0-1.1.2-1.5.6-.4.4-.6.9-.6 1.5v3.6c0 .6.2 1.1.6 1.5.4.4.9.6 1.5.6h5.6v2.5h-7.7v.6c0 .6.2 1.1.6 1.5.4.4.9.6 1.5.6h6.2c.6 0 1.1-.2 1.5-.6.4-.4.6-.9.6-1.5V7.3c0-.6-.2-1.1-.6-1.5-.4-.4-.9-.6-1.5-.6h-5.6V2.7h7.8v-.6c0-.6-.2-1.1-.6-1.5-.5-.4-1.1-.6-1.6-.6zM8.3 0H0v13h2.7v-2.6h5v.5c0 .6.2 1.1.6 1.5.5.4 1 .6 1.5.6h.6V9.9c0-.6-.2-1.1-.6-1.5-.3-.3-.6-.5-1-.6.4-.1.7-.3 1-.6.4-.4.6-.9.6-1.5V2.1c0-.6-.2-1.1-.6-1.5C9.4.2 8.9 0 8.3 0zm-.6 7.7h-5v-5h5v5zm4.5-4.6h-.6V13h2.7V5.3c0-.6-.2-1.1-.6-1.5-.4-.5-.9-.7-1.5-.7zm4-2.5c-.4.4-.6.9-.6 1.5v8.8c0 .6.2 1.1.6 1.5.4.4.9.6 1.5.6h6.2c.6 0 1.1-.2 1.5-.6.4-.4.6-.9.6-1.5V5.2h-2.7v5.2h-5V2.7H26V0h-8.3c-.6 0-1.1.2-1.5.6zM35 5.2h-5V0h-2.7v13H30V7.8h5V13h2.7V0H35v5.2zM38.9 0v2.7h2.6V13h.6c.6 0 1.1-.2 1.5-.6.4-.4.6-.9.6-1.5V2.7h2.6V0h-7.9z" opacity=".25" fill="#000"/><path d="M70.3 1h-6.2c-.6 0-1.1.2-1.5.6-.4.4-.6.9-.6 1.5v8.8c0 .6.2 1.1.6 1.5.4.4.9.6 1.5.6h6.2c.6 0 1.1-.2 1.5-.6.4-.4.6-.9.6-1.5v-.6h-7.7V3.7h7.7v-.6c0-.6-.2-1.1-.6-1.5-.4-.4-.9-.6-1.5-.6zM82 1h-6.2c-.6 0-1.1.2-1.5.6-.4.4-.6.9-.6 1.5v.6h7.8v2.5h-5.6c-.6 0-1.1.2-1.5.6-.4.4-.6.9-.6 1.5v3.6c0 .6.2 1.1.6 1.5.4.4.9.6 1.5.6H82c.6 0 1.1-.2 1.5-.6.4-.4.6-.9.6-1.5V3.1c0-.6-.2-1.1-.6-1.5-.4-.4-.9-.6-1.5-.6zm-.6 10.3h-5V8.8h5v2.5zm9.2 0H88V3.1c0-.6-.2-1.1-.6-1.5-.4-.4-.9-.6-1.5-.6h-.6v10.9c0 .6.2 1.1.6 1.5.4.4.9.6 1.5.6H91c.6 0 1.1-.2 1.5-.6.4-.4.6-.9.6-1.5v-.6h-2.5zm12.2-2.5c.6 0 1.1-.2 1.5-.6.4-.4.6-.9.6-1.5V3.1c0-.6-.2-1.1-.6-1.5-.4-.4-.9-.6-1.5-.6h-6.2c-.6 0-1.1.2-1.5.6-.4.4-.6.9-.6 1.5v8.8c0 .6.2 1.1.6 1.5.4.4.9.6 1.5.6h6.2c.6 0 1.1-.2 1.5-.6.4-.4.6-.9.6-1.5v-.6h-7.8V8.8h5.7zm-5.7-5.1h5v2.5h-5V3.7zM58.7 1h-6.2c-.6 0-1.1.2-1.5.6-.4.4-.6.9-.6 1.5v3.6c0 .6.2 1.1.6 1.5.4.4.9.6 1.5.6h5.6v2.5h-7.7v.6c0 .6.2 1.1.6 1.5.4.4.9.6 1.5.6h6.2c.6 0 1.1-.2 1.5-.6.4-.4.6-.9.6-1.5V8.3c0-.6-.2-1.1-.6-1.5-.4-.4-.9-.6-1.5-.6h-5.6V3.7h7.8v-.6c0-.6-.2-1.1-.6-1.5-.5-.4-1.1-.6-1.6-.6zM8.3 1H0v13h2.7v-2.6h5v.5c0 .6.2 1.1.6 1.5.5.4 1 .6 1.5.6h.6v-3.1c0-.6-.2-1.1-.6-1.5-.3-.3-.6-.5-1-.6.4-.1.7-.3 1-.6.4-.4.6-.9.6-1.5V3.1c0-.6-.2-1.1-.6-1.5-.4-.4-.9-.6-1.5-.6zm-.6 7.7h-5v-5h5v5zm4.5-4.6h-.6V14h2.7V6.3c0-.6-.2-1.1-.6-1.5-.4-.5-.9-.7-1.5-.7zm4-2.5c-.4.4-.6.9-.6 1.5v8.8c0 .6.2 1.1.6 1.5.4.4.9.6 1.5.6h6.2c.6 0 1.1-.2 1.5-.6.4-.4.6-.9.6-1.5V6.2h-2.7v5.2h-5V3.7H26V1h-8.3c-.6 0-1.1.2-1.5.6zM35 6.2h-5V1h-2.7v13H30V8.8h5V14h2.7V1H35v5.2zM38.9 1v2.7h2.6V14h.6c.6 0 1.1-.2 1.5-.6.4-.4.6-.9.6-1.5V3.7h2.6V1h-7.9z" fill="#fff"/><path d="M11.7.6c0 .6.2 1.1.6 1.5.4.4.9.6 1.5.6h.6V0h-2.7v.6z" opacity=".25" fill="#000"/><path d="M11.7 1.6c0 .6.2 1.1.6 1.5.4.4.9.6 1.5.6h.6V1h-2.7v.6z" fill="#F3A02D"/></g></g></svg>