<svg xmlns="http://www.w3.org/2000/svg" width="52" height="37" viewBox="0 0 52 37">
  <g fill="none" fill-rule="evenodd">
    <path fill="#1B86F2" d="M45.7 16.9V16c0-8.5-7.1-16-15.6-16-6.2 0-11.3 4.1-13.8 9.3-1.2-.9-2.7-1.5-4.4-1.5C8 7.9 4.8 11 4.8 15c0 .7.1 1.5.3 2.1C2 18.9 0 22.3 0 26.1 0 31.8 4.3 36.9 10 37h32.1c5.7 0 9.9-5 9.9-10.6 0-4.3-2.6-7.9-6.3-9.5z"/>
    <path fill="#FFF" d="M35.5 20.9v1.2c0 .3-.2.5-.5.6l-2.7.3c-.2.7-.4 1.3-.8 1.9l1.6 2.1c.2.2.2.6-.1.8l-.8.8c-.1.1-.3.2-.4.2-.1 0-.3 0-.4-.1l-2.1-1.6c-.6.3-1.2.6-1.9.8l-.4 2.6c0 .3-.3.5-.6.5h-1.2c-.3 0-.5-.2-.6-.5l-.4-2.6c-.7-.2-1.3-.4-1.9-.8l-2.1 1.6c-.1.1-.2.1-.4.1s-.3-.1-.4-.2l-.8-.8c-.2-.2-.2-.5-.1-.8l1.6-2.1c-.3-.6-.6-1.2-.8-1.9l-2.3-.3c-.3 0-.5-.3-.5-.6v-1.2c0-.3.2-.5.5-.6l2.6-.4c.2-.7.4-1.3.8-1.9l-1.6-2c-.2-.2-.2-.6.1-.8l.8-.8c.1-.1.3-.2.4-.2.1 0 .3 0 .4.1l2.1 1.6c.6-.3 1.2-.6 1.9-.8l.4-2.6c0-.3.3-.5.6-.5h1.2c.3 0 .5.2.6.5l.4 2.6c.7.2 1.3.4 1.9.8l2.1-1.6c.1-.1.2-.1.4-.1s.3.1.4.2l.8.8c.2.2.2.5.1.8l-1.6 2.1c.3.6.6 1.2.8 1.9l2.6.4c.1 0 .3.2.3.5zM26 25.1c2 0 3.6-1.6 3.6-3.6S28 17.9 26 17.9s-3.6 1.6-3.6 3.6 1.6 3.6 3.6 3.6z"/>
  </g>
</svg>
