<svg width="185" height="17" viewBox="0 0 185 17" xmlns="http://www.w3.org/2000/svg"><title>DK logo</title><g fill="none" fill-rule="evenodd"><path d="M70.3 0h-6.2c-.6 0-1.1.2-1.5.6-.4.4-.6.9-.6 1.5v8.8c0 .6.2 1.1.6 1.5.4.4.9.6 1.5.6h6.2c.6 0 1.1-.2 1.5-.6.4-.4.6-.9.6-1.5v-.6h-7.7V2.7h7.7v-.6c0-.6-.2-1.1-.6-1.5-.4-.4-.9-.6-1.5-.6zM82 0h-6.2c-.6 0-1.1.2-1.5.6-.4.4-.6.9-.6 1.5v.6h7.8v2.5h-5.6c-.6 0-1.1.2-1.5.6-.4.4-.6.9-.6 1.5v3.6c0 .6.2 1.1.6 1.5.4.4.9.6 1.5.6H82c.6 0 1.1-.2 1.5-.6.4-.4.6-.9.6-1.5V2.1c0-.6-.2-1.1-.6-1.5-.4-.4-.9-.6-1.5-.6zm-.6 10.3h-5V7.8h5v2.5zm9.2 0H88V2.1c0-.6-.2-1.1-.6-1.5-.4-.4-.9-.6-1.5-.6h-.6v10.9c0 .6.2 1.1.6 1.5.4.4.9.6 1.5.6H91c.6 0 1.1-.2 1.5-.6.4-.4.6-.9.6-1.5v-.6h-2.5zm12.2-2.5c.6 0 1.1-.2 1.5-.6.4-.4.6-.9.6-1.5V2.1c0-.6-.2-1.1-.6-1.5-.4-.4-.9-.6-1.5-.6h-6.2c-.6 0-1.1.2-1.5.6-.4.4-.6.9-.6 1.5v8.8c0 .6.2 1.1.6 1.5.4.4.9.6 1.5.6h6.2c.6 0 1.1-.2 1.5-.6.4-.4.6-.9.6-1.5v-.6h-7.8V7.8h5.7zm-5.7-5.1h5v2.5h-5V2.7zM58.7 0h-6.2c-.6 0-1.1.2-1.5.6-.4.4-.6.9-.6 1.5v3.6c0 .6.2 1.1.6 1.5.4.4.9.6 1.5.6h5.6v2.5h-7.7v.6c0 .6.2 1.1.6 1.5.4.4.9.6 1.5.6h6.2c.6 0 1.1-.2 1.5-.6.4-.4.6-.9.6-1.5V7.3c0-.6-.2-1.1-.6-1.5-.4-.4-.9-.6-1.5-.6h-5.6V2.7h7.8v-.6c0-.6-.2-1.1-.6-1.5-.5-.4-1.1-.6-1.6-.6zM8.3 0H0v13h2.7v-2.6h5v.5c0 .6.2 1.1.6 1.5.5.4 1 .6 1.5.6h.6V9.9c0-.6-.2-1.1-.6-1.5-.3-.3-.6-.5-1-.6.4-.1.7-.3 1-.6.4-.4.6-.9.6-1.5V2.1c0-.6-.2-1.1-.6-1.5C9.4.2 8.9 0 8.3 0zm-.6 7.7h-5v-5h5v5zm4.5-4.6h-.6V13h2.7V5.3c0-.6-.2-1.1-.6-1.5-.4-.5-.9-.7-1.5-.7zm4-2.5c-.4.4-.6.9-.6 1.5v8.8c0 .6.2 1.1.6 1.5.4.4.9.6 1.5.6h6.2c.6 0 1.1-.2 1.5-.6.4-.4.6-.9.6-1.5V5.2h-2.7v5.2h-5V2.7H26V0h-8.3c-.6 0-1.1.2-1.5.6zM35 5.2h-5V0h-2.7v13H30V7.8h5V13h2.7V0H35v5.2zM38.9 0v2.7h2.6V13h.6c.6 0 1.1-.2 1.5-.6.4-.4.6-.9.6-1.5V2.7h2.6V0h-7.9z" opacity=".25" fill="#000"/><path d="M70.3 1h-6.2c-.6 0-1.1.2-1.5.6-.4.4-.6.9-.6 1.5v8.8c0 .6.2 1.1.6 1.5.4.4.9.6 1.5.6h6.2c.6 0 1.1-.2 1.5-.6.4-.4.6-.9.6-1.5v-.6h-7.7V3.7h7.7v-.6c0-.6-.2-1.1-.6-1.5-.4-.4-.9-.6-1.5-.6zM82 1h-6.2c-.6 0-1.1.2-1.5.6-.4.4-.6.9-.6 1.5v.6h7.8v2.5h-5.6c-.6 0-1.1.2-1.5.6-.4.4-.6.9-.6 1.5v3.6c0 .6.2 1.1.6 1.5.4.4.9.6 1.5.6H82c.6 0 1.1-.2 1.5-.6.4-.4.6-.9.6-1.5V3.1c0-.6-.2-1.1-.6-1.5-.4-.4-.9-.6-1.5-.6zm-.6 10.3h-5V8.8h5v2.5zm9.2 0H88V3.1c0-.6-.2-1.1-.6-1.5-.4-.4-.9-.6-1.5-.6h-.6v10.9c0 .6.2 1.1.6 1.5.4.4.9.6 1.5.6H91c.6 0 1.1-.2 1.5-.6.4-.4.6-.9.6-1.5v-.6h-2.5zm12.2-2.5c.6 0 1.1-.2 1.5-.6.4-.4.6-.9.6-1.5V3.1c0-.6-.2-1.1-.6-1.5-.4-.4-.9-.6-1.5-.6h-6.2c-.6 0-1.1.2-1.5.6-.4.4-.6.9-.6 1.5v8.8c0 .6.2 1.1.6 1.5.4.4.9.6 1.5.6h6.2c.6 0 1.1-.2 1.5-.6.4-.4.6-.9.6-1.5v-.6h-7.8V8.8h5.7zm-5.7-5.1h5v2.5h-5V3.7zM58.7 1h-6.2c-.6 0-1.1.2-1.5.6-.4.4-.6.9-.6 1.5v3.6c0 .6.2 1.1.6 1.5.4.4.9.6 1.5.6h5.6v2.5h-7.7v.6c0 .6.2 1.1.6 1.5.4.4.9.6 1.5.6h6.2c.6 0 1.1-.2 1.5-.6.4-.4.6-.9.6-1.5V8.3c0-.6-.2-1.1-.6-1.5-.4-.4-.9-.6-1.5-.6h-5.6V3.7h7.8v-.6c0-.6-.2-1.1-.6-1.5-.5-.4-1.1-.6-1.6-.6zM8.3 1H0v13h2.7v-2.6h5v.5c0 .6.2 1.1.6 1.5.5.4 1 .6 1.5.6h.6v-3.1c0-.6-.2-1.1-.6-1.5-.3-.3-.6-.5-1-.6.4-.1.7-.3 1-.6.4-.4.6-.9.6-1.5V3.1c0-.6-.2-1.1-.6-1.5-.4-.4-.9-.6-1.5-.6zm-.6 7.7h-5v-5h5v5zm4.5-4.6h-.6V14h2.7V6.3c0-.6-.2-1.1-.6-1.5-.4-.5-.9-.7-1.5-.7zm4-2.5c-.4.4-.6.9-.6 1.5v8.8c0 .6.2 1.1.6 1.5.4.4.9.6 1.5.6h6.2c.6 0 1.1-.2 1.5-.6.4-.4.6-.9.6-1.5V6.2h-2.7v5.2h-5V3.7H26V1h-8.3c-.6 0-1.1.2-1.5.6zM35 6.2h-5V1h-2.7v13H30V8.8h5V14h2.7V1H35v5.2zM38.9 1v2.7h2.6V14h.6c.6 0 1.1-.2 1.5-.6.4-.4.6-.9.6-1.5V3.7h2.6V1h-7.9z" fill="#FFF"/><path d="M11.7.6c0 .6.2 1.1.6 1.5.4.4.9.6 1.5.6h.6V0h-2.7v.6z" opacity=".25" fill="#000"/><path d="M11.7 1.6c0 .6.2 1.1.6 1.5.4.4.9.6 1.5.6h.6V1h-2.7v.6z" fill="#F3A02D"/><g><path d="M114.768 10.72V1.856h2.56c.704 0 1.296.1 1.776.296.48.197.872.485 1.176.864.304.38.523.837.656 1.376.133.54.2 1.15.2 1.832 0 .704-.072 1.304-.216 1.8-.144.496-.328.91-.552 1.24-.224.33-.477.592-.76.784-.283.192-.568.34-.856.44-.288.1-.56.165-.816.192-.256.027-.47.04-.64.04h-2.528zM113.248.576V12h3.92c.95 0 1.77-.133 2.464-.4.693-.267 1.264-.653 1.712-1.16.448-.507.78-1.13.992-1.872.213-.74.32-1.592.32-2.552 0-1.835-.475-3.2-1.424-4.096-.95-.896-2.304-1.344-4.064-1.344h-3.92zm16.784 6.496h-4.752c.02-.32.09-.62.208-.904.117-.283.277-.53.48-.744.203-.213.445-.38.728-.504.283-.123.6-.184.952-.184.34 0 .653.06.936.184.283.123.528.288.736.496.208.208.373.456.496.744s.195.592.216.912zm1.312 2.304H130c-.117.544-.36.95-.728 1.216-.368.267-.84.4-1.416.4-.448 0-.837-.075-1.168-.224-.33-.15-.603-.35-.816-.6-.213-.25-.368-.54-.464-.864-.096-.325-.14-.67-.128-1.032h6.192c.02-.5-.024-1.03-.136-1.584-.112-.555-.315-1.067-.608-1.536-.293-.47-.683-.856-1.168-1.16-.485-.304-1.096-.456-1.832-.456-.565 0-1.085.107-1.56.32-.475.213-.885.512-1.232.896s-.616.837-.808 1.36c-.192.523-.288 1.1-.288 1.728.02.63.115 1.21.28 1.744.165.533.413.992.744 1.376.33.384.74.683 1.224.896.485.213 1.06.32 1.72.32.94 0 1.717-.235 2.336-.704.62-.47 1.02-1.168 1.2-2.096zm2.368.016h-1.36c.02.512.128.947.32 1.304.192.357.448.645.768.864.32.22.688.376 1.104.472.416.096.853.144 1.312.144.416 0 .835-.04 1.256-.12.42-.08.8-.22 1.136-.424.336-.203.608-.47.816-.8.208-.33.312-.747.312-1.248 0-.395-.077-.725-.232-.992-.155-.267-.357-.488-.608-.664-.25-.176-.54-.317-.864-.424-.325-.107-.66-.197-1-.272-.32-.075-.64-.147-.96-.216-.32-.07-.608-.155-.864-.256-.256-.1-.467-.23-.632-.384-.165-.155-.248-.35-.248-.584 0-.213.053-.387.16-.52.107-.133.245-.24.416-.32.17-.08.36-.136.568-.168.208-.032.413-.048.616-.048.224 0 .445.024.664.072.22.048.42.125.6.232.18.107.33.248.448.424.117.176.187.397.208.664h1.36c-.032-.5-.14-.92-.32-1.256-.18-.336-.424-.603-.728-.8-.304-.197-.653-.336-1.048-.416-.395-.08-.827-.12-1.296-.12-.363 0-.728.045-1.096.136-.368.09-.7.23-.992.416-.293.187-.533.43-.72.728-.187.3-.28.656-.28 1.072 0 .533.133.95.4 1.248.267.3.6.53 1 .696.4.165.835.293 1.304.384.47.09.904.192 1.304.304.4.112.733.26 1 .44s.4.448.4.8c0 .256-.064.467-.192.632-.128.165-.29.29-.488.376-.197.085-.413.144-.648.176-.235.032-.46.048-.672.048-.277 0-.547-.027-.808-.08-.26-.053-.496-.14-.704-.264-.208-.123-.376-.288-.504-.496-.128-.208-.197-.46-.208-.76zm8.608-7.152V.576h-1.36V2.24h1.36zm-1.36 1.488V12h1.36V3.728h-1.36zm10.608 7.568V3.728h-1.28v1.184h-.016c-.245-.46-.587-.803-1.024-1.032-.437-.23-.917-.344-1.44-.344-.715 0-1.317.136-1.808.408-.49.272-.885.62-1.184 1.04-.3.42-.512.89-.64 1.408-.128.517-.192 1.02-.192 1.512 0 .565.077 1.1.232 1.608.155.507.387.95.696 1.328.31.38.693.68 1.152.904.46.224.997.336 1.616.336.533 0 1.037-.12 1.512-.36.475-.24.83-.616 1.064-1.128h.032v.544c0 .46-.045.88-.136 1.264-.09.384-.237.712-.44.984s-.46.485-.768.64c-.31.155-.688.232-1.136.232-.224 0-.46-.024-.704-.072-.245-.048-.472-.125-.68-.232-.208-.107-.384-.245-.528-.416-.144-.17-.22-.38-.232-.624h-1.36c.02.448.14.827.352 1.136.213.31.483.56.808.752.325.192.688.33 1.088.416.4.085.792.128 1.176.128 1.323 0 2.293-.336 2.912-1.008.62-.672.928-1.685.928-3.04zm-3.808-.4c-.448 0-.82-.093-1.12-.28-.3-.187-.54-.432-.72-.736-.18-.304-.31-.643-.384-1.016-.075-.373-.112-.747-.112-1.12 0-.395.045-.773.136-1.136.09-.363.235-.683.432-.96.197-.277.45-.5.76-.664.31-.165.683-.248 1.12-.248.427 0 .79.085 1.088.256.3.17.54.397.728.68.187.283.323.6.408.952.085.352.128.71.128 1.072 0 .384-.045.768-.136 1.152-.09.384-.232.728-.424 1.032-.192.304-.445.55-.76.736-.315.187-.696.28-1.144.28zm5.856-7.168V12h1.36V7.328c0-.373.05-.717.152-1.032.1-.315.253-.59.456-.824.203-.235.456-.416.76-.544.304-.128.664-.192 1.08-.192.523 0 .933.15 1.232.448.3.3.448.704.448 1.216V12h1.36V6.56c0-.448-.045-.856-.136-1.224-.09-.368-.248-.685-.472-.952-.224-.267-.517-.475-.88-.624-.363-.15-.816-.224-1.36-.224-1.227 0-2.123.5-2.688 1.504h-.032V3.728h-1.28zM167.184.576V12h1.52V8l1.904-1.776L174.736 12h1.92l-5.008-6.816 4.816-4.608h-1.968l-5.792 5.696V.576h-1.52zm11.888 1.664V.576h-1.36V2.24h1.36zm-1.36 1.488V12h1.36V3.728h-1.36zm5.36 0v-2.48h-1.36v2.48h-1.408v1.2h1.408v5.264c0 .384.037.693.112.928.075.235.19.416.344.544.155.128.357.216.608.264.25.048.552.072.904.072h1.04v-1.2h-.624c-.213 0-.387-.008-.52-.024s-.237-.05-.312-.104c-.075-.053-.125-.128-.152-.224-.027-.096-.04-.224-.04-.384V4.928h1.648v-1.2h-1.648z" fill-opacity=".25" fill="#000"/><path d="M114.768 11.72V2.856h2.56c.704 0 1.296.1 1.776.296.48.197.872.485 1.176.864.304.38.523.837.656 1.376.133.54.2 1.15.2 1.832 0 .704-.072 1.304-.216 1.8-.144.496-.328.91-.552 1.24-.224.33-.477.592-.76.784-.283.192-.568.34-.856.44-.288.1-.56.165-.816.192-.256.027-.47.04-.64.04h-2.528zm-1.52-10.144V13h3.92c.95 0 1.77-.133 2.464-.4.693-.267 1.264-.653 1.712-1.16.448-.507.78-1.13.992-1.872.213-.74.32-1.592.32-2.552 0-1.835-.475-3.2-1.424-4.096-.95-.896-2.304-1.344-4.064-1.344h-3.92zm16.784 6.496h-4.752c.02-.32.09-.62.208-.904.117-.283.277-.53.48-.744.203-.213.445-.38.728-.504.283-.123.6-.184.952-.184.34 0 .653.06.936.184.283.123.528.288.736.496.208.208.373.456.496.744s.195.592.216.912zm1.312 2.304H130c-.117.544-.36.95-.728 1.216-.368.267-.84.4-1.416.4-.448 0-.837-.075-1.168-.224-.33-.15-.603-.35-.816-.6-.213-.25-.368-.54-.464-.864-.096-.325-.14-.67-.128-1.032h6.192c.02-.5-.024-1.03-.136-1.584-.112-.555-.315-1.067-.608-1.536-.293-.47-.683-.856-1.168-1.16-.485-.304-1.096-.456-1.832-.456-.565 0-1.085.107-1.56.32-.475.213-.885.512-1.232.896s-.616.837-.808 1.36c-.192.523-.288 1.1-.288 1.728.02.63.115 1.21.28 1.744.165.533.413.992.744 1.376.33.384.74.683 1.224.896.485.213 1.06.32 1.72.32.94 0 1.717-.235 2.336-.704.62-.47 1.02-1.168 1.2-2.096zm2.368.016h-1.36c.02.512.128.947.32 1.304.192.357.448.645.768.864.32.22.688.376 1.104.472.416.096.853.144 1.312.144.416 0 .835-.04 1.256-.12.42-.08.8-.22 1.136-.424.336-.203.608-.47.816-.8.208-.33.312-.747.312-1.248 0-.395-.077-.725-.232-.992-.155-.267-.357-.488-.608-.664-.25-.176-.54-.317-.864-.424-.325-.107-.66-.197-1-.272-.32-.075-.64-.147-.96-.216-.32-.07-.608-.155-.864-.256-.256-.1-.467-.23-.632-.384-.165-.155-.248-.35-.248-.584 0-.213.053-.387.16-.52.107-.133.245-.24.416-.32.17-.08.36-.136.568-.168.208-.032.413-.048.616-.048.224 0 .445.024.664.072.22.048.42.125.6.232.18.107.33.248.448.424.117.176.187.397.208.664h1.36c-.032-.5-.14-.92-.32-1.256-.18-.336-.424-.603-.728-.8-.304-.197-.653-.336-1.048-.416-.395-.08-.827-.12-1.296-.12-.363 0-.728.045-1.096.136-.368.09-.7.23-.992.416-.293.187-.533.43-.72.728-.187.3-.28.656-.28 1.072 0 .533.133.95.4 1.248.267.3.6.53 1 .696.4.165.835.293 1.304.384.47.09.904.192 1.304.304.4.112.733.26 1 .44s.4.448.4.8c0 .256-.064.467-.192.632-.128.165-.29.29-.488.376-.197.085-.413.144-.648.176-.235.032-.46.048-.672.048-.277 0-.547-.027-.808-.08-.26-.053-.496-.14-.704-.264-.208-.123-.376-.288-.504-.496-.128-.208-.197-.46-.208-.76zm8.608-7.152V1.576h-1.36V3.24h1.36zm-1.36 1.488V13h1.36V4.728h-1.36zm10.608 7.568V4.728h-1.28v1.184h-.016c-.245-.46-.587-.803-1.024-1.032-.437-.23-.917-.344-1.44-.344-.715 0-1.317.136-1.808.408-.49.272-.885.62-1.184 1.04-.3.42-.512.89-.64 1.408-.128.517-.192 1.02-.192 1.512 0 .565.077 1.1.232 1.608.155.507.387.95.696 1.328.31.38.693.68 1.152.904.46.224.997.336 1.616.336.533 0 1.037-.12 1.512-.36.475-.24.83-.616 1.064-1.128h.032v.544c0 .46-.045.88-.136 1.264-.09.384-.237.712-.44.984s-.46.485-.768.64c-.31.155-.688.232-1.136.232-.224 0-.46-.024-.704-.072-.245-.048-.472-.125-.68-.232-.208-.107-.384-.245-.528-.416-.144-.17-.22-.38-.232-.624h-1.36c.02.448.14.827.352 1.136.213.31.483.56.808.752.325.192.688.33 1.088.416.4.085.792.128 1.176.128 1.323 0 2.293-.336 2.912-1.008.62-.672.928-1.685.928-3.04zm-3.808-.4c-.448 0-.82-.093-1.12-.28-.3-.187-.54-.432-.72-.736-.18-.304-.31-.643-.384-1.016-.075-.373-.112-.747-.112-1.12 0-.395.045-.773.136-1.136.09-.363.235-.683.432-.96.197-.277.45-.5.76-.664.31-.165.683-.248 1.12-.248.427 0 .79.085 1.088.256.3.17.54.397.728.68.187.283.323.6.408.952.085.352.128.71.128 1.072 0 .384-.045.768-.136 1.152-.09.384-.232.728-.424 1.032-.192.304-.445.55-.76.736-.315.187-.696.28-1.144.28zm5.856-7.168V13h1.36V8.328c0-.373.05-.717.152-1.032.1-.315.253-.59.456-.824.203-.235.456-.416.76-.544.304-.128.664-.192 1.08-.192.523 0 .933.15 1.232.448.3.3.448.704.448 1.216V13h1.36V7.56c0-.448-.045-.856-.136-1.224-.09-.368-.248-.685-.472-.952-.224-.267-.517-.475-.88-.624-.363-.15-.816-.224-1.36-.224-1.227 0-2.123.5-2.688 1.504h-.032V4.728h-1.28zm13.568-3.152V13h1.52V9l1.904-1.776L174.736 13h1.92l-5.008-6.816 4.816-4.608h-1.968l-5.792 5.696V1.576h-1.52zm11.888 1.664V1.576h-1.36V3.24h1.36zm-1.36 1.488V13h1.36V4.728h-1.36zm5.36 0v-2.48h-1.36v2.48h-1.408v1.2h1.408v5.264c0 .384.037.693.112.928.075.235.19.416.344.544.155.128.357.216.608.264.25.048.552.072.904.072h1.04v-1.2h-.624c-.213 0-.387-.008-.52-.024s-.237-.05-.312-.104c-.075-.053-.125-.128-.152-.224-.027-.096-.04-.224-.04-.384V5.928h1.648v-1.2h-1.648z" fill="#FFF"/></g></g></svg>