<svg width="16" height="8" viewBox="0 0 16 8" xmlns="http://www.w3.org/2000/svg"><title>icon-link</title><path d="M12.688 0h-2.02s1.082.708 1.315 2H12.687C13.421 2 14 2.58 14 3.313v1.333C14 5.38 13.42 6 12.687 6H8.021c-.732 0-1.353-.62-1.353-1.354V3.333h-2v1.313c0 .48.104.937.287 1.354.525 1.175 1.704 2 3.067 2h4.668C14.527 8 16 6.487 16 4.646V3.313C16 1.47 14.53 0 12.687 0zm-1.62 2C10.562.82 9.395 0 8.02 0H3.355C1.512 0 0 1.47 0 3.313v1.333C0 6.486 1.512 8 3.354 8h1.98s-1.076-.708-1.338-2h-.642C2.62 6 2 5.38 2 4.646V3.313C2 2.579 2.62 2 3.354 2H8.02c.734 0 1.313.58 1.313 1.313v1.353h2V3.314c0-.467-.095-.913-.266-1.313z" fill="#FFF" fill-rule="evenodd"/></svg>