<?xml version="1.0" encoding="UTF-8" standalone="no"?>
<svg width="105px" height="14px" viewBox="0 0 105 14" version="1.1" xmlns="http://www.w3.org/2000/svg" xmlns:xlink="http://www.w3.org/1999/xlink" xmlns:sketch="http://www.bohemiancoding.com/sketch/ns">
    <!-- Generator: Sketch 3.3.2 (12043) - http://www.bohemiancoding.com/sketch -->
    <title>Main logo</title>
    <desc>Created with Sketch.</desc>
    <defs></defs>
    <g id="Page-1" stroke="none" stroke-width="1" fill="none" fill-rule="evenodd" sketch:type="MSPage">
        <g id="logos" sketch:type="MSArtboardGroup" transform="translate(-149.000000, -152.000000)">
            <g id="Main-logo" sketch:type="MSLayerGroup" transform="translate(149.000000, 152.000000)">
                <path d="M70.3,7.10542736e-15 L64.1,7.10542736e-15 C63.5,7.10542736e-15 63,0.2 62.6,0.6 C62.2,1 62,1.5 62,2.1 L62,10.9 C62,11.5 62.2,12 62.6,12.4 C63,12.8 63.5,13 64.1,13 L70.3,13 C70.9,13 71.4,12.8 71.8,12.4 C72.2,12 72.4,11.5 72.4,10.9 L72.4,10.3 L64.7,10.3 L64.7,2.7 L72.4,2.7 L72.4,2.1 C72.4,1.5 72.2,1 71.8,0.6 C71.4,0.2 70.9,7.10542736e-15 70.3,7.10542736e-15 L70.3,7.10542736e-15 Z M82,7.10542736e-15 L75.8,7.10542736e-15 C75.2,7.10542736e-15 74.7,0.2 74.3,0.6 C73.9,1 73.7,1.5 73.7,2.1 L73.7,2.7 L81.5,2.7 L81.5,5.2 L75.9,5.2 C75.3,5.2 74.8,5.4 74.4,5.8 C74,6.2 73.8,6.7 73.8,7.3 L73.8,10.9 C73.8,11.5 74,12 74.4,12.4 C74.8,12.8 75.3,13 75.9,13 L82,13 C82.6,13 83.1,12.8 83.5,12.4 C83.9,12 84.1,11.5 84.1,10.9 L84.1,2.1 C84.1,1.5 83.9,1 83.5,0.6 C83.1,0.2 82.6,7.10542736e-15 82,7.10542736e-15 L82,7.10542736e-15 Z M81.4,10.3 L76.4,10.3 L76.4,7.8 L81.4,7.8 L81.4,10.3 L81.4,10.3 Z M90.6,10.3 L88,10.3 L88,2.1 C88,1.5 87.8,1 87.4,0.6 C87,0.2 86.5,7.10542736e-15 85.9,7.10542736e-15 L85.3,7.10542736e-15 L85.3,10.9 C85.3,11.5 85.5,12 85.9,12.4 C86.3,12.8 86.8,13 87.4,13 L91,13 C91.6,13 92.1,12.8 92.5,12.4 C92.9,12 93.1,11.5 93.1,10.9 L93.1,10.3 L90.6,10.3 L90.6,10.3 Z M102.8,7.8 C103.4,7.8 103.9,7.6 104.3,7.2 C104.7,6.8 104.9,6.3 104.9,5.7 L104.9,2.1 C104.9,1.5 104.7,1 104.3,0.6 C103.9,0.2 103.4,7.10542736e-15 102.8,7.10542736e-15 L96.6,7.10542736e-15 C96,7.10542736e-15 95.5,0.2 95.1,0.6 C94.7,1 94.5,1.5 94.5,2.1 L94.5,10.9 C94.5,11.5 94.7,12 95.1,12.4 C95.5,12.8 96,13 96.6,13 L102.8,13 C103.4,13 103.9,12.8 104.3,12.4 C104.7,12 104.9,11.5 104.9,10.9 L104.9,10.3 L97.1,10.3 L97.1,7.8 L102.8,7.8 L102.8,7.8 Z M97.1,2.7 L102.1,2.7 L102.1,5.2 L97.1,5.2 L97.1,2.7 L97.1,2.7 Z M58.7,7.10542736e-15 L52.5,7.10542736e-15 C51.9,7.10542736e-15 51.4,0.2 51,0.6 C50.6,1 50.4,1.5 50.4,2.1 L50.4,5.7 C50.4,6.3 50.6,6.8 51,7.2 C51.4,7.6 51.9,7.8 52.5,7.8 L58.1,7.8 L58.1,10.3 L50.4,10.3 L50.4,10.9 C50.4,11.5 50.6,12 51,12.4 C51.4,12.8 51.9,13 52.5,13 L58.7,13 C59.3,13 59.8,12.8 60.2,12.4 C60.6,12 60.8,11.5 60.8,10.9 L60.8,7.3 C60.8,6.7 60.6,6.2 60.2,5.8 C59.8,5.4 59.3,5.2 58.7,5.2 L53.1,5.2 L53.1,2.7 L60.9,2.7 L60.9,2.1 C60.9,1.5 60.7,1 60.3,0.6 C59.8,0.2 59.2,7.10542736e-15 58.7,7.10542736e-15 L58.7,7.10542736e-15 Z M8.3,1.42108547e-14 L0,1.42108547e-14 L0,13 L2.7,13 L2.7,10.4 L7.7,10.4 L7.7,10.9 C7.7,11.5 7.9,12 8.3,12.4 C8.8,12.8 9.3,13 9.8,13 L10.4,13 L10.4,9.9 C10.4,9.3 10.2,8.8 9.8,8.4 C9.5,8.1 9.2,7.9 8.8,7.8 C9.2,7.7 9.5,7.5 9.8,7.2 C10.2,6.8 10.4,6.3 10.4,5.7 L10.4,2.1 C10.4,1.5 10.2,1 9.8,0.6 C9.4,0.2 8.9,7.10542736e-15 8.3,7.10542736e-15 L8.3,1.42108547e-14 Z M7.7,7.7 L2.7,7.7 L2.7,2.7 L7.7,2.7 L7.7,7.7 L7.7,7.7 Z M12.2,3.1 L11.6,3.1 L11.6,13 L14.3,13 L14.3,5.3 C14.3,4.7 14.1,4.2 13.7,3.8 C13.3,3.3 12.8,3.1 12.2,3.1 L12.2,3.1 Z M16.2,0.6 C15.8,1 15.6,1.5 15.6,2.1 L15.6,10.9 C15.6,11.5 15.8,12 16.2,12.4 C16.6,12.8 17.1,13 17.7,13 L23.9,13 C24.5,13 25,12.8 25.4,12.4 C25.8,12 26,11.5 26,10.9 L26,5.2 L23.3,5.2 L23.3,10.4 L18.3,10.4 L18.3,2.7 L26,2.7 L26,7.10542736e-15 L17.7,7.10542736e-15 C17.1,7.10542736e-15 16.6,0.2 16.2,0.6 L16.2,0.6 Z M35,5.2 L30,5.2 L30,7.10542736e-15 L27.3,7.10542736e-15 L27.3,13 L30,13 L30,7.8 L35,7.8 L35,13 L37.7,13 L37.7,7.10542736e-15 L35,7.10542736e-15 L35,5.2 L35,5.2 Z M38.9,1.0658141e-14 L38.9,2.7 L41.5,2.7 L41.5,13 L42.1,13 C42.7,13 43.2,12.8 43.6,12.4 C44,12 44.2,11.5 44.2,10.9 L44.2,2.7 L46.8,2.7 L46.8,7.10542736e-15 L38.9,7.10542736e-15 L38.9,1.0658141e-14 Z" id="Shape" opacity="0.25" fill="#000000" sketch:type="MSShapeGroup"></path>
                <path d="M70.3,1 L64.1,1 C63.5,1 63,1.2 62.6,1.6 C62.2,2 62,2.5 62,3.1 L62,11.9 C62,12.5 62.2,13 62.6,13.4 C63,13.8 63.5,14 64.1,14 L70.3,14 C70.9,14 71.4,13.8 71.8,13.4 C72.2,13 72.4,12.5 72.4,11.9 L72.4,11.3 L64.7,11.3 L64.7,3.7 L72.4,3.7 L72.4,3.1 C72.4,2.5 72.2,2 71.8,1.6 C71.4,1.2 70.9,1 70.3,1 L70.3,1 Z M82,1 L75.8,1 C75.2,1 74.7,1.2 74.3,1.6 C73.9,2 73.7,2.5 73.7,3.1 L73.7,3.7 L81.5,3.7 L81.5,6.2 L75.9,6.2 C75.3,6.2 74.8,6.4 74.4,6.8 C74,7.2 73.8,7.7 73.8,8.3 L73.8,11.9 C73.8,12.5 74,13 74.4,13.4 C74.8,13.8 75.3,14 75.9,14 L82,14 C82.6,14 83.1,13.8 83.5,13.4 C83.9,13 84.1,12.5 84.1,11.9 L84.1,3.1 C84.1,2.5 83.9,2 83.5,1.6 C83.1,1.2 82.6,1 82,1 L82,1 Z M81.4,11.3 L76.4,11.3 L76.4,8.8 L81.4,8.8 L81.4,11.3 L81.4,11.3 Z M90.6,11.3 L88,11.3 L88,3.1 C88,2.5 87.8,2 87.4,1.6 C87,1.2 86.5,1 85.9,1 L85.3,1 L85.3,11.9 C85.3,12.5 85.5,13 85.9,13.4 C86.3,13.8 86.8,14 87.4,14 L91,14 C91.6,14 92.1,13.8 92.5,13.4 C92.9,13 93.1,12.5 93.1,11.9 L93.1,11.3 L90.6,11.3 L90.6,11.3 Z M102.8,8.8 C103.4,8.8 103.9,8.6 104.3,8.2 C104.7,7.8 104.9,7.3 104.9,6.7 L104.9,3.1 C104.9,2.5 104.7,2 104.3,1.6 C103.9,1.2 103.4,1 102.8,1 L96.6,1 C96,1 95.5,1.2 95.1,1.6 C94.7,2 94.5,2.5 94.5,3.1 L94.5,11.9 C94.5,12.5 94.7,13 95.1,13.4 C95.5,13.8 96,14 96.6,14 L102.8,14 C103.4,14 103.9,13.8 104.3,13.4 C104.7,13 104.9,12.5 104.9,11.9 L104.9,11.3 L97.1,11.3 L97.1,8.8 L102.8,8.8 L102.8,8.8 Z M97.1,3.7 L102.1,3.7 L102.1,6.2 L97.1,6.2 L97.1,3.7 L97.1,3.7 Z M58.7,1 L52.5,1 C51.9,1 51.4,1.2 51,1.6 C50.6,2 50.4,2.5 50.4,3.1 L50.4,6.7 C50.4,7.3 50.6,7.8 51,8.2 C51.4,8.6 51.9,8.8 52.5,8.8 L58.1,8.8 L58.1,11.3 L50.4,11.3 L50.4,11.9 C50.4,12.5 50.6,13 51,13.4 C51.4,13.8 51.9,14 52.5,14 L58.7,14 C59.3,14 59.8,13.8 60.2,13.4 C60.6,13 60.8,12.5 60.8,11.9 L60.8,8.3 C60.8,7.7 60.6,7.2 60.2,6.8 C59.8,6.4 59.3,6.2 58.7,6.2 L53.1,6.2 L53.1,3.7 L60.9,3.7 L60.9,3.1 C60.9,2.5 60.7,2 60.3,1.6 C59.8,1.2 59.2,1 58.7,1 L58.7,1 Z M8.3,1 L0,1 L0,14 L2.7,14 L2.7,11.4 L7.7,11.4 L7.7,11.9 C7.7,12.5 7.9,13 8.3,13.4 C8.8,13.8 9.3,14 9.8,14 L10.4,14 L10.4,10.9 C10.4,10.3 10.2,9.8 9.8,9.4 C9.5,9.1 9.2,8.9 8.8,8.8 C9.2,8.7 9.5,8.5 9.8,8.2 C10.2,7.8 10.4,7.3 10.4,6.7 L10.4,3.1 C10.4,2.5 10.2,2 9.8,1.6 C9.4,1.2 8.9,1 8.3,1 L8.3,1 Z M7.7,8.7 L2.7,8.7 L2.7,3.7 L7.7,3.7 L7.7,8.7 L7.7,8.7 Z M12.2,4.1 L11.6,4.1 L11.6,14 L14.3,14 L14.3,6.3 C14.3,5.7 14.1,5.2 13.7,4.8 C13.3,4.3 12.8,4.1 12.2,4.1 L12.2,4.1 Z M16.2,1.6 C15.8,2 15.6,2.5 15.6,3.1 L15.6,11.9 C15.6,12.5 15.8,13 16.2,13.4 C16.6,13.8 17.1,14 17.7,14 L23.9,14 C24.5,14 25,13.8 25.4,13.4 C25.8,13 26,12.5 26,11.9 L26,6.2 L23.3,6.2 L23.3,11.4 L18.3,11.4 L18.3,3.7 L26,3.7 L26,1 L17.7,1 C17.1,1 16.6,1.2 16.2,1.6 L16.2,1.6 Z M35,6.2 L30,6.2 L30,1 L27.3,1 L27.3,14 L30,14 L30,8.8 L35,8.8 L35,14 L37.7,14 L37.7,1 L35,1 L35,6.2 L35,6.2 Z M38.9,1 L38.9,3.7 L41.5,3.7 L41.5,14 L42.1,14 C42.7,14 43.2,13.8 43.6,13.4 C44,13 44.2,12.5 44.2,11.9 L44.2,3.7 L46.8,3.7 L46.8,1 L38.9,1 L38.9,1 Z" id="Shape" fill="#FFFFFF" sketch:type="MSShapeGroup"></path>
                <path d="M11.7,0.6 C11.7,1.2 11.9,1.7 12.3,2.1 C12.7,2.5 13.2,2.7 13.8,2.7 L14.4,2.7 L14.4,0 L11.7,0 L11.7,0.6 L11.7,0.6 Z" id="Shape" opacity="0.25" fill="#000000" sketch:type="MSShapeGroup"></path>
                <path d="M11.7,1.6 C11.7,2.2 11.9,2.7 12.3,3.1 C12.7,3.5 13.2,3.7 13.8,3.7 L14.4,3.7 L14.4,1 L11.7,1 L11.7,1.6 L11.7,1.6 Z" id="Shape" fill="#F3A02D" sketch:type="MSShapeGroup"></path>
            </g>
        </g>
    </g>
</svg>