<svg xmlns="http://www.w3.org/2000/svg" width="30" height="30" viewBox="0 0 30 30"><path fill="#CDCAB6" d="M15 1.875c3.506 0 6.802 1.365 9.28 3.844 2.479 2.479 3.845 5.775 3.845 9.281s-1.365 6.802-3.845 9.281c-2.479 2.479-5.774 3.844-9.28 3.844s-6.802-1.365-9.281-3.844c-2.479-2.479-3.844-5.775-3.844-9.281s1.365-6.802 3.844-9.281 5.775-3.844 9.281-3.844m0-1.875c-8.284 0-15 6.716-15 15s6.716 15 15 15 15-6.716 15-15-6.716-15-15-15zm0 5.625c-1.554 0-2.812 1.259-2.812 2.812s1.258 2.813 2.812 2.813 2.812-1.259 2.812-2.812-1.258-2.813-2.812-2.813zm0 7.5h-1.875c-1.036 0-1.875.839-1.875 1.875s.839 1.875 1.875 1.875v5.625c0 1.035.839 1.875 1.875 1.875 1.035 0 1.875-.84 1.875-1.875v-7.5c0-1.036-.84-1.875-1.875-1.875z"/></svg>