<svg width="12" height="12" viewBox="0 0 12 12" xmlns="http://www.w3.org/2000/svg"><title>icon-gear</title><path d="M11.7 4.9l-1.8-.3c-.2 0-.2-.2-.1-.3l1-1.5c.1-.1.1-.4 0-.5l-1-1c-.1-.1-.3-.1-.5 0l-1.5 1c-.1.1-.3 0-.3-.1L7.1.3C7 .1 6.9 0 6.7 0H5.3c-.2 0-.3.1-.4.3l-.3 1.8c0 .2-.2.2-.3.1l-1.5-1c-.1-.1-.4-.1-.5 0l-1 1c-.1.1-.1.3 0 .5l1 1.5c.1.1 0 .3-.1.3l-1.9.4c-.2.1-.3.2-.3.4v1.4c0 .2.1.3.3.4l1.8.3c.2 0 .2.2.1.3l-1 1.5c-.1.1-.1.4 0 .5l1 1c.1.1.3.1.5 0l1.5-1c.1-.1.3 0 .3.1l.3 1.8c.2.3.3.4.5.4h1.4c.2 0 .3-.1.4-.3l.3-1.8c0-.2.2-.2.3-.1l1.5 1c.1.1.4.1.5 0l1-1c.1-.1.1-.3 0-.5l-1-1.5c-.1-.1 0-.3.1-.3l1.8-.3c.3-.2.4-.3.4-.5V5.3c0-.2-.1-.3-.3-.4zM6 8.2c-1.2 0-2.2-1-2.2-2.2 0-1.2 1-2.2 2.2-2.2 1.2 0 2.2 1 2.2 2.2 0 1.2-1 2.2-2.2 2.2z" fill="#57626C" fill-rule="evenodd"/></svg>