<svg width="16" height="8" viewBox="0 0 16 8" xmlns="http://www.w3.org/2000/svg" xmlns:sketch="http://www.bohemiancoding.com/sketch/ns"><title>icon-link</title><desc>Created with Sketch.</desc><path d="M12.688 0h-2.021s1.083.708 1.317 2h.7040000000000001c.733 0 1.313.579 1.313 1.313v1.333c0 .733-.579 1.354-1.313 1.354h-4.667c-.733 0-1.354-.621-1.354-1.354v-1.313h-2v1.313c0 .479.104.938.288 1.354.525 1.175 1.704 2 3.067 2h4.667c1.842 0 3.313-1.513 3.313-3.354v-1.333c0-1.842-1.471-3.313-3.313-3.313zm-1.621 2c-.504-1.179-1.671-2-3.046-2h-4.667c-1.842 0-3.354 1.471-3.354 3.313v1.333c0 1.842 1.512 3.354 3.354 3.354h1.979s-1.075-.708-1.338-2h-.642c-.733 0-1.354-.621-1.354-1.354v-1.333c0-.733.621-1.313 1.354-1.313h4.667c.733 0 1.313.579 1.313 1.313v1.3539999999999999h2v-1.3539999999999999c0-.467-.096-.913-.267-1.313z" sketch:type="MSShapeGroup" fill="#8596A5"/></svg>