<svg width="16" height="16" viewBox="0 0 16 16" xmlns="http://www.w3.org/2000/svg" xmlns:sketch="http://www.bohemiancoding.com/sketch/ns"><title>icn_bm_instances</title><desc>Created with Sketch.</desc><g sketch:type="MSArtboardGroup" fill="none"><rect fill="#0A62B4" sketch:type="MSShapeGroup" x="1" y="1" width="14" height="14" rx="2"/><path d="M4.638 12h1.503v-7.454h-1.503v7.454zm2.579-5.617v5.617h1.441v-3.727c0-.619.254-.929.762-.929.216 0 .372.057.47.172.097.115.146.318.146.611v3.873h1.441v-4.166c0-.564-.124-.971-.371-1.221-.247-.251-.6-.376-1.06-.376-.313 0-.592.064-.835.193-.244.129-.442.332-.595.611h-.021v-.658h-1.378z" fill="#fff" sketch:type="MSShapeGroup"/></g></svg>