<svg width="16" height="16" viewBox="0 0 16 16" xmlns="http://www.w3.org/2000/svg" xmlns:sketch="http://www.bohemiancoding.com/sketch/ns"><title>icon-array</title><desc>Created with Sketch.</desc><g sketch:type="MSArtboardGroup" fill="none"><rect fill="#C45887" sketch:type="MSShapeGroup" x="1" y="1" width="14" height="14" rx="2"/><path d="M6.993 9.192l-.72-3.351h-.021l-.72 3.351h1.462zm.198-4.646l1.973 7.454h-1.566l-.345-1.576h-1.984l-.345 1.576h-1.566l1.973-7.454h1.858zm2.453 1.837v5.617h1.441v-3.372c0-.188.031-.346.094-.475s.146-.233.251-.313c.104-.08.219-.137.345-.172.125-.035.251-.052.376-.052l.224.005.224.016v-1.378l-.13-.016-.13-.005c-.299 0-.553.082-.762.245-.209.164-.386.381-.532.653h-.021v-.752h-1.378z" fill="#fff" sketch:type="MSShapeGroup"/></g></svg>