<svg width="66px" height="62px" viewBox="0 0 66 62" version="1.1" xmlns="http://www.w3.org/2000/svg" xmlns:xlink="http://www.w3.org/1999/xlink">
    <!-- Generator: Sketch 45.2 (43514) - http://www.bohemiancoding.com/sketch -->
    <desc>Created with Sketch.</desc>
    <defs></defs>
    <g id="Page-1" stroke="none" stroke-width="1" fill="none" fill-rule="evenodd">
        <g id="Desktop-HD" transform="translate(-1031.000000, -577.000000)" fill-rule="nonzero">
            <g id="icon-patterns" transform="translate(1031.000000, 577.000000)">
                <g id="Group">
                    <path d="M44.1069537,4.05475526 L38,7.48400901 L38,14.1816764 L44.1069537,17.6109301 L50,14.2123562 L50,7.45332919 L44.1069537,4.05475526 Z M45.9260189,0.486306333 L52.1803034,4.09320965 C53.3062518,4.74255443 54,5.94349458 54,7.24326703 L54,14.4224184 C54,15.7221908 53.3062518,16.923131 52.1803034,17.5724757 L45.9260189,21.179379 C44.8145838,21.8203538 43.4476239,21.828189 42.3289142,21.199997 L35.855926,17.565203 C34.7096115,16.92151 34,15.7092053 34,14.3945276 L34,7.27115778 C34,5.95648007 34.7096115,4.74417539 35.855926,4.10048242 L42.3289142,0.465688347 C43.4476239,-0.162503635 44.8145838,-0.154668455 45.9260189,0.486306333 Z" id="Polygon" fill="#57626C"></path>
                    <path d="M39,47.484009 L39,54.1816764 L45.1069537,57.6109301 L51,54.2123562 L51,47.4533292 L45.1069537,44.0547553 L39,47.484009 Z M46.9260189,40.4863063 L53.1803034,44.0932097 C54.3062518,44.7425544 55,45.9434946 55,47.243267 L55,54.4224184 C55,55.7221908 54.3062518,56.923131 53.1803034,57.5724757 L46.9260189,61.179379 C45.8145838,61.8203538 44.4476239,61.828189 43.3289142,61.199997 L36.855926,57.565203 C35.7096115,56.92151 35,55.7092053 35,54.3945276 L35,47.2711578 C35,45.9564801 35.7096115,44.7441754 36.855926,44.1004824 L43.3289142,40.4656883 C44.4476239,39.8374964 45.8145838,39.8453315 46.9260189,40.4863063 Z" id="Polygon" fill="#0080FA"></path>
                    <path d="M15,47.484009 L15,54.1816764 L21.1069537,57.6109301 L27,54.2123562 L27,47.4533292 L21.1069537,44.0547553 L15,47.484009 Z M22.9260189,40.4863063 L29.1803034,44.0932097 C30.3062518,44.7425544 31,45.9434946 31,47.243267 L31,54.4224184 C31,55.7221908 30.3062518,56.923131 29.1803034,57.5724757 L22.9260189,61.179379 C21.8145838,61.8203538 20.4476239,61.828189 19.3289142,61.199997 L12.855926,57.565203 C11.7096115,56.92151 11,55.7092053 11,54.3945276 L11,47.2711578 C11,45.9564801 11.7096115,44.7441754 12.855926,44.1004824 L19.3289142,40.4656883 C20.4476239,39.8374964 21.8145838,39.8453315 22.9260189,40.4863063 Z" id="Polygon" fill="#57626C"></path>
                    <path d="M50,27.484009 L50,34.1816764 L56.1069537,37.6109301 L62,34.2123562 L62,27.4533292 L56.1069537,24.0547553 L50,27.484009 Z M57.9260189,20.4863063 L64.1803034,24.0932097 C65.3062518,24.7425544 66,25.9434946 66,27.243267 L66,34.4224184 C66,35.7221908 65.3062518,36.923131 64.1803034,37.5724757 L57.9260189,41.179379 C56.8145838,41.8203538 55.4476239,41.828189 54.3289142,41.199997 L47.855926,37.565203 C46.7096115,36.92151 46,35.7092053 46,34.3945276 L46,27.2711578 C46,25.9564801 46.7096115,24.7441754 47.855926,24.1004824 L54.3289142,20.4656883 C55.4476239,19.8374964 56.8145838,19.8453315 57.9260189,20.4863063 Z" id="Polygon" fill="#57626C"></path>
                    <path d="M4,27.484009 L4,34.1816764 L10.1069537,37.6109301 L16,34.2123562 L16,27.4533292 L10.1069537,24.0547553 L4,27.484009 Z M11.9260189,20.4863063 L18.1803034,24.0932097 C19.3062518,24.7425544 20,25.9434946 20,27.243267 L20,34.4224184 C20,35.7221908 19.3062518,36.923131 18.1803034,37.5724757 L11.9260189,41.179379 C10.8145838,41.8203538 9.44762386,41.828189 8.32891419,41.199997 L1.85592597,37.565203 C0.709611512,36.92151 0,35.7092053 0,34.3945276 L0,27.2711578 C0,25.9564801 0.709611512,24.7441754 1.85592597,24.1004824 L8.32891419,20.4656883 C9.44762386,19.8374964 10.8145838,19.8453315 11.9260189,20.4863063 Z" id="Polygon" fill="#57626C"></path>
                    <path d="M15,7.48400901 L15,14.1816764 L21.1069537,17.6109301 L27,14.2123562 L27,7.45332919 L21.1069537,4.05475526 L15,7.48400901 Z M22.9260189,0.486306333 L29.1803034,4.09320965 C30.3062518,4.74255443 31,5.94349458 31,7.24326703 L31,14.4224184 C31,15.7221908 30.3062518,16.923131 29.1803034,17.5724757 L22.9260189,21.179379 C21.8145838,21.8203538 20.4476239,21.828189 19.3289142,21.199997 L12.855926,17.565203 C11.7096115,16.92151 11,15.7092053 11,14.3945276 L11,7.27115778 C11,5.95648007 11.7096115,4.74417539 12.855926,4.10048242 L19.3289142,0.465688347 C20.4476239,-0.162503635 21.8145838,-0.154668455 22.9260189,0.486306333 Z" id="Polygon" fill="#57626C"></path>
                </g>
                <g id="Group" transform="translate(27.000000, 25.000000)" fill="#2B82FC">
                    <path d="M4,5.86472039 C4,6.89437323 4.83506756,7.72944079 5.86472039,7.72944079 C6.89437323,7.72944079 7.72944079,6.89437323 7.72944079,5.86472039 C7.72944079,4.83506756 6.89437323,4 5.86472039,4 C4.83506756,4 4,4.83506756 4,5.86472039 Z M0,5.86472039 C0,2.62592856 2.62592856,0 5.86472039,0 C9.10351223,0 11.7294408,2.62592856 11.7294408,5.86472039 C11.7294408,9.10351223 9.10351223,11.7294408 5.86472039,11.7294408 C2.62592856,11.7294408 0,9.10351223 0,5.86472039 Z" id="Shape"></path>
                </g>
            </g>
        </g>
    </g>
</svg>
