<svg width="61px" height="67px" viewBox="0 0 61 67" version="1.1" xmlns="http://www.w3.org/2000/svg" xmlns:xlink="http://www.w3.org/1999/xlink">
    <!-- Generator: Sketch 45.2 (43514) - http://www.bohemiancoding.com/sketch -->
    <desc>Created with Sketch.</desc>
    <defs>
        <path d="M0,5.86472039 C0,9.10351223 2.62592856,11.7294408 5.86472039,11.7294408 C9.10351223,11.7294408 11.7294408,9.10351223 11.7294408,5.86472039 C11.7294408,2.62592856 9.10351223,0 5.86472039,0 C2.62592856,0 0,2.62592856 0,5.86472039 Z" id="path-1"></path>
        <path d="M0,5.86472039 C0,9.10351223 2.62592856,11.7294408 5.86472039,11.7294408 C9.10351223,11.7294408 11.7294408,9.10351223 11.7294408,5.86472039 C11.7294408,2.62592856 9.10351223,0 5.86472039,0 C2.62592856,0 0,2.62592856 0,5.86472039 Z" id="path-3"></path>
        <path d="M0,5.86472039 C0,9.10351223 2.62592856,11.7294408 5.86472039,11.7294408 C9.10351223,11.7294408 11.7294408,9.10351223 11.7294408,5.86472039 C11.7294408,2.62592856 9.10351223,0 5.86472039,0 C2.62592856,0 0,2.62592856 0,5.86472039 Z" id="path-5"></path>
        <path d="M0,5.86472039 C0,9.10351223 2.62592856,11.7294408 5.86472039,11.7294408 C9.10351223,11.7294408 11.7294408,9.10351223 11.7294408,5.86472039 C11.7294408,2.62592856 9.10351223,0 5.86472039,0 C2.62592856,0 0,2.62592856 0,5.86472039 Z" id="path-7"></path>
        <path d="M0,5.86472039 C0,9.10351223 2.62592856,11.7294408 5.86472039,11.7294408 C9.10351223,11.7294408 11.7294408,9.10351223 11.7294408,5.86472039 C11.7294408,2.62592856 9.10351223,0 5.86472039,0 C2.62592856,0 0,2.62592856 0,5.86472039 Z" id="path-9"></path>
        <path d="M0,5.86472039 C0,9.10351223 2.62592856,11.7294408 5.86472039,11.7294408 C9.10351223,11.7294408 11.7294408,9.10351223 11.7294408,5.86472039 C11.7294408,2.62592856 9.10351223,0 5.86472039,0 C2.62592856,0 0,2.62592856 0,5.86472039 Z" id="path-11"></path>
    </defs>
    <g id="Page-1" stroke="none" stroke-width="1" fill="none" fill-rule="evenodd">
        <g id="Desktop-HD" transform="translate(-672.000000, -574.000000)">
            <g id="icon-modules" transform="translate(672.000000, 574.000000)">
                <g id="Group" opacity="0.5" transform="translate(30.000000, 5.000000)" fill-rule="nonzero" fill="#5A626C">
                    <path d="M3,21 L3,-2.44249065e-15 C3,-1.1045695 2.1045695,-2 1,-2 C-0.1045695,-2 -1,-1.1045695 -1,2.66453526e-15 L-1,21 C-1,22.1045695 -0.1045695,23 1,23 C2.1045695,23 3,22.1045695 3,21 Z" id="Path"></path>
                </g>
                <g id="Group" transform="translate(5.000000, 19.000000)" fill-rule="nonzero" fill="#59626C">
                    <polygon id="Path" points="-1.02899151 1.71498585 23.9710085 16.7149859 26.0289915 13.2850141 1.02899151 -1.71498585"></polygon>
                </g>
                <g id="Group" opacity="0.422158062" transform="translate(30.000000, 34.000000)" fill-rule="nonzero" fill="#59626C">
                    <polygon id="Path" points="-1.02899151 1.71498585 23.9710085 16.7149859 26.0289915 13.2850141 1.02899151 -1.71498585"></polygon>
                </g>
                <g id="Group" transform="translate(44.500000, 26.500000) scale(-1, 1) translate(-44.500000, -26.500000) translate(32.000000, 19.000000)" fill-rule="nonzero" fill="#59626C">
                    <polygon id="Path" points="-1.02899151 1.71498585 23.9710085 16.7149859 26.0289915 13.2850141 1.02899151 -1.71498585"></polygon>
                </g>
                <g id="Group" opacity="0.422158062" transform="translate(20.500000, 40.500000) scale(-1, 1) translate(-20.500000, -40.500000) translate(8.000000, 33.000000)" fill-rule="nonzero" fill="#59626C">
                    <polygon id="Path" points="-1.02899151 1.71498585 23.9710085 16.7149859 26.0289915 13.2850141 1.02899151 -1.71498585"></polygon>
                </g>
                <g id="Group" transform="translate(30.000000, 33.000000)" stroke="#5A626C" stroke-width="4">
                    <path d="M1,28 L1,0" id="Path"></path>
                </g>
                <path d="M33.7982182,8.51208813 C31.9643504,7.45447973 29.7088664,7.44155168 27.8629954,8.47806845 L10.0622779,18.4737521 C8.17085899,19.5358456 7,21.5361483 7,23.7053665 L7,43.2946335 C7,45.4638517 8.17085899,47.4641544 10.0622779,48.5262479 L27.8629954,58.5219316 C29.7088664,59.5584483 31.9643504,59.5455203 33.7982182,58.4879119 L50.9975006,48.5689277 C52.8553154,47.4975089 54,45.5159576 54,43.3713331 L54,23.6286669 C54,21.4840424 52.8553154,19.5024911 50.9975006,18.4310723 L33.7982182,8.51208813 Z M35.7965519,5.04702502 L52.9958343,14.9660091 C56.0921924,16.7517073 58,20.0542927 58,23.6286669 L58,43.3713331 C58,46.9457073 56.0921924,50.2482927 52.9958343,52.0339909 L35.7965519,61.952975 C32.7401056,63.7156556 28.9809656,63.7372024 25.904514,62.0096744 L8.10379643,52.0139907 C4.95143166,50.2438351 3,46.9099972 3,43.2946335 L3,23.7053665 C3,20.0900028 4.95143166,16.7561649 8.10379643,14.9860093 L25.904514,4.99032556 C28.9809656,3.26279761 32.7401056,3.28434435 35.7965519,5.04702502 Z" id="Shape" fill="#59626C" fill-rule="nonzero"></path>
                <g id="Group" transform="translate(25.000000, 0.000000)">
                    <mask id="mask-2" fill="white">
                        <use xlink:href="#path-1"></use>
                    </mask>
                    <g id="Path">
                        <use fill="#FFFFFF" fill-rule="evenodd" xlink:href="#path-1"></use>
                        <path stroke="#2B82FC" stroke-width="4" d="M2,5.86472039 C2,7.99894273 3.73049806,9.72944079 5.86472039,9.72944079 C7.99894273,9.72944079 9.72944079,7.99894273 9.72944079,5.86472039 C9.72944079,3.73049806 7.99894273,2 5.86472039,2 C3.73049806,2 2,3.73049806 2,5.86472039 Z"></path>
                    </g>
                </g>
                <g id="Group" transform="translate(0.000000, 13.000000)">
                    <mask id="mask-4" fill="white">
                        <use xlink:href="#path-3"></use>
                    </mask>
                    <g id="Path">
                        <use fill="#FFFFFF" fill-rule="evenodd" xlink:href="#path-3"></use>
                        <path stroke="#2B82FC" stroke-width="4" d="M2,5.86472039 C2,7.99894273 3.73049806,9.72944079 5.86472039,9.72944079 C7.99894273,9.72944079 9.72944079,7.99894273 9.72944079,5.86472039 C9.72944079,3.73049806 7.99894273,2 5.86472039,2 C3.73049806,2 2,3.73049806 2,5.86472039 Z"></path>
                    </g>
                </g>
                <g id="Group" transform="translate(25.000000, 55.000000)">
                    <mask id="mask-6" fill="white">
                        <use xlink:href="#path-5"></use>
                    </mask>
                    <g id="Path">
                        <use fill="#FFFFFF" fill-rule="evenodd" xlink:href="#path-5"></use>
                        <path stroke="#2B82FC" stroke-width="4" d="M2,5.86472039 C2,7.99894273 3.73049806,9.72944079 5.86472039,9.72944079 C7.99894273,9.72944079 9.72944079,7.99894273 9.72944079,5.86472039 C9.72944079,3.73049806 7.99894273,2 5.86472039,2 C3.73049806,2 2,3.73049806 2,5.86472039 Z"></path>
                    </g>
                </g>
                <g id="Group" transform="translate(49.000000, 13.000000)">
                    <mask id="mask-8" fill="white">
                        <use xlink:href="#path-7"></use>
                    </mask>
                    <g id="Path">
                        <use fill="#FFFFFF" fill-rule="evenodd" xlink:href="#path-7"></use>
                        <path stroke="#2B82FC" stroke-width="4" d="M2,5.86472039 C2,7.99894273 3.73049806,9.72944079 5.86472039,9.72944079 C7.99894273,9.72944079 9.72944079,7.99894273 9.72944079,5.86472039 C9.72944079,3.73049806 7.99894273,2 5.86472039,2 C3.73049806,2 2,3.73049806 2,5.86472039 Z"></path>
                    </g>
                </g>
                <g id="Group" transform="translate(0.000000, 43.000000)">
                    <mask id="mask-10" fill="white">
                        <use xlink:href="#path-9"></use>
                    </mask>
                    <g id="Path">
                        <use fill="#FFFFFF" fill-rule="evenodd" xlink:href="#path-9"></use>
                        <path stroke="#2B82FC" stroke-width="4" d="M2,5.86472039 C2,7.99894273 3.73049806,9.72944079 5.86472039,9.72944079 C7.99894273,9.72944079 9.72944079,7.99894273 9.72944079,5.86472039 C9.72944079,3.73049806 7.99894273,2 5.86472039,2 C3.73049806,2 2,3.73049806 2,5.86472039 Z"></path>
                    </g>
                </g>
                <g id="Group" transform="translate(49.000000, 43.000000)">
                    <mask id="mask-12" fill="white">
                        <use xlink:href="#path-11"></use>
                    </mask>
                    <g id="Path">
                        <use fill="#FFFFFF" fill-rule="evenodd" xlink:href="#path-11"></use>
                        <path stroke="#2B82FC" stroke-width="4" d="M2,5.86472039 C2,7.99894273 3.73049806,9.72944079 5.86472039,9.72944079 C7.99894273,9.72944079 9.72944079,7.99894273 9.72944079,5.86472039 C9.72944079,3.73049806 7.99894273,2 5.86472039,2 C3.73049806,2 2,3.73049806 2,5.86472039 Z"></path>
                    </g>
                </g>
            </g>
        </g>
    </g>
</svg>
