<svg width="62px" height="68px" viewBox="0 0 62 68" version="1.1" xmlns="http://www.w3.org/2000/svg" xmlns:xlink="http://www.w3.org/1999/xlink">
    <!-- Generator: Sketch 45.2 (43514) - http://www.bohemiancoding.com/sketch -->
    <desc>Created with Sketch.</desc>
    <defs>
        <path d="M0,5.86472039 C0,9.10351223 2.62592856,11.7294408 5.86472039,11.7294408 C9.10351223,11.7294408 11.7294408,9.10351223 11.7294408,5.86472039 C11.7294408,2.62592856 9.10351223,0 5.86472039,0 C2.62592856,0 0,2.62592856 0,5.86472039 Z" id="path-1"></path>
    </defs>
    <g id="Page-1" stroke="none" stroke-width="1" fill="none" fill-rule="evenodd">
        <g id="Desktop-HD" transform="translate(-309.000000, -573.000000)">
            <g id="icon-bits" transform="translate(309.000000, 573.000000)">
                <path d="M5.20760358,48.4643696 C6.99537008,51.5608721 15.0158966,52.0414979 25.3776428,48.4055907 C29.110158,47.0958617 32.948691,45.3227228 36.7074465,43.1526043 C39.9923886,41.2560421 43.0471147,39.1540868 45.772196,36.9295557 C54.8548484,29.5152293 58.9460162,21.7998431 57.0574917,18.5288228 C55.2656237,15.4252162 47.2166146,14.9509583 36.8299128,18.607826 C33.9722796,19.6139189 31.0477693,20.8933512 28.1431541,22.4166785 C27.2776041,22.8706168 26.4151317,23.3455202 25.5576488,23.8405881 C22.0155058,25.8856453 18.7422452,28.1688663 15.8632151,30.5847738 C14.2518618,31.9369238 12.7764204,33.320431 11.4601189,34.7101367 C5.8029125,40.6828197 3.78289343,45.9966993 5.20760358,48.4643696 Z M1.74350196,50.4643696 C-0.889528428,45.9038272 2.0033921,38.8775004 8.55603509,31.9594463 C9.97043108,30.4661759 11.5553399,28.9779501 13.2919932,27.520656 C16.2930264,25.0023709 19.747195,22.576453 23.5576488,20.3764865 C24.4666253,19.8516887 25.3765997,19.350878 26.2853443,18.8742863 C29.4018277,17.2398446 32.5038472,15.8902437 35.5015486,14.8348367 C47.2382431,10.7026743 57.375842,11.0802216 60.5215933,16.5288228 C63.7954074,22.1992351 58.5263612,31.6816342 48.3016848,40.0282145 C45.4605779,42.3474592 42.2368447,44.5790069 38.7074465,46.6167059 C34.6598735,48.9535732 30.5925129,50.8148185 26.7020607,52.1799671 C14.9914594,56.2891837 4.88375872,55.9034539 1.74350196,50.4643696 Z M57.0574917,48.4643696 C59.6956599,43.8949284 51.238481,32.2300848 36.7074465,23.8405881 C22.1764121,15.4510915 7.84577173,13.9593815 5.20760358,18.5288228 C2.56943543,23.098264 11.0266143,34.7631076 25.5576488,43.1526043 C40.0886832,51.5421009 54.4193236,53.0338109 57.0574917,48.4643696 Z M60.5215933,50.4643696 C56.3380922,57.7104061 39.7887705,55.9877484 23.5576488,46.6167059 C7.32652705,37.2456634 -2.43999916,23.7748593 1.74350196,16.5288228 C5.92700308,9.28278627 22.4763248,11.005444 38.7074465,20.3764865 C54.9385682,29.747529 64.7050945,43.2183331 60.5215933,50.4643696 Z M30.9655064,63.8710938 C33.0654819,63.8710938 35.2600439,61.7870556 37.1412592,58.22005 C38.3763939,55.8780893 39.4764531,52.8968603 40.3259807,49.4464819 C41.4335723,44.9479701 42.1153041,39.6519865 42.1153041,33.9355469 C42.1153041,17.1565536 36.2418427,4 30.9655064,4 C25.6891701,4 19.8157087,17.1565536 19.8157087,33.9355469 C19.8157087,50.7145402 25.6891701,63.8710938 30.9655064,63.8710938 Z M30.9655064,67.8710938 C22.5985042,67.8710938 15.8157087,52.6776319 15.8157087,33.9355469 C15.8157087,15.1934619 22.5985042,0 30.9655064,0 C39.3325087,0 46.1153041,15.1934619 46.1153041,33.9355469 C46.1153041,40.4615052 45.292945,46.5572216 43.8676915,51.7310953 C42.9704998,54.9880293 41.8344018,57.8796688 40.5141425,60.2833851 C37.9083562,65.0275828 34.5851763,67.8710938 30.9655064,67.8710938 Z" id="Shape" fill="#58626C" fill-rule="nonzero"></path>
                <g id="Group" transform="translate(26.000000, 28.000000)">
                    <mask id="mask-2" fill="white">
                        <use xlink:href="#path-1"></use>
                    </mask>
                    <g id="Path">
                        <use fill="#FFFFFF" fill-rule="evenodd" xlink:href="#path-1"></use>
                        <path stroke="#2B82FC" stroke-width="4" d="M2,5.86472039 C2,7.99894273 3.73049806,9.72944079 5.86472039,9.72944079 C7.99894273,9.72944079 9.72944079,7.99894273 9.72944079,5.86472039 C9.72944079,3.73049806 7.99894273,2 5.86472039,2 C3.73049806,2 2,3.73049806 2,5.86472039 Z"></path>
                    </g>
                </g>
            </g>
        </g>
    </g>
</svg>
