<?xml version="1.0" encoding="UTF-8"?>
<svg width="40px" height="40px" viewBox="0 0 40 40" version="1.1" xmlns="http://www.w3.org/2000/svg" xmlns:xlink="http://www.w3.org/1999/xlink" style="background: #353B41;">
    <!-- Generator: Sketch 41.2 (35397) - http://www.bohemiancoding.com/sketch -->
    <title>dk-icon-bits</title>
    <desc>Created with Sketch.</desc>
    <defs>
        <path d="M20.903,1.788 C20.903,2.521 21.413,3.164 22.132,3.307 C28.453,4.561 33.432,9.538 34.692,15.857 C34.824,16.524 35.415,17 36.096,17 C37.063,17 37.807,16.113 37.613,15.165 C36.079,7.683 30.147,1.803 22.635,0.348 C22.542,0.33 22.45,0.321 22.36,0.321 C21.574,0.321 20.903,0.968 20.903,1.788 Z M15.16,0.388 C6.507,2.165 0,9.822 0,19 C0,28.226 6.576,35.917 15.297,37.639 C16.128,37.804 16.903,37.155 16.903,36.308 C16.903,35.5 16.341,34.801 15.552,34.628 C8.373,33.051 3,26.653 3,19 C3,11.298 8.441,4.867 15.69,3.343 C16.4,3.193 16.903,2.559 16.903,1.833 C16.903,1.011 16.233,0.358 15.448,0.358 C15.353,0.358 15.257,0.368 15.16,0.388 Z M34.687,22.166 C33.423,28.46 28.466,33.419 22.173,34.685 C21.43,34.835 20.903,35.497 20.903,36.255 C20.903,37.147 21.717,37.828 22.594,37.661 C30.132,36.218 36.088,30.319 37.617,22.812 C37.808,21.876 37.075,21 36.12,21 C35.426,21 34.823,21.486 34.687,22.166 Z" id="path-1"></path>
        <path d="M0,4 C0,6.209 1.791,8 4,8 C6.209,8 8,6.209 8,4 C8,1.791 6.209,0 4,0 C1.791,0 0,1.791 0,4 Z" id="path-3"></path>
    </defs>
    <g id="Page-1" stroke="none" stroke-width="1" fill="none" fill-rule="evenodd">
        <g id="dk-icon-bits">
            <g id="Page-1" transform="translate(1.000000, 1.000000)">
                <g id="Group-3">
                    <mask id="mask-2" fill="white">
                        <use xlink:href="#path-1"></use>
                    </mask>
                    <use id="Clip-2" fill="#FFFFFF" xlink:href="#path-1"></use>
                </g>
                <g id="Group-8" transform="translate(15.000000, 15.000000)">
                    <mask id="mask-4" fill="white">
                        <use xlink:href="#path-3"></use>
                    </mask>
                    <use id="Clip-7" fill="#FFFFFF" xlink:href="#path-3"></use>
                </g>
                <path d="M10,19 C10,13.945 14.168,9.863 19.255,10.004 C23.952,10.134 27.867,14.049 27.996,18.745 C28.137,23.832 24.055,28 19,28 C16.431,28 14.119,26.919 12.481,25.192 C11.979,24.663 11.213,24.483 10.542,24.771 C9.663,25.149 9.423,26.278 10.06,26.991 C12.538,29.766 16.282,31.384 20.39,30.922 C25.445,30.352 30.34,25.47 30.919,20.416 C31.777,12.919 25.72,6.601 18.304,7.02 C14.141,7.255 9.446,10.873 7.861,14.73 C7.121,16.528 6.909,18.245 7.034,19.867 C7.109,20.845 8.142,21.449 9.043,21.062 L9.043,21.062 C9.653,20.799 10.06,20.189 10.017,19.527 C10.006,19.352 10,19.177 10,19" id="Fill-9" fill="#2997FF"></path>
            </g>
        </g>
    </g>
</svg>