<?xml version="1.0" encoding="UTF-8" standalone="no"?>
<svg width="17px" height="16px" viewBox="0 0 17 16" version="1.1" xmlns="http://www.w3.org/2000/svg" xmlns:xlink="http://www.w3.org/1999/xlink">
    <!-- Generator: Sketch 3.7.2 (28276) - http://www.bohemiancoding.com/sketch -->
    <title>Shape</title>
    <desc>Created with Sketch.</desc>
    <defs></defs>
    <g id="Page-1" stroke="none" stroke-width="1" fill="none" fill-rule="evenodd">
        <path d="M15.7447385,7.2384526 L12.7432305,10.2356729 C11.947992,11.0314955 10.8687014,11.4786842 9.7432212,11.4786842 C8.61774097,11.4786842 7.53845045,11.0314955 6.74321194,10.2356729 C6.49339758,9.97853835 6.27688248,9.69107817 6.098747,9.38003742 L7.49458811,7.98725848 C7.55953419,7.92036515 7.64146617,7.88242566 7.71940146,7.8374973 C7.816321,8.16697189 7.98418163,8.47647832 8.24296678,8.73606436 C8.64028969,9.13357901 9.17947261,9.35694208 9.74172245,9.35694208 C10.3039723,9.35694208 10.8431552,9.13357901 11.2404781,8.73606436 L14.2379895,5.73884402 C14.7739788,5.20379888 14.9835921,4.42366813 14.7878701,3.6923195 C14.5921481,2.96097086 14.0208257,2.38951359 13.2891144,2.19321011 C12.5574031,1.99690663 11.7764674,2.20558012 11.2404781,2.74062528 L10.1713657,3.80892167 C9.30208745,3.469463 8.37285893,3.3796063 7.46361383,3.51339295 L9.74172245,1.23702307 C11.3977408,-0.415893497 14.0807268,-0.415893497 15.7367451,1.23702307 C17.3892739,2.89245969 17.3892739,5.5720335 15.7367451,7.22747011 L15.7447385,7.2384526 Z M7.81132514,12.1675921 L6.74221277,13.2338917 C5.91340455,14.0603043 4.5715113,14.0603043 3.74270308,13.2338917 C2.91554431,12.4053738 2.91554431,11.0641908 3.74270308,10.2356729 L6.74321194,7.2384526 C7.14091653,6.84051102 7.68064449,6.61690427 8.24346636,6.61690427 C8.80628823,6.61690427 9.34601619,6.84051102 9.74372079,7.2384526 C10.0035051,7.49604182 10.1733641,7.80754507 10.2732811,8.13701966 C10.3532148,8.09109289 10.4331484,8.0531534 10.5030903,7.98725848 L11.8919372,6.59447954 C11.7144504,6.28327243 11.4982424,5.99577412 11.2484715,5.73884402 C9.59108112,4.083589 6.90484414,4.083589 5.24745378,5.73884402 L2.24194907,8.73606436 C1.15651144,9.80436062 0.727513632,11.372111 1.11795338,12.8436488 C1.50839312,14.3151866 2.65833999,15.4646384 4.13087165,15.8552702 C5.60340331,16.2459019 7.17249397,15.8177536 8.24196761,14.7335003 L10.5100845,12.4601256 C9.5976458,12.5999154 8.6645086,12.5001356 7.80233261,12.1705873 L7.81132514,12.1675921 Z" id="Shape" fill="#0A83F6"></path>
    </g>
</svg>