<?xml version="1.0" encoding="UTF-8"?>
<svg width="286px" height="286px" viewBox="0 0 286 286" version="1.1" xmlns="http://www.w3.org/2000/svg" xmlns:xlink="http://www.w3.org/1999/xlink">
    <!-- Generator: Sketch 44.1 (41455) - http://www.bohemiancoding.com/sketch -->
    <title>Group@2x</title>
    <desc>Created with Sketch.</desc>
    <defs></defs>
    <g id="Page-2-Copy" stroke="none" stroke-width="1" fill="none" fill-rule="evenodd">
        <g id="Group" fill-rule="nonzero" fill="#0080FA">
            <path d="M143,285.5 C221.700577,285.5 285.5,221.700577 285.5,143 C285.5,107.085279 272.145404,73.2204603 248.474049,47.1786108 C243.83054,42.0700925 235.92496,41.6931276 230.816442,46.3366363 C225.707923,50.9801449 225.330959,58.8857248 229.974467,63.9942431 C249.502789,85.4781675 260.5,113.365089 260.5,143 C260.5,207.893458 207.893458,260.5 143,260.5 C136.096441,260.5 130.5,266.096441 130.5,273 C130.5,279.903559 136.096441,285.5 143,285.5 Z" id="Oval"></path>
            <path d="M143,285.5 C64.2994232,285.5 0.5,221.700577 0.5,143 C0.5,64.2994232 64.2994232,0.5 143,0.5 C221.700577,0.5 285.5,64.2994232 285.5,143 C285.5,221.700577 221.700577,285.5 143,285.5 Z M143,260.5 C207.893458,260.5 260.5,207.893458 260.5,143 C260.5,78.1065419 207.893458,25.5 143,25.5 C78.1065419,25.5 25.5,78.1065419 25.5,143 C25.5,207.893458 78.1065419,260.5 143,260.5 Z" id="Oval" fill-opacity="0.07"></path>
            <path d="M143,259.5 C78.6588266,259.5 26.5,207.341173 26.5,143 C26.5,78.6588266 78.6588266,26.5 143,26.5 C207.341173,26.5 259.5,78.6588266 259.5,143 C259.5,207.341173 207.341173,259.5 143,259.5 Z M143,234.5 C193.534055,234.5 234.5,193.534055 234.5,143 C234.5,92.4659454 193.534055,51.5 143,51.5 C92.4659454,51.5 51.5,92.4659454 51.5,143 C51.5,193.534055 92.4659454,234.5 143,234.5 Z" id="Oval" fill-opacity="0.07"></path>
            <path d="M143,259.5 C207.341173,259.5 259.5,207.341173 259.5,143 C259.5,78.6588266 207.341173,26.5 143,26.5 C114.871445,26.5 88.2574568,36.5193651 67.3139891,54.4317686 C62.0675744,58.9188907 61.4520461,66.8094813 65.9391682,72.055896 C70.4262903,77.3023107 78.3168809,77.917839 83.5632956,73.4307169 C100.020157,59.355591 120.88661,51.5 143,51.5 C193.534055,51.5 234.5,92.4659454 234.5,143 C234.5,193.534055 193.534055,234.5 143,234.5 C136.096441,234.5 130.5,240.096441 130.5,247 C130.5,253.903559 136.096441,259.5 143,259.5 Z" id="Oval"></path>
            <path d="M143,233.5 C93.0182301,233.5 52.5,192.98177 52.5,143 C52.5,93.0182301 93.0182301,52.5 143,52.5 C192.98177,52.5 233.5,93.0182301 233.5,143 C233.5,192.98177 192.98177,233.5 143,233.5 Z M143,208.5 C179.174651,208.5 208.5,179.174651 208.5,143 C208.5,106.825349 179.174651,77.5 143,77.5 C106.825349,77.5 77.5,106.825349 77.5,143 C77.5,179.174651 106.825349,208.5 143,208.5 Z" id="Oval"></path>
        </g>
    </g>
</svg>