<?xml version="1.0" encoding="UTF-8" standalone="no"?>
<svg width="185px" height="17px" viewBox="0 0 185 17" version="1.1" xmlns="http://www.w3.org/2000/svg" xmlns:xlink="http://www.w3.org/1999/xlink" xmlns:sketch="http://www.bohemiancoding.com/sketch/ns">
    <!-- Generator: Sketch 3.3.2 (12043) - http://www.bohemiancoding.com/sketch -->
    <title>DK logo</title>
    <desc>Created with Sketch.</desc>
    <defs></defs>
    <g id="Page-1" stroke="none" stroke-width="1" fill="none" fill-rule="evenodd" sketch:type="MSPage">
        <g id="logos" sketch:type="MSArtboardGroup" transform="translate(-126.000000, -334.000000)">
            <g id="DK-logo" sketch:type="MSLayerGroup" transform="translate(126.000000, 334.000000)">
                <g id="Group" sketch:type="MSShapeGroup">
                    <path d="M70.3,7.10542736e-15 L64.1,7.10542736e-15 C63.5,7.10542736e-15 63,0.2 62.6,0.6 C62.2,1 62,1.5 62,2.1 L62,10.9 C62,11.5 62.2,12 62.6,12.4 C63,12.8 63.5,13 64.1,13 L70.3,13 C70.9,13 71.4,12.8 71.8,12.4 C72.2,12 72.4,11.5 72.4,10.9 L72.4,10.3 L64.7,10.3 L64.7,2.7 L72.4,2.7 L72.4,2.1 C72.4,1.5 72.2,1 71.8,0.6 C71.4,0.2 70.9,7.10542736e-15 70.3,7.10542736e-15 L70.3,7.10542736e-15 Z M82,7.10542736e-15 L75.8,7.10542736e-15 C75.2,7.10542736e-15 74.7,0.2 74.3,0.6 C73.9,1 73.7,1.5 73.7,2.1 L73.7,2.7 L81.5,2.7 L81.5,5.2 L75.9,5.2 C75.3,5.2 74.8,5.4 74.4,5.8 C74,6.2 73.8,6.7 73.8,7.3 L73.8,10.9 C73.8,11.5 74,12 74.4,12.4 C74.8,12.8 75.3,13 75.9,13 L82,13 C82.6,13 83.1,12.8 83.5,12.4 C83.9,12 84.1,11.5 84.1,10.9 L84.1,2.1 C84.1,1.5 83.9,1 83.5,0.6 C83.1,0.2 82.6,7.10542736e-15 82,7.10542736e-15 L82,7.10542736e-15 Z M81.4,10.3 L76.4,10.3 L76.4,7.8 L81.4,7.8 L81.4,10.3 L81.4,10.3 Z M90.6,10.3 L88,10.3 L88,2.1 C88,1.5 87.8,1 87.4,0.6 C87,0.2 86.5,7.10542736e-15 85.9,7.10542736e-15 L85.3,7.10542736e-15 L85.3,10.9 C85.3,11.5 85.5,12 85.9,12.4 C86.3,12.8 86.8,13 87.4,13 L91,13 C91.6,13 92.1,12.8 92.5,12.4 C92.9,12 93.1,11.5 93.1,10.9 L93.1,10.3 L90.6,10.3 L90.6,10.3 Z M102.8,7.8 C103.4,7.8 103.9,7.6 104.3,7.2 C104.7,6.8 104.9,6.3 104.9,5.7 L104.9,2.1 C104.9,1.5 104.7,1 104.3,0.6 C103.9,0.2 103.4,7.10542736e-15 102.8,7.10542736e-15 L96.6,7.10542736e-15 C96,7.10542736e-15 95.5,0.2 95.1,0.6 C94.7,1 94.5,1.5 94.5,2.1 L94.5,10.9 C94.5,11.5 94.7,12 95.1,12.4 C95.5,12.8 96,13 96.6,13 L102.8,13 C103.4,13 103.9,12.8 104.3,12.4 C104.7,12 104.9,11.5 104.9,10.9 L104.9,10.3 L97.1,10.3 L97.1,7.8 L102.8,7.8 L102.8,7.8 Z M97.1,2.7 L102.1,2.7 L102.1,5.2 L97.1,5.2 L97.1,2.7 L97.1,2.7 Z M58.7,7.10542736e-15 L52.5,7.10542736e-15 C51.9,7.10542736e-15 51.4,0.2 51,0.6 C50.6,1 50.4,1.5 50.4,2.1 L50.4,5.7 C50.4,6.3 50.6,6.8 51,7.2 C51.4,7.6 51.9,7.8 52.5,7.8 L58.1,7.8 L58.1,10.3 L50.4,10.3 L50.4,10.9 C50.4,11.5 50.6,12 51,12.4 C51.4,12.8 51.9,13 52.5,13 L58.7,13 C59.3,13 59.8,12.8 60.2,12.4 C60.6,12 60.8,11.5 60.8,10.9 L60.8,7.3 C60.8,6.7 60.6,6.2 60.2,5.8 C59.8,5.4 59.3,5.2 58.7,5.2 L53.1,5.2 L53.1,2.7 L60.9,2.7 L60.9,2.1 C60.9,1.5 60.7,1 60.3,0.6 C59.8,0.2 59.2,7.10542736e-15 58.7,7.10542736e-15 L58.7,7.10542736e-15 Z M8.3,1.42108547e-14 L0,1.42108547e-14 L0,13 L2.7,13 L2.7,10.4 L7.7,10.4 L7.7,10.9 C7.7,11.5 7.9,12 8.3,12.4 C8.8,12.8 9.3,13 9.8,13 L10.4,13 L10.4,9.9 C10.4,9.3 10.2,8.8 9.8,8.4 C9.5,8.1 9.2,7.9 8.8,7.8 C9.2,7.7 9.5,7.5 9.8,7.2 C10.2,6.8 10.4,6.3 10.4,5.7 L10.4,2.1 C10.4,1.5 10.2,1 9.8,0.6 C9.4,0.2 8.9,7.10542736e-15 8.3,7.10542736e-15 L8.3,1.42108547e-14 Z M7.7,7.7 L2.7,7.7 L2.7,2.7 L7.7,2.7 L7.7,7.7 L7.7,7.7 Z M12.2,3.1 L11.6,3.1 L11.6,13 L14.3,13 L14.3,5.3 C14.3,4.7 14.1,4.2 13.7,3.8 C13.3,3.3 12.8,3.1 12.2,3.1 L12.2,3.1 Z M16.2,0.6 C15.8,1 15.6,1.5 15.6,2.1 L15.6,10.9 C15.6,11.5 15.8,12 16.2,12.4 C16.6,12.8 17.1,13 17.7,13 L23.9,13 C24.5,13 25,12.8 25.4,12.4 C25.8,12 26,11.5 26,10.9 L26,5.2 L23.3,5.2 L23.3,10.4 L18.3,10.4 L18.3,2.7 L26,2.7 L26,7.10542736e-15 L17.7,7.10542736e-15 C17.1,7.10542736e-15 16.6,0.2 16.2,0.6 L16.2,0.6 Z M35,5.2 L30,5.2 L30,7.10542736e-15 L27.3,7.10542736e-15 L27.3,13 L30,13 L30,7.8 L35,7.8 L35,13 L37.7,13 L37.7,7.10542736e-15 L35,7.10542736e-15 L35,5.2 L35,5.2 Z M38.9,1.0658141e-14 L38.9,2.7 L41.5,2.7 L41.5,13 L42.1,13 C42.7,13 43.2,12.8 43.6,12.4 C44,12 44.2,11.5 44.2,10.9 L44.2,2.7 L46.8,2.7 L46.8,7.10542736e-15 L38.9,7.10542736e-15 L38.9,1.0658141e-14 Z" id="Shape" opacity="0.25" fill="#000000"></path>
                    <path d="M70.3,1 L64.1,1 C63.5,1 63,1.2 62.6,1.6 C62.2,2 62,2.5 62,3.1 L62,11.9 C62,12.5 62.2,13 62.6,13.4 C63,13.8 63.5,14 64.1,14 L70.3,14 C70.9,14 71.4,13.8 71.8,13.4 C72.2,13 72.4,12.5 72.4,11.9 L72.4,11.3 L64.7,11.3 L64.7,3.7 L72.4,3.7 L72.4,3.1 C72.4,2.5 72.2,2 71.8,1.6 C71.4,1.2 70.9,1 70.3,1 L70.3,1 Z M82,1 L75.8,1 C75.2,1 74.7,1.2 74.3,1.6 C73.9,2 73.7,2.5 73.7,3.1 L73.7,3.7 L81.5,3.7 L81.5,6.2 L75.9,6.2 C75.3,6.2 74.8,6.4 74.4,6.8 C74,7.2 73.8,7.7 73.8,8.3 L73.8,11.9 C73.8,12.5 74,13 74.4,13.4 C74.8,13.8 75.3,14 75.9,14 L82,14 C82.6,14 83.1,13.8 83.5,13.4 C83.9,13 84.1,12.5 84.1,11.9 L84.1,3.1 C84.1,2.5 83.9,2 83.5,1.6 C83.1,1.2 82.6,1 82,1 L82,1 Z M81.4,11.3 L76.4,11.3 L76.4,8.8 L81.4,8.8 L81.4,11.3 L81.4,11.3 Z M90.6,11.3 L88,11.3 L88,3.1 C88,2.5 87.8,2 87.4,1.6 C87,1.2 86.5,1 85.9,1 L85.3,1 L85.3,11.9 C85.3,12.5 85.5,13 85.9,13.4 C86.3,13.8 86.8,14 87.4,14 L91,14 C91.6,14 92.1,13.8 92.5,13.4 C92.9,13 93.1,12.5 93.1,11.9 L93.1,11.3 L90.6,11.3 L90.6,11.3 Z M102.8,8.8 C103.4,8.8 103.9,8.6 104.3,8.2 C104.7,7.8 104.9,7.3 104.9,6.7 L104.9,3.1 C104.9,2.5 104.7,2 104.3,1.6 C103.9,1.2 103.4,1 102.8,1 L96.6,1 C96,1 95.5,1.2 95.1,1.6 C94.7,2 94.5,2.5 94.5,3.1 L94.5,11.9 C94.5,12.5 94.7,13 95.1,13.4 C95.5,13.8 96,14 96.6,14 L102.8,14 C103.4,14 103.9,13.8 104.3,13.4 C104.7,13 104.9,12.5 104.9,11.9 L104.9,11.3 L97.1,11.3 L97.1,8.8 L102.8,8.8 L102.8,8.8 Z M97.1,3.7 L102.1,3.7 L102.1,6.2 L97.1,6.2 L97.1,3.7 L97.1,3.7 Z M58.7,1 L52.5,1 C51.9,1 51.4,1.2 51,1.6 C50.6,2 50.4,2.5 50.4,3.1 L50.4,6.7 C50.4,7.3 50.6,7.8 51,8.2 C51.4,8.6 51.9,8.8 52.5,8.8 L58.1,8.8 L58.1,11.3 L50.4,11.3 L50.4,11.9 C50.4,12.5 50.6,13 51,13.4 C51.4,13.8 51.9,14 52.5,14 L58.7,14 C59.3,14 59.8,13.8 60.2,13.4 C60.6,13 60.8,12.5 60.8,11.9 L60.8,8.3 C60.8,7.7 60.6,7.2 60.2,6.8 C59.8,6.4 59.3,6.2 58.7,6.2 L53.1,6.2 L53.1,3.7 L60.9,3.7 L60.9,3.1 C60.9,2.5 60.7,2 60.3,1.6 C59.8,1.2 59.2,1 58.7,1 L58.7,1 Z M8.3,1 L0,1 L0,14 L2.7,14 L2.7,11.4 L7.7,11.4 L7.7,11.9 C7.7,12.5 7.9,13 8.3,13.4 C8.8,13.8 9.3,14 9.8,14 L10.4,14 L10.4,10.9 C10.4,10.3 10.2,9.8 9.8,9.4 C9.5,9.1 9.2,8.9 8.8,8.8 C9.2,8.7 9.5,8.5 9.8,8.2 C10.2,7.8 10.4,7.3 10.4,6.7 L10.4,3.1 C10.4,2.5 10.2,2 9.8,1.6 C9.4,1.2 8.9,1 8.3,1 L8.3,1 Z M7.7,8.7 L2.7,8.7 L2.7,3.7 L7.7,3.7 L7.7,8.7 L7.7,8.7 Z M12.2,4.1 L11.6,4.1 L11.6,14 L14.3,14 L14.3,6.3 C14.3,5.7 14.1,5.2 13.7,4.8 C13.3,4.3 12.8,4.1 12.2,4.1 L12.2,4.1 Z M16.2,1.6 C15.8,2 15.6,2.5 15.6,3.1 L15.6,11.9 C15.6,12.5 15.8,13 16.2,13.4 C16.6,13.8 17.1,14 17.7,14 L23.9,14 C24.5,14 25,13.8 25.4,13.4 C25.8,13 26,12.5 26,11.9 L26,6.2 L23.3,6.2 L23.3,11.4 L18.3,11.4 L18.3,3.7 L26,3.7 L26,1 L17.7,1 C17.1,1 16.6,1.2 16.2,1.6 L16.2,1.6 Z M35,6.2 L30,6.2 L30,1 L27.3,1 L27.3,14 L30,14 L30,8.8 L35,8.8 L35,14 L37.7,14 L37.7,1 L35,1 L35,6.2 L35,6.2 Z M38.9,1 L38.9,3.7 L41.5,3.7 L41.5,14 L42.1,14 C42.7,14 43.2,13.8 43.6,13.4 C44,13 44.2,12.5 44.2,11.9 L44.2,3.7 L46.8,3.7 L46.8,1 L38.9,1 L38.9,1 Z" id="Shape" fill="#FFFFFF"></path>
                    <path d="M11.7,0.6 C11.7,1.2 11.9,1.7 12.3,2.1 C12.7,2.5 13.2,2.7 13.8,2.7 L14.4,2.7 L14.4,0 L11.7,0 L11.7,0.6 L11.7,0.6 Z" id="Shape" opacity="0.25" fill="#000000"></path>
                    <path d="M11.7,1.6 C11.7,2.2 11.9,2.7 12.3,3.1 C12.7,3.5 13.2,3.7 13.8,3.7 L14.4,3.7 L14.4,1 L11.7,1 L11.7,1.6 L11.7,1.6 Z" id="Shape" fill="#F3A02D"></path>
                </g>
                <g id="Group" transform="translate(113.000000, 0.000000)" sketch:type="MSShapeGroup">
                    <path d="M1.768,10.72 L1.768,1.856 L4.328,1.856 C5.03200352,1.856 5.6239976,1.95466568 6.104,2.152 C6.5840024,2.34933432 6.97599848,2.63733144 7.28,3.016 C7.58400152,3.39466856 7.802666,3.85333064 7.936,4.392 C8.069334,4.93066936 8.136,5.54132992 8.136,6.224 C8.136,6.92800352 8.06400072,7.52799752 7.92,8.024 C7.77599928,8.52000248 7.59200112,8.93333168 7.368,9.264 C7.14399888,9.59466832 6.89066808,9.85599904 6.608,10.048 C6.32533192,10.240001 6.04000144,10.3866662 5.752,10.488 C5.46399856,10.5893338 5.19200128,10.6533332 4.936,10.68 C4.67999872,10.7066668 4.46666752,10.72 4.296,10.72 L1.768,10.72 Z M0.248,0.576 L0.248,12 L4.168,12 C5.11733808,12 5.9386632,11.866668 6.632,11.6 C7.3253368,11.333332 7.89599776,10.9466692 8.344,10.44 C8.79200224,9.9333308 9.1226656,9.30933704 9.336,8.568 C9.5493344,7.82666296 9.656,6.9760048 9.656,6.016 C9.656,4.18132416 9.18133808,2.81600448 8.232,1.92 C7.28266192,1.02399552 5.9280088,0.576 4.168,0.576 L0.248,0.576 Z M17.032,7.072 L12.28,7.072 C12.3013334,6.7519984 12.3706661,6.45066808 12.488,6.168 C12.6053339,5.88533192 12.7653323,5.6373344 12.968,5.424 C13.1706677,5.2106656 13.4133319,5.04266728 13.696,4.92 C13.9786681,4.79733272 14.2959982,4.736 14.648,4.736 C14.989335,4.736 15.3013319,4.79733272 15.584,4.92 C15.8666681,5.04266728 16.111999,5.20799896 16.32,5.416 C16.528001,5.62400104 16.6933327,5.87199856 16.816,6.16 C16.9386673,6.44800144 17.0106666,6.7519984 17.032,7.072 L17.032,7.072 Z M18.344,9.376 L17,9.376 C16.8826661,9.92000272 16.6400018,10.325332 16.272,10.592 C15.9039982,10.858668 15.4320029,10.992 14.856,10.992 C14.4079978,10.992 14.0186683,10.9173341 13.688,10.768 C13.3573317,10.6186659 13.0853344,10.4186679 12.872,10.168 C12.6586656,9.91733208 12.5040005,9.62933496 12.408,9.304 C12.3119995,8.97866504 12.2693333,8.63466848 12.28,8.272 L18.472,8.272 C18.4933334,7.77066416 18.4480006,7.24266944 18.336,6.688 C18.2239994,6.13333056 18.0213348,5.62133568 17.728,5.152 C17.4346652,4.68266432 17.0453358,4.29600152 16.56,3.992 C16.0746642,3.68799848 15.4640037,3.536 14.728,3.536 C14.1626638,3.536 13.642669,3.6426656 13.168,3.856 C12.693331,4.0693344 12.2826684,4.36799808 11.936,4.752 C11.5893316,5.13600192 11.320001,5.58933072 11.128,6.112 C10.935999,6.63466928 10.84,7.21066352 10.84,7.84 C10.8613334,8.46933648 10.9546658,9.050664 11.12,9.584 C11.2853342,10.117336 11.5333317,10.5759981 11.864,10.96 C12.1946683,11.3440019 12.6026642,11.6426656 13.088,11.856 C13.5733358,12.0693344 14.1466634,12.176 14.808,12.176 C15.7466714,12.176 16.5253302,11.9413357 17.144,11.472 C17.7626698,11.0026643 18.1626658,10.3040046 18.344,9.376 L18.344,9.376 Z M20.712,9.392 L19.352,9.392 C19.3733334,9.90400256 19.479999,10.3386649 19.672,10.696 C19.864001,11.0533351 20.1199984,11.3413322 20.44,11.56 C20.7600016,11.7786678 21.1279979,11.9359995 21.544,12.032 C21.9600021,12.1280005 22.397331,12.176 22.856,12.176 C23.2720021,12.176 23.6906646,12.1360004 24.112,12.056 C24.5333354,11.9759996 24.9119983,11.8346677 25.248,11.632 C25.5840017,11.4293323 25.855999,11.1626683 26.064,10.832 C26.272001,10.5013317 26.376,10.0853358 26.376,9.584 C26.376,9.18933136 26.2986674,8.858668 26.144,8.592 C25.9893326,8.325332 25.7866679,8.10400088 25.536,7.928 C25.2853321,7.75199912 24.997335,7.6106672 24.672,7.504 C24.346665,7.3973328 24.013335,7.30666704 23.672,7.232 C23.3519984,7.15733296 23.0320016,7.08533368 22.712,7.016 C22.3919984,6.94666632 22.1040013,6.86133384 21.848,6.76 C21.5919987,6.65866616 21.3813342,6.53066744 21.216,6.376 C21.0506658,6.22133256 20.968,6.02666784 20.968,5.792 C20.968,5.5786656 21.0213328,5.405334 21.128,5.272 C21.2346672,5.138666 21.3733325,5.0320004 21.544,4.952 C21.7146675,4.8719996 21.903999,4.81600016 22.112,4.784 C22.320001,4.75199984 22.5253323,4.736 22.728,4.736 C22.9520011,4.736 23.1733322,4.75999976 23.392,4.808 C23.6106678,4.85600024 23.8106658,4.9333328 23.992,5.04 C24.1733342,5.1466672 24.3226661,5.28799912 24.44,5.464 C24.5573339,5.64000088 24.6266666,5.861332 24.648,6.128 L26.008,6.128 C25.9759998,5.62666416 25.8693342,5.20800168 25.688,4.872 C25.5066658,4.53599832 25.2640015,4.26933432 24.96,4.072 C24.6559985,3.87466568 24.3066686,3.7360004 23.912,3.656 C23.5173314,3.5759996 23.0853357,3.536 22.616,3.536 C22.2533315,3.536 21.8880018,3.58133288 21.52,3.672 C21.1519982,3.76266712 20.8213348,3.9013324 20.528,4.088 C20.2346652,4.2746676 19.9946676,4.51733184 19.808,4.816 C19.6213324,5.11466816 19.528,5.47199792 19.528,5.888 C19.528,6.421336 19.661332,6.83733184 19.928,7.136 C20.194668,7.43466816 20.527998,7.66666584 20.928,7.832 C21.328002,7.99733416 21.7626643,8.12533288 22.232,8.216 C22.7013357,8.30666712 23.135998,8.40799944 23.536,8.52 C23.936002,8.63200056 24.269332,8.77866576 24.536,8.96 C24.802668,9.14133424 24.936,9.40799824 24.936,9.76 C24.936,10.0160013 24.8720006,10.2266658 24.744,10.392 C24.6159994,10.5573342 24.4533343,10.6826662 24.256,10.768 C24.0586657,10.8533338 23.8426678,10.9119998 23.608,10.944 C23.3733322,10.9760002 23.1493344,10.992 22.936,10.992 C22.6586653,10.992 22.3893346,10.9653336 22.128,10.912 C21.8666654,10.8586664 21.632001,10.7706673 21.424,10.648 C21.215999,10.5253327 21.0480006,10.360001 20.92,10.152 C20.7919994,9.94399896 20.7226667,9.69066816 20.712,9.392 L20.712,9.392 Z M29.32,2.24 L29.32,0.576 L27.96,0.576 L27.96,2.24 L29.32,2.24 Z M27.96,3.728 L27.96,12 L29.32,12 L29.32,3.728 L27.96,3.728 Z M38.568,11.296 L38.568,3.728 L37.288,3.728 L37.288,4.912 L37.272,4.912 C37.0266654,4.45333104 36.6853355,4.10933448 36.248,3.88 C35.8106645,3.65066552 35.3306693,3.536 34.808,3.536 C34.0933298,3.536 33.4906691,3.67199864 33,3.944 C32.5093309,4.21600136 32.1146682,4.56266456 31.816,4.984 C31.5173318,5.40533544 31.3040006,5.87466408 31.176,6.392 C31.0479994,6.90933592 30.984,7.41333088 30.984,7.904 C30.984,8.46933616 31.0613326,9.0053308 31.216,9.512 C31.3706674,10.0186692 31.6026651,10.4613314 31.912,10.84 C32.2213349,11.2186686 32.605331,11.5199989 33.064,11.744 C33.522669,11.9680011 34.0613302,12.08 34.68,12.08 C35.213336,12.08 35.717331,11.9600012 36.192,11.72 C36.666669,11.4799988 37.0213322,11.1040026 37.256,10.592 L37.288,10.592 L37.288,11.136 C37.288,11.594669 37.2426671,12.0159981 37.152,12.4 C37.0613329,12.7840019 36.9146677,13.1119986 36.712,13.384 C36.5093323,13.6560014 36.2533349,13.8693326 35.944,14.024 C35.6346651,14.1786674 35.2560022,14.256 34.808,14.256 C34.5839989,14.256 34.3493346,14.2320002 34.104,14.184 C33.8586654,14.1359998 33.632001,14.0586672 33.424,13.952 C33.215999,13.8453328 33.0400007,13.7066675 32.896,13.536 C32.7519993,13.3653325 32.6746667,13.1573346 32.664,12.912 L31.304,12.912 C31.3253334,13.3600022 31.4426656,13.7386651 31.656,14.048 C31.8693344,14.3573349 32.138665,14.607999 32.464,14.8 C32.789335,14.992001 33.151998,15.1306662 33.552,15.216 C33.952002,15.3013338 34.3439981,15.344 34.728,15.344 C36.0506733,15.344 37.0213302,15.0080034 37.64,14.336 C38.2586698,13.6639966 38.568,12.6506734 38.568,11.296 L38.568,11.296 Z M34.76,10.896 C34.3119978,10.896 33.9386682,10.8026676 33.64,10.616 C33.3413318,10.4293324 33.1013342,10.1840015 32.92,9.88 C32.7386658,9.57599848 32.610667,9.2373352 32.536,8.864 C32.461333,8.4906648 32.424,8.1173352 32.424,7.744 C32.424,7.34933136 32.4693329,6.97066848 32.56,6.608 C32.6506671,6.24533152 32.7946657,5.92533472 32.992,5.648 C33.1893343,5.37066528 33.4426651,5.14933416 33.752,4.984 C34.0613349,4.81866584 34.4346645,4.736 34.872,4.736 C35.2986688,4.736 35.6613318,4.82133248 35.96,4.992 C36.2586682,5.16266752 36.5013324,5.38933192 36.688,5.672 C36.8746676,5.95466808 37.0106662,6.27199824 37.096,6.624 C37.1813338,6.97600176 37.224,7.33333152 37.224,7.696 C37.224,8.08000192 37.1786671,8.46399808 37.088,8.848 C36.9973329,9.23200192 36.856001,9.57599848 36.664,9.88 C36.471999,10.1840015 36.2186682,10.4293324 35.904,10.616 C35.5893318,10.8026676 35.2080022,10.896 34.76,10.896 L34.76,10.896 Z M40.616,3.728 L40.616,12 L41.976,12 L41.976,7.328 C41.976,6.9546648 42.0266662,6.61066824 42.128,6.296 C42.2293338,5.98133176 42.3813323,5.70666784 42.584,5.472 C42.7866677,5.23733216 43.0399985,5.05600064 43.344,4.928 C43.6480015,4.79999936 44.0079979,4.736 44.424,4.736 C44.9466693,4.736 45.3573318,4.88533184 45.656,5.184 C45.9546682,5.48266816 46.104,5.88799744 46.104,6.4 L46.104,12 L47.464,12 L47.464,6.56 C47.464,6.11199776 47.4186671,5.70400184 47.328,5.336 C47.2373329,4.96799816 47.0800011,4.650668 46.856,4.384 C46.6319989,4.117332 46.3386685,3.90933408 45.976,3.76 C45.6133315,3.61066592 45.1600027,3.536 44.616,3.536 C43.3893272,3.536 42.4933362,4.03732832 41.928,5.04 L41.896,5.04 L41.896,3.728 L40.616,3.728 Z M54.184,0.576 L54.184,12 L55.704,12 L55.704,8 L57.608,6.224 L61.736,12 L63.656,12 L58.648,5.184 L63.464,0.576 L61.496,0.576 L55.704,6.272 L55.704,0.576 L54.184,0.576 Z M66.072,2.24 L66.072,0.576 L64.712,0.576 L64.712,2.24 L66.072,2.24 Z M64.712,3.728 L64.712,12 L66.072,12 L66.072,3.728 L64.712,3.728 Z M70.072,3.728 L70.072,1.248 L68.712,1.248 L68.712,3.728 L67.304,3.728 L67.304,4.928 L68.712,4.928 L68.712,10.192 C68.712,10.5760019 68.749333,10.8853322 68.824,11.12 C68.898667,11.3546678 69.0133326,11.5359994 69.168,11.664 C69.3226674,11.7920006 69.5253321,11.8799998 69.776,11.928 C70.0266679,11.9760002 70.3279982,12 70.68,12 L71.72,12 L71.72,10.8 L71.096,10.8 C70.8826656,10.8 70.709334,10.7920001 70.576,10.776 C70.442666,10.7599999 70.338667,10.7253336 70.264,10.672 C70.189333,10.6186664 70.1386668,10.5440005 70.112,10.448 C70.0853332,10.3519995 70.072,10.2240008 70.072,10.064 L70.072,4.928 L71.72,4.928 L71.72,3.728 L70.072,3.728 Z" id="Shape" fill-opacity="0.25" fill="#000000"></path>
                    <path d="M1.768,11.72 L1.768,2.856 L4.328,2.856 C5.03200352,2.856 5.6239976,2.95466568 6.104,3.152 C6.5840024,3.34933432 6.97599848,3.63733144 7.28,4.016 C7.58400152,4.39466856 7.802666,4.85333064 7.936,5.392 C8.069334,5.93066936 8.136,6.54132992 8.136,7.224 C8.136,7.92800352 8.06400072,8.52799752 7.92,9.024 C7.77599928,9.52000248 7.59200112,9.93333168 7.368,10.264 C7.14399888,10.5946683 6.89066808,10.855999 6.608,11.048 C6.32533192,11.240001 6.04000144,11.3866662 5.752,11.488 C5.46399856,11.5893338 5.19200128,11.6533332 4.936,11.68 C4.67999872,11.7066668 4.46666752,11.72 4.296,11.72 L1.768,11.72 Z M0.248,1.576 L0.248,13 L4.168,13 C5.11733808,13 5.9386632,12.866668 6.632,12.6 C7.3253368,12.333332 7.89599776,11.9466692 8.344,11.44 C8.79200224,10.9333308 9.1226656,10.309337 9.336,9.568 C9.5493344,8.82666296 9.656,7.9760048 9.656,7.016 C9.656,5.18132416 9.18133808,3.81600448 8.232,2.92 C7.28266192,2.02399552 5.9280088,1.576 4.168,1.576 L0.248,1.576 Z M17.032,8.072 L12.28,8.072 C12.3013334,7.7519984 12.3706661,7.45066808 12.488,7.168 C12.6053339,6.88533192 12.7653323,6.6373344 12.968,6.424 C13.1706677,6.2106656 13.4133319,6.04266728 13.696,5.92 C13.9786681,5.79733272 14.2959982,5.736 14.648,5.736 C14.989335,5.736 15.3013319,5.79733272 15.584,5.92 C15.8666681,6.04266728 16.111999,6.20799896 16.32,6.416 C16.528001,6.62400104 16.6933327,6.87199856 16.816,7.16 C16.9386673,7.44800144 17.0106666,7.7519984 17.032,8.072 L17.032,8.072 Z M18.344,10.376 L17,10.376 C16.8826661,10.9200027 16.6400018,11.325332 16.272,11.592 C15.9039982,11.858668 15.4320029,11.992 14.856,11.992 C14.4079978,11.992 14.0186683,11.9173341 13.688,11.768 C13.3573317,11.6186659 13.0853344,11.4186679 12.872,11.168 C12.6586656,10.9173321 12.5040005,10.629335 12.408,10.304 C12.3119995,9.97866504 12.2693333,9.63466848 12.28,9.272 L18.472,9.272 C18.4933334,8.77066416 18.4480006,8.24266944 18.336,7.688 C18.2239994,7.13333056 18.0213348,6.62133568 17.728,6.152 C17.4346652,5.68266432 17.0453358,5.29600152 16.56,4.992 C16.0746642,4.68799848 15.4640037,4.536 14.728,4.536 C14.1626638,4.536 13.642669,4.6426656 13.168,4.856 C12.693331,5.0693344 12.2826684,5.36799808 11.936,5.752 C11.5893316,6.13600192 11.320001,6.58933072 11.128,7.112 C10.935999,7.63466928 10.84,8.21066352 10.84,8.84 C10.8613334,9.46933648 10.9546658,10.050664 11.12,10.584 C11.2853342,11.117336 11.5333317,11.5759981 11.864,11.96 C12.1946683,12.3440019 12.6026642,12.6426656 13.088,12.856 C13.5733358,13.0693344 14.1466634,13.176 14.808,13.176 C15.7466714,13.176 16.5253302,12.9413357 17.144,12.472 C17.7626698,12.0026643 18.1626658,11.3040046 18.344,10.376 L18.344,10.376 Z M20.712,10.392 L19.352,10.392 C19.3733334,10.9040026 19.479999,11.3386649 19.672,11.696 C19.864001,12.0533351 20.1199984,12.3413322 20.44,12.56 C20.7600016,12.7786678 21.1279979,12.9359995 21.544,13.032 C21.9600021,13.1280005 22.397331,13.176 22.856,13.176 C23.2720021,13.176 23.6906646,13.1360004 24.112,13.056 C24.5333354,12.9759996 24.9119983,12.8346677 25.248,12.632 C25.5840017,12.4293323 25.855999,12.1626683 26.064,11.832 C26.272001,11.5013317 26.376,11.0853358 26.376,10.584 C26.376,10.1893314 26.2986674,9.858668 26.144,9.592 C25.9893326,9.325332 25.7866679,9.10400088 25.536,8.928 C25.2853321,8.75199912 24.997335,8.6106672 24.672,8.504 C24.346665,8.3973328 24.013335,8.30666704 23.672,8.232 C23.3519984,8.15733296 23.0320016,8.08533368 22.712,8.016 C22.3919984,7.94666632 22.1040013,7.86133384 21.848,7.76 C21.5919987,7.65866616 21.3813342,7.53066744 21.216,7.376 C21.0506658,7.22133256 20.968,7.02666784 20.968,6.792 C20.968,6.5786656 21.0213328,6.405334 21.128,6.272 C21.2346672,6.138666 21.3733325,6.0320004 21.544,5.952 C21.7146675,5.8719996 21.903999,5.81600016 22.112,5.784 C22.320001,5.75199984 22.5253323,5.736 22.728,5.736 C22.9520011,5.736 23.1733322,5.75999976 23.392,5.808 C23.6106678,5.85600024 23.8106658,5.9333328 23.992,6.04 C24.1733342,6.1466672 24.3226661,6.28799912 24.44,6.464 C24.5573339,6.64000088 24.6266666,6.861332 24.648,7.128 L26.008,7.128 C25.9759998,6.62666416 25.8693342,6.20800168 25.688,5.872 C25.5066658,5.53599832 25.2640015,5.26933432 24.96,5.072 C24.6559985,4.87466568 24.3066686,4.7360004 23.912,4.656 C23.5173314,4.5759996 23.0853357,4.536 22.616,4.536 C22.2533315,4.536 21.8880018,4.58133288 21.52,4.672 C21.1519982,4.76266712 20.8213348,4.9013324 20.528,5.088 C20.2346652,5.2746676 19.9946676,5.51733184 19.808,5.816 C19.6213324,6.11466816 19.528,6.47199792 19.528,6.888 C19.528,7.421336 19.661332,7.83733184 19.928,8.136 C20.194668,8.43466816 20.527998,8.66666584 20.928,8.832 C21.328002,8.99733416 21.7626643,9.12533288 22.232,9.216 C22.7013357,9.30666712 23.135998,9.40799944 23.536,9.52 C23.936002,9.63200056 24.269332,9.77866576 24.536,9.96 C24.802668,10.1413342 24.936,10.4079982 24.936,10.76 C24.936,11.0160013 24.8720006,11.2266658 24.744,11.392 C24.6159994,11.5573342 24.4533343,11.6826662 24.256,11.768 C24.0586657,11.8533338 23.8426678,11.9119998 23.608,11.944 C23.3733322,11.9760002 23.1493344,11.992 22.936,11.992 C22.6586653,11.992 22.3893346,11.9653336 22.128,11.912 C21.8666654,11.8586664 21.632001,11.7706673 21.424,11.648 C21.215999,11.5253327 21.0480006,11.360001 20.92,11.152 C20.7919994,10.943999 20.7226667,10.6906682 20.712,10.392 L20.712,10.392 Z M29.32,3.24 L29.32,1.576 L27.96,1.576 L27.96,3.24 L29.32,3.24 Z M27.96,4.728 L27.96,13 L29.32,13 L29.32,4.728 L27.96,4.728 Z M38.568,12.296 L38.568,4.728 L37.288,4.728 L37.288,5.912 L37.272,5.912 C37.0266654,5.45333104 36.6853355,5.10933448 36.248,4.88 C35.8106645,4.65066552 35.3306693,4.536 34.808,4.536 C34.0933298,4.536 33.4906691,4.67199864 33,4.944 C32.5093309,5.21600136 32.1146682,5.56266456 31.816,5.984 C31.5173318,6.40533544 31.3040006,6.87466408 31.176,7.392 C31.0479994,7.90933592 30.984,8.41333088 30.984,8.904 C30.984,9.46933616 31.0613326,10.0053308 31.216,10.512 C31.3706674,11.0186692 31.6026651,11.4613314 31.912,11.84 C32.2213349,12.2186686 32.605331,12.5199989 33.064,12.744 C33.522669,12.9680011 34.0613302,13.08 34.68,13.08 C35.213336,13.08 35.717331,12.9600012 36.192,12.72 C36.666669,12.4799988 37.0213322,12.1040026 37.256,11.592 L37.288,11.592 L37.288,12.136 C37.288,12.594669 37.2426671,13.0159981 37.152,13.4 C37.0613329,13.7840019 36.9146677,14.1119986 36.712,14.384 C36.5093323,14.6560014 36.2533349,14.8693326 35.944,15.024 C35.6346651,15.1786674 35.2560022,15.256 34.808,15.256 C34.5839989,15.256 34.3493346,15.2320002 34.104,15.184 C33.8586654,15.1359998 33.632001,15.0586672 33.424,14.952 C33.215999,14.8453328 33.0400007,14.7066675 32.896,14.536 C32.7519993,14.3653325 32.6746667,14.1573346 32.664,13.912 L31.304,13.912 C31.3253334,14.3600022 31.4426656,14.7386651 31.656,15.048 C31.8693344,15.3573349 32.138665,15.607999 32.464,15.8 C32.789335,15.992001 33.151998,16.1306662 33.552,16.216 C33.952002,16.3013338 34.3439981,16.344 34.728,16.344 C36.0506733,16.344 37.0213302,16.0080034 37.64,15.336 C38.2586698,14.6639966 38.568,13.6506734 38.568,12.296 L38.568,12.296 Z M34.76,11.896 C34.3119978,11.896 33.9386682,11.8026676 33.64,11.616 C33.3413318,11.4293324 33.1013342,11.1840015 32.92,10.88 C32.7386658,10.5759985 32.610667,10.2373352 32.536,9.864 C32.461333,9.4906648 32.424,9.1173352 32.424,8.744 C32.424,8.34933136 32.4693329,7.97066848 32.56,7.608 C32.6506671,7.24533152 32.7946657,6.92533472 32.992,6.648 C33.1893343,6.37066528 33.4426651,6.14933416 33.752,5.984 C34.0613349,5.81866584 34.4346645,5.736 34.872,5.736 C35.2986688,5.736 35.6613318,5.82133248 35.96,5.992 C36.2586682,6.16266752 36.5013324,6.38933192 36.688,6.672 C36.8746676,6.95466808 37.0106662,7.27199824 37.096,7.624 C37.1813338,7.97600176 37.224,8.33333152 37.224,8.696 C37.224,9.08000192 37.1786671,9.46399808 37.088,9.848 C36.9973329,10.2320019 36.856001,10.5759985 36.664,10.88 C36.471999,11.1840015 36.2186682,11.4293324 35.904,11.616 C35.5893318,11.8026676 35.2080022,11.896 34.76,11.896 L34.76,11.896 Z M40.616,4.728 L40.616,13 L41.976,13 L41.976,8.328 C41.976,7.9546648 42.0266662,7.61066824 42.128,7.296 C42.2293338,6.98133176 42.3813323,6.70666784 42.584,6.472 C42.7866677,6.23733216 43.0399985,6.05600064 43.344,5.928 C43.6480015,5.79999936 44.0079979,5.736 44.424,5.736 C44.9466693,5.736 45.3573318,5.88533184 45.656,6.184 C45.9546682,6.48266816 46.104,6.88799744 46.104,7.4 L46.104,13 L47.464,13 L47.464,7.56 C47.464,7.11199776 47.4186671,6.70400184 47.328,6.336 C47.2373329,5.96799816 47.0800011,5.650668 46.856,5.384 C46.6319989,5.117332 46.3386685,4.90933408 45.976,4.76 C45.6133315,4.61066592 45.1600027,4.536 44.616,4.536 C43.3893272,4.536 42.4933362,5.03732832 41.928,6.04 L41.896,6.04 L41.896,4.728 L40.616,4.728 Z M54.184,1.576 L54.184,13 L55.704,13 L55.704,9 L57.608,7.224 L61.736,13 L63.656,13 L58.648,6.184 L63.464,1.576 L61.496,1.576 L55.704,7.272 L55.704,1.576 L54.184,1.576 Z M66.072,3.24 L66.072,1.576 L64.712,1.576 L64.712,3.24 L66.072,3.24 Z M64.712,4.728 L64.712,13 L66.072,13 L66.072,4.728 L64.712,4.728 Z M70.072,4.728 L70.072,2.248 L68.712,2.248 L68.712,4.728 L67.304,4.728 L67.304,5.928 L68.712,5.928 L68.712,11.192 C68.712,11.5760019 68.749333,11.8853322 68.824,12.12 C68.898667,12.3546678 69.0133326,12.5359994 69.168,12.664 C69.3226674,12.7920006 69.5253321,12.8799998 69.776,12.928 C70.0266679,12.9760002 70.3279982,13 70.68,13 L71.72,13 L71.72,11.8 L71.096,11.8 C70.8826656,11.8 70.709334,11.7920001 70.576,11.776 C70.442666,11.7599999 70.338667,11.7253336 70.264,11.672 C70.189333,11.6186664 70.1386668,11.5440005 70.112,11.448 C70.0853332,11.3519995 70.072,11.2240008 70.072,11.064 L70.072,5.928 L71.72,5.928 L71.72,4.728 L70.072,4.728 Z" id="Shape" fill="#FFFFFF"></path>
                </g>
            </g>
        </g>
    </g>
</svg>