<svg width="182px" height="15px" viewBox="41 390 182 15" version="1.1" xmlns="http://www.w3.org/2000/svg" xmlns:xlink="http://www.w3.org/1999/xlink">
    <!-- Generator: Sketch 42 (36781) - http://www.bohemiancoding.com/sketch -->
    <desc>Created with Sketch.</desc>
    <defs></defs>
    <g id="FB-logo" stroke="none" stroke-width="1" fill="none" fill-rule="evenodd" transform="translate(41.000000, 390.000000)">
        <g id="Group">
            <g>
                <g id="Shape">
                    <path d="M70.3,0 L64.1,0 C63.5,0 63,0.2 62.6,0.6 C62.2,1 62,1.5 62,2.1 L62,10.9 C62,11.5 62.2,12 62.6,12.4 C63,12.8 63.5,13 64.1,13 L70.3,13 C70.9,13 71.4,12.8 71.8,12.4 C72.2,12 72.4,11.5 72.4,10.9 L72.4,10.3 L64.7,10.3 L64.7,2.7 L72.4,2.7 L72.4,2.1 C72.4,1.5 72.2,1 71.8,0.6 C71.4,0.2 70.9,1.11022302e-16 70.3,1.11022302e-16 L70.3,0 Z M82,0 L75.8,0 C75.2,0 74.7,0.2 74.3,0.6 C73.9,1 73.7,1.5 73.7,2.1 L73.7,2.7 L81.5,2.7 L81.5,5.2 L75.9,5.2 C75.3,5.2 74.8,5.4 74.4,5.8 C74,6.2 73.8,6.7 73.8,7.3 L73.8,10.9 C73.8,11.5 74,12 74.4,12.4 C74.8,12.8 75.3,13 75.9,13 L82,13 C82.6,13 83.1,12.8 83.5,12.4 C83.9,12 84.1,11.5 84.1,10.9 L84.1,2.1 C84.1,1.5 83.9,1 83.5,0.6 C83.1,0.2 82.6,1.11022302e-16 82,1.11022302e-16 L82,0 Z M81.4,10.3 L76.4,10.3 L76.4,7.8 L81.4,7.8 L81.4,10.3 L81.4,10.3 Z M90.6,10.3 L88,10.3 L88,2.1 C88,1.5 87.8,1 87.4,0.6 C87,0.2 86.5,0 85.9,0 L85.3,0 L85.3,10.9 C85.3,11.5 85.5,12 85.9,12.4 C86.3,12.8 86.8,13 87.4,13 L91,13 C91.6,13 92.1,12.8 92.5,12.4 C92.9,12 93.1,11.5 93.1,10.9 L93.1,10.3 L90.6,10.3 L90.6,10.3 Z M102.8,7.8 C103.4,7.8 103.9,7.6 104.3,7.2 C104.7,6.8 104.9,6.3 104.9,5.7 L104.9,2.1 C104.9,1.5 104.7,1 104.3,0.6 C103.9,0.2 103.4,0 102.8,0 L96.6,0 C96,0 95.5,0.2 95.1,0.6 C94.7,1 94.5,1.5 94.5,2.1 L94.5,10.9 C94.5,11.5 94.7,12 95.1,12.4 C95.5,12.8 96,13 96.6,13 L102.8,13 C103.4,13 103.9,12.8 104.3,12.4 C104.7,12 104.9,11.5 104.9,10.9 L104.9,10.3 L97.1,10.3 L97.1,7.8 L102.8,7.8 L102.8,7.8 Z M97.1,2.7 L102.1,2.7 L102.1,5.2 L97.1,5.2 L97.1,2.7 L97.1,2.7 Z M58.7,0 L52.5,0 C51.9,0 51.4,0.2 51,0.6 C50.6,1 50.4,1.5 50.4,2.1 L50.4,5.7 C50.4,6.3 50.6,6.8 51,7.2 C51.4,7.6 51.9,7.8 52.5,7.8 L58.1,7.8 L58.1,10.3 L50.4,10.3 L50.4,10.9 C50.4,11.5 50.6,12 51,12.4 C51.4,12.8 51.9,13 52.5,13 L58.7,13 C59.3,13 59.8,12.8 60.2,12.4 C60.6,12 60.8,11.5 60.8,10.9 L60.8,7.3 C60.8,6.7 60.6,6.2 60.2,5.8 C59.8,5.4 59.3,5.2 58.7,5.2 L53.1,5.2 L53.1,2.7 L60.9,2.7 L60.9,2.1 C60.9,1.5 60.7,1 60.3,0.6 C59.8,0.2 59.2,1.11022302e-16 58.7,1.11022302e-16 L58.7,0 Z M8.3,0 L0,0 L0,13 L2.7,13 L2.7,10.4 L7.7,10.4 L7.7,10.9 C7.7,11.5 7.9,12 8.3,12.4 C8.8,12.8 9.3,13 9.8,13 L10.4,13 L10.4,9.9 C10.4,9.3 10.2,8.8 9.8,8.4 C9.5,8.1 9.2,7.9 8.8,7.8 C9.2,7.7 9.5,7.5 9.8,7.2 C10.2,6.8 10.4,6.3 10.4,5.7 L10.4,2.1 C10.4,1.5 10.2,1 9.8,0.6 C9.4,0.2 8.9,0 8.3,0 L8.3,0 Z M7.7,7.7 L2.7,7.7 L2.7,2.7 L7.7,2.7 L7.7,7.7 L7.7,7.7 Z M12.2,3.1 L11.6,3.1 L11.6,13 L14.3,13 L14.3,5.3 C14.3,4.7 14.1,4.2 13.7,3.8 C13.3,3.3 12.8,3.1 12.2,3.1 L12.2,3.1 Z M16.2,0.6 C15.8,1 15.6,1.5 15.6,2.1 L15.6,10.9 C15.6,11.5 15.8,12 16.2,12.4 C16.6,12.8 17.1,13 17.7,13 L23.9,13 C24.5,13 25,12.8 25.4,12.4 C25.8,12 26,11.5 26,10.9 L26,5.2 L23.3,5.2 L23.3,10.4 L18.3,10.4 L18.3,2.7 L26,2.7 L26,0 L17.7,0 C17.1,0 16.6,0.2 16.2,0.6 L16.2,0.6 Z M35,5.2 L30,5.2 L30,0 L27.3,0 L27.3,13 L30,13 L30,7.8 L35,7.8 L35,13 L37.7,13 L37.7,0 L35,0 L35,5.2 L35,5.2 Z M38.9,0 L38.9,2.7 L41.5,2.7 L41.5,13 L42.1,13 C42.7,13 43.2,12.8 43.6,12.4 C44,12 44.2,11.5 44.2,10.9 L44.2,2.7 L46.8,2.7 L46.8,0 L38.9,0 L38.9,0 Z" fill="#000000" opacity="0.25"></path>
                    <path d="M70.3,1 L64.1,1 C63.5,1 63,1.2 62.6,1.6 C62.2,2 62,2.5 62,3.1 L62,11.9 C62,12.5 62.2,13 62.6,13.4 C63,13.8 63.5,14 64.1,14 L70.3,14 C70.9,14 71.4,13.8 71.8,13.4 C72.2,13 72.4,12.5 72.4,11.9 L72.4,11.3 L64.7,11.3 L64.7,3.7 L72.4,3.7 L72.4,3.1 C72.4,2.5 72.2,2 71.8,1.6 C71.4,1.2 70.9,1 70.3,1 L70.3,1 Z M82,1 L75.8,1 C75.2,1 74.7,1.2 74.3,1.6 C73.9,2 73.7,2.5 73.7,3.1 L73.7,3.7 L81.5,3.7 L81.5,6.2 L75.9,6.2 C75.3,6.2 74.8,6.4 74.4,6.8 C74,7.2 73.8,7.7 73.8,8.3 L73.8,11.9 C73.8,12.5 74,13 74.4,13.4 C74.8,13.8 75.3,14 75.9,14 L82,14 C82.6,14 83.1,13.8 83.5,13.4 C83.9,13 84.1,12.5 84.1,11.9 L84.1,3.1 C84.1,2.5 83.9,2 83.5,1.6 C83.1,1.2 82.6,1 82,1 L82,1 Z M81.4,11.3 L76.4,11.3 L76.4,8.8 L81.4,8.8 L81.4,11.3 L81.4,11.3 Z M90.6,11.3 L88,11.3 L88,3.1 C88,2.5 87.8,2 87.4,1.6 C87,1.2 86.5,1 85.9,1 L85.3,1 L85.3,11.9 C85.3,12.5 85.5,13 85.9,13.4 C86.3,13.8 86.8,14 87.4,14 L91,14 C91.6,14 92.1,13.8 92.5,13.4 C92.9,13 93.1,12.5 93.1,11.9 L93.1,11.3 L90.6,11.3 L90.6,11.3 Z M102.8,8.8 C103.4,8.8 103.9,8.6 104.3,8.2 C104.7,7.8 104.9,7.3 104.9,6.7 L104.9,3.1 C104.9,2.5 104.7,2 104.3,1.6 C103.9,1.2 103.4,1 102.8,1 L96.6,1 C96,1 95.5,1.2 95.1,1.6 C94.7,2 94.5,2.5 94.5,3.1 L94.5,11.9 C94.5,12.5 94.7,13 95.1,13.4 C95.5,13.8 96,14 96.6,14 L102.8,14 C103.4,14 103.9,13.8 104.3,13.4 C104.7,13 104.9,12.5 104.9,11.9 L104.9,11.3 L97.1,11.3 L97.1,8.8 L102.8,8.8 L102.8,8.8 Z M97.1,3.7 L102.1,3.7 L102.1,6.2 L97.1,6.2 L97.1,3.7 L97.1,3.7 Z M58.7,1 L52.5,1 C51.9,1 51.4,1.2 51,1.6 C50.6,2 50.4,2.5 50.4,3.1 L50.4,6.7 C50.4,7.3 50.6,7.8 51,8.2 C51.4,8.6 51.9,8.8 52.5,8.8 L58.1,8.8 L58.1,11.3 L50.4,11.3 L50.4,11.9 C50.4,12.5 50.6,13 51,13.4 C51.4,13.8 51.9,14 52.5,14 L58.7,14 C59.3,14 59.8,13.8 60.2,13.4 C60.6,13 60.8,12.5 60.8,11.9 L60.8,8.3 C60.8,7.7 60.6,7.2 60.2,6.8 C59.8,6.4 59.3,6.2 58.7,6.2 L53.1,6.2 L53.1,3.7 L60.9,3.7 L60.9,3.1 C60.9,2.5 60.7,2 60.3,1.6 C59.8,1.2 59.2,1 58.7,1 L58.7,1 Z M8.3,1 L0,1 L0,14 L2.7,14 L2.7,11.4 L7.7,11.4 L7.7,11.9 C7.7,12.5 7.9,13 8.3,13.4 C8.8,13.8 9.3,14 9.8,14 L10.4,14 L10.4,10.9 C10.4,10.3 10.2,9.8 9.8,9.4 C9.5,9.1 9.2,8.9 8.8,8.8 C9.2,8.7 9.5,8.5 9.8,8.2 C10.2,7.8 10.4,7.3 10.4,6.7 L10.4,3.1 C10.4,2.5 10.2,2 9.8,1.6 C9.4,1.2 8.9,1 8.3,1 L8.3,1 Z M7.7,8.7 L2.7,8.7 L2.7,3.7 L7.7,3.7 L7.7,8.7 L7.7,8.7 Z M12.2,4.1 L11.6,4.1 L11.6,14 L14.3,14 L14.3,6.3 C14.3,5.7 14.1,5.2 13.7,4.8 C13.3,4.3 12.8,4.1 12.2,4.1 L12.2,4.1 Z M16.2,1.6 C15.8,2 15.6,2.5 15.6,3.1 L15.6,11.9 C15.6,12.5 15.8,13 16.2,13.4 C16.6,13.8 17.1,14 17.7,14 L23.9,14 C24.5,14 25,13.8 25.4,13.4 C25.8,13 26,12.5 26,11.9 L26,6.2 L23.3,6.2 L23.3,11.4 L18.3,11.4 L18.3,3.7 L26,3.7 L26,1 L17.7,1 C17.1,1 16.6,1.2 16.2,1.6 L16.2,1.6 Z M35,6.2 L30,6.2 L30,1 L27.3,1 L27.3,14 L30,14 L30,8.8 L35,8.8 L35,14 L37.7,14 L37.7,1 L35,1 L35,6.2 L35,6.2 Z M38.9,1 L38.9,3.7 L41.5,3.7 L41.5,14 L42.1,14 C42.7,14 43.2,13.8 43.6,13.4 C44,13 44.2,12.5 44.2,11.9 L44.2,3.7 L46.8,3.7 L46.8,1 L38.9,1 L38.9,1 Z" fill="#FFFFFF"></path>
                    <path d="M11.7,0.6 C11.7,1.2 11.9,1.7 12.3,2.1 C12.7,2.5 13.2,2.7 13.8,2.7 L14.4,2.7 L14.4,0 L11.7,0 L11.7,0.6 L11.7,0.6 Z" fill="#000000" opacity="0.25"></path>
                    <path d="M11.7,1.6 C11.7,2.2 11.9,2.7 12.3,3.1 C12.7,3.5 13.2,3.7 13.8,3.7 L14.4,3.7 L14.4,1 L11.7,1 L11.7,1.6 L11.7,1.6 Z" fill="#F3A02D"></path>
                </g>
                <g transform="translate(112.000000, 0.000000)" id="Feedback">
                    <path d="M0.248,0.576 L0.248,12 L1.768,12 L1.768,6.768 L7.016,6.768 L7.016,5.488 L1.768,5.488 L1.768,1.856 L7.752,1.856 L7.752,0.576 L0.248,0.576 Z M14.952,7.072 L10.2,7.072 C10.2213334,6.7519984 10.2906661,6.45066808 10.408,6.168 C10.5253339,5.88533192 10.6853323,5.6373344 10.888,5.424 C11.0906677,5.2106656 11.3333319,5.04266728 11.616,4.92 C11.8986681,4.79733272 12.2159982,4.736 12.568,4.736 C12.909335,4.736 13.2213319,4.79733272 13.504,4.92 C13.7866681,5.04266728 14.031999,5.20799896 14.24,5.416 C14.448001,5.62400104 14.6133327,5.87199856 14.736,6.16 C14.8586673,6.44800144 14.9306666,6.7519984 14.952,7.072 L14.952,7.072 Z M16.264,9.376 L14.92,9.376 C14.8026661,9.92000272 14.5600018,10.325332 14.192,10.592 C13.8239982,10.858668 13.3520029,10.992 12.776,10.992 C12.3279978,10.992 11.9386683,10.9173341 11.608,10.768 C11.2773317,10.6186659 11.0053344,10.4186679 10.792,10.168 C10.5786656,9.91733208 10.4240005,9.62933496 10.328,9.304 C10.2319995,8.97866504 10.1893333,8.63466848 10.2,8.272 L16.392,8.272 C16.4133334,7.77066416 16.3680006,7.24266944 16.256,6.688 C16.1439994,6.13333056 15.9413348,5.62133568 15.648,5.152 C15.3546652,4.68266432 14.9653358,4.29600152 14.48,3.992 C13.9946642,3.68799848 13.3840037,3.536 12.648,3.536 C12.0826638,3.536 11.562669,3.6426656 11.088,3.856 C10.613331,4.0693344 10.2026684,4.36799808 9.856,4.752 C9.5093316,5.13600192 9.24000096,5.58933072 9.048,6.112 C8.85599904,6.63466928 8.76,7.21066352 8.76,7.84 C8.78133344,8.46933648 8.87466584,9.050664 9.04,9.584 C9.20533416,10.117336 9.45333168,10.5759981 9.784,10.96 C10.1146683,11.3440019 10.5226642,11.6426656 11.008,11.856 C11.4933358,12.0693344 12.0666634,12.176 12.728,12.176 C13.6666714,12.176 14.4453302,11.9413357 15.064,11.472 C15.6826698,11.0026643 16.0826658,10.3040046 16.264,9.376 L16.264,9.376 Z M23.544,7.072 L18.792,7.072 C18.8133334,6.7519984 18.8826661,6.45066808 19,6.168 C19.1173339,5.88533192 19.2773323,5.6373344 19.48,5.424 C19.6826677,5.2106656 19.9253319,5.04266728 20.208,4.92 C20.4906681,4.79733272 20.8079982,4.736 21.16,4.736 C21.501335,4.736 21.8133319,4.79733272 22.096,4.92 C22.3786681,5.04266728 22.623999,5.20799896 22.832,5.416 C23.040001,5.62400104 23.2053327,5.87199856 23.328,6.16 C23.4506673,6.44800144 23.5226666,6.7519984 23.544,7.072 L23.544,7.072 Z M24.856,9.376 L23.512,9.376 C23.3946661,9.92000272 23.1520018,10.325332 22.784,10.592 C22.4159982,10.858668 21.9440029,10.992 21.368,10.992 C20.9199978,10.992 20.5306683,10.9173341 20.2,10.768 C19.8693317,10.6186659 19.5973344,10.4186679 19.384,10.168 C19.1706656,9.91733208 19.0160005,9.62933496 18.92,9.304 C18.8239995,8.97866504 18.7813333,8.63466848 18.792,8.272 L24.984,8.272 C25.0053334,7.77066416 24.9600006,7.24266944 24.848,6.688 C24.7359994,6.13333056 24.5333348,5.62133568 24.24,5.152 C23.9466652,4.68266432 23.5573358,4.29600152 23.072,3.992 C22.5866642,3.68799848 21.9760037,3.536 21.24,3.536 C20.6746638,3.536 20.154669,3.6426656 19.68,3.856 C19.205331,4.0693344 18.7946684,4.36799808 18.448,4.752 C18.1013316,5.13600192 17.832001,5.58933072 17.64,6.112 C17.447999,6.63466928 17.352,7.21066352 17.352,7.84 C17.3733334,8.46933648 17.4666658,9.050664 17.632,9.584 C17.7973342,10.117336 18.0453317,10.5759981 18.376,10.96 C18.7066683,11.3440019 19.1146642,11.6426656 19.6,11.856 C20.0853358,12.0693344 20.6586634,12.176 21.32,12.176 C22.2586714,12.176 23.0373302,11.9413357 23.656,11.472 C24.2746698,11.0026643 24.6746658,10.3040046 24.856,9.376 L24.856,9.376 Z M27.384,7.936 C27.384,7.53066464 27.4266662,7.13600192 27.512,6.752 C27.5973338,6.36799808 27.735999,6.02666816 27.928,5.728 C28.120001,5.42933184 28.3759984,5.18933424 28.696,5.008 C29.0160016,4.82666576 29.405331,4.736 29.864,4.736 C30.3333357,4.736 30.7333317,4.82399912 31.064,5 C31.3946683,5.17600088 31.663999,5.40799856 31.872,5.696 C32.080001,5.98400144 32.2319995,6.31733144 32.328,6.696 C32.4240005,7.07466856 32.472,7.46666464 32.472,7.872 C32.472,8.25600192 32.4266671,8.6346648 32.336,9.008 C32.2453329,9.3813352 32.0986677,9.7146652 31.896,10.008 C31.6933323,10.3013348 31.4320016,10.5386658 31.112,10.72 C30.7919984,10.9013342 30.402669,10.992 29.944,10.992 C29.5066645,10.992 29.125335,10.9066675 28.8,10.736 C28.474665,10.5653325 28.208001,10.3360014 28,10.048 C27.791999,9.75999856 27.6373338,9.43200184 27.536,9.064 C27.4346662,8.69599816 27.384,8.32000192 27.384,7.936 L27.384,7.936 Z M33.784,12 L33.784,0.576 L32.424,0.576 L32.424,4.832 L32.392,4.832 C32.2426659,4.58666544 32.0586678,4.38133416 31.84,4.216 C31.6213322,4.05066584 31.3893346,3.91733384 31.144,3.816 C30.8986654,3.71466616 30.6533346,3.64266688 30.408,3.6 C30.1626654,3.55733312 29.9333344,3.536 29.72,3.536 C29.0906635,3.536 28.538669,3.65066552 28.064,3.88 C27.589331,4.10933448 27.1946682,4.41866472 26.88,4.808 C26.5653318,5.19733528 26.3306674,5.65333072 26.176,6.176 C26.0213326,6.69866928 25.944,7.2533304 25.944,7.84 C25.944,8.4266696 26.0239992,8.98133072 26.184,9.504 C26.3440008,10.0266693 26.5813318,10.4853314 26.896,10.88 C27.2106682,11.2746686 27.605331,11.5893322 28.08,11.824 C28.554669,12.0586678 29.1119968,12.176 29.752,12.176 C30.3280029,12.176 30.8559976,12.0746677 31.336,11.872 C31.8160024,11.6693323 32.1679989,11.338669 32.392,10.88 L32.424,10.88 L32.424,12 L33.784,12 Z M35.928,0.576 L35.928,12 L37.288,12 L37.288,10.896 L37.32,10.896 C37.4693341,11.1413346 37.6533322,11.3466658 37.872,11.512 C38.0906678,11.6773342 38.3226654,11.8079995 38.568,11.904 C38.8133346,12.0000005 39.0613321,12.0693331 39.312,12.112 C39.5626679,12.1546669 39.7893323,12.176 39.992,12.176 C40.6213365,12.176 41.173331,12.0640011 41.648,11.84 C42.122669,11.6159989 42.5173318,11.3093353 42.832,10.92 C43.1466682,10.5306647 43.3813326,10.0746693 43.536,9.552 C43.6906674,9.02933072 43.768,8.4746696 43.768,7.888 C43.768,7.3013304 43.6880008,6.74666928 43.528,6.224 C43.3679992,5.70133072 43.1306682,5.240002 42.816,4.84 C42.5013318,4.439998 42.106669,4.12266784 41.632,3.888 C41.157331,3.65333216 40.6000032,3.536 39.96,3.536 C39.3839971,3.536 38.8560024,3.63999896 38.376,3.848 C37.8959976,4.05600104 37.5440011,4.38933104 37.32,4.848 L37.288,4.848 L37.288,0.576 L35.928,0.576 Z M42.328,7.792 C42.328,8.19733536 42.2853338,8.59199808 42.2,8.976 C42.1146662,9.36000192 41.976001,9.70133184 41.784,10 C41.591999,10.2986682 41.3386682,10.5386658 41.024,10.72 C40.7093318,10.9013342 40.3173357,10.992 39.848,10.992 C39.3786643,10.992 38.9786683,10.9040009 38.648,10.728 C38.3173317,10.5519991 38.048001,10.3200014 37.84,10.032 C37.631999,9.74399856 37.4800005,9.41066856 37.384,9.032 C37.2879995,8.65333144 37.24,8.26133536 37.24,7.856 C37.24,7.47199808 37.2853329,7.0933352 37.376,6.72 C37.4666671,6.3466648 37.6133323,6.0133348 37.816,5.72 C38.0186677,5.4266652 38.2799984,5.18933424 38.6,5.008 C38.9200016,4.82666576 39.309331,4.736 39.768,4.736 C40.2053355,4.736 40.586665,4.82133248 40.912,4.992 C41.237335,5.16266752 41.503999,5.39199856 41.712,5.68 C41.920001,5.96800144 42.0746662,6.29599816 42.176,6.664 C42.2773338,7.03200184 42.328,7.40799808 42.328,7.792 L42.328,7.792 Z M52.696,11.968 C52.4613322,12.1066674 52.1360021,12.176 51.72,12.176 C51.3679982,12.176 51.088001,12.0773343 50.88,11.88 C50.671999,11.6826657 50.568,11.3600022 50.568,10.912 C50.1946648,11.3600022 49.7600025,11.6826657 49.264,11.88 C48.7679975,12.0773343 48.2320029,12.176 47.656,12.176 C47.2826648,12.176 46.9280017,12.1333338 46.592,12.048 C46.2559983,11.9626662 45.9653346,11.8293342 45.72,11.648 C45.4746654,11.4666658 45.2800007,11.2293348 45.136,10.936 C44.9919993,10.6426652 44.92,10.2880021 44.92,9.872 C44.92,9.40266432 44.9999992,9.01866816 45.16,8.72 C45.3200008,8.42133184 45.5306654,8.1786676 45.792,7.992 C46.0533346,7.8053324 46.3519983,7.66400048 46.688,7.568 C47.0240017,7.47199952 47.3679982,7.39200032 47.72,7.328 C48.0933352,7.25333296 48.4479983,7.19733352 48.784,7.16 C49.1200017,7.12266648 49.4159987,7.06933368 49.672,7 C49.9280013,6.93066632 50.1306659,6.829334 50.28,6.696 C50.4293341,6.562666 50.504,6.36800128 50.504,6.112 C50.504,5.81333184 50.4480006,5.57333424 50.336,5.392 C50.2239994,5.21066576 50.0800009,5.07200048 49.904,4.976 C49.7279991,4.87999952 49.5306678,4.81600016 49.312,4.784 C49.0933322,4.75199984 48.8773344,4.736 48.664,4.736 C48.0879971,4.736 47.6080019,4.84533224 47.224,5.064 C46.8399981,5.28266776 46.6320002,5.69599696 46.6,6.304 L45.24,6.304 C45.2613334,5.79199744 45.367999,5.36000176 45.56,5.008 C45.752001,4.65599824 46.0079984,4.37066776 46.328,4.152 C46.6480016,3.93333224 47.0133313,3.77600048 47.424,3.68 C47.8346687,3.58399952 48.2746643,3.536 48.744,3.536 C49.1173352,3.536 49.4879982,3.5626664 49.856,3.616 C50.2240018,3.6693336 50.5573318,3.77866584 50.856,3.944 C51.1546682,4.10933416 51.3946658,4.34133184 51.576,4.64 C51.7573342,4.93866816 51.848,5.3279976 51.848,5.808 L51.848,10.064 C51.848,10.3840016 51.8666665,10.6186659 51.904,10.768 C51.9413335,10.9173341 52.0666656,10.992 52.28,10.992 C52.3973339,10.992 52.5359992,10.9653336 52.696,10.912 L52.696,11.968 Z M50.488,7.728 C50.3173325,7.85600064 50.0933347,7.94933304 49.816,8.008 C49.5386653,8.06666696 49.2480015,8.11466648 48.944,8.152 C48.6399985,8.18933352 48.3333349,8.23199976 48.024,8.28 C47.7146651,8.32800024 47.4373346,8.4053328 47.192,8.512 C46.9466654,8.6186672 46.7466674,8.77066568 46.592,8.968 C46.4373326,9.16533432 46.36,9.43466496 46.36,9.776 C46.36,10.0000011 46.4053329,10.1893326 46.496,10.344 C46.5866671,10.4986674 46.7039993,10.6239995 46.848,10.72 C46.9920007,10.8160005 47.159999,10.8853331 47.352,10.928 C47.544001,10.9706669 47.7466656,10.992 47.96,10.992 C48.4080022,10.992 48.7919984,10.9306673 49.112,10.808 C49.4320016,10.6853327 49.6933323,10.5306676 49.896,10.344 C50.0986677,10.1573324 50.2479995,9.95466776 50.344,9.736 C50.4400005,9.51733224 50.488,9.31200096 50.488,9.12 L50.488,7.728 Z M59.576,6.384 L60.984,6.384 C60.9306664,5.89333088 60.8026677,5.46933512 60.6,5.112 C60.3973323,4.75466488 60.1386682,4.45866784 59.824,4.224 C59.5093318,3.98933216 59.1466687,3.81600056 58.736,3.704 C58.3253313,3.59199944 57.8853357,3.536 57.416,3.536 C56.7653301,3.536 56.1946691,3.65066552 55.704,3.88 C55.2133309,4.10933448 54.805335,4.423998 54.48,4.824 C54.154665,5.224002 53.9120008,5.69333064 53.752,6.232 C53.5919992,6.77066936 53.512,7.34933024 53.512,7.968 C53.512,8.58666976 53.5946658,9.15466408 53.76,9.672 C53.9253342,10.1893359 54.170665,10.6346648 54.496,11.008 C54.821335,11.3813352 55.2266642,11.6693323 55.712,11.872 C56.1973358,12.0746677 56.7546635,12.176 57.384,12.176 C58.4400053,12.176 59.2746636,11.8986694 59.888,11.344 C60.5013364,10.7893306 60.8826659,10.0000051 61.032,8.976 L59.64,8.976 C59.5546662,9.6160032 59.3226686,10.1119982 58.944,10.464 C58.5653314,10.8160018 58.0400034,10.992 57.368,10.992 C56.9413312,10.992 56.5733349,10.9066675 56.264,10.736 C55.9546651,10.5653325 55.704001,10.3386681 55.512,10.056 C55.319999,9.77333192 55.1786671,9.45066848 55.088,9.088 C54.9973329,8.72533152 54.952,8.35200192 54.952,7.968 C54.952,7.55199792 54.9946662,7.14933528 55.08,6.76 C55.1653338,6.37066472 55.3066657,6.02666816 55.504,5.728 C55.7013343,5.42933184 55.9653317,5.18933424 56.296,5.008 C56.6266683,4.82666576 57.0373309,4.736 57.528,4.736 C58.1040029,4.736 58.562665,4.87999856 58.904,5.168 C59.245335,5.45600144 59.4693328,5.86133072 59.576,6.384 L59.576,6.384 Z M62.632,0.576 L62.632,12 L63.992,12 L63.992,8.864 L65.272,7.68 L68.104,12 L69.832,12 L66.312,6.736 L69.592,3.728 L67.768,3.728 L63.992,7.344 L63.992,0.576 L62.632,0.576 Z" fill-opacity="0.25" fill="#000000"></path>
                    <path d="M0.248,1.576 L0.248,13 L1.768,13 L1.768,7.768 L7.016,7.768 L7.016,6.488 L1.768,6.488 L1.768,2.856 L7.752,2.856 L7.752,1.576 L0.248,1.576 Z M14.952,8.072 L10.2,8.072 C10.2213334,7.7519984 10.2906661,7.45066808 10.408,7.168 C10.5253339,6.88533192 10.6853323,6.6373344 10.888,6.424 C11.0906677,6.2106656 11.3333319,6.04266728 11.616,5.92 C11.8986681,5.79733272 12.2159982,5.736 12.568,5.736 C12.909335,5.736 13.2213319,5.79733272 13.504,5.92 C13.7866681,6.04266728 14.031999,6.20799896 14.24,6.416 C14.448001,6.62400104 14.6133327,6.87199856 14.736,7.16 C14.8586673,7.44800144 14.9306666,7.7519984 14.952,8.072 L14.952,8.072 Z M16.264,10.376 L14.92,10.376 C14.8026661,10.9200027 14.5600018,11.325332 14.192,11.592 C13.8239982,11.858668 13.3520029,11.992 12.776,11.992 C12.3279978,11.992 11.9386683,11.9173341 11.608,11.768 C11.2773317,11.6186659 11.0053344,11.4186679 10.792,11.168 C10.5786656,10.9173321 10.4240005,10.629335 10.328,10.304 C10.2319995,9.97866504 10.1893333,9.63466848 10.2,9.272 L16.392,9.272 C16.4133334,8.77066416 16.3680006,8.24266944 16.256,7.688 C16.1439994,7.13333056 15.9413348,6.62133568 15.648,6.152 C15.3546652,5.68266432 14.9653358,5.29600152 14.48,4.992 C13.9946642,4.68799848 13.3840037,4.536 12.648,4.536 C12.0826638,4.536 11.562669,4.6426656 11.088,4.856 C10.613331,5.0693344 10.2026684,5.36799808 9.856,5.752 C9.5093316,6.13600192 9.24000096,6.58933072 9.048,7.112 C8.85599904,7.63466928 8.76,8.21066352 8.76,8.84 C8.78133344,9.46933648 8.87466584,10.050664 9.04,10.584 C9.20533416,11.117336 9.45333168,11.5759981 9.784,11.96 C10.1146683,12.3440019 10.5226642,12.6426656 11.008,12.856 C11.4933358,13.0693344 12.0666634,13.176 12.728,13.176 C13.6666714,13.176 14.4453302,12.9413357 15.064,12.472 C15.6826698,12.0026643 16.0826658,11.3040046 16.264,10.376 L16.264,10.376 Z M23.544,8.072 L18.792,8.072 C18.8133334,7.7519984 18.8826661,7.45066808 19,7.168 C19.1173339,6.88533192 19.2773323,6.6373344 19.48,6.424 C19.6826677,6.2106656 19.9253319,6.04266728 20.208,5.92 C20.4906681,5.79733272 20.8079982,5.736 21.16,5.736 C21.501335,5.736 21.8133319,5.79733272 22.096,5.92 C22.3786681,6.04266728 22.623999,6.20799896 22.832,6.416 C23.040001,6.62400104 23.2053327,6.87199856 23.328,7.16 C23.4506673,7.44800144 23.5226666,7.7519984 23.544,8.072 L23.544,8.072 Z M24.856,10.376 L23.512,10.376 C23.3946661,10.9200027 23.1520018,11.325332 22.784,11.592 C22.4159982,11.858668 21.9440029,11.992 21.368,11.992 C20.9199978,11.992 20.5306683,11.9173341 20.2,11.768 C19.8693317,11.6186659 19.5973344,11.4186679 19.384,11.168 C19.1706656,10.9173321 19.0160005,10.629335 18.92,10.304 C18.8239995,9.97866504 18.7813333,9.63466848 18.792,9.272 L24.984,9.272 C25.0053334,8.77066416 24.9600006,8.24266944 24.848,7.688 C24.7359994,7.13333056 24.5333348,6.62133568 24.24,6.152 C23.9466652,5.68266432 23.5573358,5.29600152 23.072,4.992 C22.5866642,4.68799848 21.9760037,4.536 21.24,4.536 C20.6746638,4.536 20.154669,4.6426656 19.68,4.856 C19.205331,5.0693344 18.7946684,5.36799808 18.448,5.752 C18.1013316,6.13600192 17.832001,6.58933072 17.64,7.112 C17.447999,7.63466928 17.352,8.21066352 17.352,8.84 C17.3733334,9.46933648 17.4666658,10.050664 17.632,10.584 C17.7973342,11.117336 18.0453317,11.5759981 18.376,11.96 C18.7066683,12.3440019 19.1146642,12.6426656 19.6,12.856 C20.0853358,13.0693344 20.6586634,13.176 21.32,13.176 C22.2586714,13.176 23.0373302,12.9413357 23.656,12.472 C24.2746698,12.0026643 24.6746658,11.3040046 24.856,10.376 L24.856,10.376 Z M27.384,8.936 C27.384,8.53066464 27.4266662,8.13600192 27.512,7.752 C27.5973338,7.36799808 27.735999,7.02666816 27.928,6.728 C28.120001,6.42933184 28.3759984,6.18933424 28.696,6.008 C29.0160016,5.82666576 29.405331,5.736 29.864,5.736 C30.3333357,5.736 30.7333317,5.82399912 31.064,6 C31.3946683,6.17600088 31.663999,6.40799856 31.872,6.696 C32.080001,6.98400144 32.2319995,7.31733144 32.328,7.696 C32.4240005,8.07466856 32.472,8.46666464 32.472,8.872 C32.472,9.25600192 32.4266671,9.6346648 32.336,10.008 C32.2453329,10.3813352 32.0986677,10.7146652 31.896,11.008 C31.6933323,11.3013348 31.4320016,11.5386658 31.112,11.72 C30.7919984,11.9013342 30.402669,11.992 29.944,11.992 C29.5066645,11.992 29.125335,11.9066675 28.8,11.736 C28.474665,11.5653325 28.208001,11.3360014 28,11.048 C27.791999,10.7599986 27.6373338,10.4320018 27.536,10.064 C27.4346662,9.69599816 27.384,9.32000192 27.384,8.936 L27.384,8.936 Z M33.784,13 L33.784,1.576 L32.424,1.576 L32.424,5.832 L32.392,5.832 C32.2426659,5.58666544 32.0586678,5.38133416 31.84,5.216 C31.6213322,5.05066584 31.3893346,4.91733384 31.144,4.816 C30.8986654,4.71466616 30.6533346,4.64266688 30.408,4.6 C30.1626654,4.55733312 29.9333344,4.536 29.72,4.536 C29.0906635,4.536 28.538669,4.65066552 28.064,4.88 C27.589331,5.10933448 27.1946682,5.41866472 26.88,5.808 C26.5653318,6.19733528 26.3306674,6.65333072 26.176,7.176 C26.0213326,7.69866928 25.944,8.2533304 25.944,8.84 C25.944,9.4266696 26.0239992,9.98133072 26.184,10.504 C26.3440008,11.0266693 26.5813318,11.4853314 26.896,11.88 C27.2106682,12.2746686 27.605331,12.5893322 28.08,12.824 C28.554669,13.0586678 29.1119968,13.176 29.752,13.176 C30.3280029,13.176 30.8559976,13.0746677 31.336,12.872 C31.8160024,12.6693323 32.1679989,12.338669 32.392,11.88 L32.424,11.88 L32.424,13 L33.784,13 Z M35.928,1.576 L35.928,13 L37.288,13 L37.288,11.896 L37.32,11.896 C37.4693341,12.1413346 37.6533322,12.3466658 37.872,12.512 C38.0906678,12.6773342 38.3226654,12.8079995 38.568,12.904 C38.8133346,13.0000005 39.0613321,13.0693331 39.312,13.112 C39.5626679,13.1546669 39.7893323,13.176 39.992,13.176 C40.6213365,13.176 41.173331,13.0640011 41.648,12.84 C42.122669,12.6159989 42.5173318,12.3093353 42.832,11.92 C43.1466682,11.5306647 43.3813326,11.0746693 43.536,10.552 C43.6906674,10.0293307 43.768,9.4746696 43.768,8.888 C43.768,8.3013304 43.6880008,7.74666928 43.528,7.224 C43.3679992,6.70133072 43.1306682,6.240002 42.816,5.84 C42.5013318,5.439998 42.106669,5.12266784 41.632,4.888 C41.157331,4.65333216 40.6000032,4.536 39.96,4.536 C39.3839971,4.536 38.8560024,4.63999896 38.376,4.848 C37.8959976,5.05600104 37.5440011,5.38933104 37.32,5.848 L37.288,5.848 L37.288,1.576 L35.928,1.576 Z M42.328,8.792 C42.328,9.19733536 42.2853338,9.59199808 42.2,9.976 C42.1146662,10.3600019 41.976001,10.7013318 41.784,11 C41.591999,11.2986682 41.3386682,11.5386658 41.024,11.72 C40.7093318,11.9013342 40.3173357,11.992 39.848,11.992 C39.3786643,11.992 38.9786683,11.9040009 38.648,11.728 C38.3173317,11.5519991 38.048001,11.3200014 37.84,11.032 C37.631999,10.7439986 37.4800005,10.4106686 37.384,10.032 C37.2879995,9.65333144 37.24,9.26133536 37.24,8.856 C37.24,8.47199808 37.2853329,8.0933352 37.376,7.72 C37.4666671,7.3466648 37.6133323,7.0133348 37.816,6.72 C38.0186677,6.4266652 38.2799984,6.18933424 38.6,6.008 C38.9200016,5.82666576 39.309331,5.736 39.768,5.736 C40.2053355,5.736 40.586665,5.82133248 40.912,5.992 C41.237335,6.16266752 41.503999,6.39199856 41.712,6.68 C41.920001,6.96800144 42.0746662,7.29599816 42.176,7.664 C42.2773338,8.03200184 42.328,8.40799808 42.328,8.792 L42.328,8.792 Z M52.696,12.968 C52.4613322,13.1066674 52.1360021,13.176 51.72,13.176 C51.3679982,13.176 51.088001,13.0773343 50.88,12.88 C50.671999,12.6826657 50.568,12.3600022 50.568,11.912 C50.1946648,12.3600022 49.7600025,12.6826657 49.264,12.88 C48.7679975,13.0773343 48.2320029,13.176 47.656,13.176 C47.2826648,13.176 46.9280017,13.1333338 46.592,13.048 C46.2559983,12.9626662 45.9653346,12.8293342 45.72,12.648 C45.4746654,12.4666658 45.2800007,12.2293348 45.136,11.936 C44.9919993,11.6426652 44.92,11.2880021 44.92,10.872 C44.92,10.4026643 44.9999992,10.0186682 45.16,9.72 C45.3200008,9.42133184 45.5306654,9.1786676 45.792,8.992 C46.0533346,8.8053324 46.3519983,8.66400048 46.688,8.568 C47.0240017,8.47199952 47.3679982,8.39200032 47.72,8.328 C48.0933352,8.25333296 48.4479983,8.19733352 48.784,8.16 C49.1200017,8.12266648 49.4159987,8.06933368 49.672,8 C49.9280013,7.93066632 50.1306659,7.829334 50.28,7.696 C50.4293341,7.562666 50.504,7.36800128 50.504,7.112 C50.504,6.81333184 50.4480006,6.57333424 50.336,6.392 C50.2239994,6.21066576 50.0800009,6.07200048 49.904,5.976 C49.7279991,5.87999952 49.5306678,5.81600016 49.312,5.784 C49.0933322,5.75199984 48.8773344,5.736 48.664,5.736 C48.0879971,5.736 47.6080019,5.84533224 47.224,6.064 C46.8399981,6.28266776 46.6320002,6.69599696 46.6,7.304 L45.24,7.304 C45.2613334,6.79199744 45.367999,6.36000176 45.56,6.008 C45.752001,5.65599824 46.0079984,5.37066776 46.328,5.152 C46.6480016,4.93333224 47.0133313,4.77600048 47.424,4.68 C47.8346687,4.58399952 48.2746643,4.536 48.744,4.536 C49.1173352,4.536 49.4879982,4.5626664 49.856,4.616 C50.2240018,4.6693336 50.5573318,4.77866584 50.856,4.944 C51.1546682,5.10933416 51.3946658,5.34133184 51.576,5.64 C51.7573342,5.93866816 51.848,6.3279976 51.848,6.808 L51.848,11.064 C51.848,11.3840016 51.8666665,11.6186659 51.904,11.768 C51.9413335,11.9173341 52.0666656,11.992 52.28,11.992 C52.3973339,11.992 52.5359992,11.9653336 52.696,11.912 L52.696,12.968 Z M50.488,8.728 C50.3173325,8.85600064 50.0933347,8.94933304 49.816,9.008 C49.5386653,9.06666696 49.2480015,9.11466648 48.944,9.152 C48.6399985,9.18933352 48.3333349,9.23199976 48.024,9.28 C47.7146651,9.32800024 47.4373346,9.4053328 47.192,9.512 C46.9466654,9.6186672 46.7466674,9.77066568 46.592,9.968 C46.4373326,10.1653343 46.36,10.434665 46.36,10.776 C46.36,11.0000011 46.4053329,11.1893326 46.496,11.344 C46.5866671,11.4986674 46.7039993,11.6239995 46.848,11.72 C46.9920007,11.8160005 47.159999,11.8853331 47.352,11.928 C47.544001,11.9706669 47.7466656,11.992 47.96,11.992 C48.4080022,11.992 48.7919984,11.9306673 49.112,11.808 C49.4320016,11.6853327 49.6933323,11.5306676 49.896,11.344 C50.0986677,11.1573324 50.2479995,10.9546678 50.344,10.736 C50.4400005,10.5173322 50.488,10.312001 50.488,10.12 L50.488,8.728 Z M59.576,7.384 L60.984,7.384 C60.9306664,6.89333088 60.8026677,6.46933512 60.6,6.112 C60.3973323,5.75466488 60.1386682,5.45866784 59.824,5.224 C59.5093318,4.98933216 59.1466687,4.81600056 58.736,4.704 C58.3253313,4.59199944 57.8853357,4.536 57.416,4.536 C56.7653301,4.536 56.1946691,4.65066552 55.704,4.88 C55.2133309,5.10933448 54.805335,5.423998 54.48,5.824 C54.154665,6.224002 53.9120008,6.69333064 53.752,7.232 C53.5919992,7.77066936 53.512,8.34933024 53.512,8.968 C53.512,9.58666976 53.5946658,10.1546641 53.76,10.672 C53.9253342,11.1893359 54.170665,11.6346648 54.496,12.008 C54.821335,12.3813352 55.2266642,12.6693323 55.712,12.872 C56.1973358,13.0746677 56.7546635,13.176 57.384,13.176 C58.4400053,13.176 59.2746636,12.8986694 59.888,12.344 C60.5013364,11.7893306 60.8826659,11.0000051 61.032,9.976 L59.64,9.976 C59.5546662,10.6160032 59.3226686,11.1119982 58.944,11.464 C58.5653314,11.8160018 58.0400034,11.992 57.368,11.992 C56.9413312,11.992 56.5733349,11.9066675 56.264,11.736 C55.9546651,11.5653325 55.704001,11.3386681 55.512,11.056 C55.319999,10.7733319 55.1786671,10.4506685 55.088,10.088 C54.9973329,9.72533152 54.952,9.35200192 54.952,8.968 C54.952,8.55199792 54.9946662,8.14933528 55.08,7.76 C55.1653338,7.37066472 55.3066657,7.02666816 55.504,6.728 C55.7013343,6.42933184 55.9653317,6.18933424 56.296,6.008 C56.6266683,5.82666576 57.0373309,5.736 57.528,5.736 C58.1040029,5.736 58.562665,5.87999856 58.904,6.168 C59.245335,6.45600144 59.4693328,6.86133072 59.576,7.384 L59.576,7.384 Z M62.632,1.576 L62.632,13 L63.992,13 L63.992,9.864 L65.272,8.68 L68.104,13 L69.832,13 L66.312,7.736 L69.592,4.728 L67.768,4.728 L63.992,8.344 L63.992,1.576 L62.632,1.576 Z" fill="#FFFFFF"></path>
                </g>
            </g>
        </g>
    </g>
</svg>
