<svg width="148" height="14" viewBox="0 0 148 14" xmlns="http://www.w3.org/2000/svg"><title>Docs logo</title><desc>Created with Sketch.</desc><g fill="none" fill-rule="evenodd"><g><g><path d="M70.3 0h-6.2c-.6 0-1.1.2-1.5.6-.4.4-.6.9-.6 1.5v8.8c0 .6.2 1.1.6 1.5.4.4.9.6 1.5.6h6.2c.6 0 1.1-.2 1.5-.6.4-.4.6-.9.6-1.5v-.6h-7.7V2.7h7.7v-.6c0-.6-.2-1.1-.6-1.5-.4-.4-.9-.6-1.5-.6zM82 0h-6.2c-.6 0-1.1.2-1.5.6-.4.4-.6.9-.6 1.5v.6h7.8v2.5h-5.6c-.6 0-1.1.2-1.5.6-.4.4-.6.9-.6 1.5v3.6c0 .6.2 1.1.6 1.5.4.4.9.6 1.5.6H82c.6 0 1.1-.2 1.5-.6.4-.4.6-.9.6-1.5V2.1c0-.6-.2-1.1-.6-1.5-.4-.4-.9-.6-1.5-.6zm-.6 10.3h-5V7.8h5v2.5zm9.2 0H88V2.1c0-.6-.2-1.1-.6-1.5-.4-.4-.9-.6-1.5-.6h-.6v10.9c0 .6.2 1.1.6 1.5.4.4.9.6 1.5.6H91c.6 0 1.1-.2 1.5-.6.4-.4.6-.9.6-1.5v-.6h-2.5zm12.2-2.5c.6 0 1.1-.2 1.5-.6.4-.4.6-.9.6-1.5V2.1c0-.6-.2-1.1-.6-1.5-.4-.4-.9-.6-1.5-.6h-6.2c-.6 0-1.1.2-1.5.6-.4.4-.6.9-.6 1.5v8.8c0 .6.2 1.1.6 1.5.4.4.9.6 1.5.6h6.2c.6 0 1.1-.2 1.5-.6.4-.4.6-.9.6-1.5v-.6h-7.8V7.8h5.7zm-5.7-5.1h5v2.5h-5V2.7zM58.7 0h-6.2c-.6 0-1.1.2-1.5.6-.4.4-.6.9-.6 1.5v3.6c0 .6.2 1.1.6 1.5.4.4.9.6 1.5.6h5.6v2.5h-7.7v.6c0 .6.2 1.1.6 1.5.4.4.9.6 1.5.6h6.2c.6 0 1.1-.2 1.5-.6.4-.4.6-.9.6-1.5V7.3c0-.6-.2-1.1-.6-1.5-.4-.4-.9-.6-1.5-.6h-5.6V2.7h7.8v-.6c0-.6-.2-1.1-.6-1.5-.5-.4-1.1-.6-1.6-.6zM8.3 0H0v13h2.7v-2.6h5v.5c0 .6.2 1.1.6 1.5.5.4 1 .6 1.5.6h.6V9.9c0-.6-.2-1.1-.6-1.5-.3-.3-.6-.5-1-.6.4-.1.7-.3 1-.6.4-.4.6-.9.6-1.5V2.1c0-.6-.2-1.1-.6-1.5C9.4.2 8.9 0 8.3 0zm-.6 7.7h-5v-5h5v5zm4.5-4.6h-.6V13h2.7V5.3c0-.6-.2-1.1-.6-1.5-.4-.5-.9-.7-1.5-.7zm4-2.5c-.4.4-.6.9-.6 1.5v8.8c0 .6.2 1.1.6 1.5.4.4.9.6 1.5.6h6.2c.6 0 1.1-.2 1.5-.6.4-.4.6-.9.6-1.5V5.2h-2.7v5.2h-5V2.7H26V0h-8.3c-.6 0-1.1.2-1.5.6zM35 5.2h-5V0h-2.7v13H30V7.8h5V13h2.7V0H35v5.2zM38.9 0v2.7h2.6V13h.6c.6 0 1.1-.2 1.5-.6.4-.4.6-.9.6-1.5V2.7h2.6V0h-7.9z" id="Shape" opacity=".25" fill="#000"/><path d="M70.3 1h-6.2c-.6 0-1.1.2-1.5.6-.4.4-.6.9-.6 1.5v8.8c0 .6.2 1.1.6 1.5.4.4.9.6 1.5.6h6.2c.6 0 1.1-.2 1.5-.6.4-.4.6-.9.6-1.5v-.6h-7.7V3.7h7.7v-.6c0-.6-.2-1.1-.6-1.5-.4-.4-.9-.6-1.5-.6zM82 1h-6.2c-.6 0-1.1.2-1.5.6-.4.4-.6.9-.6 1.5v.6h7.8v2.5h-5.6c-.6 0-1.1.2-1.5.6-.4.4-.6.9-.6 1.5v3.6c0 .6.2 1.1.6 1.5.4.4.9.6 1.5.6H82c.6 0 1.1-.2 1.5-.6.4-.4.6-.9.6-1.5V3.1c0-.6-.2-1.1-.6-1.5-.4-.4-.9-.6-1.5-.6zm-.6 10.3h-5V8.8h5v2.5zm9.2 0H88V3.1c0-.6-.2-1.1-.6-1.5-.4-.4-.9-.6-1.5-.6h-.6v10.9c0 .6.2 1.1.6 1.5.4.4.9.6 1.5.6H91c.6 0 1.1-.2 1.5-.6.4-.4.6-.9.6-1.5v-.6h-2.5zm12.2-2.5c.6 0 1.1-.2 1.5-.6.4-.4.6-.9.6-1.5V3.1c0-.6-.2-1.1-.6-1.5-.4-.4-.9-.6-1.5-.6h-6.2c-.6 0-1.1.2-1.5.6-.4.4-.6.9-.6 1.5v8.8c0 .6.2 1.1.6 1.5.4.4.9.6 1.5.6h6.2c.6 0 1.1-.2 1.5-.6.4-.4.6-.9.6-1.5v-.6h-7.8V8.8h5.7zm-5.7-5.1h5v2.5h-5V3.7zM58.7 1h-6.2c-.6 0-1.1.2-1.5.6-.4.4-.6.9-.6 1.5v3.6c0 .6.2 1.1.6 1.5.4.4.9.6 1.5.6h5.6v2.5h-7.7v.6c0 .6.2 1.1.6 1.5.4.4.9.6 1.5.6h6.2c.6 0 1.1-.2 1.5-.6.4-.4.6-.9.6-1.5V8.3c0-.6-.2-1.1-.6-1.5-.4-.4-.9-.6-1.5-.6h-5.6V3.7h7.8v-.6c0-.6-.2-1.1-.6-1.5-.5-.4-1.1-.6-1.6-.6zM8.3 1H0v13h2.7v-2.6h5v.5c0 .6.2 1.1.6 1.5.5.4 1 .6 1.5.6h.6v-3.1c0-.6-.2-1.1-.6-1.5-.3-.3-.6-.5-1-.6.4-.1.7-.3 1-.6.4-.4.6-.9.6-1.5V3.1c0-.6-.2-1.1-.6-1.5-.4-.4-.9-.6-1.5-.6zm-.6 7.7h-5v-5h5v5zm4.5-4.6h-.6V14h2.7V6.3c0-.6-.2-1.1-.6-1.5-.4-.5-.9-.7-1.5-.7zm4-2.5c-.4.4-.6.9-.6 1.5v8.8c0 .6.2 1.1.6 1.5.4.4.9.6 1.5.6h6.2c.6 0 1.1-.2 1.5-.6.4-.4.6-.9.6-1.5V6.2h-2.7v5.2h-5V3.7H26V1h-8.3c-.6 0-1.1.2-1.5.6zM35 6.2h-5V1h-2.7v13H30V8.8h5V14h2.7V1H35v5.2zM38.9 1v2.7h2.6V14h.6c.6 0 1.1-.2 1.5-.6.4-.4.6-.9.6-1.5V3.7h2.6V1h-7.9z" id="Shape" fill="#fff"/><path d="M11.7.6c0 .6.2 1.1.6 1.5.4.4.9.6 1.5.6h.6V0h-2.7v.6z" id="Shape" opacity=".25" fill="#000"/><path d="M11.7 1.6c0 .6.2 1.1.6 1.5.4.4.9.6 1.5.6h.6V1h-2.7v.6z" id="Shape" fill="#F3A02D"/><g><path d="M113.768 10.72V1.856h2.56c.704 0 1.296.1 1.776.296.48.197.872.485 1.176.864.304.38.523.837.656 1.376.133.54.2 1.15.2 1.832 0 .704-.072 1.304-.216 1.8-.144.496-.328.91-.552 1.24-.224.33-.477.592-.76.784-.283.192-.568.34-.856.44-.288.1-.56.165-.816.192-.256.027-.47.04-.64.04h-2.528zM112.248.576V12h3.92c.95 0 1.77-.133 2.464-.4.693-.267 1.264-.653 1.712-1.16.448-.507.78-1.13.992-1.872.213-.74.32-1.592.32-2.552 0-1.835-.475-3.2-1.424-4.096-.95-.896-2.304-1.344-4.064-1.344h-3.92zm12.032 7.296c0-.5.067-.947.2-1.336.133-.39.317-.717.552-.984.235-.267.51-.47.824-.608.315-.14.648-.208 1-.208s.685.07 1 .208c.315.14.59.34.824.608.235.267.42.595.552.984.133.39.2.835.2 1.336 0 .5-.067.947-.2 1.336-.133.39-.317.715-.552.976-.235.26-.51.46-.824.6-.315.14-.648.208-1 .208s-.685-.07-1-.208c-.315-.14-.59-.34-.824-.6-.235-.26-.42-.587-.552-.976-.133-.39-.2-.835-.2-1.336zm-1.44 0c0 .608.085 1.173.256 1.696.17.523.427.98.768 1.368.34.39.763.693 1.264.912.5.22 1.077.328 1.728.328.66 0 1.24-.11 1.736-.328.496-.22.915-.523 1.256-.912.34-.39.597-.845.768-1.368.17-.523.256-1.088.256-1.696 0-.608-.085-1.176-.256-1.704-.17-.528-.427-.987-.768-1.376-.34-.39-.76-.696-1.256-.92-.496-.224-1.075-.336-1.736-.336-.65 0-1.227.112-1.728.336-.5.224-.923.53-1.264.92-.34.39-.597.848-.768 1.376-.17.528-.256 1.096-.256 1.704zm15.248-1.488h1.408c-.053-.49-.18-.915-.384-1.272-.203-.357-.46-.653-.776-.888-.315-.235-.677-.408-1.088-.52-.41-.112-.85-.168-1.32-.168-.65 0-1.22.115-1.712.344-.49.23-.9.544-1.224.944-.325.4-.568.87-.728 1.408-.16.54-.24 1.117-.24 1.736 0 .62.083 1.187.248 1.704.165.517.41.963.736 1.336.325.373.73.66 1.216.864.485.203 1.043.304 1.672.304 1.056 0 1.89-.277 2.504-.832.613-.555.995-1.344 1.144-2.368h-1.392c-.085.64-.317 1.136-.696 1.488-.38.352-.904.528-1.576.528-.427 0-.795-.085-1.104-.256-.31-.17-.56-.397-.752-.68-.192-.283-.333-.605-.424-.968-.09-.363-.136-.736-.136-1.12 0-.416.043-.82.128-1.208.085-.39.227-.733.424-1.032.197-.3.46-.54.792-.72.33-.18.74-.272 1.232-.272.576 0 1.035.144 1.376.432.34.288.565.693.672 1.216zm3.808 3.008h-1.36c.02.512.128.947.32 1.304.192.357.448.645.768.864.32.22.688.376 1.104.472.416.096.853.144 1.312.144.416 0 .835-.04 1.256-.12.42-.08.8-.22 1.136-.424.336-.203.608-.47.816-.8.208-.33.312-.747.312-1.248 0-.395-.077-.725-.232-.992-.155-.267-.357-.488-.608-.664-.25-.176-.54-.317-.864-.424-.325-.107-.66-.197-1-.272-.32-.075-.64-.147-.96-.216-.32-.07-.608-.155-.864-.256-.256-.1-.467-.23-.632-.384-.165-.155-.248-.35-.248-.584 0-.213.053-.387.16-.52.107-.133.245-.24.416-.32.17-.08.36-.136.568-.168.208-.032.413-.048.616-.048.224 0 .445.024.664.072.22.048.42.125.6.232.18.107.33.248.448.424.117.176.187.397.208.664h1.36c-.032-.5-.14-.92-.32-1.256-.18-.336-.424-.603-.728-.8-.304-.197-.653-.336-1.048-.416-.395-.08-.827-.12-1.296-.12-.363 0-.728.045-1.096.136-.368.09-.7.23-.992.416-.293.187-.533.43-.72.728-.187.3-.28.656-.28 1.072 0 .533.133.95.4 1.248.267.3.6.53 1 .696.4.165.835.293 1.304.384.47.09.904.192 1.304.304.4.112.733.26 1 .44s.4.448.4.8c0 .256-.064.467-.192.632-.128.165-.29.29-.488.376-.197.085-.413.144-.648.176-.235.032-.46.048-.672.048-.277 0-.547-.027-.808-.08-.26-.053-.496-.14-.704-.264-.208-.123-.376-.288-.504-.496-.128-.208-.197-.46-.208-.76z" id="Shape" fill-opacity=".25" fill="#000"/><path d="M113.768 11.72V2.856h2.56c.704 0 1.296.1 1.776.296.48.197.872.485 1.176.864.304.38.523.837.656 1.376.133.54.2 1.15.2 1.832 0 .704-.072 1.304-.216 1.8-.144.496-.328.91-.552 1.24-.224.33-.477.592-.76.784-.283.192-.568.34-.856.44-.288.1-.56.165-.816.192-.256.027-.47.04-.64.04h-2.528zm-1.52-10.144V13h3.92c.95 0 1.77-.133 2.464-.4.693-.267 1.264-.653 1.712-1.16.448-.507.78-1.13.992-1.872.213-.74.32-1.592.32-2.552 0-1.835-.475-3.2-1.424-4.096-.95-.896-2.304-1.344-4.064-1.344h-3.92zm12.032 7.296c0-.5.067-.947.2-1.336.133-.39.317-.717.552-.984.235-.267.51-.47.824-.608.315-.14.648-.208 1-.208s.685.07 1 .208c.315.14.59.34.824.608.235.267.42.595.552.984.133.39.2.835.2 1.336 0 .5-.067.947-.2 1.336-.133.39-.317.715-.552.976-.235.26-.51.46-.824.6-.315.14-.648.208-1 .208s-.685-.07-1-.208c-.315-.14-.59-.34-.824-.6-.235-.26-.42-.587-.552-.976-.133-.39-.2-.835-.2-1.336zm-1.44 0c0 .608.085 1.173.256 1.696.17.523.427.98.768 1.368.34.39.763.693 1.264.912.5.22 1.077.328 1.728.328.66 0 1.24-.11 1.736-.328.496-.22.915-.523 1.256-.912.34-.39.597-.845.768-1.368.17-.523.256-1.088.256-1.696 0-.608-.085-1.176-.256-1.704-.17-.528-.427-.987-.768-1.376-.34-.39-.76-.696-1.256-.92-.496-.224-1.075-.336-1.736-.336-.65 0-1.227.112-1.728.336-.5.224-.923.53-1.264.92-.34.39-.597.848-.768 1.376-.17.528-.256 1.096-.256 1.704zm15.248-1.488h1.408c-.053-.49-.18-.915-.384-1.272-.203-.357-.46-.653-.776-.888-.315-.235-.677-.408-1.088-.52-.41-.112-.85-.168-1.32-.168-.65 0-1.22.115-1.712.344-.49.23-.9.544-1.224.944-.325.4-.568.87-.728 1.408-.16.54-.24 1.117-.24 1.736 0 .62.083 1.187.248 1.704.165.517.41.963.736 1.336.325.373.73.66 1.216.864.485.203 1.043.304 1.672.304 1.056 0 1.89-.277 2.504-.832.613-.555.995-1.344 1.144-2.368h-1.392c-.085.64-.317 1.136-.696 1.488-.38.352-.904.528-1.576.528-.427 0-.795-.085-1.104-.256-.31-.17-.56-.397-.752-.68-.192-.283-.333-.605-.424-.968-.09-.363-.136-.736-.136-1.12 0-.416.043-.82.128-1.208.085-.39.227-.733.424-1.032.197-.3.46-.54.792-.72.33-.18.74-.272 1.232-.272.576 0 1.035.144 1.376.432.34.288.565.693.672 1.216zm3.808 3.008h-1.36c.02.512.128.947.32 1.304.192.357.448.645.768.864.32.22.688.376 1.104.472.416.096.853.144 1.312.144.416 0 .835-.04 1.256-.12.42-.08.8-.22 1.136-.424.336-.203.608-.47.816-.8.208-.33.312-.747.312-1.248 0-.395-.077-.725-.232-.992-.155-.267-.357-.488-.608-.664-.25-.176-.54-.317-.864-.424-.325-.107-.66-.197-1-.272-.32-.075-.64-.147-.96-.216-.32-.07-.608-.155-.864-.256-.256-.1-.467-.23-.632-.384-.165-.155-.248-.35-.248-.584 0-.213.053-.387.16-.52.107-.133.245-.24.416-.32.17-.08.36-.136.568-.168.208-.032.413-.048.616-.048.224 0 .445.024.664.072.22.048.42.125.6.232.18.107.33.248.448.424.117.176.187.397.208.664h1.36c-.032-.5-.14-.92-.32-1.256-.18-.336-.424-.603-.728-.8-.304-.197-.653-.336-1.048-.416-.395-.08-.827-.12-1.296-.12-.363 0-.728.045-1.096.136-.368.09-.7.23-.992.416-.293.187-.533.43-.72.728-.187.3-.28.656-.28 1.072 0 .533.133.95.4 1.248.267.3.6.53 1 .696.4.165.835.293 1.304.384.47.09.904.192 1.304.304.4.112.733.26 1 .44s.4.448.4.8c0 .256-.064.467-.192.632-.128.165-.29.29-.488.376-.197.085-.413.144-.648.176-.235.032-.46.048-.672.048-.277 0-.547-.027-.808-.08-.26-.053-.496-.14-.704-.264-.208-.123-.376-.288-.504-.496-.128-.208-.197-.46-.208-.76z" fill="#fff"/></g></g></g></g></svg>