<svg width="16" height="106" viewBox="0 0 16 106" xmlns="http://www.w3.org/2000/svg"><g fill="none"><circle id="Shape" fill="#80C11A" cx="3" cy="103" r="3"/><path d="M2.6 86c.3 0 .5-.1.7-.3l3.4-4.3c.1-.2.2-.4.2-.5 0-.3-.1-.5-.3-.7-.2-.1-.4-.2-.6-.2-.3 0-.5.1-.7.3l-2.8 3.6-1-1c-.2-.2-.4-.3-.6-.3-.2 0-.4.1-.6.3-.2.1-.3.3-.3.5s.1.5.3.6L2 85.7c.1.2.3.3.6.3z" id="Shape" fill="#80C11A"/><path d="M2.6 65c.3 0 .5-.1.7-.3l3.4-4.3c.1-.2.2-.4.2-.5 0-.3-.1-.5-.3-.7-.2-.1-.4-.2-.6-.2-.3 0-.5.1-.7.3l-2.8 3.6-1-1c-.2-.2-.4-.3-.6-.3-.2 0-.4.1-.6.3-.2.1-.3.3-.3.5s.1.5.3.6L2 64.7c.1.2.3.3.6.3z" id="Shape" fill="#ADB9C3"/><path d="M10 28.15l-9.4 9.4c-.1.1-.1.2-.1.3l-.5 3.5c0 .2 0 .3.1.4.1.1.3.2.4.2h.1l3.5-.5.3-.1 9.4-9.4-3.8-3.8zm-9 12.8l.5-3 2.5 2.5-3 .5zm14.9-11.1l-1.4 1.4-3.7-3.7 1.4-1.4c.2-.2.5-.2.7 0l3 3c.1.1.1.5 0 .7z" id="Shape" fill="#0A83F6"/><path d="M10 2.15l-9.4 9.4c-.1.1-.1.2-.1.3l-.5 3.5c0 .2 0 .3.1.4.1.1.3.2.4.2h.1l3.5-.5.3-.1 9.4-9.4-3.8-3.8zm-9 12.8l.5-3 2.5 2.5-3 .5zm14.9-11.1l-1.4 1.4-3.7-3.7 1.4-1.4c.2-.2.5-.2.7 0l3 3c.1.1.1.5 0 .7z" fill="#ADB9C3"/></g></svg>
