<?xml version="1.0" encoding="UTF-8" standalone="no"?>
<svg width="96px" height="64px" viewBox="0 0 96 64" version="1.1" xmlns="http://www.w3.org/2000/svg" xmlns:xlink="http://www.w3.org/1999/xlink" xmlns:sketch="http://www.bohemiancoding.com/sketch/ns">
    <!-- Generator: Sketch 3.3.2 (12043) - http://www.bohemiancoding.com/sketch -->
    <title>toggle</title>
    <desc>Created with Sketch.</desc>
    <defs></defs>
    <g id="Page-1" stroke="none" stroke-width="1" fill="none" fill-rule="evenodd" sketch:type="MSPage">
        <g id="toggle" sketch:type="MSLayerGroup" fill="#FFFFFF">
            <path d="M64,0 L32,0 C14.33,0 0,14.33 0,32 C0,49.67 14.33,64 32,64 L64,64 C81.67,64 96,49.67 96,32 C96,14.33 81.67,0 64,0 L64,0 Z M64,56 L32,56 C18.745,56 8,45.255 8,32 C8,18.745 18.745,8 32,8 L64,8 C77.255,8 88,18.745 88,32 C88,45.255 77.255,56 64,56 L64,56 Z M22,32 C22,24.8202983 27.8136987,19 35.0044034,19 L60.9955966,19 C68.1777303,19 74,24.8187196 74,32 L74,32 C74,39.1797017 68.1863013,45 60.9955966,45 L35.0044034,45 C27.8222697,45 22,39.1812804 22,32 L22,32 Z" id="Shape" sketch:type="MSShapeGroup"></path>
        </g>
    </g>
</svg>