<?xml version="1.0" encoding="UTF-8" standalone="no"?>
<svg width="299px" height="169px" viewBox="0 0 299 169" version="1.1" xmlns="http://www.w3.org/2000/svg" xmlns:xlink="http://www.w3.org/1999/xlink" xmlns:sketch="http://www.bohemiancoding.com/sketch/ns">
    <!-- Generator: Sketch 3.3.2 (12043) - http://www.bohemiancoding.com/sketch -->
    <title>Shape</title>
    <desc>Created with Sketch.</desc>
    <defs></defs>
    <g id="Page-1-Copy" stroke="none" stroke-width="1" fill="none" fill-rule="evenodd" sketch:type="MSPage">
        <g id="avatar-+-main-logo.4ddf07ca" sketch:type="MSLayerGroup" transform="translate(-61.000000, -132.000000)" fill="#FFFFFF">
            <g id="main-logo.4ddf07ca" transform="translate(61.000000, 132.000000)" sketch:type="MSShapeGroup">
                <g id="Group">
                    <path d="M269.825108,0 L189.090909,0 C181.277922,0 174.7671,2.6 169.558442,7.8 C164.349784,13 161.745455,19.5 161.745455,27.3 L161.745455,74.1 C161.745455,81.9 164.349784,88.4 169.558442,93.6 C174.7671,98.8 181.277922,101.4 189.090909,101.4 L262.012121,101.4 L262.012121,133.9 L161.745455,133.9 L161.745455,141.7 C161.745455,149.5 164.349784,156 169.558442,161.2 C174.7671,166.4 181.277922,169 189.090909,169 L269.825108,169 C277.638095,169 284.148918,166.4 289.357576,161.2 C294.566234,156 297.170563,149.5 297.170563,141.7 L297.170563,94.9 C297.170563,87.1 294.566234,80.6 289.357576,75.4 C284.148918,70.2 277.638095,67.6 269.825108,67.6 L196.903896,67.6 L196.903896,35.1 L298.472727,35.1 L298.472727,27.3 C298.472727,19.5 295.868398,13 290.65974,7.8 C284.148918,2.6 276.335931,0 269.825108,0 L269.825108,0 Z M108.079654,0 L0,0 L0,169 L35.1584416,169 L35.1584416,135.2 L100.266667,135.2 L100.266667,141.7 C100.266667,149.5 102.870996,156 108.079654,161.2 C114.590476,166.4 121.101299,169 127.612121,169 L135.425108,169 L135.425108,128.7 C135.425108,120.9 132.820779,114.4 127.612121,109.2 C123.705628,105.3 119.799134,102.7 114.590476,101.4 C119.799134,100.1 123.705628,97.5 127.612121,93.6 C132.820779,88.4 135.425108,81.9 135.425108,74.1 L135.425108,27.3 C135.425108,19.5 132.820779,13 127.612121,7.8 C122.403463,2.6 115.892641,0 108.079654,0 L108.079654,0 Z M100.266667,100.1 L35.1584416,100.1 L35.1584416,35.1 L100.266667,35.1 L100.266667,100.1 L100.266667,100.1 Z" id="Shape"></path>
                </g>
            </g>
        </g>
    </g>
</svg>