<svg width="14" height="14" viewBox="0 0 14 14" xmlns="http://www.w3.org/2000/svg" xmlns:sketch="http://www.bohemiancoding.com/sketch/ns"><title>icon-search</title><desc>Created with Sketch.</desc><path d="M13.9 11.8l-3.1-3.1c.5-.9.8-1.9.8-2.8 0-3.3-2.6-5.9-5.8-5.9-3.2 0-5.8 2.6-5.8 5.8 0 3.2 2.6 5.8 5.8 5.8 1 0 2-.3 2.9-.8l3.1 3.1c0 .1.1.1.2.1s.2 0 .3-.1l1.6-1.6c.1-.2.1-.4 0-.5zm-8.1-9.5c1.9 0 3.5 1.6 3.5 3.5s-1.6 3.5-3.5 3.5-3.5-1.6-3.5-3.5c0-2 1.5-3.5 3.5-3.5z" sketch:type="MSShapeGroup" fill="#A2AFBA"/></svg>