<svg width="16" height="17" viewBox="0 0 16 18" xmlns="http://www.w3.org/2000/svg" xmlns:sketch="http://www.bohemiancoding.com/sketch/ns"><defs><filter id="dropShadow"><feGaussianBlur in="SourceAlpha" stdDeviation="0"/><feOffset dx="0" dy="-1.5" result="offsetblur"/><feComponentTransfer><feFuncA type="linear" slope="0.25"/></feComponentTransfer><feMerge><feMergeNode/><feMergeNode in="SourceGraphic"/></feMerge></filter></defs><title>icon-product-trigger</title><desc>Created with Sketch.</desc><g sketch:type="MSShapeGroup" fill="none"><path d="M8 1c-4.4 0-8 3.6-8 8s3.6 8 8 8 8-3.6 8-8-3.6-8-8-8zm3.7 7.8l-2.9 2.9c-.2.2-.5.3-.8.3-.3 0-.6-.1-.8-.3l-2.9-2.9c-.2-.2-.3-.5-.3-.7 0-.3.1-.5.3-.8.2-.2.5-.3.8-.3.3 0 .6.1.8.3l2.1 2.1 2.1-2.1c.3-.2.5-.3.8-.3.3 0 .6.1.8.3.2.2.3.5.3.8 0 .3-.1.5-.3.7z" fill="#FFF" filter="url(#dropShadow)"/></g></svg>
