<?xml version="1.0" encoding="utf-8"?>
<!-- Generator: Adobe Illustrator 18.1.1, SVG Export Plug-In . SVG Version: 6.00 Build 0)  -->
<svg version="1.1" id="Layer_1" xmlns="http://www.w3.org/2000/svg" xmlns:xlink="http://www.w3.org/1999/xlink" x="0px" y="0px"
	 viewBox="-623.5 395 10 12" enable-background="new -623.5 395 10 12" xml:space="preserve">
<g>
	<g>
		<path fill="#FFFFFF" d="M-623.3,406.8c0.1,0.1,0.3,0.2,0.4,0.2h8.7c0.2,0,0.3-0.1,0.4-0.2c0.1-0.1,0.2-0.3,0.2-0.5v-7.1h-3.5
			c-0.2,0-0.3-0.1-0.4-0.2c-0.1-0.1-0.2-0.3-0.2-0.5V395h-5.2c-0.2,0-0.3,0.1-0.4,0.2c-0.1,0.1-0.2,0.3-0.2,0.5v10.7
			C-623.5,406.5-623.4,406.7-623.3,406.8z M-621,403.8c0-0.1,0-0.1,0.1-0.2c0,0,0.1-0.1,0.2-0.1h4.6c0.1,0,0.1,0,0.2,0.1
			c0,0,0.1,0.1,0.1,0.2v0.4c0,0.1,0,0.1-0.1,0.2c0,0-0.1,0.1-0.2,0.1h-4.6c-0.1,0-0.1,0-0.2-0.1c0,0-0.1-0.1-0.1-0.2L-621,403.8
			L-621,403.8z M-621,402.1c0-0.1,0-0.1,0.1-0.2c0,0,0.1-0.1,0.2-0.1h4.6c0.1,0,0.1,0,0.2,0.1c0,0,0.1,0.1,0.1,0.2v0.4
			c0,0.1,0,0.1-0.1,0.2c0,0-0.1,0.1-0.2,0.1h-4.6c-0.1,0-0.1,0-0.2-0.1c0,0-0.1-0.1-0.1-0.2L-621,402.1L-621,402.1z M-621,400.4
			c0-0.1,0-0.1,0.1-0.2c0,0,0.1-0.1,0.2-0.1h4.6c0.1,0,0.1,0,0.2,0.1c0,0,0.1,0.1,0.1,0.2v0.4c0,0.1,0,0.1-0.1,0.2
			c0,0-0.1,0.1-0.2,0.1h-4.6c-0.1,0-0.1,0-0.2-0.1c0,0-0.1-0.1-0.1-0.2L-621,400.4L-621,400.4z M-613.8,398.4
			c-0.1-0.1-0.1-0.2-0.2-0.3l-2.7-2.7c-0.1-0.1-0.1-0.1-0.2-0.2v3.2H-613.8L-613.8,398.4z"/>
	</g>
</g>
</svg>
