<svg width="128" height="128" viewBox="0 0 128 128" xmlns="http://www.w3.org/2000/svg" xmlns:sketch="http://www.bohemiancoding.com/sketch/ns"><title>icon-product-trigger</title><desc>Created with Sketch.</desc><g sketch:type="MSShapeGroup" fill="none"><path d="M64 56c-4.4 0-8 3.6-8 8s3.6 8 8 8 8-3.6 8-8-3.6-8-8-8zm3.7 7.8l-2.9 2.9c-.2.2-.5.3-.8.3-.3 0-.6-.1-.8-.3l-2.9-2.9c-.2-.2-.3-.5-.3-.7 0-.3.1-.5.3-.8.2-.2.5-.3.8-.3.3 0 .6.1.8.3l2.1 2.1 2.1-2.1c.3-.2.5-.3.8-.3.3 0 .6.1.8.3.2.2.3.5.3.8 0 .3-.1.5-.3.7z" id="Shape" opacity=".25" fill="#000"/><path d="M64 57c-4.4 0-8 3.6-8 8s3.6 8 8 8 8-3.6 8-8-3.6-8-8-8zm3.7 7.8l-2.9 2.9c-.2.2-.5.3-.8.3-.3 0-.6-.1-.8-.3l-2.9-2.9c-.2-.2-.3-.5-.3-.7 0-.3.1-.5.3-.8.2-.2.5-.3.8-.3.3 0 .6.1.8.3l2.1 2.1 2.1-2.1c.3-.2.5-.3.8-.3.3 0 .6.1.8.3.2.2.3.5.3.8 0 .3-.1.5-.3.7z" fill="#fff"/></g></svg>