<svg width="14" height="13" viewBox="0 0 14 13" xmlns="http://www.w3.org/2000/svg" xmlns:sketch="http://www.bohemiancoding.com/sketch/ns"><title>icon-user-logout</title><desc>Created with Sketch.</desc><g sketch:type="MSLayerGroup" fill="none"><path d="M13 0h-6c-.5 0-1 .5-1 1v1l2 1v-1h4v10h2v-11c0-.5-.5-1-1-1zm-8 3c-.1-.1-.7-.4-.8-.4l-.2.4v2h-3c-.4 0-1 .6-1 1v1c0 .4.6 1 1 1h3v2l.2.4c0 .1.7-.4.8-.4l4-3v-1l-4-3z" opacity=".25" fill="#000" sketch:type="MSShapeGroup"/><path d="M13 1h-6c-.5 0-1 .5-1 1v1l2 1v-1h4v10h2v-11c0-.5-.5-1-1-1zm-8 3c-.1-.1-.7-.4-.8-.4l-.2.4v2h-3c-.4 0-1 .6-1 1v1c0 .4.6 1 1 1h3v2l.2.4c0 .1.7-.4.8-.4l4-3v-1l-4-3z" fill="#fff" sketch:type="MSShapeGroup"/></g></svg>