
<svg width="200px" height="15px" viewBox="40 116 200 15" version="1.1" xmlns="http://www.w3.org/2000/svg" xmlns:xlink="http://www.w3.org/1999/xlink">
    <!-- Generator: Sketch 42 (36781) - http://www.bohemiancoding.com/sketch -->
    <desc>Created with Sketch.</desc>
    <defs></defs>
    <g id="API-logo" stroke="none" stroke-width="1" fill="none" fill-rule="evenodd" transform="translate(40.000000, 116.000000)">
        <g id="Group">
            <path d="M70.3,7.10542736e-15 L64.1,7.10542736e-15 C63.5,7.10542736e-15 63,0.2 62.6,0.6 C62.2,1 62,1.5 62,2.1 L62,10.9 C62,11.5 62.2,12 62.6,12.4 C63,12.8 63.5,13 64.1,13 L70.3,13 C70.9,13 71.4,12.8 71.8,12.4 C72.2,12 72.4,11.5 72.4,10.9 L72.4,10.3 L64.7,10.3 L64.7,2.7 L72.4,2.7 L72.4,2.1 C72.4,1.5 72.2,1 71.8,0.6 C71.4,0.2 70.9,7.10542736e-15 70.3,7.10542736e-15 L70.3,7.10542736e-15 Z M82,7.10542736e-15 L75.8,7.10542736e-15 C75.2,7.10542736e-15 74.7,0.2 74.3,0.6 C73.9,1 73.7,1.5 73.7,2.1 L73.7,2.7 L81.5,2.7 L81.5,5.2 L75.9,5.2 C75.3,5.2 74.8,5.4 74.4,5.8 C74,6.2 73.8,6.7 73.8,7.3 L73.8,10.9 C73.8,11.5 74,12 74.4,12.4 C74.8,12.8 75.3,13 75.9,13 L82,13 C82.6,13 83.1,12.8 83.5,12.4 C83.9,12 84.1,11.5 84.1,10.9 L84.1,2.1 C84.1,1.5 83.9,1 83.5,0.6 C83.1,0.2 82.6,7.10542736e-15 82,7.10542736e-15 L82,7.10542736e-15 Z M81.4,10.3 L76.4,10.3 L76.4,7.8 L81.4,7.8 L81.4,10.3 L81.4,10.3 Z M90.6,10.3 L88,10.3 L88,2.1 C88,1.5 87.8,1 87.4,0.6 C87,0.2 86.5,7.10542736e-15 85.9,7.10542736e-15 L85.3,7.10542736e-15 L85.3,10.9 C85.3,11.5 85.5,12 85.9,12.4 C86.3,12.8 86.8,13 87.4,13 L91,13 C91.6,13 92.1,12.8 92.5,12.4 C92.9,12 93.1,11.5 93.1,10.9 L93.1,10.3 L90.6,10.3 L90.6,10.3 Z M102.8,7.8 C103.4,7.8 103.9,7.6 104.3,7.2 C104.7,6.8 104.9,6.3 104.9,5.7 L104.9,2.1 C104.9,1.5 104.7,1 104.3,0.6 C103.9,0.2 103.4,7.10542736e-15 102.8,7.10542736e-15 L96.6,7.10542736e-15 C96,7.10542736e-15 95.5,0.2 95.1,0.6 C94.7,1 94.5,1.5 94.5,2.1 L94.5,10.9 C94.5,11.5 94.7,12 95.1,12.4 C95.5,12.8 96,13 96.6,13 L102.8,13 C103.4,13 103.9,12.8 104.3,12.4 C104.7,12 104.9,11.5 104.9,10.9 L104.9,10.3 L97.1,10.3 L97.1,7.8 L102.8,7.8 L102.8,7.8 Z M97.1,2.7 L102.1,2.7 L102.1,5.2 L97.1,5.2 L97.1,2.7 L97.1,2.7 Z M58.7,7.10542736e-15 L52.5,7.10542736e-15 C51.9,7.10542736e-15 51.4,0.2 51,0.6 C50.6,1 50.4,1.5 50.4,2.1 L50.4,5.7 C50.4,6.3 50.6,6.8 51,7.2 C51.4,7.6 51.9,7.8 52.5,7.8 L58.1,7.8 L58.1,10.3 L50.4,10.3 L50.4,10.9 C50.4,11.5 50.6,12 51,12.4 C51.4,12.8 51.9,13 52.5,13 L58.7,13 C59.3,13 59.8,12.8 60.2,12.4 C60.6,12 60.8,11.5 60.8,10.9 L60.8,7.3 C60.8,6.7 60.6,6.2 60.2,5.8 C59.8,5.4 59.3,5.2 58.7,5.2 L53.1,5.2 L53.1,2.7 L60.9,2.7 L60.9,2.1 C60.9,1.5 60.7,1 60.3,0.6 C59.8,0.2 59.2,7.10542736e-15 58.7,7.10542736e-15 L58.7,7.10542736e-15 Z M8.3,1.42108547e-14 L0,1.42108547e-14 L0,13 L2.7,13 L2.7,10.4 L7.7,10.4 L7.7,10.9 C7.7,11.5 7.9,12 8.3,12.4 C8.8,12.8 9.3,13 9.8,13 L10.4,13 L10.4,9.9 C10.4,9.3 10.2,8.8 9.8,8.4 C9.5,8.1 9.2,7.9 8.8,7.8 C9.2,7.7 9.5,7.5 9.8,7.2 C10.2,6.8 10.4,6.3 10.4,5.7 L10.4,2.1 C10.4,1.5 10.2,1 9.8,0.6 C9.4,0.2 8.9,7.10542736e-15 8.3,7.10542736e-15 L8.3,1.42108547e-14 Z M7.7,7.7 L2.7,7.7 L2.7,2.7 L7.7,2.7 L7.7,7.7 L7.7,7.7 Z M12.2,3.1 L11.6,3.1 L11.6,13 L14.3,13 L14.3,5.3 C14.3,4.7 14.1,4.2 13.7,3.8 C13.3,3.3 12.8,3.1 12.2,3.1 L12.2,3.1 Z M16.2,0.6 C15.8,1 15.6,1.5 15.6,2.1 L15.6,10.9 C15.6,11.5 15.8,12 16.2,12.4 C16.6,12.8 17.1,13 17.7,13 L23.9,13 C24.5,13 25,12.8 25.4,12.4 C25.8,12 26,11.5 26,10.9 L26,5.2 L23.3,5.2 L23.3,10.4 L18.3,10.4 L18.3,2.7 L26,2.7 L26,7.10542736e-15 L17.7,7.10542736e-15 C17.1,7.10542736e-15 16.6,0.2 16.2,0.6 L16.2,0.6 Z M35,5.2 L30,5.2 L30,7.10542736e-15 L27.3,7.10542736e-15 L27.3,13 L30,13 L30,7.8 L35,7.8 L35,13 L37.7,13 L37.7,7.10542736e-15 L35,7.10542736e-15 L35,5.2 L35,5.2 Z M38.9,1.0658141e-14 L38.9,2.7 L41.5,2.7 L41.5,13 L42.1,13 C42.7,13 43.2,12.8 43.6,12.4 C44,12 44.2,11.5 44.2,10.9 L44.2,2.7 L46.8,2.7 L46.8,7.10542736e-15 L38.9,7.10542736e-15 L38.9,1.0658141e-14 Z" id="Shape" fill="#000000" opacity="0.25"></path>
            <path d="M70.3,1 L64.1,1 C63.5,1 63,1.2 62.6,1.6 C62.2,2 62,2.5 62,3.1 L62,11.9 C62,12.5 62.2,13 62.6,13.4 C63,13.8 63.5,14 64.1,14 L70.3,14 C70.9,14 71.4,13.8 71.8,13.4 C72.2,13 72.4,12.5 72.4,11.9 L72.4,11.3 L64.7,11.3 L64.7,3.7 L72.4,3.7 L72.4,3.1 C72.4,2.5 72.2,2 71.8,1.6 C71.4,1.2 70.9,1 70.3,1 L70.3,1 Z M82,1 L75.8,1 C75.2,1 74.7,1.2 74.3,1.6 C73.9,2 73.7,2.5 73.7,3.1 L73.7,3.7 L81.5,3.7 L81.5,6.2 L75.9,6.2 C75.3,6.2 74.8,6.4 74.4,6.8 C74,7.2 73.8,7.7 73.8,8.3 L73.8,11.9 C73.8,12.5 74,13 74.4,13.4 C74.8,13.8 75.3,14 75.9,14 L82,14 C82.6,14 83.1,13.8 83.5,13.4 C83.9,13 84.1,12.5 84.1,11.9 L84.1,3.1 C84.1,2.5 83.9,2 83.5,1.6 C83.1,1.2 82.6,1 82,1 L82,1 Z M81.4,11.3 L76.4,11.3 L76.4,8.8 L81.4,8.8 L81.4,11.3 L81.4,11.3 Z M90.6,11.3 L88,11.3 L88,3.1 C88,2.5 87.8,2 87.4,1.6 C87,1.2 86.5,1 85.9,1 L85.3,1 L85.3,11.9 C85.3,12.5 85.5,13 85.9,13.4 C86.3,13.8 86.8,14 87.4,14 L91,14 C91.6,14 92.1,13.8 92.5,13.4 C92.9,13 93.1,12.5 93.1,11.9 L93.1,11.3 L90.6,11.3 L90.6,11.3 Z M102.8,8.8 C103.4,8.8 103.9,8.6 104.3,8.2 C104.7,7.8 104.9,7.3 104.9,6.7 L104.9,3.1 C104.9,2.5 104.7,2 104.3,1.6 C103.9,1.2 103.4,1 102.8,1 L96.6,1 C96,1 95.5,1.2 95.1,1.6 C94.7,2 94.5,2.5 94.5,3.1 L94.5,11.9 C94.5,12.5 94.7,13 95.1,13.4 C95.5,13.8 96,14 96.6,14 L102.8,14 C103.4,14 103.9,13.8 104.3,13.4 C104.7,13 104.9,12.5 104.9,11.9 L104.9,11.3 L97.1,11.3 L97.1,8.8 L102.8,8.8 L102.8,8.8 Z M97.1,3.7 L102.1,3.7 L102.1,6.2 L97.1,6.2 L97.1,3.7 L97.1,3.7 Z M58.7,1 L52.5,1 C51.9,1 51.4,1.2 51,1.6 C50.6,2 50.4,2.5 50.4,3.1 L50.4,6.7 C50.4,7.3 50.6,7.8 51,8.2 C51.4,8.6 51.9,8.8 52.5,8.8 L58.1,8.8 L58.1,11.3 L50.4,11.3 L50.4,11.9 C50.4,12.5 50.6,13 51,13.4 C51.4,13.8 51.9,14 52.5,14 L58.7,14 C59.3,14 59.8,13.8 60.2,13.4 C60.6,13 60.8,12.5 60.8,11.9 L60.8,8.3 C60.8,7.7 60.6,7.2 60.2,6.8 C59.8,6.4 59.3,6.2 58.7,6.2 L53.1,6.2 L53.1,3.7 L60.9,3.7 L60.9,3.1 C60.9,2.5 60.7,2 60.3,1.6 C59.8,1.2 59.2,1 58.7,1 L58.7,1 Z M8.3,1 L0,1 L0,14 L2.7,14 L2.7,11.4 L7.7,11.4 L7.7,11.9 C7.7,12.5 7.9,13 8.3,13.4 C8.8,13.8 9.3,14 9.8,14 L10.4,14 L10.4,10.9 C10.4,10.3 10.2,9.8 9.8,9.4 C9.5,9.1 9.2,8.9 8.8,8.8 C9.2,8.7 9.5,8.5 9.8,8.2 C10.2,7.8 10.4,7.3 10.4,6.7 L10.4,3.1 C10.4,2.5 10.2,2 9.8,1.6 C9.4,1.2 8.9,1 8.3,1 L8.3,1 Z M7.7,8.7 L2.7,8.7 L2.7,3.7 L7.7,3.7 L7.7,8.7 L7.7,8.7 Z M12.2,4.1 L11.6,4.1 L11.6,14 L14.3,14 L14.3,6.3 C14.3,5.7 14.1,5.2 13.7,4.8 C13.3,4.3 12.8,4.1 12.2,4.1 L12.2,4.1 Z M16.2,1.6 C15.8,2 15.6,2.5 15.6,3.1 L15.6,11.9 C15.6,12.5 15.8,13 16.2,13.4 C16.6,13.8 17.1,14 17.7,14 L23.9,14 C24.5,14 25,13.8 25.4,13.4 C25.8,13 26,12.5 26,11.9 L26,6.2 L23.3,6.2 L23.3,11.4 L18.3,11.4 L18.3,3.7 L26,3.7 L26,1 L17.7,1 C17.1,1 16.6,1.2 16.2,1.6 L16.2,1.6 Z M35,6.2 L30,6.2 L30,1 L27.3,1 L27.3,14 L30,14 L30,8.8 L35,8.8 L35,14 L37.7,14 L37.7,1 L35,1 L35,6.2 L35,6.2 Z M38.9,1 L38.9,3.7 L41.5,3.7 L41.5,14 L42.1,14 C42.7,14 43.2,13.8 43.6,13.4 C44,13 44.2,12.5 44.2,11.9 L44.2,3.7 L46.8,3.7 L46.8,1 L38.9,1 L38.9,1 Z" id="Shape" fill="#FFFFFF"></path>
            <path d="M11.7,0.6 C11.7,1.2 11.9,1.7 12.3,2.1 C12.7,2.5 13.2,2.7 13.8,2.7 L14.4,2.7 L14.4,0 L11.7,0 L11.7,0.6 L11.7,0.6 Z" id="Shape" fill="#000000" opacity="0.25"></path>
            <path d="M11.7,1.6 C11.7,2.2 11.9,2.7 12.3,3.1 C12.7,3.5 13.2,3.7 13.8,3.7 L14.4,3.7 L14.4,1 L11.7,1 L11.7,1.6 L11.7,1.6 Z" id="Shape" fill="#F3A02D"></path>
        </g>
        <g id="group" transform="translate(110.000000, 0.000000)">
            <path d="M4.216,7.28 L6.152,1.952 L6.184,1.952 L8.088,7.28 L4.216,7.28 Z M5.352,0.576 L0.904,12 L2.456,12 L3.736,8.56 L8.568,8.56 L9.816,12 L11.496,12 L7.032,0.576 L5.352,0.576 Z M14.136,6.048 L14.136,1.856 L17.112,1.856 C17.9760043,1.856 18.607998,2.03466488 19.008,2.392 C19.408002,2.74933512 19.608,3.26932992 19.608,3.952 C19.608,4.63467008 19.408002,5.15733152 19.008,5.52 C18.607998,5.88266848 17.9760043,6.05866672 17.112,6.048 L14.136,6.048 Z M12.616,0.576 L12.616,12 L14.136,12 L14.136,7.328 L17.624,7.328 C18.7760058,7.33866672 19.647997,7.04533632 20.24,6.448 C20.832003,5.85066368 21.128,5.018672 21.128,3.952 C21.128,2.885328 20.832003,2.05600296 20.24,1.464 C19.647997,0.87199704 18.7760058,0.576 17.624,0.576 L12.616,0.576 Z M23.048,0.576 L23.048,12 L24.568,12 L24.568,0.576 L23.048,0.576 Z M33.096,5.488 L33.096,1.856 L36.136,1.856 C36.4666683,1.856 36.7786652,1.87466648 37.072,1.912 C37.3653348,1.94933352 37.6239989,2.03199936 37.848,2.16 C38.0720011,2.28800064 38.2479994,2.46933216 38.376,2.704 C38.5040006,2.93866784 38.568,3.25866464 38.568,3.664 C38.568,4.27200304 38.3786686,4.72799848 38,5.032 C37.6213314,5.33600152 37.0000043,5.488 36.136,5.488 L33.096,5.488 Z M31.576,0.576 L31.576,12 L37.096,12 C37.6613362,12 38.1599978,11.9066676 38.592,11.72 C39.0240022,11.5333324 39.3866652,11.2880015 39.68,10.984 C39.9733348,10.6799985 40.1946659,10.3306686 40.344,9.936 C40.4933341,9.54133136 40.568,9.13600208 40.568,8.72 C40.568,8.01599648 40.3813352,7.41866912 40.008,6.928 C39.6346648,6.43733088 39.0960035,6.11733408 38.392,5.968 L38.392,5.936 C38.9360027,5.7226656 39.3546652,5.39466888 39.648,4.952 C39.9413348,4.50933112 40.088,3.98400304 40.088,3.376 C40.088,2.79999712 39.9573346,2.31466864 39.696,1.92 C39.4346654,1.52533136 39.1173352,1.21600112 38.744,0.992 C38.5733325,0.8853328 38.3680012,0.8053336 38.128,0.752 C37.8879988,0.6986664 37.6293347,0.6586668 37.352,0.632 C37.0746653,0.6053332 36.7946681,0.58933336 36.512,0.584 C36.2293319,0.57866664 35.9653346,0.576 35.72,0.576 L31.576,0.576 Z M33.096,10.72 L33.096,6.768 L36.568,6.768 C36.8880016,6.768 37.1973318,6.79733304 37.496,6.856 C37.7946682,6.91466696 38.0586655,7.01599928 38.288,7.16 C38.5173345,7.30400072 38.7013326,7.49866544 38.84,7.744 C38.9786674,7.98933456 39.048,8.2986648 39.048,8.672 C39.048,9.3120032 38.8586686,9.81333152 38.48,10.176 C38.1013314,10.5386685 37.5760034,10.72 36.904,10.72 L33.096,10.72 Z M42.264,3.728 L42.264,12 L43.624,12 L43.624,8.32 C43.624,7.786664 43.6773328,7.31466872 43.784,6.904 C43.8906672,6.49333128 44.0613322,6.14400144 44.296,5.856 C44.5306678,5.56799856 44.8399981,5.34933408 45.224,5.2 C45.6080019,5.05066592 46.0719973,4.976 46.616,4.976 L46.616,3.536 C45.8799963,3.51466656 45.2720024,3.6639984 44.792,3.984 C44.3119976,4.3040016 43.9066683,4.79999664 43.576,5.472 L43.544,5.472 L43.544,3.728 L42.264,3.728 Z M48.344,7.872 C48.344,7.37066416 48.410666,6.92533528 48.544,6.536 C48.677334,6.14666472 48.8613322,5.818668 49.096,5.552 C49.3306678,5.285332 49.6053318,5.08266736 49.92,4.944 C50.2346682,4.80533264 50.5679982,4.736 50.92,4.736 C51.2720018,4.736 51.6053318,4.80533264 51.92,4.944 C52.2346682,5.08266736 52.5093322,5.285332 52.744,5.552 C52.9786678,5.818668 53.162666,6.14666472 53.296,6.536 C53.429334,6.92533528 53.496,7.37066416 53.496,7.872 C53.496,8.37333584 53.429334,8.81866472 53.296,9.208 C53.162666,9.59733528 52.9786678,9.92266536 52.744,10.184 C52.5093322,10.4453346 52.2346682,10.6453326 51.92,10.784 C51.6053318,10.9226674 51.2720018,10.992 50.92,10.992 C50.5679982,10.992 50.2346682,10.9226674 49.92,10.784 C49.6053318,10.6453326 49.3306678,10.4453346 49.096,10.184 C48.8613322,9.92266536 48.677334,9.59733528 48.544,9.208 C48.410666,8.81866472 48.344,8.37333584 48.344,7.872 L48.344,7.872 Z M46.904,7.872 C46.904,8.48000304 46.9893325,9.04533072 47.16,9.568 C47.3306675,10.0906693 47.586665,10.5466647 47.928,10.936 C48.269335,11.3253353 48.6906642,11.6293322 49.192,11.848 C49.6933358,12.0666678 50.2693301,12.176 50.92,12.176 C51.5813366,12.176 52.1599975,12.0666678 52.656,11.848 C53.1520025,11.6293322 53.570665,11.3253353 53.912,10.936 C54.253335,10.5466647 54.5093325,10.0906693 54.68,9.568 C54.8506675,9.04533072 54.936,8.48000304 54.936,7.872 C54.936,7.26399696 54.8506675,6.69600264 54.68,6.168 C54.5093325,5.63999736 54.253335,5.18133528 53.912,4.792 C53.570665,4.40266472 53.1520025,4.09600112 52.656,3.872 C52.1599975,3.64799888 51.5813366,3.536 50.92,3.536 C50.2693301,3.536 49.6933358,3.64799888 49.192,3.872 C48.6906642,4.09600112 48.269335,4.40266472 47.928,4.792 C47.586665,5.18133528 47.3306675,5.63999736 47.16,6.168 C46.9893325,6.69600264 46.904,7.26399696 46.904,7.872 L46.904,7.872 Z M64.728,12 L67.368,3.728 L65.96,3.728 L64.104,10.496 L64.072,10.496 L62.344,3.728 L60.856,3.728 L59.192,10.496 L59.16,10.496 L57.288,3.728 L55.784,3.728 L58.44,12 L59.912,12 L61.576,5.424 L61.608,5.424 L63.288,12 L64.728,12 Z M69.496,9.392 L68.136,9.392 C68.1573334,9.90400256 68.263999,10.3386649 68.456,10.696 C68.648001,11.0533351 68.9039984,11.3413322 69.224,11.56 C69.5440016,11.7786678 69.9119979,11.9359995 70.328,12.032 C70.7440021,12.1280005 71.181331,12.176 71.64,12.176 C72.0560021,12.176 72.4746646,12.1360004 72.896,12.056 C73.3173354,11.9759996 73.6959983,11.8346677 74.032,11.632 C74.3680017,11.4293323 74.639999,11.1626683 74.848,10.832 C75.056001,10.5013317 75.16,10.0853358 75.16,9.584 C75.16,9.18933136 75.0826674,8.858668 74.928,8.592 C74.7733326,8.325332 74.5706679,8.10400088 74.32,7.928 C74.0693321,7.75199912 73.781335,7.6106672 73.456,7.504 C73.130665,7.3973328 72.797335,7.30666704 72.456,7.232 C72.1359984,7.15733296 71.8160016,7.08533368 71.496,7.016 C71.1759984,6.94666632 70.8880013,6.86133384 70.632,6.76 C70.3759987,6.65866616 70.1653342,6.53066744 70,6.376 C69.8346658,6.22133256 69.752,6.02666784 69.752,5.792 C69.752,5.5786656 69.8053328,5.405334 69.912,5.272 C70.0186672,5.138666 70.1573325,5.0320004 70.328,4.952 C70.4986675,4.8719996 70.687999,4.81600016 70.896,4.784 C71.104001,4.75199984 71.3093323,4.736 71.512,4.736 C71.7360011,4.736 71.9573322,4.75999976 72.176,4.808 C72.3946678,4.85600024 72.5946658,4.9333328 72.776,5.04 C72.9573342,5.1466672 73.1066661,5.28799912 73.224,5.464 C73.3413339,5.64000088 73.4106666,5.861332 73.432,6.128 L74.792,6.128 C74.7599998,5.62666416 74.6533342,5.20800168 74.472,4.872 C74.2906658,4.53599832 74.0480015,4.26933432 73.744,4.072 C73.4399985,3.87466568 73.0906686,3.7360004 72.696,3.656 C72.3013314,3.5759996 71.8693357,3.536 71.4,3.536 C71.0373315,3.536 70.6720018,3.58133288 70.304,3.672 C69.9359982,3.76266712 69.6053348,3.9013324 69.312,4.088 C69.0186652,4.2746676 68.7786676,4.51733184 68.592,4.816 C68.4053324,5.11466816 68.312,5.47199792 68.312,5.888 C68.312,6.421336 68.445332,6.83733184 68.712,7.136 C68.978668,7.43466816 69.311998,7.66666584 69.712,7.832 C70.112002,7.99733416 70.5466643,8.12533288 71.016,8.216 C71.4853357,8.30666712 71.919998,8.40799944 72.32,8.52 C72.720002,8.63200056 73.053332,8.77866576 73.32,8.96 C73.586668,9.14133424 73.72,9.40799824 73.72,9.76 C73.72,10.0160013 73.6560006,10.2266658 73.528,10.392 C73.3999994,10.5573342 73.2373343,10.6826662 73.04,10.768 C72.8426657,10.8533338 72.6266678,10.9119998 72.392,10.944 C72.1573322,10.9760002 71.9333344,10.992 71.72,10.992 C71.4426653,10.992 71.1733346,10.9653336 70.912,10.912 C70.6506654,10.8586664 70.416001,10.7706673 70.208,10.648 C69.999999,10.5253327 69.8320006,10.360001 69.704,10.152 C69.5759994,9.94399896 69.5066667,9.69066816 69.496,9.392 L69.496,9.392 Z M82.408,7.072 L77.656,7.072 C77.6773334,6.7519984 77.7466661,6.45066808 77.864,6.168 C77.9813339,5.88533192 78.1413323,5.6373344 78.344,5.424 C78.5466677,5.2106656 78.7893319,5.04266728 79.072,4.92 C79.3546681,4.79733272 79.6719982,4.736 80.024,4.736 C80.365335,4.736 80.6773319,4.79733272 80.96,4.92 C81.2426681,5.04266728 81.487999,5.20799896 81.696,5.416 C81.904001,5.62400104 82.0693327,5.87199856 82.192,6.16 C82.3146673,6.44800144 82.3866666,6.7519984 82.408,7.072 L82.408,7.072 Z M83.72,9.376 L82.376,9.376 C82.2586661,9.92000272 82.0160018,10.325332 81.648,10.592 C81.2799982,10.858668 80.8080029,10.992 80.232,10.992 C79.7839978,10.992 79.3946683,10.9173341 79.064,10.768 C78.7333317,10.6186659 78.4613344,10.4186679 78.248,10.168 C78.0346656,9.91733208 77.8800005,9.62933496 77.784,9.304 C77.6879995,8.97866504 77.6453333,8.63466848 77.656,8.272 L83.848,8.272 C83.8693334,7.77066416 83.8240006,7.24266944 83.712,6.688 C83.5999994,6.13333056 83.3973348,5.62133568 83.104,5.152 C82.8106652,4.68266432 82.4213358,4.29600152 81.936,3.992 C81.4506642,3.68799848 80.8400037,3.536 80.104,3.536 C79.5386638,3.536 79.018669,3.6426656 78.544,3.856 C78.069331,4.0693344 77.6586684,4.36799808 77.312,4.752 C76.9653316,5.13600192 76.696001,5.58933072 76.504,6.112 C76.311999,6.63466928 76.216,7.21066352 76.216,7.84 C76.2373334,8.46933648 76.3306658,9.050664 76.496,9.584 C76.6613342,10.117336 76.9093317,10.5759981 77.24,10.96 C77.5706683,11.3440019 77.9786642,11.6426656 78.464,11.856 C78.9493358,12.0693344 79.5226634,12.176 80.184,12.176 C81.1226714,12.176 81.9013302,11.9413357 82.52,11.472 C83.1386698,11.0026643 83.5386658,10.3040046 83.72,9.376 L83.72,9.376 Z M85.208,3.728 L85.208,12 L86.568,12 L86.568,8.32 C86.568,7.786664 86.6213328,7.31466872 86.728,6.904 C86.8346672,6.49333128 87.0053322,6.14400144 87.24,5.856 C87.4746678,5.56799856 87.7839981,5.34933408 88.168,5.2 C88.5520019,5.05066592 89.0159973,4.976 89.56,4.976 L89.56,3.536 C88.8239963,3.51466656 88.2160024,3.6639984 87.736,3.984 C87.2559976,4.3040016 86.8506683,4.79999664 86.52,5.472 L86.488,5.472 L86.488,3.728 L85.208,3.728 Z" id="Shape" fill-opacity="0.25" fill="#000000"></path>
            <path d="M4.216,8.28 L6.152,2.952 L6.184,2.952 L8.088,8.28 L4.216,8.28 Z M5.352,1.576 L0.904,13 L2.456,13 L3.736,9.56 L8.568,9.56 L9.816,13 L11.496,13 L7.032,1.576 L5.352,1.576 Z M14.136,7.048 L14.136,2.856 L17.112,2.856 C17.9760043,2.856 18.607998,3.03466488 19.008,3.392 C19.408002,3.74933512 19.608,4.26932992 19.608,4.952 C19.608,5.63467008 19.408002,6.15733152 19.008,6.52 C18.607998,6.88266848 17.9760043,7.05866672 17.112,7.048 L14.136,7.048 Z M12.616,1.576 L12.616,13 L14.136,13 L14.136,8.328 L17.624,8.328 C18.7760058,8.33866672 19.647997,8.04533632 20.24,7.448 C20.832003,6.85066368 21.128,6.018672 21.128,4.952 C21.128,3.885328 20.832003,3.05600296 20.24,2.464 C19.647997,1.87199704 18.7760058,1.576 17.624,1.576 L12.616,1.576 Z M23.048,1.576 L23.048,13 L24.568,13 L24.568,1.576 L23.048,1.576 Z M33.096,6.488 L33.096,2.856 L36.136,2.856 C36.4666683,2.856 36.7786652,2.87466648 37.072,2.912 C37.3653348,2.94933352 37.6239989,3.03199936 37.848,3.16 C38.0720011,3.28800064 38.2479994,3.46933216 38.376,3.704 C38.5040006,3.93866784 38.568,4.25866464 38.568,4.664 C38.568,5.27200304 38.3786686,5.72799848 38,6.032 C37.6213314,6.33600152 37.0000043,6.488 36.136,6.488 L33.096,6.488 Z M31.576,1.576 L31.576,13 L37.096,13 C37.6613362,13 38.1599978,12.9066676 38.592,12.72 C39.0240022,12.5333324 39.3866652,12.2880015 39.68,11.984 C39.9733348,11.6799985 40.1946659,11.3306686 40.344,10.936 C40.4933341,10.5413314 40.568,10.1360021 40.568,9.72 C40.568,9.01599648 40.3813352,8.41866912 40.008,7.928 C39.6346648,7.43733088 39.0960035,7.11733408 38.392,6.968 L38.392,6.936 C38.9360027,6.7226656 39.3546652,6.39466888 39.648,5.952 C39.9413348,5.50933112 40.088,4.98400304 40.088,4.376 C40.088,3.79999712 39.9573346,3.31466864 39.696,2.92 C39.4346654,2.52533136 39.1173352,2.21600112 38.744,1.992 C38.5733325,1.8853328 38.3680012,1.8053336 38.128,1.752 C37.8879988,1.6986664 37.6293347,1.6586668 37.352,1.632 C37.0746653,1.6053332 36.7946681,1.58933336 36.512,1.584 C36.2293319,1.57866664 35.9653346,1.576 35.72,1.576 L31.576,1.576 Z M33.096,11.72 L33.096,7.768 L36.568,7.768 C36.8880016,7.768 37.1973318,7.79733304 37.496,7.856 C37.7946682,7.91466696 38.0586655,8.01599928 38.288,8.16 C38.5173345,8.30400072 38.7013326,8.49866544 38.84,8.744 C38.9786674,8.98933456 39.048,9.2986648 39.048,9.672 C39.048,10.3120032 38.8586686,10.8133315 38.48,11.176 C38.1013314,11.5386685 37.5760034,11.72 36.904,11.72 L33.096,11.72 Z M42.264,4.728 L42.264,13 L43.624,13 L43.624,9.32 C43.624,8.786664 43.6773328,8.31466872 43.784,7.904 C43.8906672,7.49333128 44.0613322,7.14400144 44.296,6.856 C44.5306678,6.56799856 44.8399981,6.34933408 45.224,6.2 C45.6080019,6.05066592 46.0719973,5.976 46.616,5.976 L46.616,4.536 C45.8799963,4.51466656 45.2720024,4.6639984 44.792,4.984 C44.3119976,5.3040016 43.9066683,5.79999664 43.576,6.472 L43.544,6.472 L43.544,4.728 L42.264,4.728 Z M48.344,8.872 C48.344,8.37066416 48.410666,7.92533528 48.544,7.536 C48.677334,7.14666472 48.8613322,6.818668 49.096,6.552 C49.3306678,6.285332 49.6053318,6.08266736 49.92,5.944 C50.2346682,5.80533264 50.5679982,5.736 50.92,5.736 C51.2720018,5.736 51.6053318,5.80533264 51.92,5.944 C52.2346682,6.08266736 52.5093322,6.285332 52.744,6.552 C52.9786678,6.818668 53.162666,7.14666472 53.296,7.536 C53.429334,7.92533528 53.496,8.37066416 53.496,8.872 C53.496,9.37333584 53.429334,9.81866472 53.296,10.208 C53.162666,10.5973353 52.9786678,10.9226654 52.744,11.184 C52.5093322,11.4453346 52.2346682,11.6453326 51.92,11.784 C51.6053318,11.9226674 51.2720018,11.992 50.92,11.992 C50.5679982,11.992 50.2346682,11.9226674 49.92,11.784 C49.6053318,11.6453326 49.3306678,11.4453346 49.096,11.184 C48.8613322,10.9226654 48.677334,10.5973353 48.544,10.208 C48.410666,9.81866472 48.344,9.37333584 48.344,8.872 L48.344,8.872 Z M46.904,8.872 C46.904,9.48000304 46.9893325,10.0453307 47.16,10.568 C47.3306675,11.0906693 47.586665,11.5466647 47.928,11.936 C48.269335,12.3253353 48.6906642,12.6293322 49.192,12.848 C49.6933358,13.0666678 50.2693301,13.176 50.92,13.176 C51.5813366,13.176 52.1599975,13.0666678 52.656,12.848 C53.1520025,12.6293322 53.570665,12.3253353 53.912,11.936 C54.253335,11.5466647 54.5093325,11.0906693 54.68,10.568 C54.8506675,10.0453307 54.936,9.48000304 54.936,8.872 C54.936,8.26399696 54.8506675,7.69600264 54.68,7.168 C54.5093325,6.63999736 54.253335,6.18133528 53.912,5.792 C53.570665,5.40266472 53.1520025,5.09600112 52.656,4.872 C52.1599975,4.64799888 51.5813366,4.536 50.92,4.536 C50.2693301,4.536 49.6933358,4.64799888 49.192,4.872 C48.6906642,5.09600112 48.269335,5.40266472 47.928,5.792 C47.586665,6.18133528 47.3306675,6.63999736 47.16,7.168 C46.9893325,7.69600264 46.904,8.26399696 46.904,8.872 L46.904,8.872 Z M64.728,13 L67.368,4.728 L65.96,4.728 L64.104,11.496 L64.072,11.496 L62.344,4.728 L60.856,4.728 L59.192,11.496 L59.16,11.496 L57.288,4.728 L55.784,4.728 L58.44,13 L59.912,13 L61.576,6.424 L61.608,6.424 L63.288,13 L64.728,13 Z M69.496,10.392 L68.136,10.392 C68.1573334,10.9040026 68.263999,11.3386649 68.456,11.696 C68.648001,12.0533351 68.9039984,12.3413322 69.224,12.56 C69.5440016,12.7786678 69.9119979,12.9359995 70.328,13.032 C70.7440021,13.1280005 71.181331,13.176 71.64,13.176 C72.0560021,13.176 72.4746646,13.1360004 72.896,13.056 C73.3173354,12.9759996 73.6959983,12.8346677 74.032,12.632 C74.3680017,12.4293323 74.639999,12.1626683 74.848,11.832 C75.056001,11.5013317 75.16,11.0853358 75.16,10.584 C75.16,10.1893314 75.0826674,9.858668 74.928,9.592 C74.7733326,9.325332 74.5706679,9.10400088 74.32,8.928 C74.0693321,8.75199912 73.781335,8.6106672 73.456,8.504 C73.130665,8.3973328 72.797335,8.30666704 72.456,8.232 C72.1359984,8.15733296 71.8160016,8.08533368 71.496,8.016 C71.1759984,7.94666632 70.8880013,7.86133384 70.632,7.76 C70.3759987,7.65866616 70.1653342,7.53066744 70,7.376 C69.8346658,7.22133256 69.752,7.02666784 69.752,6.792 C69.752,6.5786656 69.8053328,6.405334 69.912,6.272 C70.0186672,6.138666 70.1573325,6.0320004 70.328,5.952 C70.4986675,5.8719996 70.687999,5.81600016 70.896,5.784 C71.104001,5.75199984 71.3093323,5.736 71.512,5.736 C71.7360011,5.736 71.9573322,5.75999976 72.176,5.808 C72.3946678,5.85600024 72.5946658,5.9333328 72.776,6.04 C72.9573342,6.1466672 73.1066661,6.28799912 73.224,6.464 C73.3413339,6.64000088 73.4106666,6.861332 73.432,7.128 L74.792,7.128 C74.7599998,6.62666416 74.6533342,6.20800168 74.472,5.872 C74.2906658,5.53599832 74.0480015,5.26933432 73.744,5.072 C73.4399985,4.87466568 73.0906686,4.7360004 72.696,4.656 C72.3013314,4.5759996 71.8693357,4.536 71.4,4.536 C71.0373315,4.536 70.6720018,4.58133288 70.304,4.672 C69.9359982,4.76266712 69.6053348,4.9013324 69.312,5.088 C69.0186652,5.2746676 68.7786676,5.51733184 68.592,5.816 C68.4053324,6.11466816 68.312,6.47199792 68.312,6.888 C68.312,7.421336 68.445332,7.83733184 68.712,8.136 C68.978668,8.43466816 69.311998,8.66666584 69.712,8.832 C70.112002,8.99733416 70.5466643,9.12533288 71.016,9.216 C71.4853357,9.30666712 71.919998,9.40799944 72.32,9.52 C72.720002,9.63200056 73.053332,9.77866576 73.32,9.96 C73.586668,10.1413342 73.72,10.4079982 73.72,10.76 C73.72,11.0160013 73.6560006,11.2266658 73.528,11.392 C73.3999994,11.5573342 73.2373343,11.6826662 73.04,11.768 C72.8426657,11.8533338 72.6266678,11.9119998 72.392,11.944 C72.1573322,11.9760002 71.9333344,11.992 71.72,11.992 C71.4426653,11.992 71.1733346,11.9653336 70.912,11.912 C70.6506654,11.8586664 70.416001,11.7706673 70.208,11.648 C69.999999,11.5253327 69.8320006,11.360001 69.704,11.152 C69.5759994,10.943999 69.5066667,10.6906682 69.496,10.392 L69.496,10.392 Z M82.408,8.072 L77.656,8.072 C77.6773334,7.7519984 77.7466661,7.45066808 77.864,7.168 C77.9813339,6.88533192 78.1413323,6.6373344 78.344,6.424 C78.5466677,6.2106656 78.7893319,6.04266728 79.072,5.92 C79.3546681,5.79733272 79.6719982,5.736 80.024,5.736 C80.365335,5.736 80.6773319,5.79733272 80.96,5.92 C81.2426681,6.04266728 81.487999,6.20799896 81.696,6.416 C81.904001,6.62400104 82.0693327,6.87199856 82.192,7.16 C82.3146673,7.44800144 82.3866666,7.7519984 82.408,8.072 L82.408,8.072 Z M83.72,10.376 L82.376,10.376 C82.2586661,10.9200027 82.0160018,11.325332 81.648,11.592 C81.2799982,11.858668 80.8080029,11.992 80.232,11.992 C79.7839978,11.992 79.3946683,11.9173341 79.064,11.768 C78.7333317,11.6186659 78.4613344,11.4186679 78.248,11.168 C78.0346656,10.9173321 77.8800005,10.629335 77.784,10.304 C77.6879995,9.97866504 77.6453333,9.63466848 77.656,9.272 L83.848,9.272 C83.8693334,8.77066416 83.8240006,8.24266944 83.712,7.688 C83.5999994,7.13333056 83.3973348,6.62133568 83.104,6.152 C82.8106652,5.68266432 82.4213358,5.29600152 81.936,4.992 C81.4506642,4.68799848 80.8400037,4.536 80.104,4.536 C79.5386638,4.536 79.018669,4.6426656 78.544,4.856 C78.069331,5.0693344 77.6586684,5.36799808 77.312,5.752 C76.9653316,6.13600192 76.696001,6.58933072 76.504,7.112 C76.311999,7.63466928 76.216,8.21066352 76.216,8.84 C76.2373334,9.46933648 76.3306658,10.050664 76.496,10.584 C76.6613342,11.117336 76.9093317,11.5759981 77.24,11.96 C77.5706683,12.3440019 77.9786642,12.6426656 78.464,12.856 C78.9493358,13.0693344 79.5226634,13.176 80.184,13.176 C81.1226714,13.176 81.9013302,12.9413357 82.52,12.472 C83.1386698,12.0026643 83.5386658,11.3040046 83.72,10.376 L83.72,10.376 Z M85.208,4.728 L85.208,13 L86.568,13 L86.568,9.32 C86.568,8.786664 86.6213328,8.31466872 86.728,7.904 C86.8346672,7.49333128 87.0053322,7.14400144 87.24,6.856 C87.4746678,6.56799856 87.7839981,6.34933408 88.168,6.2 C88.5520019,6.05066592 89.0159973,5.976 89.56,5.976 L89.56,4.536 C88.8239963,4.51466656 88.2160024,4.6639984 87.736,4.984 C87.2559976,5.3040016 86.8506683,5.79999664 86.52,6.472 L86.488,6.472 L86.488,4.728 L85.208,4.728 Z" id="Shape" fill="#FFFFFF"></path>
        </g>
    </g>
</svg>
