
<svg width="223px" height="17px" viewBox="40 230 223 17" version="1.1" xmlns="http://www.w3.org/2000/svg" xmlns:xlink="http://www.w3.org/1999/xlink">
    <!-- Generator: Sketch 42 (36781) - http://www.bohemiancoding.com/sketch -->
    <desc>Created with Sketch.</desc>
    <defs></defs>
    <g id="CA-logo" stroke="none" stroke-width="1" fill="none" fill-rule="evenodd" transform="translate(40.000000, 230.000000)">
        <g id="Group">
            <path d="M70.3,7.10542736e-15 L64.1,7.10542736e-15 C63.5,7.10542736e-15 63,0.2 62.6,0.6 C62.2,1 62,1.5 62,2.1 L62,10.9 C62,11.5 62.2,12 62.6,12.4 C63,12.8 63.5,13 64.1,13 L70.3,13 C70.9,13 71.4,12.8 71.8,12.4 C72.2,12 72.4,11.5 72.4,10.9 L72.4,10.3 L64.7,10.3 L64.7,2.7 L72.4,2.7 L72.4,2.1 C72.4,1.5 72.2,1 71.8,0.6 C71.4,0.2 70.9,7.10542736e-15 70.3,7.10542736e-15 L70.3,7.10542736e-15 Z M82,7.10542736e-15 L75.8,7.10542736e-15 C75.2,7.10542736e-15 74.7,0.2 74.3,0.6 C73.9,1 73.7,1.5 73.7,2.1 L73.7,2.7 L81.5,2.7 L81.5,5.2 L75.9,5.2 C75.3,5.2 74.8,5.4 74.4,5.8 C74,6.2 73.8,6.7 73.8,7.3 L73.8,10.9 C73.8,11.5 74,12 74.4,12.4 C74.8,12.8 75.3,13 75.9,13 L82,13 C82.6,13 83.1,12.8 83.5,12.4 C83.9,12 84.1,11.5 84.1,10.9 L84.1,2.1 C84.1,1.5 83.9,1 83.5,0.6 C83.1,0.2 82.6,7.10542736e-15 82,7.10542736e-15 L82,7.10542736e-15 Z M81.4,10.3 L76.4,10.3 L76.4,7.8 L81.4,7.8 L81.4,10.3 L81.4,10.3 Z M90.6,10.3 L88,10.3 L88,2.1 C88,1.5 87.8,1 87.4,0.6 C87,0.2 86.5,7.10542736e-15 85.9,7.10542736e-15 L85.3,7.10542736e-15 L85.3,10.9 C85.3,11.5 85.5,12 85.9,12.4 C86.3,12.8 86.8,13 87.4,13 L91,13 C91.6,13 92.1,12.8 92.5,12.4 C92.9,12 93.1,11.5 93.1,10.9 L93.1,10.3 L90.6,10.3 L90.6,10.3 Z M102.8,7.8 C103.4,7.8 103.9,7.6 104.3,7.2 C104.7,6.8 104.9,6.3 104.9,5.7 L104.9,2.1 C104.9,1.5 104.7,1 104.3,0.6 C103.9,0.2 103.4,7.10542736e-15 102.8,7.10542736e-15 L96.6,7.10542736e-15 C96,7.10542736e-15 95.5,0.2 95.1,0.6 C94.7,1 94.5,1.5 94.5,2.1 L94.5,10.9 C94.5,11.5 94.7,12 95.1,12.4 C95.5,12.8 96,13 96.6,13 L102.8,13 C103.4,13 103.9,12.8 104.3,12.4 C104.7,12 104.9,11.5 104.9,10.9 L104.9,10.3 L97.1,10.3 L97.1,7.8 L102.8,7.8 L102.8,7.8 Z M97.1,2.7 L102.1,2.7 L102.1,5.2 L97.1,5.2 L97.1,2.7 L97.1,2.7 Z M58.7,7.10542736e-15 L52.5,7.10542736e-15 C51.9,7.10542736e-15 51.4,0.2 51,0.6 C50.6,1 50.4,1.5 50.4,2.1 L50.4,5.7 C50.4,6.3 50.6,6.8 51,7.2 C51.4,7.6 51.9,7.8 52.5,7.8 L58.1,7.8 L58.1,10.3 L50.4,10.3 L50.4,10.9 C50.4,11.5 50.6,12 51,12.4 C51.4,12.8 51.9,13 52.5,13 L58.7,13 C59.3,13 59.8,12.8 60.2,12.4 C60.6,12 60.8,11.5 60.8,10.9 L60.8,7.3 C60.8,6.7 60.6,6.2 60.2,5.8 C59.8,5.4 59.3,5.2 58.7,5.2 L53.1,5.2 L53.1,2.7 L60.9,2.7 L60.9,2.1 C60.9,1.5 60.7,1 60.3,0.6 C59.8,0.2 59.2,7.10542736e-15 58.7,7.10542736e-15 L58.7,7.10542736e-15 Z M8.3,1.42108547e-14 L0,1.42108547e-14 L0,13 L2.7,13 L2.7,10.4 L7.7,10.4 L7.7,10.9 C7.7,11.5 7.9,12 8.3,12.4 C8.8,12.8 9.3,13 9.8,13 L10.4,13 L10.4,9.9 C10.4,9.3 10.2,8.8 9.8,8.4 C9.5,8.1 9.2,7.9 8.8,7.8 C9.2,7.7 9.5,7.5 9.8,7.2 C10.2,6.8 10.4,6.3 10.4,5.7 L10.4,2.1 C10.4,1.5 10.2,1 9.8,0.6 C9.4,0.2 8.9,7.10542736e-15 8.3,7.10542736e-15 L8.3,1.42108547e-14 Z M7.7,7.7 L2.7,7.7 L2.7,2.7 L7.7,2.7 L7.7,7.7 L7.7,7.7 Z M12.2,3.1 L11.6,3.1 L11.6,13 L14.3,13 L14.3,5.3 C14.3,4.7 14.1,4.2 13.7,3.8 C13.3,3.3 12.8,3.1 12.2,3.1 L12.2,3.1 Z M16.2,0.6 C15.8,1 15.6,1.5 15.6,2.1 L15.6,10.9 C15.6,11.5 15.8,12 16.2,12.4 C16.6,12.8 17.1,13 17.7,13 L23.9,13 C24.5,13 25,12.8 25.4,12.4 C25.8,12 26,11.5 26,10.9 L26,5.2 L23.3,5.2 L23.3,10.4 L18.3,10.4 L18.3,2.7 L26,2.7 L26,7.10542736e-15 L17.7,7.10542736e-15 C17.1,7.10542736e-15 16.6,0.2 16.2,0.6 L16.2,0.6 Z M35,5.2 L30,5.2 L30,7.10542736e-15 L27.3,7.10542736e-15 L27.3,13 L30,13 L30,7.8 L35,7.8 L35,13 L37.7,13 L37.7,7.10542736e-15 L35,7.10542736e-15 L35,5.2 L35,5.2 Z M38.9,1.0658141e-14 L38.9,2.7 L41.5,2.7 L41.5,13 L42.1,13 C42.7,13 43.2,12.8 43.6,12.4 C44,12 44.2,11.5 44.2,10.9 L44.2,2.7 L46.8,2.7 L46.8,7.10542736e-15 L38.9,7.10542736e-15 L38.9,1.0658141e-14 Z" id="Shape" fill="#000000" opacity="0.25"></path>
            <path d="M70.3,1 L64.1,1 C63.5,1 63,1.2 62.6,1.6 C62.2,2 62,2.5 62,3.1 L62,11.9 C62,12.5 62.2,13 62.6,13.4 C63,13.8 63.5,14 64.1,14 L70.3,14 C70.9,14 71.4,13.8 71.8,13.4 C72.2,13 72.4,12.5 72.4,11.9 L72.4,11.3 L64.7,11.3 L64.7,3.7 L72.4,3.7 L72.4,3.1 C72.4,2.5 72.2,2 71.8,1.6 C71.4,1.2 70.9,1 70.3,1 L70.3,1 Z M82,1 L75.8,1 C75.2,1 74.7,1.2 74.3,1.6 C73.9,2 73.7,2.5 73.7,3.1 L73.7,3.7 L81.5,3.7 L81.5,6.2 L75.9,6.2 C75.3,6.2 74.8,6.4 74.4,6.8 C74,7.2 73.8,7.7 73.8,8.3 L73.8,11.9 C73.8,12.5 74,13 74.4,13.4 C74.8,13.8 75.3,14 75.9,14 L82,14 C82.6,14 83.1,13.8 83.5,13.4 C83.9,13 84.1,12.5 84.1,11.9 L84.1,3.1 C84.1,2.5 83.9,2 83.5,1.6 C83.1,1.2 82.6,1 82,1 L82,1 Z M81.4,11.3 L76.4,11.3 L76.4,8.8 L81.4,8.8 L81.4,11.3 L81.4,11.3 Z M90.6,11.3 L88,11.3 L88,3.1 C88,2.5 87.8,2 87.4,1.6 C87,1.2 86.5,1 85.9,1 L85.3,1 L85.3,11.9 C85.3,12.5 85.5,13 85.9,13.4 C86.3,13.8 86.8,14 87.4,14 L91,14 C91.6,14 92.1,13.8 92.5,13.4 C92.9,13 93.1,12.5 93.1,11.9 L93.1,11.3 L90.6,11.3 L90.6,11.3 Z M102.8,8.8 C103.4,8.8 103.9,8.6 104.3,8.2 C104.7,7.8 104.9,7.3 104.9,6.7 L104.9,3.1 C104.9,2.5 104.7,2 104.3,1.6 C103.9,1.2 103.4,1 102.8,1 L96.6,1 C96,1 95.5,1.2 95.1,1.6 C94.7,2 94.5,2.5 94.5,3.1 L94.5,11.9 C94.5,12.5 94.7,13 95.1,13.4 C95.5,13.8 96,14 96.6,14 L102.8,14 C103.4,14 103.9,13.8 104.3,13.4 C104.7,13 104.9,12.5 104.9,11.9 L104.9,11.3 L97.1,11.3 L97.1,8.8 L102.8,8.8 L102.8,8.8 Z M97.1,3.7 L102.1,3.7 L102.1,6.2 L97.1,6.2 L97.1,3.7 L97.1,3.7 Z M58.7,1 L52.5,1 C51.9,1 51.4,1.2 51,1.6 C50.6,2 50.4,2.5 50.4,3.1 L50.4,6.7 C50.4,7.3 50.6,7.8 51,8.2 C51.4,8.6 51.9,8.8 52.5,8.8 L58.1,8.8 L58.1,11.3 L50.4,11.3 L50.4,11.9 C50.4,12.5 50.6,13 51,13.4 C51.4,13.8 51.9,14 52.5,14 L58.7,14 C59.3,14 59.8,13.8 60.2,13.4 C60.6,13 60.8,12.5 60.8,11.9 L60.8,8.3 C60.8,7.7 60.6,7.2 60.2,6.8 C59.8,6.4 59.3,6.2 58.7,6.2 L53.1,6.2 L53.1,3.7 L60.9,3.7 L60.9,3.1 C60.9,2.5 60.7,2 60.3,1.6 C59.8,1.2 59.2,1 58.7,1 L58.7,1 Z M8.3,1 L0,1 L0,14 L2.7,14 L2.7,11.4 L7.7,11.4 L7.7,11.9 C7.7,12.5 7.9,13 8.3,13.4 C8.8,13.8 9.3,14 9.8,14 L10.4,14 L10.4,10.9 C10.4,10.3 10.2,9.8 9.8,9.4 C9.5,9.1 9.2,8.9 8.8,8.8 C9.2,8.7 9.5,8.5 9.8,8.2 C10.2,7.8 10.4,7.3 10.4,6.7 L10.4,3.1 C10.4,2.5 10.2,2 9.8,1.6 C9.4,1.2 8.9,1 8.3,1 L8.3,1 Z M7.7,8.7 L2.7,8.7 L2.7,3.7 L7.7,3.7 L7.7,8.7 L7.7,8.7 Z M12.2,4.1 L11.6,4.1 L11.6,14 L14.3,14 L14.3,6.3 C14.3,5.7 14.1,5.2 13.7,4.8 C13.3,4.3 12.8,4.1 12.2,4.1 L12.2,4.1 Z M16.2,1.6 C15.8,2 15.6,2.5 15.6,3.1 L15.6,11.9 C15.6,12.5 15.8,13 16.2,13.4 C16.6,13.8 17.1,14 17.7,14 L23.9,14 C24.5,14 25,13.8 25.4,13.4 C25.8,13 26,12.5 26,11.9 L26,6.2 L23.3,6.2 L23.3,11.4 L18.3,11.4 L18.3,3.7 L26,3.7 L26,1 L17.7,1 C17.1,1 16.6,1.2 16.2,1.6 L16.2,1.6 Z M35,6.2 L30,6.2 L30,1 L27.3,1 L27.3,14 L30,14 L30,8.8 L35,8.8 L35,14 L37.7,14 L37.7,1 L35,1 L35,6.2 L35,6.2 Z M38.9,1 L38.9,3.7 L41.5,3.7 L41.5,14 L42.1,14 C42.7,14 43.2,13.8 43.6,13.4 C44,13 44.2,12.5 44.2,11.9 L44.2,3.7 L46.8,3.7 L46.8,1 L38.9,1 L38.9,1 Z" id="Shape" fill="#FFFFFF"></path>
            <path d="M11.7,0.6 C11.7,1.2 11.9,1.7 12.3,2.1 C12.7,2.5 13.2,2.7 13.8,2.7 L14.4,2.7 L14.4,0 L11.7,0 L11.7,0.6 L11.7,0.6 Z" id="Shape" fill="#000000" opacity="0.25"></path>
            <path d="M11.7,1.6 C11.7,2.2 11.9,2.7 12.3,3.1 C12.7,3.5 13.2,3.7 13.8,3.7 L14.4,3.7 L14.4,1 L11.7,1 L11.7,1.6 L11.7,1.6 Z" id="Shape" fill="#F3A02D"></path>
        </g>
        <g id="Group" transform="translate(111.000000, 0.000000)">
            <path d="M9.28,4.016 L10.8,4.016 C10.7146662,3.40799696 10.5333347,2.87200232 10.256,2.408 C9.97866528,1.94399768 9.63200208,1.55733488 9.216,1.248 C8.79999792,0.93866512 8.325336,0.7040008 7.792,0.544 C7.258664,0.3839992 6.69333632,0.304 6.096,0.304 C5.22132896,0.304 4.44533672,0.46133176 3.768,0.776 C3.09066328,1.09066824 2.5253356,1.51999728 2.072,2.064 C1.6186644,2.60800272 1.27466784,3.24532968 1.04,3.976 C0.80533216,4.70667032 0.688,5.48799584 0.688,6.32 C0.688,7.15200416 0.79733224,7.93066304 1.016,8.656 C1.23466776,9.38133696 1.56266448,10.010664 2,10.544 C2.43733552,11.077336 2.98666336,11.4959985 3.648,11.8 C4.30933664,12.1040015 5.08266224,12.256 5.968,12.256 C7.42934064,12.256 8.58132912,11.856004 9.424,11.056 C10.2666709,10.255996 10.7626659,9.1360072 10.912,7.696 L9.392,7.696 C9.35999984,8.16533568 9.2640008,8.60266464 9.104,9.008 C8.9439992,9.41333536 8.72266808,9.7626652 8.44,10.056 C8.15733192,10.3493348 7.82133528,10.5786658 7.432,10.744 C7.04266472,10.9093342 6.59733584,10.992 6.096,10.992 C5.41332992,10.992 4.82666912,10.8640013 4.336,10.608 C3.84533088,10.3519987 3.44266824,10.0080022 3.128,9.576 C2.81333176,9.14399784 2.58133408,8.63733624 2.432,8.056 C2.28266592,7.47466376 2.208,6.85866992 2.208,6.208 C2.208,5.61066368 2.28266592,5.03466944 2.432,4.48 C2.58133408,3.92533056 2.81333176,3.43200216 3.128,3 C3.44266824,2.56799784 3.84266424,2.22400128 4.328,1.968 C4.81333576,1.71199872 5.39732992,1.584 6.08,1.584 C6.880004,1.584 7.57066376,1.78666464 8.152,2.192 C8.73333624,2.59733536 9.10933248,3.20532928 9.28,4.016 L9.28,4.016 Z M12.656,0.576 L12.656,12 L14.016,12 L14.016,0.576 L12.656,0.576 Z M17.12,7.872 C17.12,7.37066416 17.186666,6.92533528 17.32,6.536 C17.453334,6.14666472 17.6373322,5.818668 17.872,5.552 C18.1066678,5.285332 18.3813318,5.08266736 18.696,4.944 C19.0106682,4.80533264 19.3439982,4.736 19.696,4.736 C20.0480018,4.736 20.3813318,4.80533264 20.696,4.944 C21.0106682,5.08266736 21.2853322,5.285332 21.52,5.552 C21.7546678,5.818668 21.938666,6.14666472 22.072,6.536 C22.205334,6.92533528 22.272,7.37066416 22.272,7.872 C22.272,8.37333584 22.205334,8.81866472 22.072,9.208 C21.938666,9.59733528 21.7546678,9.92266536 21.52,10.184 C21.2853322,10.4453346 21.0106682,10.6453326 20.696,10.784 C20.3813318,10.9226674 20.0480018,10.992 19.696,10.992 C19.3439982,10.992 19.0106682,10.9226674 18.696,10.784 C18.3813318,10.6453326 18.1066678,10.4453346 17.872,10.184 C17.6373322,9.92266536 17.453334,9.59733528 17.32,9.208 C17.186666,8.81866472 17.12,8.37333584 17.12,7.872 L17.12,7.872 Z M15.68,7.872 C15.68,8.48000304 15.7653325,9.04533072 15.936,9.568 C16.1066675,10.0906693 16.362665,10.5466647 16.704,10.936 C17.045335,11.3253353 17.4666642,11.6293322 17.968,11.848 C18.4693358,12.0666678 19.0453301,12.176 19.696,12.176 C20.3573366,12.176 20.9359975,12.0666678 21.432,11.848 C21.9280025,11.6293322 22.346665,11.3253353 22.688,10.936 C23.029335,10.5466647 23.2853325,10.0906693 23.456,9.568 C23.6266675,9.04533072 23.712,8.48000304 23.712,7.872 C23.712,7.26399696 23.6266675,6.69600264 23.456,6.168 C23.2853325,5.63999736 23.029335,5.18133528 22.688,4.792 C22.346665,4.40266472 21.9280025,4.09600112 21.432,3.872 C20.9359975,3.64799888 20.3573366,3.536 19.696,3.536 C19.0453301,3.536 18.4693358,3.64799888 17.968,3.872 C17.4666642,4.09600112 17.045335,4.40266472 16.704,4.792 C16.362665,5.18133528 16.1066675,5.63999736 15.936,6.168 C15.7653325,6.69600264 15.68,7.26399696 15.68,7.872 L15.68,7.872 Z M32.16,12 L32.16,3.728 L30.8,3.728 L30.8,8.4 C30.8,8.7733352 30.7493338,9.11733176 30.648,9.432 C30.5466662,9.74666824 30.3946677,10.0213322 30.192,10.256 C29.9893323,10.4906678 29.7360015,10.6719994 29.432,10.8 C29.1279985,10.9280006 28.7680021,10.992 28.352,10.992 C27.8293307,10.992 27.4186682,10.8426682 27.12,10.544 C26.8213318,10.2453318 26.672,9.84000256 26.672,9.328 L26.672,3.728 L25.312,3.728 L25.312,9.168 C25.312,9.61600224 25.3573329,10.0239982 25.448,10.392 C25.5386671,10.7600018 25.6959989,11.077332 25.92,11.344 C26.1440011,11.610668 26.4373315,11.8159993 26.8,11.96 C27.1626685,12.1040007 27.6159973,12.176 28.16,12.176 C28.768003,12.176 29.2959978,12.0560012 29.744,11.816 C30.1920022,11.5759988 30.5599986,11.2000026 30.848,10.688 L30.88,10.688 L30.88,12 L32.16,12 Z M35.2,7.936 C35.2,7.53066464 35.2426662,7.13600192 35.328,6.752 C35.4133338,6.36799808 35.551999,6.02666816 35.744,5.728 C35.936001,5.42933184 36.1919984,5.18933424 36.512,5.008 C36.8320016,4.82666576 37.221331,4.736 37.68,4.736 C38.1493357,4.736 38.5493317,4.82399912 38.88,5 C39.2106683,5.17600088 39.479999,5.40799856 39.688,5.696 C39.896001,5.98400144 40.0479995,6.31733144 40.144,6.696 C40.2400005,7.07466856 40.288,7.46666464 40.288,7.872 C40.288,8.25600192 40.2426671,8.6346648 40.152,9.008 C40.0613329,9.3813352 39.9146677,9.7146652 39.712,10.008 C39.5093323,10.3013348 39.2480016,10.5386658 38.928,10.72 C38.6079984,10.9013342 38.218669,10.992 37.76,10.992 C37.3226645,10.992 36.941335,10.9066675 36.616,10.736 C36.290665,10.5653325 36.024001,10.3360014 35.816,10.048 C35.607999,9.75999856 35.4533338,9.43200184 35.352,9.064 C35.2506662,8.69599816 35.2,8.32000192 35.2,7.936 L35.2,7.936 Z M41.6,12 L41.6,0.576 L40.24,0.576 L40.24,4.832 L40.208,4.832 C40.0586659,4.58666544 39.8746678,4.38133416 39.656,4.216 C39.4373322,4.05066584 39.2053346,3.91733384 38.96,3.816 C38.7146654,3.71466616 38.4693346,3.64266688 38.224,3.6 C37.9786654,3.55733312 37.7493344,3.536 37.536,3.536 C36.9066635,3.536 36.354669,3.65066552 35.88,3.88 C35.405331,4.10933448 35.0106682,4.41866472 34.696,4.808 C34.3813318,5.19733528 34.1466674,5.65333072 33.992,6.176 C33.8373326,6.69866928 33.76,7.2533304 33.76,7.84 C33.76,8.4266696 33.8399992,8.98133072 34,9.504 C34.1600008,10.0266693 34.3973318,10.4853314 34.712,10.88 C35.0266682,11.2746686 35.421331,11.5893322 35.896,11.824 C36.370669,12.0586678 36.9279968,12.176 37.568,12.176 C38.1440029,12.176 38.6719976,12.0746677 39.152,11.872 C39.6320024,11.6693323 39.9839989,11.338669 40.208,10.88 L40.24,10.88 L40.24,12 L41.6,12 Z M50.336,7.28 L52.272,1.952 L52.304,1.952 L54.208,7.28 L50.336,7.28 Z M51.472,0.576 L47.024,12 L48.576,12 L49.856,8.56 L54.688,8.56 L55.936,12 L57.616,12 L53.152,0.576 L51.472,0.576 Z M58.512,3.728 L58.512,12 L59.872,12 L59.872,7.328 C59.872,6.9546648 59.9226662,6.61066824 60.024,6.296 C60.1253338,5.98133176 60.2773323,5.70666784 60.48,5.472 C60.6826677,5.23733216 60.9359985,5.05600064 61.24,4.928 C61.5440015,4.79999936 61.9039979,4.736 62.32,4.736 C62.8426693,4.736 63.2533318,4.88533184 63.552,5.184 C63.8506682,5.48266816 64,5.88799744 64,6.4 L64,12 L65.36,12 L65.36,6.56 C65.36,6.11199776 65.3146671,5.70400184 65.224,5.336 C65.1333329,4.96799816 64.9760011,4.650668 64.752,4.384 C64.5279989,4.117332 64.2346685,3.90933408 63.872,3.76 C63.5093315,3.61066592 63.0560027,3.536 62.512,3.536 C61.2853272,3.536 60.3893362,4.03732832 59.824,5.04 L59.792,5.04 L59.792,3.728 L58.512,3.728 Z M74.736,11.968 C74.5013322,12.1066674 74.1760021,12.176 73.76,12.176 C73.4079982,12.176 73.128001,12.0773343 72.92,11.88 C72.711999,11.6826657 72.608,11.3600022 72.608,10.912 C72.2346648,11.3600022 71.8000025,11.6826657 71.304,11.88 C70.8079975,12.0773343 70.2720029,12.176 69.696,12.176 C69.3226648,12.176 68.9680017,12.1333338 68.632,12.048 C68.2959983,11.9626662 68.0053346,11.8293342 67.76,11.648 C67.5146654,11.4666658 67.3200007,11.2293348 67.176,10.936 C67.0319993,10.6426652 66.96,10.2880021 66.96,9.872 C66.96,9.40266432 67.0399992,9.01866816 67.2,8.72 C67.3600008,8.42133184 67.5706654,8.1786676 67.832,7.992 C68.0933346,7.8053324 68.3919983,7.66400048 68.728,7.568 C69.0640017,7.47199952 69.4079982,7.39200032 69.76,7.328 C70.1333352,7.25333296 70.4879983,7.19733352 70.824,7.16 C71.1600017,7.12266648 71.4559987,7.06933368 71.712,7 C71.9680013,6.93066632 72.1706659,6.829334 72.32,6.696 C72.4693341,6.562666 72.544,6.36800128 72.544,6.112 C72.544,5.81333184 72.4880006,5.57333424 72.376,5.392 C72.2639994,5.21066576 72.1200009,5.07200048 71.944,4.976 C71.7679991,4.87999952 71.5706678,4.81600016 71.352,4.784 C71.1333322,4.75199984 70.9173344,4.736 70.704,4.736 C70.1279971,4.736 69.6480019,4.84533224 69.264,5.064 C68.8799981,5.28266776 68.6720002,5.69599696 68.64,6.304 L67.28,6.304 C67.3013334,5.79199744 67.407999,5.36000176 67.6,5.008 C67.792001,4.65599824 68.0479984,4.37066776 68.368,4.152 C68.6880016,3.93333224 69.0533313,3.77600048 69.464,3.68 C69.8746687,3.58399952 70.3146643,3.536 70.784,3.536 C71.1573352,3.536 71.5279982,3.5626664 71.896,3.616 C72.2640018,3.6693336 72.5973318,3.77866584 72.896,3.944 C73.1946682,4.10933416 73.4346658,4.34133184 73.616,4.64 C73.7973342,4.93866816 73.888,5.3279976 73.888,5.808 L73.888,10.064 C73.888,10.3840016 73.9066665,10.6186659 73.944,10.768 C73.9813335,10.9173341 74.1066656,10.992 74.32,10.992 C74.4373339,10.992 74.5759992,10.9653336 74.736,10.912 L74.736,11.968 Z M72.528,7.728 C72.3573325,7.85600064 72.1333347,7.94933304 71.856,8.008 C71.5786653,8.06666696 71.2880015,8.11466648 70.984,8.152 C70.6799985,8.18933352 70.3733349,8.23199976 70.064,8.28 C69.7546651,8.32800024 69.4773346,8.4053328 69.232,8.512 C68.9866654,8.6186672 68.7866674,8.77066568 68.632,8.968 C68.4773326,9.16533432 68.4,9.43466496 68.4,9.776 C68.4,10.0000011 68.4453329,10.1893326 68.536,10.344 C68.6266671,10.4986674 68.7439993,10.6239995 68.888,10.72 C69.0320007,10.8160005 69.199999,10.8853331 69.392,10.928 C69.584001,10.9706669 69.7866656,10.992 70,10.992 C70.4480022,10.992 70.8319984,10.9306673 71.152,10.808 C71.4720016,10.6853327 71.7333323,10.5306676 71.936,10.344 C72.1386677,10.1573324 72.2879995,9.95466776 72.384,9.736 C72.4800005,9.51733224 72.528,9.31200096 72.528,9.12 L72.528,7.728 Z M76.08,0.576 L76.08,12 L77.44,12 L77.44,0.576 L76.08,0.576 Z M82.8,13.104 C82.6399992,13.5093354 82.4826674,13.8506653 82.328,14.128 C82.1733326,14.4053347 82.0026676,14.6319991 81.816,14.808 C81.6293324,14.9840009 81.4213345,15.1119996 81.192,15.192 C80.9626655,15.2720004 80.6986682,15.312 80.4,15.312 C80.2399992,15.312 80.0800008,15.3013334 79.92,15.28 C79.7599992,15.2586666 79.6053341,15.2213336 79.456,15.168 L79.456,13.92 C79.5733339,13.9733336 79.7093326,14.0186665 79.864,14.056 C80.0186674,14.0933335 80.1493328,14.112 80.256,14.112 C80.5333347,14.112 80.7653324,14.045334 80.952,13.912 C81.1386676,13.778666 81.2799995,13.5893346 81.376,13.344 L81.936,11.952 L78.656,3.728 L80.192,3.728 L82.608,10.496 L82.64,10.496 L84.96,3.728 L86.4,3.728 L82.8,13.104 Z M89.44,3.728 L89.44,1.248 L88.08,1.248 L88.08,3.728 L86.672,3.728 L86.672,4.928 L88.08,4.928 L88.08,10.192 C88.08,10.5760019 88.117333,10.8853322 88.192,11.12 C88.266667,11.3546678 88.3813326,11.5359994 88.536,11.664 C88.6906674,11.7920006 88.8933321,11.8799998 89.144,11.928 C89.3946679,11.9760002 89.6959982,12 90.048,12 L91.088,12 L91.088,10.8 L90.464,10.8 C90.2506656,10.8 90.077334,10.7920001 89.944,10.776 C89.810666,10.7599999 89.706667,10.7253336 89.632,10.672 C89.557333,10.6186664 89.5066668,10.5440005 89.48,10.448 C89.4533332,10.3519995 89.44,10.2240008 89.44,10.064 L89.44,4.928 L91.088,4.928 L91.088,3.728 L89.44,3.728 Z M94.032,2.24 L94.032,0.576 L92.672,0.576 L92.672,2.24 L94.032,2.24 Z M92.672,3.728 L92.672,12 L94.032,12 L94.032,3.728 L92.672,3.728 Z M101.76,6.384 L103.168,6.384 C103.114666,5.89333088 102.986668,5.46933512 102.784,5.112 C102.581332,4.75466488 102.322668,4.45866784 102.008,4.224 C101.693332,3.98933216 101.330669,3.81600056 100.92,3.704 C100.509331,3.59199944 100.069336,3.536 99.6,3.536 C98.9493301,3.536 98.3786691,3.65066552 97.888,3.88 C97.3973309,4.10933448 96.989335,4.423998 96.664,4.824 C96.338665,5.224002 96.0960008,5.69333064 95.936,6.232 C95.7759992,6.77066936 95.696,7.34933024 95.696,7.968 C95.696,8.58666976 95.7786658,9.15466408 95.944,9.672 C96.1093342,10.1893359 96.354665,10.6346648 96.68,11.008 C97.005335,11.3813352 97.4106642,11.6693323 97.896,11.872 C98.3813358,12.0746677 98.9386635,12.176 99.568,12.176 C100.624005,12.176 101.458664,11.8986694 102.072,11.344 C102.685336,10.7893306 103.066666,10.0000051 103.216,8.976 L101.824,8.976 C101.738666,9.6160032 101.506669,10.1119982 101.128,10.464 C100.749331,10.8160018 100.224003,10.992 99.552,10.992 C99.1253312,10.992 98.7573349,10.9066675 98.448,10.736 C98.1386651,10.5653325 97.888001,10.3386681 97.696,10.056 C97.503999,9.77333192 97.3626671,9.45066848 97.272,9.088 C97.1813329,8.72533152 97.136,8.35200192 97.136,7.968 C97.136,7.55199792 97.1786662,7.14933528 97.264,6.76 C97.3493338,6.37066472 97.4906657,6.02666816 97.688,5.728 C97.8853343,5.42933184 98.1493317,5.18933424 98.48,5.008 C98.8106683,4.82666576 99.2213309,4.736 99.712,4.736 C100.288003,4.736 100.746665,4.87999856 101.088,5.168 C101.429335,5.45600144 101.653333,5.86133072 101.76,6.384 L101.76,6.384 Z M105.568,9.392 L104.208,9.392 C104.229333,9.90400256 104.335999,10.3386649 104.528,10.696 C104.720001,11.0533351 104.975998,11.3413322 105.296,11.56 C105.616002,11.7786678 105.983998,11.9359995 106.4,12.032 C106.816002,12.1280005 107.253331,12.176 107.712,12.176 C108.128002,12.176 108.546665,12.1360004 108.968,12.056 C109.389335,11.9759996 109.767998,11.8346677 110.104,11.632 C110.440002,11.4293323 110.711999,11.1626683 110.92,10.832 C111.128001,10.5013317 111.232,10.0853358 111.232,9.584 C111.232,9.18933136 111.154667,8.858668 111,8.592 C110.845333,8.325332 110.642668,8.10400088 110.392,7.928 C110.141332,7.75199912 109.853335,7.6106672 109.528,7.504 C109.202665,7.3973328 108.869335,7.30666704 108.528,7.232 C108.207998,7.15733296 107.888002,7.08533368 107.568,7.016 C107.247998,6.94666632 106.960001,6.86133384 106.704,6.76 C106.447999,6.65866616 106.237334,6.53066744 106.072,6.376 C105.906666,6.22133256 105.824,6.02666784 105.824,5.792 C105.824,5.5786656 105.877333,5.405334 105.984,5.272 C106.090667,5.138666 106.229332,5.0320004 106.4,4.952 C106.570668,4.8719996 106.759999,4.81600016 106.968,4.784 C107.176001,4.75199984 107.381332,4.736 107.584,4.736 C107.808001,4.736 108.029332,4.75999976 108.248,4.808 C108.466668,4.85600024 108.666666,4.9333328 108.848,5.04 C109.029334,5.1466672 109.178666,5.28799912 109.296,5.464 C109.413334,5.64000088 109.482667,5.861332 109.504,6.128 L110.864,6.128 C110.832,5.62666416 110.725334,5.20800168 110.544,4.872 C110.362666,4.53599832 110.120002,4.26933432 109.816,4.072 C109.511998,3.87466568 109.162669,3.7360004 108.768,3.656 C108.373331,3.5759996 107.941336,3.536 107.472,3.536 C107.109332,3.536 106.744002,3.58133288 106.376,3.672 C106.007998,3.76266712 105.677335,3.9013324 105.384,4.088 C105.090665,4.2746676 104.850668,4.51733184 104.664,4.816 C104.477332,5.11466816 104.384,5.47199792 104.384,5.888 C104.384,6.421336 104.517332,6.83733184 104.784,7.136 C105.050668,7.43466816 105.383998,7.66666584 105.784,7.832 C106.184002,7.99733416 106.618664,8.12533288 107.088,8.216 C107.557336,8.30666712 107.991998,8.40799944 108.392,8.52 C108.792002,8.63200056 109.125332,8.77866576 109.392,8.96 C109.658668,9.14133424 109.792,9.40799824 109.792,9.76 C109.792,10.0160013 109.728001,10.2266658 109.6,10.392 C109.471999,10.5573342 109.309334,10.6826662 109.112,10.768 C108.914666,10.8533338 108.698668,10.9119998 108.464,10.944 C108.229332,10.9760002 108.005334,10.992 107.792,10.992 C107.514665,10.992 107.245335,10.9653336 106.984,10.912 C106.722665,10.8586664 106.488001,10.7706673 106.28,10.648 C106.071999,10.5253327 105.904001,10.360001 105.776,10.152 C105.647999,9.94399896 105.578667,9.69066816 105.568,9.392 L105.568,9.392 Z" id="Shape" fill-opacity="0.25" fill="#000000"></path>
            <path d="M9.28,5.016 L10.8,5.016 C10.7146662,4.40799696 10.5333347,3.87200232 10.256,3.408 C9.97866528,2.94399768 9.63200208,2.55733488 9.216,2.248 C8.79999792,1.93866512 8.325336,1.7040008 7.792,1.544 C7.258664,1.3839992 6.69333632,1.304 6.096,1.304 C5.22132896,1.304 4.44533672,1.46133176 3.768,1.776 C3.09066328,2.09066824 2.5253356,2.51999728 2.072,3.064 C1.6186644,3.60800272 1.27466784,4.24532968 1.04,4.976 C0.80533216,5.70667032 0.688,6.48799584 0.688,7.32 C0.688,8.15200416 0.79733224,8.93066304 1.016,9.656 C1.23466776,10.381337 1.56266448,11.010664 2,11.544 C2.43733552,12.077336 2.98666336,12.4959985 3.648,12.8 C4.30933664,13.1040015 5.08266224,13.256 5.968,13.256 C7.42934064,13.256 8.58132912,12.856004 9.424,12.056 C10.2666709,11.255996 10.7626659,10.1360072 10.912,8.696 L9.392,8.696 C9.35999984,9.16533568 9.2640008,9.60266464 9.104,10.008 C8.9439992,10.4133354 8.72266808,10.7626652 8.44,11.056 C8.15733192,11.3493348 7.82133528,11.5786658 7.432,11.744 C7.04266472,11.9093342 6.59733584,11.992 6.096,11.992 C5.41332992,11.992 4.82666912,11.8640013 4.336,11.608 C3.84533088,11.3519987 3.44266824,11.0080022 3.128,10.576 C2.81333176,10.1439978 2.58133408,9.63733624 2.432,9.056 C2.28266592,8.47466376 2.208,7.85866992 2.208,7.208 C2.208,6.61066368 2.28266592,6.03466944 2.432,5.48 C2.58133408,4.92533056 2.81333176,4.43200216 3.128,4 C3.44266824,3.56799784 3.84266424,3.22400128 4.328,2.968 C4.81333576,2.71199872 5.39732992,2.584 6.08,2.584 C6.880004,2.584 7.57066376,2.78666464 8.152,3.192 C8.73333624,3.59733536 9.10933248,4.20532928 9.28,5.016 L9.28,5.016 Z M12.656,1.576 L12.656,13 L14.016,13 L14.016,1.576 L12.656,1.576 Z M17.12,8.872 C17.12,8.37066416 17.186666,7.92533528 17.32,7.536 C17.453334,7.14666472 17.6373322,6.818668 17.872,6.552 C18.1066678,6.285332 18.3813318,6.08266736 18.696,5.944 C19.0106682,5.80533264 19.3439982,5.736 19.696,5.736 C20.0480018,5.736 20.3813318,5.80533264 20.696,5.944 C21.0106682,6.08266736 21.2853322,6.285332 21.52,6.552 C21.7546678,6.818668 21.938666,7.14666472 22.072,7.536 C22.205334,7.92533528 22.272,8.37066416 22.272,8.872 C22.272,9.37333584 22.205334,9.81866472 22.072,10.208 C21.938666,10.5973353 21.7546678,10.9226654 21.52,11.184 C21.2853322,11.4453346 21.0106682,11.6453326 20.696,11.784 C20.3813318,11.9226674 20.0480018,11.992 19.696,11.992 C19.3439982,11.992 19.0106682,11.9226674 18.696,11.784 C18.3813318,11.6453326 18.1066678,11.4453346 17.872,11.184 C17.6373322,10.9226654 17.453334,10.5973353 17.32,10.208 C17.186666,9.81866472 17.12,9.37333584 17.12,8.872 L17.12,8.872 Z M15.68,8.872 C15.68,9.48000304 15.7653325,10.0453307 15.936,10.568 C16.1066675,11.0906693 16.362665,11.5466647 16.704,11.936 C17.045335,12.3253353 17.4666642,12.6293322 17.968,12.848 C18.4693358,13.0666678 19.0453301,13.176 19.696,13.176 C20.3573366,13.176 20.9359975,13.0666678 21.432,12.848 C21.9280025,12.6293322 22.346665,12.3253353 22.688,11.936 C23.029335,11.5466647 23.2853325,11.0906693 23.456,10.568 C23.6266675,10.0453307 23.712,9.48000304 23.712,8.872 C23.712,8.26399696 23.6266675,7.69600264 23.456,7.168 C23.2853325,6.63999736 23.029335,6.18133528 22.688,5.792 C22.346665,5.40266472 21.9280025,5.09600112 21.432,4.872 C20.9359975,4.64799888 20.3573366,4.536 19.696,4.536 C19.0453301,4.536 18.4693358,4.64799888 17.968,4.872 C17.4666642,5.09600112 17.045335,5.40266472 16.704,5.792 C16.362665,6.18133528 16.1066675,6.63999736 15.936,7.168 C15.7653325,7.69600264 15.68,8.26399696 15.68,8.872 L15.68,8.872 Z M32.16,13 L32.16,4.728 L30.8,4.728 L30.8,9.4 C30.8,9.7733352 30.7493338,10.1173318 30.648,10.432 C30.5466662,10.7466682 30.3946677,11.0213322 30.192,11.256 C29.9893323,11.4906678 29.7360015,11.6719994 29.432,11.8 C29.1279985,11.9280006 28.7680021,11.992 28.352,11.992 C27.8293307,11.992 27.4186682,11.8426682 27.12,11.544 C26.8213318,11.2453318 26.672,10.8400026 26.672,10.328 L26.672,4.728 L25.312,4.728 L25.312,10.168 C25.312,10.6160022 25.3573329,11.0239982 25.448,11.392 C25.5386671,11.7600018 25.6959989,12.077332 25.92,12.344 C26.1440011,12.610668 26.4373315,12.8159993 26.8,12.96 C27.1626685,13.1040007 27.6159973,13.176 28.16,13.176 C28.768003,13.176 29.2959978,13.0560012 29.744,12.816 C30.1920022,12.5759988 30.5599986,12.2000026 30.848,11.688 L30.88,11.688 L30.88,13 L32.16,13 Z M35.2,8.936 C35.2,8.53066464 35.2426662,8.13600192 35.328,7.752 C35.4133338,7.36799808 35.551999,7.02666816 35.744,6.728 C35.936001,6.42933184 36.1919984,6.18933424 36.512,6.008 C36.8320016,5.82666576 37.221331,5.736 37.68,5.736 C38.1493357,5.736 38.5493317,5.82399912 38.88,6 C39.2106683,6.17600088 39.479999,6.40799856 39.688,6.696 C39.896001,6.98400144 40.0479995,7.31733144 40.144,7.696 C40.2400005,8.07466856 40.288,8.46666464 40.288,8.872 C40.288,9.25600192 40.2426671,9.6346648 40.152,10.008 C40.0613329,10.3813352 39.9146677,10.7146652 39.712,11.008 C39.5093323,11.3013348 39.2480016,11.5386658 38.928,11.72 C38.6079984,11.9013342 38.218669,11.992 37.76,11.992 C37.3226645,11.992 36.941335,11.9066675 36.616,11.736 C36.290665,11.5653325 36.024001,11.3360014 35.816,11.048 C35.607999,10.7599986 35.4533338,10.4320018 35.352,10.064 C35.2506662,9.69599816 35.2,9.32000192 35.2,8.936 L35.2,8.936 Z M41.6,13 L41.6,1.576 L40.24,1.576 L40.24,5.832 L40.208,5.832 C40.0586659,5.58666544 39.8746678,5.38133416 39.656,5.216 C39.4373322,5.05066584 39.2053346,4.91733384 38.96,4.816 C38.7146654,4.71466616 38.4693346,4.64266688 38.224,4.6 C37.9786654,4.55733312 37.7493344,4.536 37.536,4.536 C36.9066635,4.536 36.354669,4.65066552 35.88,4.88 C35.405331,5.10933448 35.0106682,5.41866472 34.696,5.808 C34.3813318,6.19733528 34.1466674,6.65333072 33.992,7.176 C33.8373326,7.69866928 33.76,8.2533304 33.76,8.84 C33.76,9.4266696 33.8399992,9.98133072 34,10.504 C34.1600008,11.0266693 34.3973318,11.4853314 34.712,11.88 C35.0266682,12.2746686 35.421331,12.5893322 35.896,12.824 C36.370669,13.0586678 36.9279968,13.176 37.568,13.176 C38.1440029,13.176 38.6719976,13.0746677 39.152,12.872 C39.6320024,12.6693323 39.9839989,12.338669 40.208,11.88 L40.24,11.88 L40.24,13 L41.6,13 Z M50.336,8.28 L52.272,2.952 L52.304,2.952 L54.208,8.28 L50.336,8.28 Z M51.472,1.576 L47.024,13 L48.576,13 L49.856,9.56 L54.688,9.56 L55.936,13 L57.616,13 L53.152,1.576 L51.472,1.576 Z M58.512,4.728 L58.512,13 L59.872,13 L59.872,8.328 C59.872,7.9546648 59.9226662,7.61066824 60.024,7.296 C60.1253338,6.98133176 60.2773323,6.70666784 60.48,6.472 C60.6826677,6.23733216 60.9359985,6.05600064 61.24,5.928 C61.5440015,5.79999936 61.9039979,5.736 62.32,5.736 C62.8426693,5.736 63.2533318,5.88533184 63.552,6.184 C63.8506682,6.48266816 64,6.88799744 64,7.4 L64,13 L65.36,13 L65.36,7.56 C65.36,7.11199776 65.3146671,6.70400184 65.224,6.336 C65.1333329,5.96799816 64.9760011,5.650668 64.752,5.384 C64.5279989,5.117332 64.2346685,4.90933408 63.872,4.76 C63.5093315,4.61066592 63.0560027,4.536 62.512,4.536 C61.2853272,4.536 60.3893362,5.03732832 59.824,6.04 L59.792,6.04 L59.792,4.728 L58.512,4.728 Z M74.736,12.968 C74.5013322,13.1066674 74.1760021,13.176 73.76,13.176 C73.4079982,13.176 73.128001,13.0773343 72.92,12.88 C72.711999,12.6826657 72.608,12.3600022 72.608,11.912 C72.2346648,12.3600022 71.8000025,12.6826657 71.304,12.88 C70.8079975,13.0773343 70.2720029,13.176 69.696,13.176 C69.3226648,13.176 68.9680017,13.1333338 68.632,13.048 C68.2959983,12.9626662 68.0053346,12.8293342 67.76,12.648 C67.5146654,12.4666658 67.3200007,12.2293348 67.176,11.936 C67.0319993,11.6426652 66.96,11.2880021 66.96,10.872 C66.96,10.4026643 67.0399992,10.0186682 67.2,9.72 C67.3600008,9.42133184 67.5706654,9.1786676 67.832,8.992 C68.0933346,8.8053324 68.3919983,8.66400048 68.728,8.568 C69.0640017,8.47199952 69.4079982,8.39200032 69.76,8.328 C70.1333352,8.25333296 70.4879983,8.19733352 70.824,8.16 C71.1600017,8.12266648 71.4559987,8.06933368 71.712,8 C71.9680013,7.93066632 72.1706659,7.829334 72.32,7.696 C72.4693341,7.562666 72.544,7.36800128 72.544,7.112 C72.544,6.81333184 72.4880006,6.57333424 72.376,6.392 C72.2639994,6.21066576 72.1200009,6.07200048 71.944,5.976 C71.7679991,5.87999952 71.5706678,5.81600016 71.352,5.784 C71.1333322,5.75199984 70.9173344,5.736 70.704,5.736 C70.1279971,5.736 69.6480019,5.84533224 69.264,6.064 C68.8799981,6.28266776 68.6720002,6.69599696 68.64,7.304 L67.28,7.304 C67.3013334,6.79199744 67.407999,6.36000176 67.6,6.008 C67.792001,5.65599824 68.0479984,5.37066776 68.368,5.152 C68.6880016,4.93333224 69.0533313,4.77600048 69.464,4.68 C69.8746687,4.58399952 70.3146643,4.536 70.784,4.536 C71.1573352,4.536 71.5279982,4.5626664 71.896,4.616 C72.2640018,4.6693336 72.5973318,4.77866584 72.896,4.944 C73.1946682,5.10933416 73.4346658,5.34133184 73.616,5.64 C73.7973342,5.93866816 73.888,6.3279976 73.888,6.808 L73.888,11.064 C73.888,11.3840016 73.9066665,11.6186659 73.944,11.768 C73.9813335,11.9173341 74.1066656,11.992 74.32,11.992 C74.4373339,11.992 74.5759992,11.9653336 74.736,11.912 L74.736,12.968 Z M72.528,8.728 C72.3573325,8.85600064 72.1333347,8.94933304 71.856,9.008 C71.5786653,9.06666696 71.2880015,9.11466648 70.984,9.152 C70.6799985,9.18933352 70.3733349,9.23199976 70.064,9.28 C69.7546651,9.32800024 69.4773346,9.4053328 69.232,9.512 C68.9866654,9.6186672 68.7866674,9.77066568 68.632,9.968 C68.4773326,10.1653343 68.4,10.434665 68.4,10.776 C68.4,11.0000011 68.4453329,11.1893326 68.536,11.344 C68.6266671,11.4986674 68.7439993,11.6239995 68.888,11.72 C69.0320007,11.8160005 69.199999,11.8853331 69.392,11.928 C69.584001,11.9706669 69.7866656,11.992 70,11.992 C70.4480022,11.992 70.8319984,11.9306673 71.152,11.808 C71.4720016,11.6853327 71.7333323,11.5306676 71.936,11.344 C72.1386677,11.1573324 72.2879995,10.9546678 72.384,10.736 C72.4800005,10.5173322 72.528,10.312001 72.528,10.12 L72.528,8.728 Z M76.08,1.576 L76.08,13 L77.44,13 L77.44,1.576 L76.08,1.576 Z M82.8,14.104 C82.6399992,14.5093354 82.4826674,14.8506653 82.328,15.128 C82.1733326,15.4053347 82.0026676,15.6319991 81.816,15.808 C81.6293324,15.9840009 81.4213345,16.1119996 81.192,16.192 C80.9626655,16.2720004 80.6986682,16.312 80.4,16.312 C80.2399992,16.312 80.0800008,16.3013334 79.92,16.28 C79.7599992,16.2586666 79.6053341,16.2213336 79.456,16.168 L79.456,14.92 C79.5733339,14.9733336 79.7093326,15.0186665 79.864,15.056 C80.0186674,15.0933335 80.1493328,15.112 80.256,15.112 C80.5333347,15.112 80.7653324,15.045334 80.952,14.912 C81.1386676,14.778666 81.2799995,14.5893346 81.376,14.344 L81.936,12.952 L78.656,4.728 L80.192,4.728 L82.608,11.496 L82.64,11.496 L84.96,4.728 L86.4,4.728 L82.8,14.104 Z M89.44,4.728 L89.44,2.248 L88.08,2.248 L88.08,4.728 L86.672,4.728 L86.672,5.928 L88.08,5.928 L88.08,11.192 C88.08,11.5760019 88.117333,11.8853322 88.192,12.12 C88.266667,12.3546678 88.3813326,12.5359994 88.536,12.664 C88.6906674,12.7920006 88.8933321,12.8799998 89.144,12.928 C89.3946679,12.9760002 89.6959982,13 90.048,13 L91.088,13 L91.088,11.8 L90.464,11.8 C90.2506656,11.8 90.077334,11.7920001 89.944,11.776 C89.810666,11.7599999 89.706667,11.7253336 89.632,11.672 C89.557333,11.6186664 89.5066668,11.5440005 89.48,11.448 C89.4533332,11.3519995 89.44,11.2240008 89.44,11.064 L89.44,5.928 L91.088,5.928 L91.088,4.728 L89.44,4.728 Z M94.032,3.24 L94.032,1.576 L92.672,1.576 L92.672,3.24 L94.032,3.24 Z M92.672,4.728 L92.672,13 L94.032,13 L94.032,4.728 L92.672,4.728 Z M101.76,7.384 L103.168,7.384 C103.114666,6.89333088 102.986668,6.46933512 102.784,6.112 C102.581332,5.75466488 102.322668,5.45866784 102.008,5.224 C101.693332,4.98933216 101.330669,4.81600056 100.92,4.704 C100.509331,4.59199944 100.069336,4.536 99.6,4.536 C98.9493301,4.536 98.3786691,4.65066552 97.888,4.88 C97.3973309,5.10933448 96.989335,5.423998 96.664,5.824 C96.338665,6.224002 96.0960008,6.69333064 95.936,7.232 C95.7759992,7.77066936 95.696,8.34933024 95.696,8.968 C95.696,9.58666976 95.7786658,10.1546641 95.944,10.672 C96.1093342,11.1893359 96.354665,11.6346648 96.68,12.008 C97.005335,12.3813352 97.4106642,12.6693323 97.896,12.872 C98.3813358,13.0746677 98.9386635,13.176 99.568,13.176 C100.624005,13.176 101.458664,12.8986694 102.072,12.344 C102.685336,11.7893306 103.066666,11.0000051 103.216,9.976 L101.824,9.976 C101.738666,10.6160032 101.506669,11.1119982 101.128,11.464 C100.749331,11.8160018 100.224003,11.992 99.552,11.992 C99.1253312,11.992 98.7573349,11.9066675 98.448,11.736 C98.1386651,11.5653325 97.888001,11.3386681 97.696,11.056 C97.503999,10.7733319 97.3626671,10.4506685 97.272,10.088 C97.1813329,9.72533152 97.136,9.35200192 97.136,8.968 C97.136,8.55199792 97.1786662,8.14933528 97.264,7.76 C97.3493338,7.37066472 97.4906657,7.02666816 97.688,6.728 C97.8853343,6.42933184 98.1493317,6.18933424 98.48,6.008 C98.8106683,5.82666576 99.2213309,5.736 99.712,5.736 C100.288003,5.736 100.746665,5.87999856 101.088,6.168 C101.429335,6.45600144 101.653333,6.86133072 101.76,7.384 L101.76,7.384 Z M105.568,10.392 L104.208,10.392 C104.229333,10.9040026 104.335999,11.3386649 104.528,11.696 C104.720001,12.0533351 104.975998,12.3413322 105.296,12.56 C105.616002,12.7786678 105.983998,12.9359995 106.4,13.032 C106.816002,13.1280005 107.253331,13.176 107.712,13.176 C108.128002,13.176 108.546665,13.1360004 108.968,13.056 C109.389335,12.9759996 109.767998,12.8346677 110.104,12.632 C110.440002,12.4293323 110.711999,12.1626683 110.92,11.832 C111.128001,11.5013317 111.232,11.0853358 111.232,10.584 C111.232,10.1893314 111.154667,9.858668 111,9.592 C110.845333,9.325332 110.642668,9.10400088 110.392,8.928 C110.141332,8.75199912 109.853335,8.6106672 109.528,8.504 C109.202665,8.3973328 108.869335,8.30666704 108.528,8.232 C108.207998,8.15733296 107.888002,8.08533368 107.568,8.016 C107.247998,7.94666632 106.960001,7.86133384 106.704,7.76 C106.447999,7.65866616 106.237334,7.53066744 106.072,7.376 C105.906666,7.22133256 105.824,7.02666784 105.824,6.792 C105.824,6.5786656 105.877333,6.405334 105.984,6.272 C106.090667,6.138666 106.229332,6.0320004 106.4,5.952 C106.570668,5.8719996 106.759999,5.81600016 106.968,5.784 C107.176001,5.75199984 107.381332,5.736 107.584,5.736 C107.808001,5.736 108.029332,5.75999976 108.248,5.808 C108.466668,5.85600024 108.666666,5.9333328 108.848,6.04 C109.029334,6.1466672 109.178666,6.28799912 109.296,6.464 C109.413334,6.64000088 109.482667,6.861332 109.504,7.128 L110.864,7.128 C110.832,6.62666416 110.725334,6.20800168 110.544,5.872 C110.362666,5.53599832 110.120002,5.26933432 109.816,5.072 C109.511998,4.87466568 109.162669,4.7360004 108.768,4.656 C108.373331,4.5759996 107.941336,4.536 107.472,4.536 C107.109332,4.536 106.744002,4.58133288 106.376,4.672 C106.007998,4.76266712 105.677335,4.9013324 105.384,5.088 C105.090665,5.2746676 104.850668,5.51733184 104.664,5.816 C104.477332,6.11466816 104.384,6.47199792 104.384,6.888 C104.384,7.421336 104.517332,7.83733184 104.784,8.136 C105.050668,8.43466816 105.383998,8.66666584 105.784,8.832 C106.184002,8.99733416 106.618664,9.12533288 107.088,9.216 C107.557336,9.30666712 107.991998,9.40799944 108.392,9.52 C108.792002,9.63200056 109.125332,9.77866576 109.392,9.96 C109.658668,10.1413342 109.792,10.4079982 109.792,10.76 C109.792,11.0160013 109.728001,11.2266658 109.6,11.392 C109.471999,11.5573342 109.309334,11.6826662 109.112,11.768 C108.914666,11.8533338 108.698668,11.9119998 108.464,11.944 C108.229332,11.9760002 108.005334,11.992 107.792,11.992 C107.514665,11.992 107.245335,11.9653336 106.984,11.912 C106.722665,11.8586664 106.488001,11.7706673 106.28,11.648 C106.071999,11.5253327 105.904001,11.360001 105.776,11.152 C105.647999,10.943999 105.578667,10.6906682 105.568,10.392 L105.568,10.392 Z" id="Shape" fill="#FFFFFF"></path>
        </g>
    </g>
</svg>
