
<svg width="252px" height="17px" viewBox="40 191 252 17" version="1.1" xmlns="http://www.w3.org/2000/svg" xmlns:xlink="http://www.w3.org/1999/xlink">
    <!-- Generator: Sketch 42 (36781) - http://www.bohemiancoding.com/sketch -->
    <desc>Created with Sketch.</desc>
    <defs></defs>
    <g id="CM-logo" stroke="none" stroke-width="1" fill="none" fill-rule="evenodd" transform="translate(40.000000, 191.000000)">
        <g id="Group" transform="translate(111.000000, 0.000000)">
            <path d="M9.28,4.016 L10.8,4.016 C10.7146662,3.40799696 10.5333347,2.87200232 10.256,2.408 C9.97866528,1.94399768 9.63200208,1.55733488 9.216,1.248 C8.79999792,0.93866512 8.325336,0.7040008 7.792,0.544 C7.258664,0.3839992 6.69333632,0.304 6.096,0.304 C5.22132896,0.304 4.44533672,0.46133176 3.768,0.776 C3.09066328,1.09066824 2.5253356,1.51999728 2.072,2.064 C1.6186644,2.60800272 1.27466784,3.24532968 1.04,3.976 C0.80533216,4.70667032 0.688,5.48799584 0.688,6.32 C0.688,7.15200416 0.79733224,7.93066304 1.016,8.656 C1.23466776,9.38133696 1.56266448,10.010664 2,10.544 C2.43733552,11.077336 2.98666336,11.4959985 3.648,11.8 C4.30933664,12.1040015 5.08266224,12.256 5.968,12.256 C7.42934064,12.256 8.58132912,11.856004 9.424,11.056 C10.2666709,10.255996 10.7626659,9.1360072 10.912,7.696 L9.392,7.696 C9.35999984,8.16533568 9.2640008,8.60266464 9.104,9.008 C8.9439992,9.41333536 8.72266808,9.7626652 8.44,10.056 C8.15733192,10.3493348 7.82133528,10.5786658 7.432,10.744 C7.04266472,10.9093342 6.59733584,10.992 6.096,10.992 C5.41332992,10.992 4.82666912,10.8640013 4.336,10.608 C3.84533088,10.3519987 3.44266824,10.0080022 3.128,9.576 C2.81333176,9.14399784 2.58133408,8.63733624 2.432,8.056 C2.28266592,7.47466376 2.208,6.85866992 2.208,6.208 C2.208,5.61066368 2.28266592,5.03466944 2.432,4.48 C2.58133408,3.92533056 2.81333176,3.43200216 3.128,3 C3.44266824,2.56799784 3.84266424,2.22400128 4.328,1.968 C4.81333576,1.71199872 5.39732992,1.584 6.08,1.584 C6.880004,1.584 7.57066376,1.78666464 8.152,2.192 C8.73333624,2.59733536 9.10933248,3.20532928 9.28,4.016 L9.28,4.016 Z M12.656,0.576 L12.656,12 L14.016,12 L14.016,0.576 L12.656,0.576 Z M17.12,7.872 C17.12,7.37066416 17.186666,6.92533528 17.32,6.536 C17.453334,6.14666472 17.6373322,5.818668 17.872,5.552 C18.1066678,5.285332 18.3813318,5.08266736 18.696,4.944 C19.0106682,4.80533264 19.3439982,4.736 19.696,4.736 C20.0480018,4.736 20.3813318,4.80533264 20.696,4.944 C21.0106682,5.08266736 21.2853322,5.285332 21.52,5.552 C21.7546678,5.818668 21.938666,6.14666472 22.072,6.536 C22.205334,6.92533528 22.272,7.37066416 22.272,7.872 C22.272,8.37333584 22.205334,8.81866472 22.072,9.208 C21.938666,9.59733528 21.7546678,9.92266536 21.52,10.184 C21.2853322,10.4453346 21.0106682,10.6453326 20.696,10.784 C20.3813318,10.9226674 20.0480018,10.992 19.696,10.992 C19.3439982,10.992 19.0106682,10.9226674 18.696,10.784 C18.3813318,10.6453326 18.1066678,10.4453346 17.872,10.184 C17.6373322,9.92266536 17.453334,9.59733528 17.32,9.208 C17.186666,8.81866472 17.12,8.37333584 17.12,7.872 L17.12,7.872 Z M15.68,7.872 C15.68,8.48000304 15.7653325,9.04533072 15.936,9.568 C16.1066675,10.0906693 16.362665,10.5466647 16.704,10.936 C17.045335,11.3253353 17.4666642,11.6293322 17.968,11.848 C18.4693358,12.0666678 19.0453301,12.176 19.696,12.176 C20.3573366,12.176 20.9359975,12.0666678 21.432,11.848 C21.9280025,11.6293322 22.346665,11.3253353 22.688,10.936 C23.029335,10.5466647 23.2853325,10.0906693 23.456,9.568 C23.6266675,9.04533072 23.712,8.48000304 23.712,7.872 C23.712,7.26399696 23.6266675,6.69600264 23.456,6.168 C23.2853325,5.63999736 23.029335,5.18133528 22.688,4.792 C22.346665,4.40266472 21.9280025,4.09600112 21.432,3.872 C20.9359975,3.64799888 20.3573366,3.536 19.696,3.536 C19.0453301,3.536 18.4693358,3.64799888 17.968,3.872 C17.4666642,4.09600112 17.045335,4.40266472 16.704,4.792 C16.362665,5.18133528 16.1066675,5.63999736 15.936,6.168 C15.7653325,6.69600264 15.68,7.26399696 15.68,7.872 L15.68,7.872 Z M32.16,12 L32.16,3.728 L30.8,3.728 L30.8,8.4 C30.8,8.7733352 30.7493338,9.11733176 30.648,9.432 C30.5466662,9.74666824 30.3946677,10.0213322 30.192,10.256 C29.9893323,10.4906678 29.7360015,10.6719994 29.432,10.8 C29.1279985,10.9280006 28.7680021,10.992 28.352,10.992 C27.8293307,10.992 27.4186682,10.8426682 27.12,10.544 C26.8213318,10.2453318 26.672,9.84000256 26.672,9.328 L26.672,3.728 L25.312,3.728 L25.312,9.168 C25.312,9.61600224 25.3573329,10.0239982 25.448,10.392 C25.5386671,10.7600018 25.6959989,11.077332 25.92,11.344 C26.1440011,11.610668 26.4373315,11.8159993 26.8,11.96 C27.1626685,12.1040007 27.6159973,12.176 28.16,12.176 C28.768003,12.176 29.2959978,12.0560012 29.744,11.816 C30.1920022,11.5759988 30.5599986,11.2000026 30.848,10.688 L30.88,10.688 L30.88,12 L32.16,12 Z M35.2,7.936 C35.2,7.53066464 35.2426662,7.13600192 35.328,6.752 C35.4133338,6.36799808 35.551999,6.02666816 35.744,5.728 C35.936001,5.42933184 36.1919984,5.18933424 36.512,5.008 C36.8320016,4.82666576 37.221331,4.736 37.68,4.736 C38.1493357,4.736 38.5493317,4.82399912 38.88,5 C39.2106683,5.17600088 39.479999,5.40799856 39.688,5.696 C39.896001,5.98400144 40.0479995,6.31733144 40.144,6.696 C40.2400005,7.07466856 40.288,7.46666464 40.288,7.872 C40.288,8.25600192 40.2426671,8.6346648 40.152,9.008 C40.0613329,9.3813352 39.9146677,9.7146652 39.712,10.008 C39.5093323,10.3013348 39.2480016,10.5386658 38.928,10.72 C38.6079984,10.9013342 38.218669,10.992 37.76,10.992 C37.3226645,10.992 36.941335,10.9066675 36.616,10.736 C36.290665,10.5653325 36.024001,10.3360014 35.816,10.048 C35.607999,9.75999856 35.4533338,9.43200184 35.352,9.064 C35.2506662,8.69599816 35.2,8.32000192 35.2,7.936 L35.2,7.936 Z M41.6,12 L41.6,0.576 L40.24,0.576 L40.24,4.832 L40.208,4.832 C40.0586659,4.58666544 39.8746678,4.38133416 39.656,4.216 C39.4373322,4.05066584 39.2053346,3.91733384 38.96,3.816 C38.7146654,3.71466616 38.4693346,3.64266688 38.224,3.6 C37.9786654,3.55733312 37.7493344,3.536 37.536,3.536 C36.9066635,3.536 36.354669,3.65066552 35.88,3.88 C35.405331,4.10933448 35.0106682,4.41866472 34.696,4.808 C34.3813318,5.19733528 34.1466674,5.65333072 33.992,6.176 C33.8373326,6.69866928 33.76,7.2533304 33.76,7.84 C33.76,8.4266696 33.8399992,8.98133072 34,9.504 C34.1600008,10.0266693 34.3973318,10.4853314 34.712,10.88 C35.0266682,11.2746686 35.421331,11.5893322 35.896,11.824 C36.370669,12.0586678 36.9279968,12.176 37.568,12.176 C38.1440029,12.176 38.6719976,12.0746677 39.152,11.872 C39.6320024,11.6693323 39.9839989,11.338669 40.208,10.88 L40.24,10.88 L40.24,12 L41.6,12 Z M48.4,0.576 L48.4,12 L49.84,12 L49.84,2.496 L49.872,2.496 L53.44,12 L54.736,12 L58.304,2.496 L58.336,2.496 L58.336,12 L59.776,12 L59.776,0.576 L57.696,0.576 L54.08,10.176 L50.48,0.576 L48.4,0.576 Z M69.408,11.968 C69.1733322,12.1066674 68.8480021,12.176 68.432,12.176 C68.0799982,12.176 67.800001,12.0773343 67.592,11.88 C67.383999,11.6826657 67.28,11.3600022 67.28,10.912 C66.9066648,11.3600022 66.4720025,11.6826657 65.976,11.88 C65.4799975,12.0773343 64.9440029,12.176 64.368,12.176 C63.9946648,12.176 63.6400017,12.1333338 63.304,12.048 C62.9679983,11.9626662 62.6773346,11.8293342 62.432,11.648 C62.1866654,11.4666658 61.9920007,11.2293348 61.848,10.936 C61.7039993,10.6426652 61.632,10.2880021 61.632,9.872 C61.632,9.40266432 61.7119992,9.01866816 61.872,8.72 C62.0320008,8.42133184 62.2426654,8.1786676 62.504,7.992 C62.7653346,7.8053324 63.0639983,7.66400048 63.4,7.568 C63.7360017,7.47199952 64.0799982,7.39200032 64.432,7.328 C64.8053352,7.25333296 65.1599983,7.19733352 65.496,7.16 C65.8320017,7.12266648 66.1279987,7.06933368 66.384,7 C66.6400013,6.93066632 66.8426659,6.829334 66.992,6.696 C67.1413341,6.562666 67.216,6.36800128 67.216,6.112 C67.216,5.81333184 67.1600006,5.57333424 67.048,5.392 C66.9359994,5.21066576 66.7920009,5.07200048 66.616,4.976 C66.4399991,4.87999952 66.2426678,4.81600016 66.024,4.784 C65.8053322,4.75199984 65.5893344,4.736 65.376,4.736 C64.7999971,4.736 64.3200019,4.84533224 63.936,5.064 C63.5519981,5.28266776 63.3440002,5.69599696 63.312,6.304 L61.952,6.304 C61.9733334,5.79199744 62.079999,5.36000176 62.272,5.008 C62.464001,4.65599824 62.7199984,4.37066776 63.04,4.152 C63.3600016,3.93333224 63.7253313,3.77600048 64.136,3.68 C64.5466687,3.58399952 64.9866643,3.536 65.456,3.536 C65.8293352,3.536 66.1999982,3.5626664 66.568,3.616 C66.9360018,3.6693336 67.2693318,3.77866584 67.568,3.944 C67.8666682,4.10933416 68.1066658,4.34133184 68.288,4.64 C68.4693342,4.93866816 68.56,5.3279976 68.56,5.808 L68.56,10.064 C68.56,10.3840016 68.5786665,10.6186659 68.616,10.768 C68.6533335,10.9173341 68.7786656,10.992 68.992,10.992 C69.1093339,10.992 69.2479992,10.9653336 69.408,10.912 L69.408,11.968 Z M67.2,7.728 C67.0293325,7.85600064 66.8053347,7.94933304 66.528,8.008 C66.2506653,8.06666696 65.9600015,8.11466648 65.656,8.152 C65.3519985,8.18933352 65.0453349,8.23199976 64.736,8.28 C64.4266651,8.32800024 64.1493346,8.4053328 63.904,8.512 C63.6586654,8.6186672 63.4586674,8.77066568 63.304,8.968 C63.1493326,9.16533432 63.072,9.43466496 63.072,9.776 C63.072,10.0000011 63.1173329,10.1893326 63.208,10.344 C63.2986671,10.4986674 63.4159993,10.6239995 63.56,10.72 C63.7040007,10.8160005 63.871999,10.8853331 64.064,10.928 C64.256001,10.9706669 64.4586656,10.992 64.672,10.992 C65.1200022,10.992 65.5039984,10.9306673 65.824,10.808 C66.1440016,10.6853327 66.4053323,10.5306676 66.608,10.344 C66.8106677,10.1573324 66.9599995,9.95466776 67.056,9.736 C67.1520005,9.51733224 67.2,9.31200096 67.2,9.12 L67.2,7.728 Z M70.672,3.728 L70.672,12 L72.032,12 L72.032,7.328 C72.032,6.9546648 72.0826662,6.61066824 72.184,6.296 C72.2853338,5.98133176 72.4373323,5.70666784 72.64,5.472 C72.8426677,5.23733216 73.0959985,5.05600064 73.4,4.928 C73.7040015,4.79999936 74.0639979,4.736 74.48,4.736 C75.0026693,4.736 75.4133318,4.88533184 75.712,5.184 C76.0106682,5.48266816 76.16,5.88799744 76.16,6.4 L76.16,12 L77.52,12 L77.52,6.56 C77.52,6.11199776 77.4746671,5.70400184 77.384,5.336 C77.2933329,4.96799816 77.1360011,4.650668 76.912,4.384 C76.6879989,4.117332 76.3946685,3.90933408 76.032,3.76 C75.6693315,3.61066592 75.2160027,3.536 74.672,3.536 C73.4453272,3.536 72.5493362,4.03732832 71.984,5.04 L71.952,5.04 L71.952,3.728 L70.672,3.728 Z M86.896,11.968 C86.6613322,12.1066674 86.3360021,12.176 85.92,12.176 C85.5679982,12.176 85.288001,12.0773343 85.08,11.88 C84.871999,11.6826657 84.768,11.3600022 84.768,10.912 C84.3946648,11.3600022 83.9600025,11.6826657 83.464,11.88 C82.9679975,12.0773343 82.4320029,12.176 81.856,12.176 C81.4826648,12.176 81.1280017,12.1333338 80.792,12.048 C80.4559983,11.9626662 80.1653346,11.8293342 79.92,11.648 C79.6746654,11.4666658 79.4800007,11.2293348 79.336,10.936 C79.1919993,10.6426652 79.12,10.2880021 79.12,9.872 C79.12,9.40266432 79.1999992,9.01866816 79.36,8.72 C79.5200008,8.42133184 79.7306654,8.1786676 79.992,7.992 C80.2533346,7.8053324 80.5519983,7.66400048 80.888,7.568 C81.2240017,7.47199952 81.5679982,7.39200032 81.92,7.328 C82.2933352,7.25333296 82.6479983,7.19733352 82.984,7.16 C83.3200017,7.12266648 83.6159987,7.06933368 83.872,7 C84.1280013,6.93066632 84.3306659,6.829334 84.48,6.696 C84.6293341,6.562666 84.704,6.36800128 84.704,6.112 C84.704,5.81333184 84.6480006,5.57333424 84.536,5.392 C84.4239994,5.21066576 84.2800009,5.07200048 84.104,4.976 C83.9279991,4.87999952 83.7306678,4.81600016 83.512,4.784 C83.2933322,4.75199984 83.0773344,4.736 82.864,4.736 C82.2879971,4.736 81.8080019,4.84533224 81.424,5.064 C81.0399981,5.28266776 80.8320002,5.69599696 80.8,6.304 L79.44,6.304 C79.4613334,5.79199744 79.567999,5.36000176 79.76,5.008 C79.952001,4.65599824 80.2079984,4.37066776 80.528,4.152 C80.8480016,3.93333224 81.2133313,3.77600048 81.624,3.68 C82.0346687,3.58399952 82.4746643,3.536 82.944,3.536 C83.3173352,3.536 83.6879982,3.5626664 84.056,3.616 C84.4240018,3.6693336 84.7573318,3.77866584 85.056,3.944 C85.3546682,4.10933416 85.5946658,4.34133184 85.776,4.64 C85.9573342,4.93866816 86.048,5.3279976 86.048,5.808 L86.048,10.064 C86.048,10.3840016 86.0666665,10.6186659 86.104,10.768 C86.1413335,10.9173341 86.2666656,10.992 86.48,10.992 C86.5973339,10.992 86.7359992,10.9653336 86.896,10.912 L86.896,11.968 Z M84.688,7.728 C84.5173325,7.85600064 84.2933347,7.94933304 84.016,8.008 C83.7386653,8.06666696 83.4480015,8.11466648 83.144,8.152 C82.8399985,8.18933352 82.5333349,8.23199976 82.224,8.28 C81.9146651,8.32800024 81.6373346,8.4053328 81.392,8.512 C81.1466654,8.6186672 80.9466674,8.77066568 80.792,8.968 C80.6373326,9.16533432 80.56,9.43466496 80.56,9.776 C80.56,10.0000011 80.6053329,10.1893326 80.696,10.344 C80.7866671,10.4986674 80.9039993,10.6239995 81.048,10.72 C81.1920007,10.8160005 81.359999,10.8853331 81.552,10.928 C81.744001,10.9706669 81.9466656,10.992 82.16,10.992 C82.6080022,10.992 82.9919984,10.9306673 83.312,10.808 C83.6320016,10.6853327 83.8933323,10.5306676 84.096,10.344 C84.2986677,10.1573324 84.4479995,9.95466776 84.544,9.736 C84.6400005,9.51733224 84.688,9.31200096 84.688,9.12 L84.688,7.728 Z M95.296,11.296 L95.296,3.728 L94.016,3.728 L94.016,4.912 L94,4.912 C93.7546654,4.45333104 93.4133355,4.10933448 92.976,3.88 C92.5386645,3.65066552 92.0586693,3.536 91.536,3.536 C90.8213298,3.536 90.2186691,3.67199864 89.728,3.944 C89.2373309,4.21600136 88.8426682,4.56266456 88.544,4.984 C88.2453318,5.40533544 88.0320006,5.87466408 87.904,6.392 C87.7759994,6.90933592 87.712,7.41333088 87.712,7.904 C87.712,8.46933616 87.7893326,9.0053308 87.944,9.512 C88.0986674,10.0186692 88.3306651,10.4613314 88.64,10.84 C88.9493349,11.2186686 89.333331,11.5199989 89.792,11.744 C90.250669,11.9680011 90.7893302,12.08 91.408,12.08 C91.941336,12.08 92.445331,11.9600012 92.92,11.72 C93.394669,11.4799988 93.7493322,11.1040026 93.984,10.592 L94.016,10.592 L94.016,11.136 C94.016,11.594669 93.9706671,12.0159981 93.88,12.4 C93.7893329,12.7840019 93.6426677,13.1119986 93.44,13.384 C93.2373323,13.6560014 92.9813349,13.8693326 92.672,14.024 C92.3626651,14.1786674 91.9840022,14.256 91.536,14.256 C91.3119989,14.256 91.0773346,14.2320002 90.832,14.184 C90.5866654,14.1359998 90.360001,14.0586672 90.152,13.952 C89.943999,13.8453328 89.7680007,13.7066675 89.624,13.536 C89.4799993,13.3653325 89.4026667,13.1573346 89.392,12.912 L88.032,12.912 C88.0533334,13.3600022 88.1706656,13.7386651 88.384,14.048 C88.5973344,14.3573349 88.866665,14.607999 89.192,14.8 C89.517335,14.992001 89.879998,15.1306662 90.28,15.216 C90.680002,15.3013338 91.0719981,15.344 91.456,15.344 C92.7786733,15.344 93.7493302,15.0080034 94.368,14.336 C94.9866698,13.6639966 95.296,12.6506734 95.296,11.296 L95.296,11.296 Z M91.488,10.896 C91.0399978,10.896 90.6666682,10.8026676 90.368,10.616 C90.0693318,10.4293324 89.8293342,10.1840015 89.648,9.88 C89.4666658,9.57599848 89.338667,9.2373352 89.264,8.864 C89.189333,8.4906648 89.152,8.1173352 89.152,7.744 C89.152,7.34933136 89.1973329,6.97066848 89.288,6.608 C89.3786671,6.24533152 89.5226657,5.92533472 89.72,5.648 C89.9173343,5.37066528 90.1706651,5.14933416 90.48,4.984 C90.7893349,4.81866584 91.1626645,4.736 91.6,4.736 C92.0266688,4.736 92.3893318,4.82133248 92.688,4.992 C92.9866682,5.16266752 93.2293324,5.38933192 93.416,5.672 C93.6026676,5.95466808 93.7386662,6.27199824 93.824,6.624 C93.9093338,6.97600176 93.952,7.33333152 93.952,7.696 C93.952,8.08000192 93.9066671,8.46399808 93.816,8.848 C93.7253329,9.23200192 93.584001,9.57599848 93.392,9.88 C93.199999,10.1840015 92.9466682,10.4293324 92.632,10.616 C92.3173318,10.8026676 91.9360022,10.896 91.488,10.896 L91.488,10.896 Z M103.088,7.072 L98.336,7.072 C98.3573334,6.7519984 98.4266661,6.45066808 98.544,6.168 C98.6613339,5.88533192 98.8213323,5.6373344 99.024,5.424 C99.2266677,5.2106656 99.4693319,5.04266728 99.752,4.92 C100.034668,4.79733272 100.351998,4.736 100.704,4.736 C101.045335,4.736 101.357332,4.79733272 101.64,4.92 C101.922668,5.04266728 102.167999,5.20799896 102.376,5.416 C102.584001,5.62400104 102.749333,5.87199856 102.872,6.16 C102.994667,6.44800144 103.066667,6.7519984 103.088,7.072 L103.088,7.072 Z M104.4,9.376 L103.056,9.376 C102.938666,9.92000272 102.696002,10.325332 102.328,10.592 C101.959998,10.858668 101.488003,10.992 100.912,10.992 C100.463998,10.992 100.074668,10.9173341 99.744,10.768 C99.4133317,10.6186659 99.1413344,10.4186679 98.928,10.168 C98.7146656,9.91733208 98.5600005,9.62933496 98.464,9.304 C98.3679995,8.97866504 98.3253333,8.63466848 98.336,8.272 L104.528,8.272 C104.549333,7.77066416 104.504001,7.24266944 104.392,6.688 C104.279999,6.13333056 104.077335,5.62133568 103.784,5.152 C103.490665,4.68266432 103.101336,4.29600152 102.616,3.992 C102.130664,3.68799848 101.520004,3.536 100.784,3.536 C100.218664,3.536 99.698669,3.6426656 99.224,3.856 C98.749331,4.0693344 98.3386684,4.36799808 97.992,4.752 C97.6453316,5.13600192 97.376001,5.58933072 97.184,6.112 C96.991999,6.63466928 96.896,7.21066352 96.896,7.84 C96.9173334,8.46933648 97.0106658,9.050664 97.176,9.584 C97.3413342,10.117336 97.5893317,10.5759981 97.92,10.96 C98.2506683,11.3440019 98.6586642,11.6426656 99.144,11.856 C99.6293358,12.0693344 100.202663,12.176 100.864,12.176 C101.802671,12.176 102.58133,11.9413357 103.2,11.472 C103.81867,11.0026643 104.218666,10.3040046 104.4,9.376 L104.4,9.376 Z M105.936,3.728 L105.936,12 L107.296,12 L107.296,6.848 C107.296,6.6879992 107.336,6.4880012 107.416,6.248 C107.496,6.0079988 107.623999,5.77600112 107.8,5.552 C107.976001,5.32799888 108.205332,5.1360008 108.488,4.976 C108.770668,4.8159992 109.109331,4.736 109.504,4.736 C109.813335,4.736 110.066666,4.78133288 110.264,4.872 C110.461334,4.96266712 110.618666,5.09066584 110.736,5.256 C110.853334,5.42133416 110.936,5.61599888 110.984,5.84 C111.032,6.06400112 111.056,6.309332 111.056,6.576 L111.056,12 L112.416,12 L112.416,6.848 C112.416,6.2079968 112.607998,5.69600192 112.992,5.312 C113.376002,4.92799808 113.903997,4.736 114.576,4.736 C114.906668,4.736 115.175999,4.78399952 115.384,4.88 C115.592001,4.97600048 115.754666,5.10666584 115.872,5.272 C115.989334,5.43733416 116.069333,5.63199888 116.112,5.856 C116.154667,6.08000112 116.176,6.31999872 116.176,6.576 L116.176,12 L117.536,12 L117.536,5.936 C117.536,5.5093312 117.469334,5.14400152 117.336,4.84 C117.202666,4.53599848 117.016001,4.28800096 116.776,4.096 C116.535999,3.90399904 116.248002,3.76266712 115.912,3.672 C115.575998,3.58133288 115.200002,3.536 114.784,3.536 C114.239997,3.536 113.741336,3.65866544 113.288,3.904 C112.834664,4.14933456 112.469335,4.49599776 112.192,4.944 C112.021332,4.43199744 111.728002,4.0693344 111.312,3.856 C110.895998,3.6426656 110.432003,3.536 109.92,3.536 C108.757328,3.536 107.86667,4.00532864 107.248,4.944 L107.216,4.944 L107.216,3.728 L105.936,3.728 Z M125.328,7.072 L120.576,7.072 C120.597333,6.7519984 120.666666,6.45066808 120.784,6.168 C120.901334,5.88533192 121.061332,5.6373344 121.264,5.424 C121.466668,5.2106656 121.709332,5.04266728 121.992,4.92 C122.274668,4.79733272 122.591998,4.736 122.944,4.736 C123.285335,4.736 123.597332,4.79733272 123.88,4.92 C124.162668,5.04266728 124.407999,5.20799896 124.616,5.416 C124.824001,5.62400104 124.989333,5.87199856 125.112,6.16 C125.234667,6.44800144 125.306667,6.7519984 125.328,7.072 L125.328,7.072 Z M126.64,9.376 L125.296,9.376 C125.178666,9.92000272 124.936002,10.325332 124.568,10.592 C124.199998,10.858668 123.728003,10.992 123.152,10.992 C122.703998,10.992 122.314668,10.9173341 121.984,10.768 C121.653332,10.6186659 121.381334,10.4186679 121.168,10.168 C120.954666,9.91733208 120.8,9.62933496 120.704,9.304 C120.608,8.97866504 120.565333,8.63466848 120.576,8.272 L126.768,8.272 C126.789333,7.77066416 126.744001,7.24266944 126.632,6.688 C126.519999,6.13333056 126.317335,5.62133568 126.024,5.152 C125.730665,4.68266432 125.341336,4.29600152 124.856,3.992 C124.370664,3.68799848 123.760004,3.536 123.024,3.536 C122.458664,3.536 121.938669,3.6426656 121.464,3.856 C120.989331,4.0693344 120.578668,4.36799808 120.232,4.752 C119.885332,5.13600192 119.616001,5.58933072 119.424,6.112 C119.231999,6.63466928 119.136,7.21066352 119.136,7.84 C119.157333,8.46933648 119.250666,9.050664 119.416,9.584 C119.581334,10.117336 119.829332,10.5759981 120.16,10.96 C120.490668,11.3440019 120.898664,11.6426656 121.384,11.856 C121.869336,12.0693344 122.442663,12.176 123.104,12.176 C124.042671,12.176 124.82133,11.9413357 125.44,11.472 C126.05867,11.0026643 126.458666,10.3040046 126.64,9.376 L126.64,9.376 Z M128.176,3.728 L128.176,12 L129.536,12 L129.536,7.328 C129.536,6.9546648 129.586666,6.61066824 129.688,6.296 C129.789334,5.98133176 129.941332,5.70666784 130.144,5.472 C130.346668,5.23733216 130.599998,5.05600064 130.904,4.928 C131.208002,4.79999936 131.567998,4.736 131.984,4.736 C132.506669,4.736 132.917332,4.88533184 133.216,5.184 C133.514668,5.48266816 133.664,5.88799744 133.664,6.4 L133.664,12 L135.024,12 L135.024,6.56 C135.024,6.11199776 134.978667,5.70400184 134.888,5.336 C134.797333,4.96799816 134.640001,4.650668 134.416,4.384 C134.191999,4.117332 133.898668,3.90933408 133.536,3.76 C133.173332,3.61066592 132.720003,3.536 132.176,3.536 C130.949327,3.536 130.053336,4.03732832 129.488,5.04 L129.456,5.04 L129.456,3.728 L128.176,3.728 Z M138.96,3.728 L138.96,1.248 L137.6,1.248 L137.6,3.728 L136.192,3.728 L136.192,4.928 L137.6,4.928 L137.6,10.192 C137.6,10.5760019 137.637333,10.8853322 137.712,11.12 C137.786667,11.3546678 137.901333,11.5359994 138.056,11.664 C138.210667,11.7920006 138.413332,11.8799998 138.664,11.928 C138.914668,11.9760002 139.215998,12 139.568,12 L140.608,12 L140.608,10.8 L139.984,10.8 C139.770666,10.8 139.597334,10.7920001 139.464,10.776 C139.330666,10.7599999 139.226667,10.7253336 139.152,10.672 C139.077333,10.6186664 139.026667,10.5440005 139,10.448 C138.973333,10.3519995 138.96,10.2240008 138.96,10.064 L138.96,4.928 L140.608,4.928 L140.608,3.728 L138.96,3.728 Z" id="Shape" fill-opacity="0.25" fill="#000000"></path>
            <path d="M9.28,5.016 L10.8,5.016 C10.7146662,4.40799696 10.5333347,3.87200232 10.256,3.408 C9.97866528,2.94399768 9.63200208,2.55733488 9.216,2.248 C8.79999792,1.93866512 8.325336,1.7040008 7.792,1.544 C7.258664,1.3839992 6.69333632,1.304 6.096,1.304 C5.22132896,1.304 4.44533672,1.46133176 3.768,1.776 C3.09066328,2.09066824 2.5253356,2.51999728 2.072,3.064 C1.6186644,3.60800272 1.27466784,4.24532968 1.04,4.976 C0.80533216,5.70667032 0.688,6.48799584 0.688,7.32 C0.688,8.15200416 0.79733224,8.93066304 1.016,9.656 C1.23466776,10.381337 1.56266448,11.010664 2,11.544 C2.43733552,12.077336 2.98666336,12.4959985 3.648,12.8 C4.30933664,13.1040015 5.08266224,13.256 5.968,13.256 C7.42934064,13.256 8.58132912,12.856004 9.424,12.056 C10.2666709,11.255996 10.7626659,10.1360072 10.912,8.696 L9.392,8.696 C9.35999984,9.16533568 9.2640008,9.60266464 9.104,10.008 C8.9439992,10.4133354 8.72266808,10.7626652 8.44,11.056 C8.15733192,11.3493348 7.82133528,11.5786658 7.432,11.744 C7.04266472,11.9093342 6.59733584,11.992 6.096,11.992 C5.41332992,11.992 4.82666912,11.8640013 4.336,11.608 C3.84533088,11.3519987 3.44266824,11.0080022 3.128,10.576 C2.81333176,10.1439978 2.58133408,9.63733624 2.432,9.056 C2.28266592,8.47466376 2.208,7.85866992 2.208,7.208 C2.208,6.61066368 2.28266592,6.03466944 2.432,5.48 C2.58133408,4.92533056 2.81333176,4.43200216 3.128,4 C3.44266824,3.56799784 3.84266424,3.22400128 4.328,2.968 C4.81333576,2.71199872 5.39732992,2.584 6.08,2.584 C6.880004,2.584 7.57066376,2.78666464 8.152,3.192 C8.73333624,3.59733536 9.10933248,4.20532928 9.28,5.016 L9.28,5.016 Z M12.656,1.576 L12.656,13 L14.016,13 L14.016,1.576 L12.656,1.576 Z M17.12,8.872 C17.12,8.37066416 17.186666,7.92533528 17.32,7.536 C17.453334,7.14666472 17.6373322,6.818668 17.872,6.552 C18.1066678,6.285332 18.3813318,6.08266736 18.696,5.944 C19.0106682,5.80533264 19.3439982,5.736 19.696,5.736 C20.0480018,5.736 20.3813318,5.80533264 20.696,5.944 C21.0106682,6.08266736 21.2853322,6.285332 21.52,6.552 C21.7546678,6.818668 21.938666,7.14666472 22.072,7.536 C22.205334,7.92533528 22.272,8.37066416 22.272,8.872 C22.272,9.37333584 22.205334,9.81866472 22.072,10.208 C21.938666,10.5973353 21.7546678,10.9226654 21.52,11.184 C21.2853322,11.4453346 21.0106682,11.6453326 20.696,11.784 C20.3813318,11.9226674 20.0480018,11.992 19.696,11.992 C19.3439982,11.992 19.0106682,11.9226674 18.696,11.784 C18.3813318,11.6453326 18.1066678,11.4453346 17.872,11.184 C17.6373322,10.9226654 17.453334,10.5973353 17.32,10.208 C17.186666,9.81866472 17.12,9.37333584 17.12,8.872 L17.12,8.872 Z M15.68,8.872 C15.68,9.48000304 15.7653325,10.0453307 15.936,10.568 C16.1066675,11.0906693 16.362665,11.5466647 16.704,11.936 C17.045335,12.3253353 17.4666642,12.6293322 17.968,12.848 C18.4693358,13.0666678 19.0453301,13.176 19.696,13.176 C20.3573366,13.176 20.9359975,13.0666678 21.432,12.848 C21.9280025,12.6293322 22.346665,12.3253353 22.688,11.936 C23.029335,11.5466647 23.2853325,11.0906693 23.456,10.568 C23.6266675,10.0453307 23.712,9.48000304 23.712,8.872 C23.712,8.26399696 23.6266675,7.69600264 23.456,7.168 C23.2853325,6.63999736 23.029335,6.18133528 22.688,5.792 C22.346665,5.40266472 21.9280025,5.09600112 21.432,4.872 C20.9359975,4.64799888 20.3573366,4.536 19.696,4.536 C19.0453301,4.536 18.4693358,4.64799888 17.968,4.872 C17.4666642,5.09600112 17.045335,5.40266472 16.704,5.792 C16.362665,6.18133528 16.1066675,6.63999736 15.936,7.168 C15.7653325,7.69600264 15.68,8.26399696 15.68,8.872 L15.68,8.872 Z M32.16,13 L32.16,4.728 L30.8,4.728 L30.8,9.4 C30.8,9.7733352 30.7493338,10.1173318 30.648,10.432 C30.5466662,10.7466682 30.3946677,11.0213322 30.192,11.256 C29.9893323,11.4906678 29.7360015,11.6719994 29.432,11.8 C29.1279985,11.9280006 28.7680021,11.992 28.352,11.992 C27.8293307,11.992 27.4186682,11.8426682 27.12,11.544 C26.8213318,11.2453318 26.672,10.8400026 26.672,10.328 L26.672,4.728 L25.312,4.728 L25.312,10.168 C25.312,10.6160022 25.3573329,11.0239982 25.448,11.392 C25.5386671,11.7600018 25.6959989,12.077332 25.92,12.344 C26.1440011,12.610668 26.4373315,12.8159993 26.8,12.96 C27.1626685,13.1040007 27.6159973,13.176 28.16,13.176 C28.768003,13.176 29.2959978,13.0560012 29.744,12.816 C30.1920022,12.5759988 30.5599986,12.2000026 30.848,11.688 L30.88,11.688 L30.88,13 L32.16,13 Z M35.2,8.936 C35.2,8.53066464 35.2426662,8.13600192 35.328,7.752 C35.4133338,7.36799808 35.551999,7.02666816 35.744,6.728 C35.936001,6.42933184 36.1919984,6.18933424 36.512,6.008 C36.8320016,5.82666576 37.221331,5.736 37.68,5.736 C38.1493357,5.736 38.5493317,5.82399912 38.88,6 C39.2106683,6.17600088 39.479999,6.40799856 39.688,6.696 C39.896001,6.98400144 40.0479995,7.31733144 40.144,7.696 C40.2400005,8.07466856 40.288,8.46666464 40.288,8.872 C40.288,9.25600192 40.2426671,9.6346648 40.152,10.008 C40.0613329,10.3813352 39.9146677,10.7146652 39.712,11.008 C39.5093323,11.3013348 39.2480016,11.5386658 38.928,11.72 C38.6079984,11.9013342 38.218669,11.992 37.76,11.992 C37.3226645,11.992 36.941335,11.9066675 36.616,11.736 C36.290665,11.5653325 36.024001,11.3360014 35.816,11.048 C35.607999,10.7599986 35.4533338,10.4320018 35.352,10.064 C35.2506662,9.69599816 35.2,9.32000192 35.2,8.936 L35.2,8.936 Z M41.6,13 L41.6,1.576 L40.24,1.576 L40.24,5.832 L40.208,5.832 C40.0586659,5.58666544 39.8746678,5.38133416 39.656,5.216 C39.4373322,5.05066584 39.2053346,4.91733384 38.96,4.816 C38.7146654,4.71466616 38.4693346,4.64266688 38.224,4.6 C37.9786654,4.55733312 37.7493344,4.536 37.536,4.536 C36.9066635,4.536 36.354669,4.65066552 35.88,4.88 C35.405331,5.10933448 35.0106682,5.41866472 34.696,5.808 C34.3813318,6.19733528 34.1466674,6.65333072 33.992,7.176 C33.8373326,7.69866928 33.76,8.2533304 33.76,8.84 C33.76,9.4266696 33.8399992,9.98133072 34,10.504 C34.1600008,11.0266693 34.3973318,11.4853314 34.712,11.88 C35.0266682,12.2746686 35.421331,12.5893322 35.896,12.824 C36.370669,13.0586678 36.9279968,13.176 37.568,13.176 C38.1440029,13.176 38.6719976,13.0746677 39.152,12.872 C39.6320024,12.6693323 39.9839989,12.338669 40.208,11.88 L40.24,11.88 L40.24,13 L41.6,13 Z M48.4,1.576 L48.4,13 L49.84,13 L49.84,3.496 L49.872,3.496 L53.44,13 L54.736,13 L58.304,3.496 L58.336,3.496 L58.336,13 L59.776,13 L59.776,1.576 L57.696,1.576 L54.08,11.176 L50.48,1.576 L48.4,1.576 Z M69.408,12.968 C69.1733322,13.1066674 68.8480021,13.176 68.432,13.176 C68.0799982,13.176 67.800001,13.0773343 67.592,12.88 C67.383999,12.6826657 67.28,12.3600022 67.28,11.912 C66.9066648,12.3600022 66.4720025,12.6826657 65.976,12.88 C65.4799975,13.0773343 64.9440029,13.176 64.368,13.176 C63.9946648,13.176 63.6400017,13.1333338 63.304,13.048 C62.9679983,12.9626662 62.6773346,12.8293342 62.432,12.648 C62.1866654,12.4666658 61.9920007,12.2293348 61.848,11.936 C61.7039993,11.6426652 61.632,11.2880021 61.632,10.872 C61.632,10.4026643 61.7119992,10.0186682 61.872,9.72 C62.0320008,9.42133184 62.2426654,9.1786676 62.504,8.992 C62.7653346,8.8053324 63.0639983,8.66400048 63.4,8.568 C63.7360017,8.47199952 64.0799982,8.39200032 64.432,8.328 C64.8053352,8.25333296 65.1599983,8.19733352 65.496,8.16 C65.8320017,8.12266648 66.1279987,8.06933368 66.384,8 C66.6400013,7.93066632 66.8426659,7.829334 66.992,7.696 C67.1413341,7.562666 67.216,7.36800128 67.216,7.112 C67.216,6.81333184 67.1600006,6.57333424 67.048,6.392 C66.9359994,6.21066576 66.7920009,6.07200048 66.616,5.976 C66.4399991,5.87999952 66.2426678,5.81600016 66.024,5.784 C65.8053322,5.75199984 65.5893344,5.736 65.376,5.736 C64.7999971,5.736 64.3200019,5.84533224 63.936,6.064 C63.5519981,6.28266776 63.3440002,6.69599696 63.312,7.304 L61.952,7.304 C61.9733334,6.79199744 62.079999,6.36000176 62.272,6.008 C62.464001,5.65599824 62.7199984,5.37066776 63.04,5.152 C63.3600016,4.93333224 63.7253313,4.77600048 64.136,4.68 C64.5466687,4.58399952 64.9866643,4.536 65.456,4.536 C65.8293352,4.536 66.1999982,4.5626664 66.568,4.616 C66.9360018,4.6693336 67.2693318,4.77866584 67.568,4.944 C67.8666682,5.10933416 68.1066658,5.34133184 68.288,5.64 C68.4693342,5.93866816 68.56,6.3279976 68.56,6.808 L68.56,11.064 C68.56,11.3840016 68.5786665,11.6186659 68.616,11.768 C68.6533335,11.9173341 68.7786656,11.992 68.992,11.992 C69.1093339,11.992 69.2479992,11.9653336 69.408,11.912 L69.408,12.968 Z M67.2,8.728 C67.0293325,8.85600064 66.8053347,8.94933304 66.528,9.008 C66.2506653,9.06666696 65.9600015,9.11466648 65.656,9.152 C65.3519985,9.18933352 65.0453349,9.23199976 64.736,9.28 C64.4266651,9.32800024 64.1493346,9.4053328 63.904,9.512 C63.6586654,9.6186672 63.4586674,9.77066568 63.304,9.968 C63.1493326,10.1653343 63.072,10.434665 63.072,10.776 C63.072,11.0000011 63.1173329,11.1893326 63.208,11.344 C63.2986671,11.4986674 63.4159993,11.6239995 63.56,11.72 C63.7040007,11.8160005 63.871999,11.8853331 64.064,11.928 C64.256001,11.9706669 64.4586656,11.992 64.672,11.992 C65.1200022,11.992 65.5039984,11.9306673 65.824,11.808 C66.1440016,11.6853327 66.4053323,11.5306676 66.608,11.344 C66.8106677,11.1573324 66.9599995,10.9546678 67.056,10.736 C67.1520005,10.5173322 67.2,10.312001 67.2,10.12 L67.2,8.728 Z M70.672,4.728 L70.672,13 L72.032,13 L72.032,8.328 C72.032,7.9546648 72.0826662,7.61066824 72.184,7.296 C72.2853338,6.98133176 72.4373323,6.70666784 72.64,6.472 C72.8426677,6.23733216 73.0959985,6.05600064 73.4,5.928 C73.7040015,5.79999936 74.0639979,5.736 74.48,5.736 C75.0026693,5.736 75.4133318,5.88533184 75.712,6.184 C76.0106682,6.48266816 76.16,6.88799744 76.16,7.4 L76.16,13 L77.52,13 L77.52,7.56 C77.52,7.11199776 77.4746671,6.70400184 77.384,6.336 C77.2933329,5.96799816 77.1360011,5.650668 76.912,5.384 C76.6879989,5.117332 76.3946685,4.90933408 76.032,4.76 C75.6693315,4.61066592 75.2160027,4.536 74.672,4.536 C73.4453272,4.536 72.5493362,5.03732832 71.984,6.04 L71.952,6.04 L71.952,4.728 L70.672,4.728 Z M86.896,12.968 C86.6613322,13.1066674 86.3360021,13.176 85.92,13.176 C85.5679982,13.176 85.288001,13.0773343 85.08,12.88 C84.871999,12.6826657 84.768,12.3600022 84.768,11.912 C84.3946648,12.3600022 83.9600025,12.6826657 83.464,12.88 C82.9679975,13.0773343 82.4320029,13.176 81.856,13.176 C81.4826648,13.176 81.1280017,13.1333338 80.792,13.048 C80.4559983,12.9626662 80.1653346,12.8293342 79.92,12.648 C79.6746654,12.4666658 79.4800007,12.2293348 79.336,11.936 C79.1919993,11.6426652 79.12,11.2880021 79.12,10.872 C79.12,10.4026643 79.1999992,10.0186682 79.36,9.72 C79.5200008,9.42133184 79.7306654,9.1786676 79.992,8.992 C80.2533346,8.8053324 80.5519983,8.66400048 80.888,8.568 C81.2240017,8.47199952 81.5679982,8.39200032 81.92,8.328 C82.2933352,8.25333296 82.6479983,8.19733352 82.984,8.16 C83.3200017,8.12266648 83.6159987,8.06933368 83.872,8 C84.1280013,7.93066632 84.3306659,7.829334 84.48,7.696 C84.6293341,7.562666 84.704,7.36800128 84.704,7.112 C84.704,6.81333184 84.6480006,6.57333424 84.536,6.392 C84.4239994,6.21066576 84.2800009,6.07200048 84.104,5.976 C83.9279991,5.87999952 83.7306678,5.81600016 83.512,5.784 C83.2933322,5.75199984 83.0773344,5.736 82.864,5.736 C82.2879971,5.736 81.8080019,5.84533224 81.424,6.064 C81.0399981,6.28266776 80.8320002,6.69599696 80.8,7.304 L79.44,7.304 C79.4613334,6.79199744 79.567999,6.36000176 79.76,6.008 C79.952001,5.65599824 80.2079984,5.37066776 80.528,5.152 C80.8480016,4.93333224 81.2133313,4.77600048 81.624,4.68 C82.0346687,4.58399952 82.4746643,4.536 82.944,4.536 C83.3173352,4.536 83.6879982,4.5626664 84.056,4.616 C84.4240018,4.6693336 84.7573318,4.77866584 85.056,4.944 C85.3546682,5.10933416 85.5946658,5.34133184 85.776,5.64 C85.9573342,5.93866816 86.048,6.3279976 86.048,6.808 L86.048,11.064 C86.048,11.3840016 86.0666665,11.6186659 86.104,11.768 C86.1413335,11.9173341 86.2666656,11.992 86.48,11.992 C86.5973339,11.992 86.7359992,11.9653336 86.896,11.912 L86.896,12.968 Z M84.688,8.728 C84.5173325,8.85600064 84.2933347,8.94933304 84.016,9.008 C83.7386653,9.06666696 83.4480015,9.11466648 83.144,9.152 C82.8399985,9.18933352 82.5333349,9.23199976 82.224,9.28 C81.9146651,9.32800024 81.6373346,9.4053328 81.392,9.512 C81.1466654,9.6186672 80.9466674,9.77066568 80.792,9.968 C80.6373326,10.1653343 80.56,10.434665 80.56,10.776 C80.56,11.0000011 80.6053329,11.1893326 80.696,11.344 C80.7866671,11.4986674 80.9039993,11.6239995 81.048,11.72 C81.1920007,11.8160005 81.359999,11.8853331 81.552,11.928 C81.744001,11.9706669 81.9466656,11.992 82.16,11.992 C82.6080022,11.992 82.9919984,11.9306673 83.312,11.808 C83.6320016,11.6853327 83.8933323,11.5306676 84.096,11.344 C84.2986677,11.1573324 84.4479995,10.9546678 84.544,10.736 C84.6400005,10.5173322 84.688,10.312001 84.688,10.12 L84.688,8.728 Z M95.296,12.296 L95.296,4.728 L94.016,4.728 L94.016,5.912 L94,5.912 C93.7546654,5.45333104 93.4133355,5.10933448 92.976,4.88 C92.5386645,4.65066552 92.0586693,4.536 91.536,4.536 C90.8213298,4.536 90.2186691,4.67199864 89.728,4.944 C89.2373309,5.21600136 88.8426682,5.56266456 88.544,5.984 C88.2453318,6.40533544 88.0320006,6.87466408 87.904,7.392 C87.7759994,7.90933592 87.712,8.41333088 87.712,8.904 C87.712,9.46933616 87.7893326,10.0053308 87.944,10.512 C88.0986674,11.0186692 88.3306651,11.4613314 88.64,11.84 C88.9493349,12.2186686 89.333331,12.5199989 89.792,12.744 C90.250669,12.9680011 90.7893302,13.08 91.408,13.08 C91.941336,13.08 92.445331,12.9600012 92.92,12.72 C93.394669,12.4799988 93.7493322,12.1040026 93.984,11.592 L94.016,11.592 L94.016,12.136 C94.016,12.594669 93.9706671,13.0159981 93.88,13.4 C93.7893329,13.7840019 93.6426677,14.1119986 93.44,14.384 C93.2373323,14.6560014 92.9813349,14.8693326 92.672,15.024 C92.3626651,15.1786674 91.9840022,15.256 91.536,15.256 C91.3119989,15.256 91.0773346,15.2320002 90.832,15.184 C90.5866654,15.1359998 90.360001,15.0586672 90.152,14.952 C89.943999,14.8453328 89.7680007,14.7066675 89.624,14.536 C89.4799993,14.3653325 89.4026667,14.1573346 89.392,13.912 L88.032,13.912 C88.0533334,14.3600022 88.1706656,14.7386651 88.384,15.048 C88.5973344,15.3573349 88.866665,15.607999 89.192,15.8 C89.517335,15.992001 89.879998,16.1306662 90.28,16.216 C90.680002,16.3013338 91.0719981,16.344 91.456,16.344 C92.7786733,16.344 93.7493302,16.0080034 94.368,15.336 C94.9866698,14.6639966 95.296,13.6506734 95.296,12.296 L95.296,12.296 Z M91.488,11.896 C91.0399978,11.896 90.6666682,11.8026676 90.368,11.616 C90.0693318,11.4293324 89.8293342,11.1840015 89.648,10.88 C89.4666658,10.5759985 89.338667,10.2373352 89.264,9.864 C89.189333,9.4906648 89.152,9.1173352 89.152,8.744 C89.152,8.34933136 89.1973329,7.97066848 89.288,7.608 C89.3786671,7.24533152 89.5226657,6.92533472 89.72,6.648 C89.9173343,6.37066528 90.1706651,6.14933416 90.48,5.984 C90.7893349,5.81866584 91.1626645,5.736 91.6,5.736 C92.0266688,5.736 92.3893318,5.82133248 92.688,5.992 C92.9866682,6.16266752 93.2293324,6.38933192 93.416,6.672 C93.6026676,6.95466808 93.7386662,7.27199824 93.824,7.624 C93.9093338,7.97600176 93.952,8.33333152 93.952,8.696 C93.952,9.08000192 93.9066671,9.46399808 93.816,9.848 C93.7253329,10.2320019 93.584001,10.5759985 93.392,10.88 C93.199999,11.1840015 92.9466682,11.4293324 92.632,11.616 C92.3173318,11.8026676 91.9360022,11.896 91.488,11.896 L91.488,11.896 Z M103.088,8.072 L98.336,8.072 C98.3573334,7.7519984 98.4266661,7.45066808 98.544,7.168 C98.6613339,6.88533192 98.8213323,6.6373344 99.024,6.424 C99.2266677,6.2106656 99.4693319,6.04266728 99.752,5.92 C100.034668,5.79733272 100.351998,5.736 100.704,5.736 C101.045335,5.736 101.357332,5.79733272 101.64,5.92 C101.922668,6.04266728 102.167999,6.20799896 102.376,6.416 C102.584001,6.62400104 102.749333,6.87199856 102.872,7.16 C102.994667,7.44800144 103.066667,7.7519984 103.088,8.072 L103.088,8.072 Z M104.4,10.376 L103.056,10.376 C102.938666,10.9200027 102.696002,11.325332 102.328,11.592 C101.959998,11.858668 101.488003,11.992 100.912,11.992 C100.463998,11.992 100.074668,11.9173341 99.744,11.768 C99.4133317,11.6186659 99.1413344,11.4186679 98.928,11.168 C98.7146656,10.9173321 98.5600005,10.629335 98.464,10.304 C98.3679995,9.97866504 98.3253333,9.63466848 98.336,9.272 L104.528,9.272 C104.549333,8.77066416 104.504001,8.24266944 104.392,7.688 C104.279999,7.13333056 104.077335,6.62133568 103.784,6.152 C103.490665,5.68266432 103.101336,5.29600152 102.616,4.992 C102.130664,4.68799848 101.520004,4.536 100.784,4.536 C100.218664,4.536 99.698669,4.6426656 99.224,4.856 C98.749331,5.0693344 98.3386684,5.36799808 97.992,5.752 C97.6453316,6.13600192 97.376001,6.58933072 97.184,7.112 C96.991999,7.63466928 96.896,8.21066352 96.896,8.84 C96.9173334,9.46933648 97.0106658,10.050664 97.176,10.584 C97.3413342,11.117336 97.5893317,11.5759981 97.92,11.96 C98.2506683,12.3440019 98.6586642,12.6426656 99.144,12.856 C99.6293358,13.0693344 100.202663,13.176 100.864,13.176 C101.802671,13.176 102.58133,12.9413357 103.2,12.472 C103.81867,12.0026643 104.218666,11.3040046 104.4,10.376 L104.4,10.376 Z M105.936,4.728 L105.936,13 L107.296,13 L107.296,7.848 C107.296,7.6879992 107.336,7.4880012 107.416,7.248 C107.496,7.0079988 107.623999,6.77600112 107.8,6.552 C107.976001,6.32799888 108.205332,6.1360008 108.488,5.976 C108.770668,5.8159992 109.109331,5.736 109.504,5.736 C109.813335,5.736 110.066666,5.78133288 110.264,5.872 C110.461334,5.96266712 110.618666,6.09066584 110.736,6.256 C110.853334,6.42133416 110.936,6.61599888 110.984,6.84 C111.032,7.06400112 111.056,7.309332 111.056,7.576 L111.056,13 L112.416,13 L112.416,7.848 C112.416,7.2079968 112.607998,6.69600192 112.992,6.312 C113.376002,5.92799808 113.903997,5.736 114.576,5.736 C114.906668,5.736 115.175999,5.78399952 115.384,5.88 C115.592001,5.97600048 115.754666,6.10666584 115.872,6.272 C115.989334,6.43733416 116.069333,6.63199888 116.112,6.856 C116.154667,7.08000112 116.176,7.31999872 116.176,7.576 L116.176,13 L117.536,13 L117.536,6.936 C117.536,6.5093312 117.469334,6.14400152 117.336,5.84 C117.202666,5.53599848 117.016001,5.28800096 116.776,5.096 C116.535999,4.90399904 116.248002,4.76266712 115.912,4.672 C115.575998,4.58133288 115.200002,4.536 114.784,4.536 C114.239997,4.536 113.741336,4.65866544 113.288,4.904 C112.834664,5.14933456 112.469335,5.49599776 112.192,5.944 C112.021332,5.43199744 111.728002,5.0693344 111.312,4.856 C110.895998,4.6426656 110.432003,4.536 109.92,4.536 C108.757328,4.536 107.86667,5.00532864 107.248,5.944 L107.216,5.944 L107.216,4.728 L105.936,4.728 Z M125.328,8.072 L120.576,8.072 C120.597333,7.7519984 120.666666,7.45066808 120.784,7.168 C120.901334,6.88533192 121.061332,6.6373344 121.264,6.424 C121.466668,6.2106656 121.709332,6.04266728 121.992,5.92 C122.274668,5.79733272 122.591998,5.736 122.944,5.736 C123.285335,5.736 123.597332,5.79733272 123.88,5.92 C124.162668,6.04266728 124.407999,6.20799896 124.616,6.416 C124.824001,6.62400104 124.989333,6.87199856 125.112,7.16 C125.234667,7.44800144 125.306667,7.7519984 125.328,8.072 L125.328,8.072 Z M126.64,10.376 L125.296,10.376 C125.178666,10.9200027 124.936002,11.325332 124.568,11.592 C124.199998,11.858668 123.728003,11.992 123.152,11.992 C122.703998,11.992 122.314668,11.9173341 121.984,11.768 C121.653332,11.6186659 121.381334,11.4186679 121.168,11.168 C120.954666,10.9173321 120.8,10.629335 120.704,10.304 C120.608,9.97866504 120.565333,9.63466848 120.576,9.272 L126.768,9.272 C126.789333,8.77066416 126.744001,8.24266944 126.632,7.688 C126.519999,7.13333056 126.317335,6.62133568 126.024,6.152 C125.730665,5.68266432 125.341336,5.29600152 124.856,4.992 C124.370664,4.68799848 123.760004,4.536 123.024,4.536 C122.458664,4.536 121.938669,4.6426656 121.464,4.856 C120.989331,5.0693344 120.578668,5.36799808 120.232,5.752 C119.885332,6.13600192 119.616001,6.58933072 119.424,7.112 C119.231999,7.63466928 119.136,8.21066352 119.136,8.84 C119.157333,9.46933648 119.250666,10.050664 119.416,10.584 C119.581334,11.117336 119.829332,11.5759981 120.16,11.96 C120.490668,12.3440019 120.898664,12.6426656 121.384,12.856 C121.869336,13.0693344 122.442663,13.176 123.104,13.176 C124.042671,13.176 124.82133,12.9413357 125.44,12.472 C126.05867,12.0026643 126.458666,11.3040046 126.64,10.376 L126.64,10.376 Z M128.176,4.728 L128.176,13 L129.536,13 L129.536,8.328 C129.536,7.9546648 129.586666,7.61066824 129.688,7.296 C129.789334,6.98133176 129.941332,6.70666784 130.144,6.472 C130.346668,6.23733216 130.599998,6.05600064 130.904,5.928 C131.208002,5.79999936 131.567998,5.736 131.984,5.736 C132.506669,5.736 132.917332,5.88533184 133.216,6.184 C133.514668,6.48266816 133.664,6.88799744 133.664,7.4 L133.664,13 L135.024,13 L135.024,7.56 C135.024,7.11199776 134.978667,6.70400184 134.888,6.336 C134.797333,5.96799816 134.640001,5.650668 134.416,5.384 C134.191999,5.117332 133.898668,4.90933408 133.536,4.76 C133.173332,4.61066592 132.720003,4.536 132.176,4.536 C130.949327,4.536 130.053336,5.03732832 129.488,6.04 L129.456,6.04 L129.456,4.728 L128.176,4.728 Z M138.96,4.728 L138.96,2.248 L137.6,2.248 L137.6,4.728 L136.192,4.728 L136.192,5.928 L137.6,5.928 L137.6,11.192 C137.6,11.5760019 137.637333,11.8853322 137.712,12.12 C137.786667,12.3546678 137.901333,12.5359994 138.056,12.664 C138.210667,12.7920006 138.413332,12.8799998 138.664,12.928 C138.914668,12.9760002 139.215998,13 139.568,13 L140.608,13 L140.608,11.8 L139.984,11.8 C139.770666,11.8 139.597334,11.7920001 139.464,11.776 C139.330666,11.7599999 139.226667,11.7253336 139.152,11.672 C139.077333,11.6186664 139.026667,11.5440005 139,11.448 C138.973333,11.3519995 138.96,11.2240008 138.96,11.064 L138.96,5.928 L140.608,5.928 L140.608,4.728 L138.96,4.728 Z" id="Shape" fill="#FFFFFF"></path>
        </g>
        <g id="Group">
            <path d="M70.3,7.10542736e-15 L64.1,7.10542736e-15 C63.5,7.10542736e-15 63,0.2 62.6,0.6 C62.2,1 62,1.5 62,2.1 L62,10.9 C62,11.5 62.2,12 62.6,12.4 C63,12.8 63.5,13 64.1,13 L70.3,13 C70.9,13 71.4,12.8 71.8,12.4 C72.2,12 72.4,11.5 72.4,10.9 L72.4,10.3 L64.7,10.3 L64.7,2.7 L72.4,2.7 L72.4,2.1 C72.4,1.5 72.2,1 71.8,0.6 C71.4,0.2 70.9,7.10542736e-15 70.3,7.10542736e-15 L70.3,7.10542736e-15 Z M82,7.10542736e-15 L75.8,7.10542736e-15 C75.2,7.10542736e-15 74.7,0.2 74.3,0.6 C73.9,1 73.7,1.5 73.7,2.1 L73.7,2.7 L81.5,2.7 L81.5,5.2 L75.9,5.2 C75.3,5.2 74.8,5.4 74.4,5.8 C74,6.2 73.8,6.7 73.8,7.3 L73.8,10.9 C73.8,11.5 74,12 74.4,12.4 C74.8,12.8 75.3,13 75.9,13 L82,13 C82.6,13 83.1,12.8 83.5,12.4 C83.9,12 84.1,11.5 84.1,10.9 L84.1,2.1 C84.1,1.5 83.9,1 83.5,0.6 C83.1,0.2 82.6,7.10542736e-15 82,7.10542736e-15 L82,7.10542736e-15 Z M81.4,10.3 L76.4,10.3 L76.4,7.8 L81.4,7.8 L81.4,10.3 L81.4,10.3 Z M90.6,10.3 L88,10.3 L88,2.1 C88,1.5 87.8,1 87.4,0.6 C87,0.2 86.5,7.10542736e-15 85.9,7.10542736e-15 L85.3,7.10542736e-15 L85.3,10.9 C85.3,11.5 85.5,12 85.9,12.4 C86.3,12.8 86.8,13 87.4,13 L91,13 C91.6,13 92.1,12.8 92.5,12.4 C92.9,12 93.1,11.5 93.1,10.9 L93.1,10.3 L90.6,10.3 L90.6,10.3 Z M102.8,7.8 C103.4,7.8 103.9,7.6 104.3,7.2 C104.7,6.8 104.9,6.3 104.9,5.7 L104.9,2.1 C104.9,1.5 104.7,1 104.3,0.6 C103.9,0.2 103.4,7.10542736e-15 102.8,7.10542736e-15 L96.6,7.10542736e-15 C96,7.10542736e-15 95.5,0.2 95.1,0.6 C94.7,1 94.5,1.5 94.5,2.1 L94.5,10.9 C94.5,11.5 94.7,12 95.1,12.4 C95.5,12.8 96,13 96.6,13 L102.8,13 C103.4,13 103.9,12.8 104.3,12.4 C104.7,12 104.9,11.5 104.9,10.9 L104.9,10.3 L97.1,10.3 L97.1,7.8 L102.8,7.8 L102.8,7.8 Z M97.1,2.7 L102.1,2.7 L102.1,5.2 L97.1,5.2 L97.1,2.7 L97.1,2.7 Z M58.7,7.10542736e-15 L52.5,7.10542736e-15 C51.9,7.10542736e-15 51.4,0.2 51,0.6 C50.6,1 50.4,1.5 50.4,2.1 L50.4,5.7 C50.4,6.3 50.6,6.8 51,7.2 C51.4,7.6 51.9,7.8 52.5,7.8 L58.1,7.8 L58.1,10.3 L50.4,10.3 L50.4,10.9 C50.4,11.5 50.6,12 51,12.4 C51.4,12.8 51.9,13 52.5,13 L58.7,13 C59.3,13 59.8,12.8 60.2,12.4 C60.6,12 60.8,11.5 60.8,10.9 L60.8,7.3 C60.8,6.7 60.6,6.2 60.2,5.8 C59.8,5.4 59.3,5.2 58.7,5.2 L53.1,5.2 L53.1,2.7 L60.9,2.7 L60.9,2.1 C60.9,1.5 60.7,1 60.3,0.6 C59.8,0.2 59.2,7.10542736e-15 58.7,7.10542736e-15 L58.7,7.10542736e-15 Z M8.3,1.42108547e-14 L0,1.42108547e-14 L0,13 L2.7,13 L2.7,10.4 L7.7,10.4 L7.7,10.9 C7.7,11.5 7.9,12 8.3,12.4 C8.8,12.8 9.3,13 9.8,13 L10.4,13 L10.4,9.9 C10.4,9.3 10.2,8.8 9.8,8.4 C9.5,8.1 9.2,7.9 8.8,7.8 C9.2,7.7 9.5,7.5 9.8,7.2 C10.2,6.8 10.4,6.3 10.4,5.7 L10.4,2.1 C10.4,1.5 10.2,1 9.8,0.6 C9.4,0.2 8.9,7.10542736e-15 8.3,7.10542736e-15 L8.3,1.42108547e-14 Z M7.7,7.7 L2.7,7.7 L2.7,2.7 L7.7,2.7 L7.7,7.7 L7.7,7.7 Z M12.2,3.1 L11.6,3.1 L11.6,13 L14.3,13 L14.3,5.3 C14.3,4.7 14.1,4.2 13.7,3.8 C13.3,3.3 12.8,3.1 12.2,3.1 L12.2,3.1 Z M16.2,0.6 C15.8,1 15.6,1.5 15.6,2.1 L15.6,10.9 C15.6,11.5 15.8,12 16.2,12.4 C16.6,12.8 17.1,13 17.7,13 L23.9,13 C24.5,13 25,12.8 25.4,12.4 C25.8,12 26,11.5 26,10.9 L26,5.2 L23.3,5.2 L23.3,10.4 L18.3,10.4 L18.3,2.7 L26,2.7 L26,7.10542736e-15 L17.7,7.10542736e-15 C17.1,7.10542736e-15 16.6,0.2 16.2,0.6 L16.2,0.6 Z M35,5.2 L30,5.2 L30,7.10542736e-15 L27.3,7.10542736e-15 L27.3,13 L30,13 L30,7.8 L35,7.8 L35,13 L37.7,13 L37.7,7.10542736e-15 L35,7.10542736e-15 L35,5.2 L35,5.2 Z M38.9,1.0658141e-14 L38.9,2.7 L41.5,2.7 L41.5,13 L42.1,13 C42.7,13 43.2,12.8 43.6,12.4 C44,12 44.2,11.5 44.2,10.9 L44.2,2.7 L46.8,2.7 L46.8,7.10542736e-15 L38.9,7.10542736e-15 L38.9,1.0658141e-14 Z" id="Shape" fill="#000000" opacity="0.25"></path>
            <path d="M70.3,1 L64.1,1 C63.5,1 63,1.2 62.6,1.6 C62.2,2 62,2.5 62,3.1 L62,11.9 C62,12.5 62.2,13 62.6,13.4 C63,13.8 63.5,14 64.1,14 L70.3,14 C70.9,14 71.4,13.8 71.8,13.4 C72.2,13 72.4,12.5 72.4,11.9 L72.4,11.3 L64.7,11.3 L64.7,3.7 L72.4,3.7 L72.4,3.1 C72.4,2.5 72.2,2 71.8,1.6 C71.4,1.2 70.9,1 70.3,1 L70.3,1 Z M82,1 L75.8,1 C75.2,1 74.7,1.2 74.3,1.6 C73.9,2 73.7,2.5 73.7,3.1 L73.7,3.7 L81.5,3.7 L81.5,6.2 L75.9,6.2 C75.3,6.2 74.8,6.4 74.4,6.8 C74,7.2 73.8,7.7 73.8,8.3 L73.8,11.9 C73.8,12.5 74,13 74.4,13.4 C74.8,13.8 75.3,14 75.9,14 L82,14 C82.6,14 83.1,13.8 83.5,13.4 C83.9,13 84.1,12.5 84.1,11.9 L84.1,3.1 C84.1,2.5 83.9,2 83.5,1.6 C83.1,1.2 82.6,1 82,1 L82,1 Z M81.4,11.3 L76.4,11.3 L76.4,8.8 L81.4,8.8 L81.4,11.3 L81.4,11.3 Z M90.6,11.3 L88,11.3 L88,3.1 C88,2.5 87.8,2 87.4,1.6 C87,1.2 86.5,1 85.9,1 L85.3,1 L85.3,11.9 C85.3,12.5 85.5,13 85.9,13.4 C86.3,13.8 86.8,14 87.4,14 L91,14 C91.6,14 92.1,13.8 92.5,13.4 C92.9,13 93.1,12.5 93.1,11.9 L93.1,11.3 L90.6,11.3 L90.6,11.3 Z M102.8,8.8 C103.4,8.8 103.9,8.6 104.3,8.2 C104.7,7.8 104.9,7.3 104.9,6.7 L104.9,3.1 C104.9,2.5 104.7,2 104.3,1.6 C103.9,1.2 103.4,1 102.8,1 L96.6,1 C96,1 95.5,1.2 95.1,1.6 C94.7,2 94.5,2.5 94.5,3.1 L94.5,11.9 C94.5,12.5 94.7,13 95.1,13.4 C95.5,13.8 96,14 96.6,14 L102.8,14 C103.4,14 103.9,13.8 104.3,13.4 C104.7,13 104.9,12.5 104.9,11.9 L104.9,11.3 L97.1,11.3 L97.1,8.8 L102.8,8.8 L102.8,8.8 Z M97.1,3.7 L102.1,3.7 L102.1,6.2 L97.1,6.2 L97.1,3.7 L97.1,3.7 Z M58.7,1 L52.5,1 C51.9,1 51.4,1.2 51,1.6 C50.6,2 50.4,2.5 50.4,3.1 L50.4,6.7 C50.4,7.3 50.6,7.8 51,8.2 C51.4,8.6 51.9,8.8 52.5,8.8 L58.1,8.8 L58.1,11.3 L50.4,11.3 L50.4,11.9 C50.4,12.5 50.6,13 51,13.4 C51.4,13.8 51.9,14 52.5,14 L58.7,14 C59.3,14 59.8,13.8 60.2,13.4 C60.6,13 60.8,12.5 60.8,11.9 L60.8,8.3 C60.8,7.7 60.6,7.2 60.2,6.8 C59.8,6.4 59.3,6.2 58.7,6.2 L53.1,6.2 L53.1,3.7 L60.9,3.7 L60.9,3.1 C60.9,2.5 60.7,2 60.3,1.6 C59.8,1.2 59.2,1 58.7,1 L58.7,1 Z M8.3,1 L0,1 L0,14 L2.7,14 L2.7,11.4 L7.7,11.4 L7.7,11.9 C7.7,12.5 7.9,13 8.3,13.4 C8.8,13.8 9.3,14 9.8,14 L10.4,14 L10.4,10.9 C10.4,10.3 10.2,9.8 9.8,9.4 C9.5,9.1 9.2,8.9 8.8,8.8 C9.2,8.7 9.5,8.5 9.8,8.2 C10.2,7.8 10.4,7.3 10.4,6.7 L10.4,3.1 C10.4,2.5 10.2,2 9.8,1.6 C9.4,1.2 8.9,1 8.3,1 L8.3,1 Z M7.7,8.7 L2.7,8.7 L2.7,3.7 L7.7,3.7 L7.7,8.7 L7.7,8.7 Z M12.2,4.1 L11.6,4.1 L11.6,14 L14.3,14 L14.3,6.3 C14.3,5.7 14.1,5.2 13.7,4.8 C13.3,4.3 12.8,4.1 12.2,4.1 L12.2,4.1 Z M16.2,1.6 C15.8,2 15.6,2.5 15.6,3.1 L15.6,11.9 C15.6,12.5 15.8,13 16.2,13.4 C16.6,13.8 17.1,14 17.7,14 L23.9,14 C24.5,14 25,13.8 25.4,13.4 C25.8,13 26,12.5 26,11.9 L26,6.2 L23.3,6.2 L23.3,11.4 L18.3,11.4 L18.3,3.7 L26,3.7 L26,1 L17.7,1 C17.1,1 16.6,1.2 16.2,1.6 L16.2,1.6 Z M35,6.2 L30,6.2 L30,1 L27.3,1 L27.3,14 L30,14 L30,8.8 L35,8.8 L35,14 L37.7,14 L37.7,1 L35,1 L35,6.2 L35,6.2 Z M38.9,1 L38.9,3.7 L41.5,3.7 L41.5,14 L42.1,14 C42.7,14 43.2,13.8 43.6,13.4 C44,13 44.2,12.5 44.2,11.9 L44.2,3.7 L46.8,3.7 L46.8,1 L38.9,1 L38.9,1 Z" id="Shape" fill="#FFFFFF"></path>
            <path d="M11.7,0.6 C11.7,1.2 11.9,1.7 12.3,2.1 C12.7,2.5 13.2,2.7 13.8,2.7 L14.4,2.7 L14.4,0 L11.7,0 L11.7,0.6 L11.7,0.6 Z" id="Shape" fill="#000000" opacity="0.25"></path>
            <path d="M11.7,1.6 C11.7,2.2 11.9,2.7 12.3,3.1 C12.7,3.5 13.2,3.7 13.8,3.7 L14.4,3.7 L14.4,1 L11.7,1 L11.7,1.6 L11.7,1.6 Z" id="Shape" fill="#F3A02D"></path>
        </g>
    </g>
</svg>
