<svg width="148px" height="16px" viewBox="126 125 148 16" version="1.1" xmlns="http://www.w3.org/2000/svg" xmlns:xlink="http://www.w3.org/1999/xlink">
    <!-- Generator: Sketch 42 (36781) - http://www.bohemiancoding.com/sketch -->
    <desc>Created with Sketch.</desc>
    <defs></defs>
    <g id="Docs-logo" stroke="none" stroke-width="1" fill="none" fill-rule="evenodd" transform="translate(126.000000, 126.000000)">
        <path d="M70.3,-7.10542736e-15 L64.1,-7.10542736e-15 C63.5,-7.10542736e-15 63,0.2 62.6,0.6 C62.2,1 62,1.5 62,2.1 L62,10.9 C62,11.5 62.2,12 62.6,12.4 C63,12.8 63.5,13 64.1,13 L70.3,13 C70.9,13 71.4,12.8 71.8,12.4 C72.2,12 72.4,11.5 72.4,10.9 L72.4,10.3 L64.7,10.3 L64.7,2.7 L72.4,2.7 L72.4,2.1 C72.4,1.5 72.2,1 71.8,0.6 C71.4,0.2 70.9,-7.10542736e-15 70.3,-7.10542736e-15 L70.3,-7.10542736e-15 Z M82,-7.10542736e-15 L75.8,-7.10542736e-15 C75.2,-7.10542736e-15 74.7,0.2 74.3,0.6 C73.9,1 73.7,1.5 73.7,2.1 L73.7,2.7 L81.5,2.7 L81.5,5.2 L75.9,5.2 C75.3,5.2 74.8,5.4 74.4,5.8 C74,6.2 73.8,6.7 73.8,7.3 L73.8,10.9 C73.8,11.5 74,12 74.4,12.4 C74.8,12.8 75.3,13 75.9,13 L82,13 C82.6,13 83.1,12.8 83.5,12.4 C83.9,12 84.1,11.5 84.1,10.9 L84.1,2.1 C84.1,1.5 83.9,1 83.5,0.6 C83.1,0.2 82.6,-7.10542736e-15 82,-7.10542736e-15 L82,-7.10542736e-15 Z M81.4,10.3 L76.4,10.3 L76.4,7.8 L81.4,7.8 L81.4,10.3 L81.4,10.3 Z M90.6,10.3 L88,10.3 L88,2.1 C88,1.5 87.8,1 87.4,0.6 C87,0.2 86.5,-7.10542736e-15 85.9,-7.10542736e-15 L85.3,-7.10542736e-15 L85.3,10.9 C85.3,11.5 85.5,12 85.9,12.4 C86.3,12.8 86.8,13 87.4,13 L91,13 C91.6,13 92.1,12.8 92.5,12.4 C92.9,12 93.1,11.5 93.1,10.9 L93.1,10.3 L90.6,10.3 L90.6,10.3 Z M102.8,7.8 C103.4,7.8 103.9,7.6 104.3,7.2 C104.7,6.8 104.9,6.3 104.9,5.7 L104.9,2.1 C104.9,1.5 104.7,1 104.3,0.6 C103.9,0.2 103.4,-7.10542736e-15 102.8,-7.10542736e-15 L96.6,-7.10542736e-15 C96,-7.10542736e-15 95.5,0.2 95.1,0.6 C94.7,1 94.5,1.5 94.5,2.1 L94.5,10.9 C94.5,11.5 94.7,12 95.1,12.4 C95.5,12.8 96,13 96.6,13 L102.8,13 C103.4,13 103.9,12.8 104.3,12.4 C104.7,12 104.9,11.5 104.9,10.9 L104.9,10.3 L97.1,10.3 L97.1,7.8 L102.8,7.8 L102.8,7.8 Z M97.1,2.7 L102.1,2.7 L102.1,5.2 L97.1,5.2 L97.1,2.7 L97.1,2.7 Z M58.7,-7.10542736e-15 L52.5,-7.10542736e-15 C51.9,-7.10542736e-15 51.4,0.2 51,0.6 C50.6,1 50.4,1.5 50.4,2.1 L50.4,5.7 C50.4,6.3 50.6,6.8 51,7.2 C51.4,7.6 51.9,7.8 52.5,7.8 L58.1,7.8 L58.1,10.3 L50.4,10.3 L50.4,10.9 C50.4,11.5 50.6,12 51,12.4 C51.4,12.8 51.9,13 52.5,13 L58.7,13 C59.3,13 59.8,12.8 60.2,12.4 C60.6,12 60.8,11.5 60.8,10.9 L60.8,7.3 C60.8,6.7 60.6,6.2 60.2,5.8 C59.8,5.4 59.3,5.2 58.7,5.2 L53.1,5.2 L53.1,2.7 L60.9,2.7 L60.9,2.1 C60.9,1.5 60.7,1 60.3,0.6 C59.8,0.2 59.2,-7.10542736e-15 58.7,-7.10542736e-15 L58.7,-7.10542736e-15 Z M8.3,1.57772181e-30 L0,1.57772181e-30 L0,13 L2.7,13 L2.7,10.4 L7.7,10.4 L7.7,10.9 C7.7,11.5 7.9,12 8.3,12.4 C8.8,12.8 9.3,13 9.8,13 L10.4,13 L10.4,9.9 C10.4,9.3 10.2,8.8 9.8,8.4 C9.5,8.1 9.2,7.9 8.8,7.8 C9.2,7.7 9.5,7.5 9.8,7.2 C10.2,6.8 10.4,6.3 10.4,5.7 L10.4,2.1 C10.4,1.5 10.2,1 9.8,0.6 C9.4,0.2 8.9,-7.10542736e-15 8.3,-7.10542736e-15 L8.3,1.57772181e-30 Z M7.7,7.7 L2.7,7.7 L2.7,2.7 L7.7,2.7 L7.7,7.7 L7.7,7.7 Z M12.2,3.1 L11.6,3.1 L11.6,13 L14.3,13 L14.3,5.3 C14.3,4.7 14.1,4.2 13.7,3.8 C13.3,3.3 12.8,3.1 12.2,3.1 L12.2,3.1 Z M16.2,0.6 C15.8,1 15.6,1.5 15.6,2.1 L15.6,10.9 C15.6,11.5 15.8,12 16.2,12.4 C16.6,12.8 17.1,13 17.7,13 L23.9,13 C24.5,13 25,12.8 25.4,12.4 C25.8,12 26,11.5 26,10.9 L26,5.2 L23.3,5.2 L23.3,10.4 L18.3,10.4 L18.3,2.7 L26,2.7 L26,-7.10542736e-15 L17.7,-7.10542736e-15 C17.1,-7.10542736e-15 16.6,0.2 16.2,0.6 L16.2,0.6 Z M35,5.2 L30,5.2 L30,-7.10542736e-15 L27.3,-7.10542736e-15 L27.3,13 L30,13 L30,7.8 L35,7.8 L35,13 L37.7,13 L37.7,-7.10542736e-15 L35,-7.10542736e-15 L35,5.2 L35,5.2 Z M38.9,-3.55271368e-15 L38.9,2.7 L41.5,2.7 L41.5,13 L42.1,13 C42.7,13 43.2,12.8 43.6,12.4 C44,12 44.2,11.5 44.2,10.9 L44.2,2.7 L46.8,2.7 L46.8,-7.10542736e-15 L38.9,-7.10542736e-15 L38.9,-3.55271368e-15 Z" id="Shape" fill="#000000" opacity="0.25"></path>
        <path d="M70.3,1 L64.1,1 C63.5,1 63,1.2 62.6,1.6 C62.2,2 62,2.5 62,3.1 L62,11.9 C62,12.5 62.2,13 62.6,13.4 C63,13.8 63.5,14 64.1,14 L70.3,14 C70.9,14 71.4,13.8 71.8,13.4 C72.2,13 72.4,12.5 72.4,11.9 L72.4,11.3 L64.7,11.3 L64.7,3.7 L72.4,3.7 L72.4,3.1 C72.4,2.5 72.2,2 71.8,1.6 C71.4,1.2 70.9,1 70.3,1 L70.3,1 Z M82,1 L75.8,1 C75.2,1 74.7,1.2 74.3,1.6 C73.9,2 73.7,2.5 73.7,3.1 L73.7,3.7 L81.5,3.7 L81.5,6.2 L75.9,6.2 C75.3,6.2 74.8,6.4 74.4,6.8 C74,7.2 73.8,7.7 73.8,8.3 L73.8,11.9 C73.8,12.5 74,13 74.4,13.4 C74.8,13.8 75.3,14 75.9,14 L82,14 C82.6,14 83.1,13.8 83.5,13.4 C83.9,13 84.1,12.5 84.1,11.9 L84.1,3.1 C84.1,2.5 83.9,2 83.5,1.6 C83.1,1.2 82.6,1 82,1 L82,1 Z M81.4,11.3 L76.4,11.3 L76.4,8.8 L81.4,8.8 L81.4,11.3 L81.4,11.3 Z M90.6,11.3 L88,11.3 L88,3.1 C88,2.5 87.8,2 87.4,1.6 C87,1.2 86.5,1 85.9,1 L85.3,1 L85.3,11.9 C85.3,12.5 85.5,13 85.9,13.4 C86.3,13.8 86.8,14 87.4,14 L91,14 C91.6,14 92.1,13.8 92.5,13.4 C92.9,13 93.1,12.5 93.1,11.9 L93.1,11.3 L90.6,11.3 L90.6,11.3 Z M102.8,8.8 C103.4,8.8 103.9,8.6 104.3,8.2 C104.7,7.8 104.9,7.3 104.9,6.7 L104.9,3.1 C104.9,2.5 104.7,2 104.3,1.6 C103.9,1.2 103.4,1 102.8,1 L96.6,1 C96,1 95.5,1.2 95.1,1.6 C94.7,2 94.5,2.5 94.5,3.1 L94.5,11.9 C94.5,12.5 94.7,13 95.1,13.4 C95.5,13.8 96,14 96.6,14 L102.8,14 C103.4,14 103.9,13.8 104.3,13.4 C104.7,13 104.9,12.5 104.9,11.9 L104.9,11.3 L97.1,11.3 L97.1,8.8 L102.8,8.8 L102.8,8.8 Z M97.1,3.7 L102.1,3.7 L102.1,6.2 L97.1,6.2 L97.1,3.7 L97.1,3.7 Z M58.7,1 L52.5,1 C51.9,1 51.4,1.2 51,1.6 C50.6,2 50.4,2.5 50.4,3.1 L50.4,6.7 C50.4,7.3 50.6,7.8 51,8.2 C51.4,8.6 51.9,8.8 52.5,8.8 L58.1,8.8 L58.1,11.3 L50.4,11.3 L50.4,11.9 C50.4,12.5 50.6,13 51,13.4 C51.4,13.8 51.9,14 52.5,14 L58.7,14 C59.3,14 59.8,13.8 60.2,13.4 C60.6,13 60.8,12.5 60.8,11.9 L60.8,8.3 C60.8,7.7 60.6,7.2 60.2,6.8 C59.8,6.4 59.3,6.2 58.7,6.2 L53.1,6.2 L53.1,3.7 L60.9,3.7 L60.9,3.1 C60.9,2.5 60.7,2 60.3,1.6 C59.8,1.2 59.2,1 58.7,1 L58.7,1 Z M8.3,1 L0,1 L0,14 L2.7,14 L2.7,11.4 L7.7,11.4 L7.7,11.9 C7.7,12.5 7.9,13 8.3,13.4 C8.8,13.8 9.3,14 9.8,14 L10.4,14 L10.4,10.9 C10.4,10.3 10.2,9.8 9.8,9.4 C9.5,9.1 9.2,8.9 8.8,8.8 C9.2,8.7 9.5,8.5 9.8,8.2 C10.2,7.8 10.4,7.3 10.4,6.7 L10.4,3.1 C10.4,2.5 10.2,2 9.8,1.6 C9.4,1.2 8.9,1 8.3,1 L8.3,1 Z M7.7,8.7 L2.7,8.7 L2.7,3.7 L7.7,3.7 L7.7,8.7 L7.7,8.7 Z M12.2,4.1 L11.6,4.1 L11.6,14 L14.3,14 L14.3,6.3 C14.3,5.7 14.1,5.2 13.7,4.8 C13.3,4.3 12.8,4.1 12.2,4.1 L12.2,4.1 Z M16.2,1.6 C15.8,2 15.6,2.5 15.6,3.1 L15.6,11.9 C15.6,12.5 15.8,13 16.2,13.4 C16.6,13.8 17.1,14 17.7,14 L23.9,14 C24.5,14 25,13.8 25.4,13.4 C25.8,13 26,12.5 26,11.9 L26,6.2 L23.3,6.2 L23.3,11.4 L18.3,11.4 L18.3,3.7 L26,3.7 L26,1 L17.7,1 C17.1,1 16.6,1.2 16.2,1.6 L16.2,1.6 Z M35,6.2 L30,6.2 L30,1 L27.3,1 L27.3,14 L30,14 L30,8.8 L35,8.8 L35,14 L37.7,14 L37.7,1 L35,1 L35,6.2 L35,6.2 Z M38.9,1 L38.9,3.7 L41.5,3.7 L41.5,14 L42.1,14 C42.7,14 43.2,13.8 43.6,13.4 C44,13 44.2,12.5 44.2,11.9 L44.2,3.7 L46.8,3.7 L46.8,1 L38.9,1 L38.9,1 Z" id="Shape" fill="#FFFFFF"></path>
        <path d="M11.7,0.6 C11.7,1.2 11.9,1.7 12.3,2.1 C12.7,2.5 13.2,2.7 13.8,2.7 L14.4,2.7 L14.4,0 L11.7,0 L11.7,0.6 L11.7,0.6 Z" id="Shape" fill="#000000" opacity="0.25"></path>
        <path d="M11.7,1.6 C11.7,2.2 11.9,2.7 12.3,3.1 C12.7,3.5 13.2,3.7 13.8,3.7 L14.4,3.7 L14.4,1 L11.7,1 L11.7,1.6 L11.7,1.6 Z" id="Shape" fill="#F3A02D"></path>
        <g id="Group" transform="translate(112.000000, 0.000000)">
            <path d="M1.768,10.72 L1.768,1.856 L4.328,1.856 C5.03200352,1.856 5.6239976,1.95466568 6.104,2.152 C6.5840024,2.34933432 6.97599848,2.63733144 7.28,3.016 C7.58400152,3.39466856 7.802666,3.85333064 7.936,4.392 C8.069334,4.93066936 8.136,5.54132992 8.136,6.224 C8.136,6.92800352 8.06400072,7.52799752 7.92,8.024 C7.77599928,8.52000248 7.59200112,8.93333168 7.368,9.264 C7.14399888,9.59466832 6.89066808,9.85599904 6.608,10.048 C6.32533192,10.240001 6.04000144,10.3866662 5.752,10.488 C5.46399856,10.5893338 5.19200128,10.6533332 4.936,10.68 C4.67999872,10.7066668 4.46666752,10.72 4.296,10.72 L1.768,10.72 Z M0.248,0.576 L0.248,12 L4.168,12 C5.11733808,12 5.9386632,11.866668 6.632,11.6 C7.3253368,11.333332 7.89599776,10.9466692 8.344,10.44 C8.79200224,9.9333308 9.1226656,9.30933704 9.336,8.568 C9.5493344,7.82666296 9.656,6.9760048 9.656,6.016 C9.656,4.18132416 9.18133808,2.81600448 8.232,1.92 C7.28266192,1.02399552 5.9280088,0.576 4.168,0.576 L0.248,0.576 Z M12.28,7.872 C12.28,7.37066416 12.346666,6.92533528 12.48,6.536 C12.613334,6.14666472 12.7973322,5.818668 13.032,5.552 C13.2666678,5.285332 13.5413318,5.08266736 13.856,4.944 C14.1706682,4.80533264 14.5039982,4.736 14.856,4.736 C15.2080018,4.736 15.5413318,4.80533264 15.856,4.944 C16.1706682,5.08266736 16.4453322,5.285332 16.68,5.552 C16.9146678,5.818668 17.098666,6.14666472 17.232,6.536 C17.365334,6.92533528 17.432,7.37066416 17.432,7.872 C17.432,8.37333584 17.365334,8.81866472 17.232,9.208 C17.098666,9.59733528 16.9146678,9.92266536 16.68,10.184 C16.4453322,10.4453346 16.1706682,10.6453326 15.856,10.784 C15.5413318,10.9226674 15.2080018,10.992 14.856,10.992 C14.5039982,10.992 14.1706682,10.9226674 13.856,10.784 C13.5413318,10.6453326 13.2666678,10.4453346 13.032,10.184 C12.7973322,9.92266536 12.613334,9.59733528 12.48,9.208 C12.346666,8.81866472 12.28,8.37333584 12.28,7.872 L12.28,7.872 Z M10.84,7.872 C10.84,8.48000304 10.9253325,9.04533072 11.096,9.568 C11.2666675,10.0906693 11.522665,10.5466647 11.864,10.936 C12.205335,11.3253353 12.6266642,11.6293322 13.128,11.848 C13.6293358,12.0666678 14.2053301,12.176 14.856,12.176 C15.5173366,12.176 16.0959975,12.0666678 16.592,11.848 C17.0880025,11.6293322 17.506665,11.3253353 17.848,10.936 C18.189335,10.5466647 18.4453325,10.0906693 18.616,9.568 C18.7866675,9.04533072 18.872,8.48000304 18.872,7.872 C18.872,7.26399696 18.7866675,6.69600264 18.616,6.168 C18.4453325,5.63999736 18.189335,5.18133528 17.848,4.792 C17.506665,4.40266472 17.0880025,4.09600112 16.592,3.872 C16.0959975,3.64799888 15.5173366,3.536 14.856,3.536 C14.2053301,3.536 13.6293358,3.64799888 13.128,3.872 C12.6266642,4.09600112 12.205335,4.40266472 11.864,4.792 C11.522665,5.18133528 11.2666675,5.63999736 11.096,6.168 C10.9253325,6.69600264 10.84,7.26399696 10.84,7.872 L10.84,7.872 Z M26.088,6.384 L27.496,6.384 C27.4426664,5.89333088 27.3146677,5.46933512 27.112,5.112 C26.9093323,4.75466488 26.6506682,4.45866784 26.336,4.224 C26.0213318,3.98933216 25.6586687,3.81600056 25.248,3.704 C24.8373313,3.59199944 24.3973357,3.536 23.928,3.536 C23.2773301,3.536 22.7066691,3.65066552 22.216,3.88 C21.7253309,4.10933448 21.317335,4.423998 20.992,4.824 C20.666665,5.224002 20.4240008,5.69333064 20.264,6.232 C20.1039992,6.77066936 20.024,7.34933024 20.024,7.968 C20.024,8.58666976 20.1066658,9.15466408 20.272,9.672 C20.4373342,10.1893359 20.682665,10.6346648 21.008,11.008 C21.333335,11.3813352 21.7386642,11.6693323 22.224,11.872 C22.7093358,12.0746677 23.2666635,12.176 23.896,12.176 C24.9520053,12.176 25.7866636,11.8986694 26.4,11.344 C27.0133364,10.7893306 27.3946659,10.0000051 27.544,8.976 L26.152,8.976 C26.0666662,9.6160032 25.8346686,10.1119982 25.456,10.464 C25.0773314,10.8160018 24.5520034,10.992 23.88,10.992 C23.4533312,10.992 23.0853349,10.9066675 22.776,10.736 C22.4666651,10.5653325 22.216001,10.3386681 22.024,10.056 C21.831999,9.77333192 21.6906671,9.45066848 21.6,9.088 C21.5093329,8.72533152 21.464,8.35200192 21.464,7.968 C21.464,7.55199792 21.5066662,7.14933528 21.592,6.76 C21.6773338,6.37066472 21.8186657,6.02666816 22.016,5.728 C22.2133343,5.42933184 22.4773317,5.18933424 22.808,5.008 C23.1386683,4.82666576 23.5493309,4.736 24.04,4.736 C24.6160029,4.736 25.074665,4.87999856 25.416,5.168 C25.757335,5.45600144 25.9813328,5.86133072 26.088,6.384 L26.088,6.384 Z M29.896,9.392 L28.536,9.392 C28.5573334,9.90400256 28.663999,10.3386649 28.856,10.696 C29.048001,11.0533351 29.3039984,11.3413322 29.624,11.56 C29.9440016,11.7786678 30.3119979,11.9359995 30.728,12.032 C31.1440021,12.1280005 31.581331,12.176 32.04,12.176 C32.4560021,12.176 32.8746646,12.1360004 33.296,12.056 C33.7173354,11.9759996 34.0959983,11.8346677 34.432,11.632 C34.7680017,11.4293323 35.039999,11.1626683 35.248,10.832 C35.456001,10.5013317 35.56,10.0853358 35.56,9.584 C35.56,9.18933136 35.4826674,8.858668 35.328,8.592 C35.1733326,8.325332 34.9706679,8.10400088 34.72,7.928 C34.4693321,7.75199912 34.181335,7.6106672 33.856,7.504 C33.530665,7.3973328 33.197335,7.30666704 32.856,7.232 C32.5359984,7.15733296 32.2160016,7.08533368 31.896,7.016 C31.5759984,6.94666632 31.2880013,6.86133384 31.032,6.76 C30.7759987,6.65866616 30.5653342,6.53066744 30.4,6.376 C30.2346658,6.22133256 30.152,6.02666784 30.152,5.792 C30.152,5.5786656 30.2053328,5.405334 30.312,5.272 C30.4186672,5.138666 30.5573325,5.0320004 30.728,4.952 C30.8986675,4.8719996 31.087999,4.81600016 31.296,4.784 C31.504001,4.75199984 31.7093323,4.736 31.912,4.736 C32.1360011,4.736 32.3573322,4.75999976 32.576,4.808 C32.7946678,4.85600024 32.9946658,4.9333328 33.176,5.04 C33.3573342,5.1466672 33.5066661,5.28799912 33.624,5.464 C33.7413339,5.64000088 33.8106666,5.861332 33.832,6.128 L35.192,6.128 C35.1599998,5.62666416 35.0533342,5.20800168 34.872,4.872 C34.6906658,4.53599832 34.4480015,4.26933432 34.144,4.072 C33.8399985,3.87466568 33.4906686,3.7360004 33.096,3.656 C32.7013314,3.5759996 32.2693357,3.536 31.8,3.536 C31.4373315,3.536 31.0720018,3.58133288 30.704,3.672 C30.3359982,3.76266712 30.0053348,3.9013324 29.712,4.088 C29.4186652,4.2746676 29.1786676,4.51733184 28.992,4.816 C28.8053324,5.11466816 28.712,5.47199792 28.712,5.888 C28.712,6.421336 28.845332,6.83733184 29.112,7.136 C29.378668,7.43466816 29.711998,7.66666584 30.112,7.832 C30.512002,7.99733416 30.9466643,8.12533288 31.416,8.216 C31.8853357,8.30666712 32.319998,8.40799944 32.72,8.52 C33.120002,8.63200056 33.453332,8.77866576 33.72,8.96 C33.986668,9.14133424 34.12,9.40799824 34.12,9.76 C34.12,10.0160013 34.0560006,10.2266658 33.928,10.392 C33.7999994,10.5573342 33.6373343,10.6826662 33.44,10.768 C33.2426657,10.8533338 33.0266678,10.9119998 32.792,10.944 C32.5573322,10.9760002 32.3333344,10.992 32.12,10.992 C31.8426653,10.992 31.5733346,10.9653336 31.312,10.912 C31.0506654,10.8586664 30.816001,10.7706673 30.608,10.648 C30.399999,10.5253327 30.2320006,10.360001 30.104,10.152 C29.9759994,9.94399896 29.9066667,9.69066816 29.896,9.392 L29.896,9.392 Z" id="Shape" fill-opacity="0.25" fill="#000000"></path>
            <path d="M1.768,11.72 L1.768,2.856 L4.328,2.856 C5.03200352,2.856 5.6239976,2.95466568 6.104,3.152 C6.5840024,3.34933432 6.97599848,3.63733144 7.28,4.016 C7.58400152,4.39466856 7.802666,4.85333064 7.936,5.392 C8.069334,5.93066936 8.136,6.54132992 8.136,7.224 C8.136,7.92800352 8.06400072,8.52799752 7.92,9.024 C7.77599928,9.52000248 7.59200112,9.93333168 7.368,10.264 C7.14399888,10.5946683 6.89066808,10.855999 6.608,11.048 C6.32533192,11.240001 6.04000144,11.3866662 5.752,11.488 C5.46399856,11.5893338 5.19200128,11.6533332 4.936,11.68 C4.67999872,11.7066668 4.46666752,11.72 4.296,11.72 L1.768,11.72 Z M0.248,1.576 L0.248,13 L4.168,13 C5.11733808,13 5.9386632,12.866668 6.632,12.6 C7.3253368,12.333332 7.89599776,11.9466692 8.344,11.44 C8.79200224,10.9333308 9.1226656,10.309337 9.336,9.568 C9.5493344,8.82666296 9.656,7.9760048 9.656,7.016 C9.656,5.18132416 9.18133808,3.81600448 8.232,2.92 C7.28266192,2.02399552 5.9280088,1.576 4.168,1.576 L0.248,1.576 Z M12.28,8.872 C12.28,8.37066416 12.346666,7.92533528 12.48,7.536 C12.613334,7.14666472 12.7973322,6.818668 13.032,6.552 C13.2666678,6.285332 13.5413318,6.08266736 13.856,5.944 C14.1706682,5.80533264 14.5039982,5.736 14.856,5.736 C15.2080018,5.736 15.5413318,5.80533264 15.856,5.944 C16.1706682,6.08266736 16.4453322,6.285332 16.68,6.552 C16.9146678,6.818668 17.098666,7.14666472 17.232,7.536 C17.365334,7.92533528 17.432,8.37066416 17.432,8.872 C17.432,9.37333584 17.365334,9.81866472 17.232,10.208 C17.098666,10.5973353 16.9146678,10.9226654 16.68,11.184 C16.4453322,11.4453346 16.1706682,11.6453326 15.856,11.784 C15.5413318,11.9226674 15.2080018,11.992 14.856,11.992 C14.5039982,11.992 14.1706682,11.9226674 13.856,11.784 C13.5413318,11.6453326 13.2666678,11.4453346 13.032,11.184 C12.7973322,10.9226654 12.613334,10.5973353 12.48,10.208 C12.346666,9.81866472 12.28,9.37333584 12.28,8.872 L12.28,8.872 Z M10.84,8.872 C10.84,9.48000304 10.9253325,10.0453307 11.096,10.568 C11.2666675,11.0906693 11.522665,11.5466647 11.864,11.936 C12.205335,12.3253353 12.6266642,12.6293322 13.128,12.848 C13.6293358,13.0666678 14.2053301,13.176 14.856,13.176 C15.5173366,13.176 16.0959975,13.0666678 16.592,12.848 C17.0880025,12.6293322 17.506665,12.3253353 17.848,11.936 C18.189335,11.5466647 18.4453325,11.0906693 18.616,10.568 C18.7866675,10.0453307 18.872,9.48000304 18.872,8.872 C18.872,8.26399696 18.7866675,7.69600264 18.616,7.168 C18.4453325,6.63999736 18.189335,6.18133528 17.848,5.792 C17.506665,5.40266472 17.0880025,5.09600112 16.592,4.872 C16.0959975,4.64799888 15.5173366,4.536 14.856,4.536 C14.2053301,4.536 13.6293358,4.64799888 13.128,4.872 C12.6266642,5.09600112 12.205335,5.40266472 11.864,5.792 C11.522665,6.18133528 11.2666675,6.63999736 11.096,7.168 C10.9253325,7.69600264 10.84,8.26399696 10.84,8.872 L10.84,8.872 Z M26.088,7.384 L27.496,7.384 C27.4426664,6.89333088 27.3146677,6.46933512 27.112,6.112 C26.9093323,5.75466488 26.6506682,5.45866784 26.336,5.224 C26.0213318,4.98933216 25.6586687,4.81600056 25.248,4.704 C24.8373313,4.59199944 24.3973357,4.536 23.928,4.536 C23.2773301,4.536 22.7066691,4.65066552 22.216,4.88 C21.7253309,5.10933448 21.317335,5.423998 20.992,5.824 C20.666665,6.224002 20.4240008,6.69333064 20.264,7.232 C20.1039992,7.77066936 20.024,8.34933024 20.024,8.968 C20.024,9.58666976 20.1066658,10.1546641 20.272,10.672 C20.4373342,11.1893359 20.682665,11.6346648 21.008,12.008 C21.333335,12.3813352 21.7386642,12.6693323 22.224,12.872 C22.7093358,13.0746677 23.2666635,13.176 23.896,13.176 C24.9520053,13.176 25.7866636,12.8986694 26.4,12.344 C27.0133364,11.7893306 27.3946659,11.0000051 27.544,9.976 L26.152,9.976 C26.0666662,10.6160032 25.8346686,11.1119982 25.456,11.464 C25.0773314,11.8160018 24.5520034,11.992 23.88,11.992 C23.4533312,11.992 23.0853349,11.9066675 22.776,11.736 C22.4666651,11.5653325 22.216001,11.3386681 22.024,11.056 C21.831999,10.7733319 21.6906671,10.4506685 21.6,10.088 C21.5093329,9.72533152 21.464,9.35200192 21.464,8.968 C21.464,8.55199792 21.5066662,8.14933528 21.592,7.76 C21.6773338,7.37066472 21.8186657,7.02666816 22.016,6.728 C22.2133343,6.42933184 22.4773317,6.18933424 22.808,6.008 C23.1386683,5.82666576 23.5493309,5.736 24.04,5.736 C24.6160029,5.736 25.074665,5.87999856 25.416,6.168 C25.757335,6.45600144 25.9813328,6.86133072 26.088,7.384 L26.088,7.384 Z M29.896,10.392 L28.536,10.392 C28.5573334,10.9040026 28.663999,11.3386649 28.856,11.696 C29.048001,12.0533351 29.3039984,12.3413322 29.624,12.56 C29.9440016,12.7786678 30.3119979,12.9359995 30.728,13.032 C31.1440021,13.1280005 31.581331,13.176 32.04,13.176 C32.4560021,13.176 32.8746646,13.1360004 33.296,13.056 C33.7173354,12.9759996 34.0959983,12.8346677 34.432,12.632 C34.7680017,12.4293323 35.039999,12.1626683 35.248,11.832 C35.456001,11.5013317 35.56,11.0853358 35.56,10.584 C35.56,10.1893314 35.4826674,9.858668 35.328,9.592 C35.1733326,9.325332 34.9706679,9.10400088 34.72,8.928 C34.4693321,8.75199912 34.181335,8.6106672 33.856,8.504 C33.530665,8.3973328 33.197335,8.30666704 32.856,8.232 C32.5359984,8.15733296 32.2160016,8.08533368 31.896,8.016 C31.5759984,7.94666632 31.2880013,7.86133384 31.032,7.76 C30.7759987,7.65866616 30.5653342,7.53066744 30.4,7.376 C30.2346658,7.22133256 30.152,7.02666784 30.152,6.792 C30.152,6.5786656 30.2053328,6.405334 30.312,6.272 C30.4186672,6.138666 30.5573325,6.0320004 30.728,5.952 C30.8986675,5.8719996 31.087999,5.81600016 31.296,5.784 C31.504001,5.75199984 31.7093323,5.736 31.912,5.736 C32.1360011,5.736 32.3573322,5.75999976 32.576,5.808 C32.7946678,5.85600024 32.9946658,5.9333328 33.176,6.04 C33.3573342,6.1466672 33.5066661,6.28799912 33.624,6.464 C33.7413339,6.64000088 33.8106666,6.861332 33.832,7.128 L35.192,7.128 C35.1599998,6.62666416 35.0533342,6.20800168 34.872,5.872 C34.6906658,5.53599832 34.4480015,5.26933432 34.144,5.072 C33.8399985,4.87466568 33.4906686,4.7360004 33.096,4.656 C32.7013314,4.5759996 32.2693357,4.536 31.8,4.536 C31.4373315,4.536 31.0720018,4.58133288 30.704,4.672 C30.3359982,4.76266712 30.0053348,4.9013324 29.712,5.088 C29.4186652,5.2746676 29.1786676,5.51733184 28.992,5.816 C28.8053324,6.11466816 28.712,6.47199792 28.712,6.888 C28.712,7.421336 28.845332,7.83733184 29.112,8.136 C29.378668,8.43466816 29.711998,8.66666584 30.112,8.832 C30.512002,8.99733416 30.9466643,9.12533288 31.416,9.216 C31.8853357,9.30666712 32.319998,9.40799944 32.72,9.52 C33.120002,9.63200056 33.453332,9.77866576 33.72,9.96 C33.986668,10.1413342 34.12,10.4079982 34.12,10.76 C34.12,11.0160013 34.0560006,11.2266658 33.928,11.392 C33.7999994,11.5573342 33.6373343,11.6826662 33.44,11.768 C33.2426657,11.8533338 33.0266678,11.9119998 32.792,11.944 C32.5573322,11.9760002 32.3333344,11.992 32.12,11.992 C31.8426653,11.992 31.5733346,11.9653336 31.312,11.912 C31.0506654,11.8586664 30.816001,11.7706673 30.608,11.648 C30.399999,11.5253327 30.2320006,11.360001 30.104,11.152 C29.9759994,10.943999 29.9066667,10.6906682 29.896,10.392 L29.896,10.392 Z" id="Shape" fill="#FFFFFF"></path>
        </g>
    </g>
</svg>
