<svg width="198px" height="15px" viewBox="41 429 198 15" version="1.1" xmlns="http://www.w3.org/2000/svg" xmlns:xlink="http://www.w3.org/1999/xlink">
    <!-- Generator: Sketch 42 (36781) - http://www.bohemiancoding.com/sketch -->
    <desc>Created with Sketch.</desc>
    <defs></defs>
    <g id="Gov-logo" stroke="none" stroke-width="1" fill="none" fill-rule="evenodd" transform="translate(41.000000, 429.000000)">
        <g id="Group">
            <g>
                <g id="Shape">
                    <path d="M70.3,0 L64.1,0 C63.5,0 63,0.2 62.6,0.6 C62.2,1 62,1.5 62,2.1 L62,10.9 C62,11.5 62.2,12 62.6,12.4 C63,12.8 63.5,13 64.1,13 L70.3,13 C70.9,13 71.4,12.8 71.8,12.4 C72.2,12 72.4,11.5 72.4,10.9 L72.4,10.3 L64.7,10.3 L64.7,2.7 L72.4,2.7 L72.4,2.1 C72.4,1.5 72.2,1 71.8,0.6 C71.4,0.2 70.9,1.11022302e-16 70.3,1.11022302e-16 L70.3,0 Z M82,0 L75.8,0 C75.2,0 74.7,0.2 74.3,0.6 C73.9,1 73.7,1.5 73.7,2.1 L73.7,2.7 L81.5,2.7 L81.5,5.2 L75.9,5.2 C75.3,5.2 74.8,5.4 74.4,5.8 C74,6.2 73.8,6.7 73.8,7.3 L73.8,10.9 C73.8,11.5 74,12 74.4,12.4 C74.8,12.8 75.3,13 75.9,13 L82,13 C82.6,13 83.1,12.8 83.5,12.4 C83.9,12 84.1,11.5 84.1,10.9 L84.1,2.1 C84.1,1.5 83.9,1 83.5,0.6 C83.1,0.2 82.6,1.11022302e-16 82,1.11022302e-16 L82,0 Z M81.4,10.3 L76.4,10.3 L76.4,7.8 L81.4,7.8 L81.4,10.3 L81.4,10.3 Z M90.6,10.3 L88,10.3 L88,2.1 C88,1.5 87.8,1 87.4,0.6 C87,0.2 86.5,0 85.9,0 L85.3,0 L85.3,10.9 C85.3,11.5 85.5,12 85.9,12.4 C86.3,12.8 86.8,13 87.4,13 L91,13 C91.6,13 92.1,12.8 92.5,12.4 C92.9,12 93.1,11.5 93.1,10.9 L93.1,10.3 L90.6,10.3 L90.6,10.3 Z M102.8,7.8 C103.4,7.8 103.9,7.6 104.3,7.2 C104.7,6.8 104.9,6.3 104.9,5.7 L104.9,2.1 C104.9,1.5 104.7,1 104.3,0.6 C103.9,0.2 103.4,0 102.8,0 L96.6,0 C96,0 95.5,0.2 95.1,0.6 C94.7,1 94.5,1.5 94.5,2.1 L94.5,10.9 C94.5,11.5 94.7,12 95.1,12.4 C95.5,12.8 96,13 96.6,13 L102.8,13 C103.4,13 103.9,12.8 104.3,12.4 C104.7,12 104.9,11.5 104.9,10.9 L104.9,10.3 L97.1,10.3 L97.1,7.8 L102.8,7.8 L102.8,7.8 Z M97.1,2.7 L102.1,2.7 L102.1,5.2 L97.1,5.2 L97.1,2.7 L97.1,2.7 Z M58.7,0 L52.5,0 C51.9,0 51.4,0.2 51,0.6 C50.6,1 50.4,1.5 50.4,2.1 L50.4,5.7 C50.4,6.3 50.6,6.8 51,7.2 C51.4,7.6 51.9,7.8 52.5,7.8 L58.1,7.8 L58.1,10.3 L50.4,10.3 L50.4,10.9 C50.4,11.5 50.6,12 51,12.4 C51.4,12.8 51.9,13 52.5,13 L58.7,13 C59.3,13 59.8,12.8 60.2,12.4 C60.6,12 60.8,11.5 60.8,10.9 L60.8,7.3 C60.8,6.7 60.6,6.2 60.2,5.8 C59.8,5.4 59.3,5.2 58.7,5.2 L53.1,5.2 L53.1,2.7 L60.9,2.7 L60.9,2.1 C60.9,1.5 60.7,1 60.3,0.6 C59.8,0.2 59.2,1.11022302e-16 58.7,1.11022302e-16 L58.7,0 Z M8.3,0 L0,0 L0,13 L2.7,13 L2.7,10.4 L7.7,10.4 L7.7,10.9 C7.7,11.5 7.9,12 8.3,12.4 C8.8,12.8 9.3,13 9.8,13 L10.4,13 L10.4,9.9 C10.4,9.3 10.2,8.8 9.8,8.4 C9.5,8.1 9.2,7.9 8.8,7.8 C9.2,7.7 9.5,7.5 9.8,7.2 C10.2,6.8 10.4,6.3 10.4,5.7 L10.4,2.1 C10.4,1.5 10.2,1 9.8,0.6 C9.4,0.2 8.9,0 8.3,0 L8.3,0 Z M7.7,7.7 L2.7,7.7 L2.7,2.7 L7.7,2.7 L7.7,7.7 L7.7,7.7 Z M12.2,3.1 L11.6,3.1 L11.6,13 L14.3,13 L14.3,5.3 C14.3,4.7 14.1,4.2 13.7,3.8 C13.3,3.3 12.8,3.1 12.2,3.1 L12.2,3.1 Z M16.2,0.6 C15.8,1 15.6,1.5 15.6,2.1 L15.6,10.9 C15.6,11.5 15.8,12 16.2,12.4 C16.6,12.8 17.1,13 17.7,13 L23.9,13 C24.5,13 25,12.8 25.4,12.4 C25.8,12 26,11.5 26,10.9 L26,5.2 L23.3,5.2 L23.3,10.4 L18.3,10.4 L18.3,2.7 L26,2.7 L26,0 L17.7,0 C17.1,0 16.6,0.2 16.2,0.6 L16.2,0.6 Z M35,5.2 L30,5.2 L30,0 L27.3,0 L27.3,13 L30,13 L30,7.8 L35,7.8 L35,13 L37.7,13 L37.7,0 L35,0 L35,5.2 L35,5.2 Z M38.9,0 L38.9,2.7 L41.5,2.7 L41.5,13 L42.1,13 C42.7,13 43.2,12.8 43.6,12.4 C44,12 44.2,11.5 44.2,10.9 L44.2,2.7 L46.8,2.7 L46.8,0 L38.9,0 L38.9,0 Z" fill="#000000" opacity="0.25"></path>
                    <path d="M70.3,1 L64.1,1 C63.5,1 63,1.2 62.6,1.6 C62.2,2 62,2.5 62,3.1 L62,11.9 C62,12.5 62.2,13 62.6,13.4 C63,13.8 63.5,14 64.1,14 L70.3,14 C70.9,14 71.4,13.8 71.8,13.4 C72.2,13 72.4,12.5 72.4,11.9 L72.4,11.3 L64.7,11.3 L64.7,3.7 L72.4,3.7 L72.4,3.1 C72.4,2.5 72.2,2 71.8,1.6 C71.4,1.2 70.9,1 70.3,1 L70.3,1 Z M82,1 L75.8,1 C75.2,1 74.7,1.2 74.3,1.6 C73.9,2 73.7,2.5 73.7,3.1 L73.7,3.7 L81.5,3.7 L81.5,6.2 L75.9,6.2 C75.3,6.2 74.8,6.4 74.4,6.8 C74,7.2 73.8,7.7 73.8,8.3 L73.8,11.9 C73.8,12.5 74,13 74.4,13.4 C74.8,13.8 75.3,14 75.9,14 L82,14 C82.6,14 83.1,13.8 83.5,13.4 C83.9,13 84.1,12.5 84.1,11.9 L84.1,3.1 C84.1,2.5 83.9,2 83.5,1.6 C83.1,1.2 82.6,1 82,1 L82,1 Z M81.4,11.3 L76.4,11.3 L76.4,8.8 L81.4,8.8 L81.4,11.3 L81.4,11.3 Z M90.6,11.3 L88,11.3 L88,3.1 C88,2.5 87.8,2 87.4,1.6 C87,1.2 86.5,1 85.9,1 L85.3,1 L85.3,11.9 C85.3,12.5 85.5,13 85.9,13.4 C86.3,13.8 86.8,14 87.4,14 L91,14 C91.6,14 92.1,13.8 92.5,13.4 C92.9,13 93.1,12.5 93.1,11.9 L93.1,11.3 L90.6,11.3 L90.6,11.3 Z M102.8,8.8 C103.4,8.8 103.9,8.6 104.3,8.2 C104.7,7.8 104.9,7.3 104.9,6.7 L104.9,3.1 C104.9,2.5 104.7,2 104.3,1.6 C103.9,1.2 103.4,1 102.8,1 L96.6,1 C96,1 95.5,1.2 95.1,1.6 C94.7,2 94.5,2.5 94.5,3.1 L94.5,11.9 C94.5,12.5 94.7,13 95.1,13.4 C95.5,13.8 96,14 96.6,14 L102.8,14 C103.4,14 103.9,13.8 104.3,13.4 C104.7,13 104.9,12.5 104.9,11.9 L104.9,11.3 L97.1,11.3 L97.1,8.8 L102.8,8.8 L102.8,8.8 Z M97.1,3.7 L102.1,3.7 L102.1,6.2 L97.1,6.2 L97.1,3.7 L97.1,3.7 Z M58.7,1 L52.5,1 C51.9,1 51.4,1.2 51,1.6 C50.6,2 50.4,2.5 50.4,3.1 L50.4,6.7 C50.4,7.3 50.6,7.8 51,8.2 C51.4,8.6 51.9,8.8 52.5,8.8 L58.1,8.8 L58.1,11.3 L50.4,11.3 L50.4,11.9 C50.4,12.5 50.6,13 51,13.4 C51.4,13.8 51.9,14 52.5,14 L58.7,14 C59.3,14 59.8,13.8 60.2,13.4 C60.6,13 60.8,12.5 60.8,11.9 L60.8,8.3 C60.8,7.7 60.6,7.2 60.2,6.8 C59.8,6.4 59.3,6.2 58.7,6.2 L53.1,6.2 L53.1,3.7 L60.9,3.7 L60.9,3.1 C60.9,2.5 60.7,2 60.3,1.6 C59.8,1.2 59.2,1 58.7,1 L58.7,1 Z M8.3,1 L0,1 L0,14 L2.7,14 L2.7,11.4 L7.7,11.4 L7.7,11.9 C7.7,12.5 7.9,13 8.3,13.4 C8.8,13.8 9.3,14 9.8,14 L10.4,14 L10.4,10.9 C10.4,10.3 10.2,9.8 9.8,9.4 C9.5,9.1 9.2,8.9 8.8,8.8 C9.2,8.7 9.5,8.5 9.8,8.2 C10.2,7.8 10.4,7.3 10.4,6.7 L10.4,3.1 C10.4,2.5 10.2,2 9.8,1.6 C9.4,1.2 8.9,1 8.3,1 L8.3,1 Z M7.7,8.7 L2.7,8.7 L2.7,3.7 L7.7,3.7 L7.7,8.7 L7.7,8.7 Z M12.2,4.1 L11.6,4.1 L11.6,14 L14.3,14 L14.3,6.3 C14.3,5.7 14.1,5.2 13.7,4.8 C13.3,4.3 12.8,4.1 12.2,4.1 L12.2,4.1 Z M16.2,1.6 C15.8,2 15.6,2.5 15.6,3.1 L15.6,11.9 C15.6,12.5 15.8,13 16.2,13.4 C16.6,13.8 17.1,14 17.7,14 L23.9,14 C24.5,14 25,13.8 25.4,13.4 C25.8,13 26,12.5 26,11.9 L26,6.2 L23.3,6.2 L23.3,11.4 L18.3,11.4 L18.3,3.7 L26,3.7 L26,1 L17.7,1 C17.1,1 16.6,1.2 16.2,1.6 L16.2,1.6 Z M35,6.2 L30,6.2 L30,1 L27.3,1 L27.3,14 L30,14 L30,8.8 L35,8.8 L35,14 L37.7,14 L37.7,1 L35,1 L35,6.2 L35,6.2 Z M38.9,1 L38.9,3.7 L41.5,3.7 L41.5,14 L42.1,14 C42.7,14 43.2,13.8 43.6,13.4 C44,13 44.2,12.5 44.2,11.9 L44.2,3.7 L46.8,3.7 L46.8,1 L38.9,1 L38.9,1 Z" fill="#FFFFFF"></path>
                    <path d="M11.7,0.6 C11.7,1.2 11.9,1.7 12.3,2.1 C12.7,2.5 13.2,2.7 13.8,2.7 L14.4,2.7 L14.4,0 L11.7,0 L11.7,0.6 L11.7,0.6 Z" fill="#000000" opacity="0.25"></path>
                    <path d="M11.7,1.6 C11.7,2.2 11.9,2.7 12.3,3.1 C12.7,3.5 13.2,3.7 13.8,3.7 L14.4,3.7 L14.4,1 L11.7,1 L11.7,1.6 L11.7,1.6 Z" fill="#F3A02D"></path>
                </g>
                <g transform="translate(111.000000, 0.000000)" id="Governance">
                    <path d="M9.792,10.576 L10.192,12 L11.152,12 L11.152,5.984 L6.144,5.984 L6.144,7.264 L9.792,7.264 C9.81333344,7.78666928 9.7440008,8.2746644 9.584,8.728 C9.4239992,9.1813356 9.18666824,9.57599832 8.872,9.912 C8.55733176,10.2480017 8.17066896,10.511999 7.712,10.704 C7.25333104,10.896001 6.72533632,10.992 6.128,10.992 C5.4879968,10.992 4.92533576,10.8666679 4.44,10.616 C3.95466424,10.3653321 3.54666832,10.0293354 3.216,9.608 C2.88533168,9.18666456 2.63466752,8.70133608 2.464,8.152 C2.29333248,7.60266392 2.208,7.02933632 2.208,6.432 C2.208,5.82399696 2.28266592,5.22933624 2.432,4.648 C2.58133408,4.06666376 2.81333176,3.5493356 3.128,3.096 C3.44266824,2.6426644 3.84799752,2.27733472 4.344,2 C4.84000248,1.72266528 5.4346632,1.584 6.128,1.584 C6.5546688,1.584 6.95733144,1.63466616 7.336,1.736 C7.71466856,1.83733384 8.05333184,1.98933232 8.352,2.192 C8.65066816,2.39466768 8.90133232,2.65333176 9.104,2.968 C9.30666768,3.28266824 9.44533296,3.65866448 9.52,4.096 L11.04,4.096 C10.9333328,3.42399664 10.7333348,2.85066904 10.44,2.376 C10.1466652,1.90133096 9.78400216,1.50933488 9.352,1.2 C8.91999784,0.89066512 8.42933608,0.66400072 7.88,0.52 C7.33066392,0.37599928 6.74666976,0.304 6.128,0.304 C5.2213288,0.304 4.42933672,0.47199832 3.752,0.808 C3.07466328,1.14400168 2.5093356,1.59466384 2.056,2.16 C1.6026644,2.72533616 1.26133448,3.38399624 1.032,4.136 C0.80266552,4.88800376 0.688,5.67999584 0.688,6.512 C0.688,7.2586704 0.81066544,7.9786632 1.056,8.672 C1.30133456,9.3653368 1.65866432,9.978664 2.128,10.512 C2.59733568,11.045336 3.16799664,11.4693318 3.84,11.784 C4.51200336,12.0986682 5.2746624,12.256 6.128,12.256 C6.80000336,12.256 7.46666336,12.1253346 8.128,11.864 C8.78933664,11.6026654 9.34399776,11.1733363 9.792,10.576 Z M14.16,7.872 C14.16,8.37333584 14.226666,8.81866472 14.36,9.208 C14.493334,9.59733528 14.6773322,9.92266536 14.912,10.184 C15.1466678,10.4453346 15.4213318,10.6453326 15.736,10.784 C16.0506682,10.9226674 16.3839982,10.992 16.736,10.992 C17.0880018,10.992 17.4213318,10.9226674 17.736,10.784 C18.0506682,10.6453326 18.3253322,10.4453346 18.56,10.184 C18.7946678,9.92266536 18.978666,9.59733528 19.112,9.208 C19.245334,8.81866472 19.312,8.37333584 19.312,7.872 C19.312,7.37066416 19.245334,6.92533528 19.112,6.536 C18.978666,6.14666472 18.7946678,5.818668 18.56,5.552 C18.3253322,5.285332 18.0506682,5.08266736 17.736,4.944 C17.4213318,4.80533264 17.0880018,4.736 16.736,4.736 C16.3839982,4.736 16.0506682,4.80533264 15.736,4.944 C15.4213318,5.08266736 15.1466678,5.285332 14.912,5.552 C14.6773322,5.818668 14.493334,6.14666472 14.36,6.536 C14.226666,6.92533528 14.16,7.37066416 14.16,7.872 Z M12.72,7.872 C12.72,7.26399696 12.8053325,6.69600264 12.976,6.168 C13.1466675,5.63999736 13.402665,5.18133528 13.744,4.792 C14.085335,4.40266472 14.5066642,4.09600112 15.008,3.872 C15.5093358,3.64799888 16.0853301,3.536 16.736,3.536 C17.3973366,3.536 17.9759975,3.64799888 18.472,3.872 C18.9680025,4.09600112 19.386665,4.40266472 19.728,4.792 C20.069335,5.18133528 20.3253325,5.63999736 20.496,6.168 C20.6666675,6.69600264 20.752,7.26399696 20.752,7.872 C20.752,8.48000304 20.6666675,9.04533072 20.496,9.568 C20.3253325,10.0906693 20.069335,10.5466647 19.728,10.936 C19.386665,11.3253353 18.9680025,11.6293322 18.472,11.848 C17.9759975,12.0666678 17.3973366,12.176 16.736,12.176 C16.0853301,12.176 15.5093358,12.0666678 15.008,11.848 C14.5066642,11.6293322 14.085335,11.3253353 13.744,10.936 C13.402665,10.5466647 13.1466675,10.0906693 12.976,9.568 C12.8053325,9.04533072 12.72,8.48000304 12.72,7.872 Z M26.08,12 L29.104,3.728 L27.68,3.728 L25.424,10.624 L25.392,10.624 L23.072,3.728 L21.552,3.728 L24.624,12 L26.08,12 Z M36.096,7.072 C36.0746666,6.7519984 36.0026673,6.44800144 35.88,6.16 C35.7573327,5.87199856 35.592001,5.62400104 35.384,5.416 C35.175999,5.20799896 34.9306681,5.04266728 34.648,4.92 C34.3653319,4.79733272 34.053335,4.736 33.712,4.736 C33.3599982,4.736 33.0426681,4.79733272 32.76,4.92 C32.4773319,5.04266728 32.2346677,5.2106656 32.032,5.424 C31.8293323,5.6373344 31.6693339,5.88533192 31.552,6.168 C31.4346661,6.45066808 31.3653334,6.7519984 31.344,7.072 L36.096,7.072 Z M37.408,9.376 C37.2266658,10.3040046 36.8266698,11.0026643 36.208,11.472 C35.5893302,11.9413357 34.8106714,12.176 33.872,12.176 C33.2106634,12.176 32.6373358,12.0693344 32.152,11.856 C31.6666642,11.6426656 31.2586683,11.3440019 30.928,10.96 C30.5973317,10.5759981 30.3493342,10.117336 30.184,9.584 C30.0186658,9.050664 29.9253334,8.46933648 29.904,7.84 C29.904,7.21066352 29.999999,6.63466928 30.192,6.112 C30.384001,5.58933072 30.6533316,5.13600192 31,4.752 C31.3466684,4.36799808 31.757331,4.0693344 32.232,3.856 C32.706669,3.6426656 33.2266638,3.536 33.792,3.536 C34.5280037,3.536 35.1386642,3.68799848 35.624,3.992 C36.1093358,4.29600152 36.4986652,4.68266432 36.792,5.152 C37.0853348,5.62133568 37.2879994,6.13333056 37.4,6.688 C37.5120006,7.24266944 37.5573334,7.77066416 37.536,8.272 L31.344,8.272 C31.3333333,8.63466848 31.3759995,8.97866504 31.472,9.304 C31.5680005,9.62933496 31.7226656,9.91733208 31.936,10.168 C32.1493344,10.4186679 32.4213317,10.6186659 32.752,10.768 C33.0826683,10.9173341 33.4719978,10.992 33.92,10.992 C34.4960029,10.992 34.9679982,10.858668 35.336,10.592 C35.7040018,10.325332 35.9466661,9.92000272 36.064,9.376 L37.408,9.376 Z M38.896,3.728 L38.896,12 L40.256,12 L40.256,8.32 C40.256,7.786664 40.3093328,7.31466872 40.416,6.904 C40.5226672,6.49333128 40.6933322,6.14400144 40.928,5.856 C41.1626678,5.56799856 41.4719981,5.34933408 41.856,5.2 C42.2400019,5.05066592 42.7039973,4.976 43.248,4.976 L43.248,3.536 C42.5119963,3.51466656 41.9040024,3.6639984 41.424,3.984 C40.9439976,4.3040016 40.5386683,4.79999664 40.208,5.472 L40.176,5.472 L40.176,3.728 L38.896,3.728 Z M44.56,3.728 L44.56,12 L45.92,12 L45.92,7.328 C45.92,6.9546648 45.9706662,6.61066824 46.072,6.296 C46.1733338,5.98133176 46.3253323,5.70666784 46.528,5.472 C46.7306677,5.23733216 46.9839985,5.05600064 47.288,4.928 C47.5920015,4.79999936 47.9519979,4.736 48.368,4.736 C48.8906693,4.736 49.3013318,4.88533184 49.6,5.184 C49.8986682,5.48266816 50.048,5.88799744 50.048,6.4 L50.048,12 L51.408,12 L51.408,6.56 C51.408,6.11199776 51.3626671,5.70400184 51.272,5.336 C51.1813329,4.96799816 51.0240011,4.650668 50.8,4.384 C50.5759989,4.117332 50.2826685,3.90933408 49.92,3.76 C49.5573315,3.61066592 49.1040027,3.536 48.56,3.536 C47.3333272,3.536 46.4373362,4.03732832 45.872,5.04 L45.84,5.04 L45.84,3.728 L44.56,3.728 Z M60.784,11.968 C60.5493322,12.1066674 60.2240021,12.176 59.808,12.176 C59.4559982,12.176 59.176001,12.0773343 58.968,11.88 C58.759999,11.6826657 58.656,11.3600022 58.656,10.912 C58.2826648,11.3600022 57.8480025,11.6826657 57.352,11.88 C56.8559975,12.0773343 56.3200029,12.176 55.744,12.176 C55.3706648,12.176 55.0160017,12.1333338 54.68,12.048 C54.3439983,11.9626662 54.0533346,11.8293342 53.808,11.648 C53.5626654,11.4666658 53.3680007,11.2293348 53.224,10.936 C53.0799993,10.6426652 53.008,10.2880021 53.008,9.872 C53.008,9.40266432 53.0879992,9.01866816 53.248,8.72 C53.4080008,8.42133184 53.6186654,8.1786676 53.88,7.992 C54.1413346,7.8053324 54.4399983,7.66400048 54.776,7.568 C55.1120017,7.47199952 55.4559982,7.39200032 55.808,7.328 C56.1813352,7.25333296 56.5359983,7.19733352 56.872,7.16 C57.2080017,7.12266648 57.5039987,7.06933368 57.76,7 C58.0160013,6.93066632 58.2186659,6.829334 58.368,6.696 C58.5173341,6.562666 58.592,6.36800128 58.592,6.112 C58.592,5.81333184 58.5360006,5.57333424 58.424,5.392 C58.3119994,5.21066576 58.1680009,5.07200048 57.992,4.976 C57.8159991,4.87999952 57.6186678,4.81600016 57.4,4.784 C57.1813322,4.75199984 56.9653344,4.736 56.752,4.736 C56.1759971,4.736 55.6960019,4.84533224 55.312,5.064 C54.9279981,5.28266776 54.7200002,5.69599696 54.688,6.304 L53.328,6.304 C53.3493334,5.79199744 53.455999,5.36000176 53.648,5.008 C53.840001,4.65599824 54.0959984,4.37066776 54.416,4.152 C54.7360016,3.93333224 55.1013313,3.77600048 55.512,3.68 C55.9226687,3.58399952 56.3626643,3.536 56.832,3.536 C57.2053352,3.536 57.5759982,3.5626664 57.944,3.616 C58.3120018,3.6693336 58.6453318,3.77866584 58.944,3.944 C59.2426682,4.10933416 59.4826658,4.34133184 59.664,4.64 C59.8453342,4.93866816 59.936,5.3279976 59.936,5.808 L59.936,10.064 C59.936,10.3840016 59.9546665,10.6186659 59.992,10.768 C60.0293335,10.9173341 60.1546656,10.992 60.368,10.992 C60.4853339,10.992 60.6239992,10.9653336 60.784,10.912 L60.784,11.968 Z M58.576,7.728 C58.4053325,7.85600064 58.1813347,7.94933304 57.904,8.008 C57.6266653,8.06666696 57.3360015,8.11466648 57.032,8.152 C56.7279985,8.18933352 56.4213349,8.23199976 56.112,8.28 C55.8026651,8.32800024 55.5253346,8.4053328 55.28,8.512 C55.0346654,8.6186672 54.8346674,8.77066568 54.68,8.968 C54.5253326,9.16533432 54.448,9.43466496 54.448,9.776 C54.448,10.0000011 54.4933329,10.1893326 54.584,10.344 C54.6746671,10.4986674 54.7919993,10.6239995 54.936,10.72 C55.0800007,10.8160005 55.247999,10.8853331 55.44,10.928 C55.632001,10.9706669 55.8346656,10.992 56.048,10.992 C56.4960022,10.992 56.8799984,10.9306673 57.2,10.808 C57.5200016,10.6853327 57.7813323,10.5306676 57.984,10.344 C58.1866677,10.1573324 58.3359995,9.95466776 58.432,9.736 C58.5280005,9.51733224 58.576,9.31200096 58.576,9.12 L58.576,7.728 Z M62.048,3.728 L62.048,12 L63.408,12 L63.408,7.328 C63.408,6.9546648 63.4586662,6.61066824 63.56,6.296 C63.6613338,5.98133176 63.8133323,5.70666784 64.016,5.472 C64.2186677,5.23733216 64.4719985,5.05600064 64.776,4.928 C65.0800015,4.79999936 65.4399979,4.736 65.856,4.736 C66.3786693,4.736 66.7893318,4.88533184 67.088,5.184 C67.3866682,5.48266816 67.536,5.88799744 67.536,6.4 L67.536,12 L68.896,12 L68.896,6.56 C68.896,6.11199776 68.8506671,5.70400184 68.76,5.336 C68.6693329,4.96799816 68.5120011,4.650668 68.288,4.384 C68.0639989,4.117332 67.7706685,3.90933408 67.408,3.76 C67.0453315,3.61066592 66.5920027,3.536 66.048,3.536 C64.8213272,3.536 63.9253362,4.03732832 63.36,5.04 L63.328,5.04 L63.328,3.728 L62.048,3.728 Z M76.56,6.384 L77.968,6.384 C77.9146664,5.89333088 77.7866677,5.46933512 77.584,5.112 C77.3813323,4.75466488 77.1226682,4.45866784 76.808,4.224 C76.4933318,3.98933216 76.1306687,3.81600056 75.72,3.704 C75.3093313,3.59199944 74.8693357,3.536 74.4,3.536 C73.7493301,3.536 73.1786691,3.65066552 72.688,3.88 C72.1973309,4.10933448 71.789335,4.423998 71.464,4.824 C71.138665,5.224002 70.8960008,5.69333064 70.736,6.232 C70.5759992,6.77066936 70.496,7.34933024 70.496,7.968 C70.496,8.58666976 70.5786658,9.15466408 70.744,9.672 C70.9093342,10.1893359 71.154665,10.6346648 71.48,11.008 C71.805335,11.3813352 72.2106642,11.6693323 72.696,11.872 C73.1813358,12.0746677 73.7386635,12.176 74.368,12.176 C75.4240053,12.176 76.2586636,11.8986694 76.872,11.344 C77.4853364,10.7893306 77.8666659,10.0000051 78.016,8.976 L76.624,8.976 C76.5386662,9.6160032 76.3066686,10.1119982 75.928,10.464 C75.5493314,10.8160018 75.0240034,10.992 74.352,10.992 C73.9253312,10.992 73.5573349,10.9066675 73.248,10.736 C72.9386651,10.5653325 72.688001,10.3386681 72.496,10.056 C72.303999,9.77333192 72.1626671,9.45066848 72.072,9.088 C71.9813329,8.72533152 71.936,8.35200192 71.936,7.968 C71.936,7.55199792 71.9786662,7.14933528 72.064,6.76 C72.1493338,6.37066472 72.2906657,6.02666816 72.488,5.728 C72.6853343,5.42933184 72.9493317,5.18933424 73.28,5.008 C73.6106683,4.82666576 74.0213309,4.736 74.512,4.736 C75.0880029,4.736 75.546665,4.87999856 75.888,5.168 C76.229335,5.45600144 76.4533328,5.86133072 76.56,6.384 Z M85.28,7.072 C85.2586666,6.7519984 85.1866673,6.44800144 85.064,6.16 C84.9413327,5.87199856 84.776001,5.62400104 84.568,5.416 C84.359999,5.20799896 84.1146681,5.04266728 83.832,4.92 C83.5493319,4.79733272 83.237335,4.736 82.896,4.736 C82.5439982,4.736 82.2266681,4.79733272 81.944,4.92 C81.6613319,5.04266728 81.4186677,5.2106656 81.216,5.424 C81.0133323,5.6373344 80.8533339,5.88533192 80.736,6.168 C80.6186661,6.45066808 80.5493334,6.7519984 80.528,7.072 L85.28,7.072 Z M86.592,9.376 C86.4106658,10.3040046 86.0106698,11.0026643 85.392,11.472 C84.7733302,11.9413357 83.9946714,12.176 83.056,12.176 C82.3946634,12.176 81.8213358,12.0693344 81.336,11.856 C80.8506642,11.6426656 80.4426683,11.3440019 80.112,10.96 C79.7813317,10.5759981 79.5333342,10.117336 79.368,9.584 C79.2026658,9.050664 79.1093334,8.46933648 79.088,7.84 C79.088,7.21066352 79.183999,6.63466928 79.376,6.112 C79.568001,5.58933072 79.8373316,5.13600192 80.184,4.752 C80.5306684,4.36799808 80.941331,4.0693344 81.416,3.856 C81.890669,3.6426656 82.4106638,3.536 82.976,3.536 C83.7120037,3.536 84.3226642,3.68799848 84.808,3.992 C85.2933358,4.29600152 85.6826652,4.68266432 85.976,5.152 C86.2693348,5.62133568 86.4719994,6.13333056 86.584,6.688 C86.6960006,7.24266944 86.7413334,7.77066416 86.72,8.272 L80.528,8.272 C80.5173333,8.63466848 80.5599995,8.97866504 80.656,9.304 C80.7520005,9.62933496 80.9066656,9.91733208 81.12,10.168 C81.3333344,10.4186679 81.6053317,10.6186659 81.936,10.768 C82.2666683,10.9173341 82.6559978,10.992 83.104,10.992 C83.6800029,10.992 84.1519982,10.858668 84.52,10.592 C84.8880018,10.325332 85.1306661,9.92000272 85.248,9.376 L86.592,9.376 Z" fill-opacity="0.25" fill="#000000"></path>
                    <path d="M9.792,11.576 L10.192,13 L11.152,13 L11.152,6.984 L6.144,6.984 L6.144,8.264 L9.792,8.264 C9.81333344,8.78666928 9.7440008,9.2746644 9.584,9.728 C9.4239992,10.1813356 9.18666824,10.5759983 8.872,10.912 C8.55733176,11.2480017 8.17066896,11.511999 7.712,11.704 C7.25333104,11.896001 6.72533632,11.992 6.128,11.992 C5.4879968,11.992 4.92533576,11.8666679 4.44,11.616 C3.95466424,11.3653321 3.54666832,11.0293354 3.216,10.608 C2.88533168,10.1866646 2.63466752,9.70133608 2.464,9.152 C2.29333248,8.60266392 2.208,8.02933632 2.208,7.432 C2.208,6.82399696 2.28266592,6.22933624 2.432,5.648 C2.58133408,5.06666376 2.81333176,4.5493356 3.128,4.096 C3.44266824,3.6426644 3.84799752,3.27733472 4.344,3 C4.84000248,2.72266528 5.4346632,2.584 6.128,2.584 C6.5546688,2.584 6.95733144,2.63466616 7.336,2.736 C7.71466856,2.83733384 8.05333184,2.98933232 8.352,3.192 C8.65066816,3.39466768 8.90133232,3.65333176 9.104,3.968 C9.30666768,4.28266824 9.44533296,4.65866448 9.52,5.096 L11.04,5.096 C10.9333328,4.42399664 10.7333348,3.85066904 10.44,3.376 C10.1466652,2.90133096 9.78400216,2.50933488 9.352,2.2 C8.91999784,1.89066512 8.42933608,1.66400072 7.88,1.52 C7.33066392,1.37599928 6.74666976,1.304 6.128,1.304 C5.2213288,1.304 4.42933672,1.47199832 3.752,1.808 C3.07466328,2.14400168 2.5093356,2.59466384 2.056,3.16 C1.6026644,3.72533616 1.26133448,4.38399624 1.032,5.136 C0.80266552,5.88800376 0.688,6.67999584 0.688,7.512 C0.688,8.2586704 0.81066544,8.9786632 1.056,9.672 C1.30133456,10.3653368 1.65866432,10.978664 2.128,11.512 C2.59733568,12.045336 3.16799664,12.4693318 3.84,12.784 C4.51200336,13.0986682 5.2746624,13.256 6.128,13.256 C6.80000336,13.256 7.46666336,13.1253346 8.128,12.864 C8.78933664,12.6026654 9.34399776,12.1733363 9.792,11.576 Z M14.16,8.872 C14.16,9.37333584 14.226666,9.81866472 14.36,10.208 C14.493334,10.5973353 14.6773322,10.9226654 14.912,11.184 C15.1466678,11.4453346 15.4213318,11.6453326 15.736,11.784 C16.0506682,11.9226674 16.3839982,11.992 16.736,11.992 C17.0880018,11.992 17.4213318,11.9226674 17.736,11.784 C18.0506682,11.6453326 18.3253322,11.4453346 18.56,11.184 C18.7946678,10.9226654 18.978666,10.5973353 19.112,10.208 C19.245334,9.81866472 19.312,9.37333584 19.312,8.872 C19.312,8.37066416 19.245334,7.92533528 19.112,7.536 C18.978666,7.14666472 18.7946678,6.818668 18.56,6.552 C18.3253322,6.285332 18.0506682,6.08266736 17.736,5.944 C17.4213318,5.80533264 17.0880018,5.736 16.736,5.736 C16.3839982,5.736 16.0506682,5.80533264 15.736,5.944 C15.4213318,6.08266736 15.1466678,6.285332 14.912,6.552 C14.6773322,6.818668 14.493334,7.14666472 14.36,7.536 C14.226666,7.92533528 14.16,8.37066416 14.16,8.872 Z M12.72,8.872 C12.72,8.26399696 12.8053325,7.69600264 12.976,7.168 C13.1466675,6.63999736 13.402665,6.18133528 13.744,5.792 C14.085335,5.40266472 14.5066642,5.09600112 15.008,4.872 C15.5093358,4.64799888 16.0853301,4.536 16.736,4.536 C17.3973366,4.536 17.9759975,4.64799888 18.472,4.872 C18.9680025,5.09600112 19.386665,5.40266472 19.728,5.792 C20.069335,6.18133528 20.3253325,6.63999736 20.496,7.168 C20.6666675,7.69600264 20.752,8.26399696 20.752,8.872 C20.752,9.48000304 20.6666675,10.0453307 20.496,10.568 C20.3253325,11.0906693 20.069335,11.5466647 19.728,11.936 C19.386665,12.3253353 18.9680025,12.6293322 18.472,12.848 C17.9759975,13.0666678 17.3973366,13.176 16.736,13.176 C16.0853301,13.176 15.5093358,13.0666678 15.008,12.848 C14.5066642,12.6293322 14.085335,12.3253353 13.744,11.936 C13.402665,11.5466647 13.1466675,11.0906693 12.976,10.568 C12.8053325,10.0453307 12.72,9.48000304 12.72,8.872 Z M26.08,13 L29.104,4.728 L27.68,4.728 L25.424,11.624 L25.392,11.624 L23.072,4.728 L21.552,4.728 L24.624,13 L26.08,13 Z M36.096,8.072 C36.0746666,7.7519984 36.0026673,7.44800144 35.88,7.16 C35.7573327,6.87199856 35.592001,6.62400104 35.384,6.416 C35.175999,6.20799896 34.9306681,6.04266728 34.648,5.92 C34.3653319,5.79733272 34.053335,5.736 33.712,5.736 C33.3599982,5.736 33.0426681,5.79733272 32.76,5.92 C32.4773319,6.04266728 32.2346677,6.2106656 32.032,6.424 C31.8293323,6.6373344 31.6693339,6.88533192 31.552,7.168 C31.4346661,7.45066808 31.3653334,7.7519984 31.344,8.072 L36.096,8.072 Z M37.408,10.376 C37.2266658,11.3040046 36.8266698,12.0026643 36.208,12.472 C35.5893302,12.9413357 34.8106714,13.176 33.872,13.176 C33.2106634,13.176 32.6373358,13.0693344 32.152,12.856 C31.6666642,12.6426656 31.2586683,12.3440019 30.928,11.96 C30.5973317,11.5759981 30.3493342,11.117336 30.184,10.584 C30.0186658,10.050664 29.9253334,9.46933648 29.904,8.84 C29.904,8.21066352 29.999999,7.63466928 30.192,7.112 C30.384001,6.58933072 30.6533316,6.13600192 31,5.752 C31.3466684,5.36799808 31.757331,5.0693344 32.232,4.856 C32.706669,4.6426656 33.2266638,4.536 33.792,4.536 C34.5280037,4.536 35.1386642,4.68799848 35.624,4.992 C36.1093358,5.29600152 36.4986652,5.68266432 36.792,6.152 C37.0853348,6.62133568 37.2879994,7.13333056 37.4,7.688 C37.5120006,8.24266944 37.5573334,8.77066416 37.536,9.272 L31.344,9.272 C31.3333333,9.63466848 31.3759995,9.97866504 31.472,10.304 C31.5680005,10.629335 31.7226656,10.9173321 31.936,11.168 C32.1493344,11.4186679 32.4213317,11.6186659 32.752,11.768 C33.0826683,11.9173341 33.4719978,11.992 33.92,11.992 C34.4960029,11.992 34.9679982,11.858668 35.336,11.592 C35.7040018,11.325332 35.9466661,10.9200027 36.064,10.376 L37.408,10.376 Z M38.896,4.728 L38.896,13 L40.256,13 L40.256,9.32 C40.256,8.786664 40.3093328,8.31466872 40.416,7.904 C40.5226672,7.49333128 40.6933322,7.14400144 40.928,6.856 C41.1626678,6.56799856 41.4719981,6.34933408 41.856,6.2 C42.2400019,6.05066592 42.7039973,5.976 43.248,5.976 L43.248,4.536 C42.5119963,4.51466656 41.9040024,4.6639984 41.424,4.984 C40.9439976,5.3040016 40.5386683,5.79999664 40.208,6.472 L40.176,6.472 L40.176,4.728 L38.896,4.728 Z M44.56,4.728 L44.56,13 L45.92,13 L45.92,8.328 C45.92,7.9546648 45.9706662,7.61066824 46.072,7.296 C46.1733338,6.98133176 46.3253323,6.70666784 46.528,6.472 C46.7306677,6.23733216 46.9839985,6.05600064 47.288,5.928 C47.5920015,5.79999936 47.9519979,5.736 48.368,5.736 C48.8906693,5.736 49.3013318,5.88533184 49.6,6.184 C49.8986682,6.48266816 50.048,6.88799744 50.048,7.4 L50.048,13 L51.408,13 L51.408,7.56 C51.408,7.11199776 51.3626671,6.70400184 51.272,6.336 C51.1813329,5.96799816 51.0240011,5.650668 50.8,5.384 C50.5759989,5.117332 50.2826685,4.90933408 49.92,4.76 C49.5573315,4.61066592 49.1040027,4.536 48.56,4.536 C47.3333272,4.536 46.4373362,5.03732832 45.872,6.04 L45.84,6.04 L45.84,4.728 L44.56,4.728 Z M60.784,12.968 C60.5493322,13.1066674 60.2240021,13.176 59.808,13.176 C59.4559982,13.176 59.176001,13.0773343 58.968,12.88 C58.759999,12.6826657 58.656,12.3600022 58.656,11.912 C58.2826648,12.3600022 57.8480025,12.6826657 57.352,12.88 C56.8559975,13.0773343 56.3200029,13.176 55.744,13.176 C55.3706648,13.176 55.0160017,13.1333338 54.68,13.048 C54.3439983,12.9626662 54.0533346,12.8293342 53.808,12.648 C53.5626654,12.4666658 53.3680007,12.2293348 53.224,11.936 C53.0799993,11.6426652 53.008,11.2880021 53.008,10.872 C53.008,10.4026643 53.0879992,10.0186682 53.248,9.72 C53.4080008,9.42133184 53.6186654,9.1786676 53.88,8.992 C54.1413346,8.8053324 54.4399983,8.66400048 54.776,8.568 C55.1120017,8.47199952 55.4559982,8.39200032 55.808,8.328 C56.1813352,8.25333296 56.5359983,8.19733352 56.872,8.16 C57.2080017,8.12266648 57.5039987,8.06933368 57.76,8 C58.0160013,7.93066632 58.2186659,7.829334 58.368,7.696 C58.5173341,7.562666 58.592,7.36800128 58.592,7.112 C58.592,6.81333184 58.5360006,6.57333424 58.424,6.392 C58.3119994,6.21066576 58.1680009,6.07200048 57.992,5.976 C57.8159991,5.87999952 57.6186678,5.81600016 57.4,5.784 C57.1813322,5.75199984 56.9653344,5.736 56.752,5.736 C56.1759971,5.736 55.6960019,5.84533224 55.312,6.064 C54.9279981,6.28266776 54.7200002,6.69599696 54.688,7.304 L53.328,7.304 C53.3493334,6.79199744 53.455999,6.36000176 53.648,6.008 C53.840001,5.65599824 54.0959984,5.37066776 54.416,5.152 C54.7360016,4.93333224 55.1013313,4.77600048 55.512,4.68 C55.9226687,4.58399952 56.3626643,4.536 56.832,4.536 C57.2053352,4.536 57.5759982,4.5626664 57.944,4.616 C58.3120018,4.6693336 58.6453318,4.77866584 58.944,4.944 C59.2426682,5.10933416 59.4826658,5.34133184 59.664,5.64 C59.8453342,5.93866816 59.936,6.3279976 59.936,6.808 L59.936,11.064 C59.936,11.3840016 59.9546665,11.6186659 59.992,11.768 C60.0293335,11.9173341 60.1546656,11.992 60.368,11.992 C60.4853339,11.992 60.6239992,11.9653336 60.784,11.912 L60.784,12.968 Z M58.576,8.728 C58.4053325,8.85600064 58.1813347,8.94933304 57.904,9.008 C57.6266653,9.06666696 57.3360015,9.11466648 57.032,9.152 C56.7279985,9.18933352 56.4213349,9.23199976 56.112,9.28 C55.8026651,9.32800024 55.5253346,9.4053328 55.28,9.512 C55.0346654,9.6186672 54.8346674,9.77066568 54.68,9.968 C54.5253326,10.1653343 54.448,10.434665 54.448,10.776 C54.448,11.0000011 54.4933329,11.1893326 54.584,11.344 C54.6746671,11.4986674 54.7919993,11.6239995 54.936,11.72 C55.0800007,11.8160005 55.247999,11.8853331 55.44,11.928 C55.632001,11.9706669 55.8346656,11.992 56.048,11.992 C56.4960022,11.992 56.8799984,11.9306673 57.2,11.808 C57.5200016,11.6853327 57.7813323,11.5306676 57.984,11.344 C58.1866677,11.1573324 58.3359995,10.9546678 58.432,10.736 C58.5280005,10.5173322 58.576,10.312001 58.576,10.12 L58.576,8.728 Z M62.048,4.728 L62.048,13 L63.408,13 L63.408,8.328 C63.408,7.9546648 63.4586662,7.61066824 63.56,7.296 C63.6613338,6.98133176 63.8133323,6.70666784 64.016,6.472 C64.2186677,6.23733216 64.4719985,6.05600064 64.776,5.928 C65.0800015,5.79999936 65.4399979,5.736 65.856,5.736 C66.3786693,5.736 66.7893318,5.88533184 67.088,6.184 C67.3866682,6.48266816 67.536,6.88799744 67.536,7.4 L67.536,13 L68.896,13 L68.896,7.56 C68.896,7.11199776 68.8506671,6.70400184 68.76,6.336 C68.6693329,5.96799816 68.5120011,5.650668 68.288,5.384 C68.0639989,5.117332 67.7706685,4.90933408 67.408,4.76 C67.0453315,4.61066592 66.5920027,4.536 66.048,4.536 C64.8213272,4.536 63.9253362,5.03732832 63.36,6.04 L63.328,6.04 L63.328,4.728 L62.048,4.728 Z M76.56,7.384 L77.968,7.384 C77.9146664,6.89333088 77.7866677,6.46933512 77.584,6.112 C77.3813323,5.75466488 77.1226682,5.45866784 76.808,5.224 C76.4933318,4.98933216 76.1306687,4.81600056 75.72,4.704 C75.3093313,4.59199944 74.8693357,4.536 74.4,4.536 C73.7493301,4.536 73.1786691,4.65066552 72.688,4.88 C72.1973309,5.10933448 71.789335,5.423998 71.464,5.824 C71.138665,6.224002 70.8960008,6.69333064 70.736,7.232 C70.5759992,7.77066936 70.496,8.34933024 70.496,8.968 C70.496,9.58666976 70.5786658,10.1546641 70.744,10.672 C70.9093342,11.1893359 71.154665,11.6346648 71.48,12.008 C71.805335,12.3813352 72.2106642,12.6693323 72.696,12.872 C73.1813358,13.0746677 73.7386635,13.176 74.368,13.176 C75.4240053,13.176 76.2586636,12.8986694 76.872,12.344 C77.4853364,11.7893306 77.8666659,11.0000051 78.016,9.976 L76.624,9.976 C76.5386662,10.6160032 76.3066686,11.1119982 75.928,11.464 C75.5493314,11.8160018 75.0240034,11.992 74.352,11.992 C73.9253312,11.992 73.5573349,11.9066675 73.248,11.736 C72.9386651,11.5653325 72.688001,11.3386681 72.496,11.056 C72.303999,10.7733319 72.1626671,10.4506685 72.072,10.088 C71.9813329,9.72533152 71.936,9.35200192 71.936,8.968 C71.936,8.55199792 71.9786662,8.14933528 72.064,7.76 C72.1493338,7.37066472 72.2906657,7.02666816 72.488,6.728 C72.6853343,6.42933184 72.9493317,6.18933424 73.28,6.008 C73.6106683,5.82666576 74.0213309,5.736 74.512,5.736 C75.0880029,5.736 75.546665,5.87999856 75.888,6.168 C76.229335,6.45600144 76.4533328,6.86133072 76.56,7.384 Z M85.28,8.072 C85.2586666,7.7519984 85.1866673,7.44800144 85.064,7.16 C84.9413327,6.87199856 84.776001,6.62400104 84.568,6.416 C84.359999,6.20799896 84.1146681,6.04266728 83.832,5.92 C83.5493319,5.79733272 83.237335,5.736 82.896,5.736 C82.5439982,5.736 82.2266681,5.79733272 81.944,5.92 C81.6613319,6.04266728 81.4186677,6.2106656 81.216,6.424 C81.0133323,6.6373344 80.8533339,6.88533192 80.736,7.168 C80.6186661,7.45066808 80.5493334,7.7519984 80.528,8.072 L85.28,8.072 Z M86.592,10.376 C86.4106658,11.3040046 86.0106698,12.0026643 85.392,12.472 C84.7733302,12.9413357 83.9946714,13.176 83.056,13.176 C82.3946634,13.176 81.8213358,13.0693344 81.336,12.856 C80.8506642,12.6426656 80.4426683,12.3440019 80.112,11.96 C79.7813317,11.5759981 79.5333342,11.117336 79.368,10.584 C79.2026658,10.050664 79.1093334,9.46933648 79.088,8.84 C79.088,8.21066352 79.183999,7.63466928 79.376,7.112 C79.568001,6.58933072 79.8373316,6.13600192 80.184,5.752 C80.5306684,5.36799808 80.941331,5.0693344 81.416,4.856 C81.890669,4.6426656 82.4106638,4.536 82.976,4.536 C83.7120037,4.536 84.3226642,4.68799848 84.808,4.992 C85.2933358,5.29600152 85.6826652,5.68266432 85.976,6.152 C86.2693348,6.62133568 86.4719994,7.13333056 86.584,7.688 C86.6960006,8.24266944 86.7413334,8.77066416 86.72,9.272 L80.528,9.272 C80.5173333,9.63466848 80.5599995,9.97866504 80.656,10.304 C80.7520005,10.629335 80.9066656,10.9173321 81.12,11.168 C81.3333344,11.4186679 81.6053317,11.6186659 81.936,11.768 C82.2666683,11.9173341 82.6559978,11.992 83.104,11.992 C83.6800029,11.992 84.1519982,11.858668 84.52,11.592 C84.8880018,11.325332 85.1306661,10.9200027 85.248,10.376 L86.592,10.376 Z" fill="#FFFFFF"></path>
                </g>
            </g>
        </g>
    </g>
</svg>
