<?xml version="1.0" encoding="UTF-8" standalone="no"?>
<svg width="812px" height="102px" viewBox="0 0 812 102" version="1.1" xmlns="http://www.w3.org/2000/svg" xmlns:xlink="http://www.w3.org/1999/xlink">
    <!-- Generator: Sketch 3.6.1 (26313) - http://www.bohemiancoding.com/sketch -->
    <title>Main logo</title>
    <desc>Created with Sketch.</desc>
    <defs></defs>
    <g id="rs-main-logo" stroke="none" stroke-width="1" fill="none" fill-rule="evenodd">
        <g id="main-logo-blue" transform="translate(-194.000000, -253.000000)">
            <g id="Main-logo" transform="translate(194.000000, 253.000000)">
                <g id="Group">
                    <path d="M543.653333,0.733333333 L495.706667,0.733333333 C491.066667,0.733333333 487.2,2.28 484.106667,5.37333333 C481.013333,8.46666667 479.466667,12.3333333 479.466667,16.9733333 L479.466667,85.0266667 C479.466667,89.6666667 481.013333,93.5333333 484.106667,96.6266667 C487.2,99.72 491.066667,101.266667 495.706667,101.266667 L543.653333,101.266667 C548.293333,101.266667 552.16,99.72 555.253333,96.6266667 C558.346667,93.5333333 559.893333,89.6666667 559.893333,85.0266667 L559.893333,80.3866667 L500.346667,80.3866667 L500.346667,21.6133333 L559.893333,21.6133333 L559.893333,16.9733333 C559.893333,12.3333333 558.346667,8.46666667 555.253333,5.37333333 C552.16,2.28 548.293333,0.733333333 543.653333,0.733333333 L543.653333,0.733333333 Z M634.133333,0.733333333 L586.186667,0.733333333 C581.546667,0.733333333 577.68,2.28 574.586667,5.37333333 C571.493333,8.46666667 569.946667,12.3333333 569.946667,16.9733333 L569.946667,21.6133333 L630.266667,21.6133333 L630.266667,40.9466667 L586.96,40.9466667 C582.32,40.9466667 578.453333,42.4933333 575.36,45.5866667 C572.266667,48.68 570.72,52.5466667 570.72,57.1866667 L570.72,85.0266667 C570.72,89.6666667 572.266667,93.5333333 575.36,96.6266667 C578.453333,99.72 582.32,101.266667 586.96,101.266667 L634.133333,101.266667 C638.773333,101.266667 642.64,99.72 645.733333,96.6266667 C648.826667,93.5333333 650.373333,89.6666667 650.373333,85.0266667 L650.373333,16.9733333 C650.373333,12.3333333 648.826667,8.46666667 645.733333,5.37333333 C642.64,2.28 638.773333,0.733333333 634.133333,0.733333333 L634.133333,0.733333333 Z M629.493333,80.3866667 L590.826667,80.3866667 L590.826667,61.0533333 L629.493333,61.0533333 L629.493333,80.3866667 L629.493333,80.3866667 Z M700.64,80.3866667 L680.533333,80.3866667 L680.533333,16.9733333 C680.533333,12.3333333 678.986667,8.46666667 675.893333,5.37333333 C672.8,2.28 668.933333,0.733333333 664.293333,0.733333333 L659.653333,0.733333333 L659.653333,85.0266667 C659.653333,89.6666667 661.2,93.5333333 664.293333,96.6266667 C667.386667,99.72 671.253333,101.266667 675.893333,101.266667 L703.733333,101.266667 C708.373333,101.266667 712.24,99.72 715.333333,96.6266667 C718.426667,93.5333333 719.973333,89.6666667 719.973333,85.0266667 L719.973333,80.3866667 L700.64,80.3866667 L700.64,80.3866667 Z M794.986667,61.0533333 C799.626667,61.0533333 803.493333,59.5066667 806.586667,56.4133333 C809.68,53.32 811.226667,49.4533333 811.226667,44.8133333 L811.226667,16.9733333 C811.226667,12.3333333 809.68,8.46666667 806.586667,5.37333333 C803.493333,2.28 799.626667,0.733333333 794.986667,0.733333333 L747.04,0.733333333 C742.4,0.733333333 738.533333,2.28 735.44,5.37333333 C732.346667,8.46666667 730.8,12.3333333 730.8,16.9733333 L730.8,85.0266667 C730.8,89.6666667 732.346667,93.5333333 735.44,96.6266667 C738.533333,99.72 742.4,101.266667 747.04,101.266667 L794.986667,101.266667 C799.626667,101.266667 803.493333,99.72 806.586667,96.6266667 C809.68,93.5333333 811.226667,89.6666667 811.226667,85.0266667 L811.226667,80.3866667 L750.906667,80.3866667 L750.906667,61.0533333 L794.986667,61.0533333 L794.986667,61.0533333 Z M750.906667,21.6133333 L789.573333,21.6133333 L789.573333,40.9466667 L750.906667,40.9466667 L750.906667,21.6133333 L750.906667,21.6133333 Z M453.946667,0.733333333 L406,0.733333333 C401.36,0.733333333 397.493333,2.28 394.4,5.37333333 C391.306667,8.46666667 389.76,12.3333333 389.76,16.9733333 L389.76,44.8133333 C389.76,49.4533333 391.306667,53.32 394.4,56.4133333 C397.493333,59.5066667 401.36,61.0533333 406,61.0533333 L449.306667,61.0533333 L449.306667,80.3866667 L389.76,80.3866667 L389.76,85.0266667 C389.76,89.6666667 391.306667,93.5333333 394.4,96.6266667 C397.493333,99.72 401.36,101.266667 406,101.266667 L453.946667,101.266667 C458.586667,101.266667 462.453333,99.72 465.546667,96.6266667 C468.64,93.5333333 470.186667,89.6666667 470.186667,85.0266667 L470.186667,57.1866667 C470.186667,52.5466667 468.64,48.68 465.546667,45.5866667 C462.453333,42.4933333 458.586667,40.9466667 453.946667,40.9466667 L410.64,40.9466667 L410.64,21.6133333 L470.96,21.6133333 L470.96,16.9733333 C470.96,12.3333333 469.413333,8.46666667 466.32,5.37333333 C462.453333,2.28 457.813333,0.733333333 453.946667,0.733333333 L453.946667,0.733333333 Z M64.1866667,0.733333333 L0,0.733333333 L0,101.266667 L20.88,101.266667 L20.88,81.16 L59.5466667,81.16 L59.5466667,85.0266667 C59.5466667,89.6666667 61.0933333,93.5333333 64.1866667,96.6266667 C68.0533333,99.72 71.92,101.266667 75.7866667,101.266667 L80.4266667,101.266667 L80.4266667,77.2933333 C80.4266667,72.6533333 78.88,68.7866667 75.7866667,65.6933333 C73.4666667,63.3733333 71.1466667,61.8266667 68.0533333,61.0533333 C71.1466667,60.28 73.4666667,58.7333333 75.7866667,56.4133333 C78.88,53.32 80.4266667,49.4533333 80.4266667,44.8133333 L80.4266667,16.9733333 C80.4266667,12.3333333 78.88,8.46666667 75.7866667,5.37333333 C72.6933333,2.28 68.8266667,0.733333333 64.1866667,0.733333333 L64.1866667,0.733333333 Z M59.5466667,60.28 L20.88,60.28 L20.88,21.6133333 L59.5466667,21.6133333 L59.5466667,60.28 L59.5466667,60.28 Z M94.3466667,24.7066667 L89.7066667,24.7066667 L89.7066667,101.266667 L110.586667,101.266667 L110.586667,41.72 C110.586667,37.08 109.04,33.2133333 105.946667,30.12 C102.853333,26.2533333 98.9866667,24.7066667 94.3466667,24.7066667 L94.3466667,24.7066667 Z M125.28,5.37333333 C122.186667,8.46666667 120.64,12.3333333 120.64,16.9733333 L120.64,85.0266667 C120.64,89.6666667 122.186667,93.5333333 125.28,96.6266667 C128.373333,99.72 132.24,101.266667 136.88,101.266667 L184.826667,101.266667 C189.466667,101.266667 193.333333,99.72 196.426667,96.6266667 C199.52,93.5333333 201.066667,89.6666667 201.066667,85.0266667 L201.066667,40.9466667 L180.186667,40.9466667 L180.186667,81.16 L141.52,81.16 L141.52,21.6133333 L201.066667,21.6133333 L201.066667,0.733333333 L136.88,0.733333333 C132.24,0.733333333 128.373333,2.28 125.28,5.37333333 L125.28,5.37333333 Z M270.666667,40.9466667 L232,40.9466667 L232,0.733333333 L211.12,0.733333333 L211.12,101.266667 L232,101.266667 L232,61.0533333 L270.666667,61.0533333 L270.666667,101.266667 L291.546667,101.266667 L291.546667,0.733333333 L270.666667,0.733333333 L270.666667,40.9466667 L270.666667,40.9466667 Z M300.826667,0.733333333 L300.826667,21.6133333 L320.933333,21.6133333 L320.933333,101.266667 L325.573333,101.266667 C330.213333,101.266667 334.08,99.72 337.173333,96.6266667 C340.266667,93.5333333 341.813333,89.6666667 341.813333,85.0266667 L341.813333,21.6133333 L361.92,21.6133333 L361.92,0.733333333 L300.826667,0.733333333 L300.826667,0.733333333 Z" id="Shape" fill="#0C223F"></path>
                    <path d="M90.48,5.37333333 C90.48,10.0133333 92.0266667,13.88 95.12,16.9733333 C98.2133333,20.0666667 102.08,21.6133333 106.72,21.6133333 L111.36,21.6133333 L111.36,0.733333333 L90.48,0.733333333 L90.48,5.37333333 L90.48,5.37333333 Z" id="Shape" fill="#FF9000"></path>
                </g>
            </g>
        </g>
    </g>
</svg>