
<svg width="199px" height="15px" viewBox="40 154 199 15" version="1.1" xmlns="http://www.w3.org/2000/svg" xmlns:xlink="http://www.w3.org/1999/xlink">
    <!-- Generator: Sketch 42 (36781) - http://www.bohemiancoding.com/sketch -->
    <desc>Created with Sketch.</desc>
    <defs></defs>
    <g id="SS-logo" stroke="none" stroke-width="1" fill="none" fill-rule="evenodd" transform="translate(40.000000, 154.000000)">
        <g id="Group">
            <g transform="translate(111.000000, 0.000000)" id="Shape">
                <path d="M7.856,3.92 L9.296,3.92 C9.276,3.29 9.156,2.75 8.936,2.296 C8.716,1.843 8.419,1.466 8.04,1.168 C7.66,0.868 7.22,0.651 6.72,0.512 C6.22,0.372 5.675,0.304 5.088,0.304 C4.565,0.304 4.056,0.371 3.56,0.504 C3.064,0.637 2.62,0.84 2.232,1.112 C1.842,1.384 1.532,1.732 1.296,2.152 C1.061,2.572 0.944,3.072 0.944,3.648 C0.944,4.171 1.048,4.605 1.256,4.952 C1.464,5.299 1.741,5.582 2.088,5.8 C2.435,6.02 2.828,6.195 3.264,6.328 C3.701,6.461 4.147,6.578 4.6,6.68 L5.936,6.976 C6.373,7.072 6.766,7.196 7.112,7.352 C7.459,7.507 7.736,7.707 7.944,7.952 C8.152,8.197 8.256,8.517 8.256,8.912 C8.256,9.328 8.171,9.669 8,9.936 C7.83,10.203 7.605,10.413 7.328,10.568 C7.051,10.723 6.738,10.832 6.392,10.896 C6.045,10.96 5.702,10.992 5.36,10.992 C4.933,10.992 4.517,10.939 4.112,10.832 C3.707,10.725 3.352,10.56 3.048,10.336 C2.744,10.112 2.498,9.826 2.312,9.48 C2.125,9.133 2.032,8.72 2.032,8.24 L0.592,8.24 C0.592,8.933 0.717,9.533 0.968,10.04 C1.218,10.547 1.56,10.963 1.992,11.288 C2.424,11.613 2.925,11.856 3.496,12.016 C4.066,12.176 4.672,12.256 5.312,12.256 C5.835,12.256 6.36,12.196 6.888,12.072 C7.416,11.949 7.893,11.752 8.32,11.48 C8.747,11.208 9.096,10.856 9.368,10.424 C9.64,9.992 9.776,9.472 9.776,8.864 C9.776,8.299 9.672,7.829 9.464,7.456 C9.256,7.083 8.979,6.773 8.632,6.528 C8.285,6.283 7.892,6.088 7.456,5.944 C7.019,5.8 6.573,5.674 6.12,5.568 C5.667,5.461 5.22,5.363 4.784,5.272 C4.347,5.182 3.954,5.067 3.608,4.928 C3.261,4.788 2.984,4.611 2.776,4.392 C2.568,4.172 2.464,3.888 2.464,3.536 C2.464,3.163 2.536,2.851 2.68,2.6 C2.824,2.35 3.016,2.15 3.256,2 C3.496,1.85 3.771,1.744 4.08,1.68 C4.39,1.616 4.704,1.584 5.024,1.584 C5.814,1.584 6.461,1.768 6.968,2.136 C7.475,2.504 7.771,3.099 7.856,3.92 L7.856,3.92 Z M17.136,7.072 L12.384,7.072 C12.404,6.752 12.474,6.452 12.592,6.168 C12.709,5.885 12.869,5.638 13.072,5.424 C13.275,5.211 13.517,5.044 13.8,4.92 C14.083,4.797 14.4,4.736 14.752,4.736 C15.092,4.736 15.405,4.796 15.688,4.92 C15.971,5.043 16.216,5.208 16.424,5.416 C16.632,5.624 16.797,5.872 16.92,6.16 C17.043,6.448 17.115,6.752 17.136,7.072 L17.136,7.072 Z M18.448,9.376 L17.104,9.376 C16.987,9.92 16.744,10.326 16.376,10.592 C16.008,10.859 15.536,10.992 14.96,10.992 C14.512,10.992 14.123,10.917 13.792,10.768 C13.462,10.618 13.189,10.418 12.976,10.168 C12.763,9.918 12.608,9.628 12.512,9.304 C12.416,8.979 12.372,8.634 12.384,8.272 L18.576,8.272 C18.596,7.772 18.552,7.242 18.44,6.688 C18.328,6.133 18.125,5.621 17.832,5.152 C17.539,4.682 17.149,4.296 16.664,3.992 C16.179,3.688 15.568,3.536 14.832,3.536 C14.267,3.536 13.747,3.643 13.272,3.856 C12.797,4.069 12.387,4.368 12.04,4.752 C11.693,5.136 11.424,5.589 11.232,6.112 C11.04,6.635 10.944,7.212 10.944,7.84 C10.964,8.47 11.059,9.05 11.224,9.584 C11.389,10.117 11.637,10.576 11.968,10.96 C12.298,11.344 12.708,11.643 13.192,11.856 C13.677,12.069 14.252,12.176 14.912,12.176 C15.852,12.176 16.629,11.941 17.248,11.472 C17.868,11.002 18.268,10.304 18.448,9.376 L18.448,9.376 Z M20.064,0.576 L20.064,12 L21.424,12 L21.424,0.576 L20.064,0.576 L20.064,0.576 Z M24.096,4.928 L24.096,12 L25.456,12 L25.456,4.928 L27.056,4.928 L27.056,3.728 L25.456,3.728 L25.456,2.576 C25.456,2.213 25.546,1.968 25.728,1.84 C25.908,1.712 26.165,1.648 26.496,1.648 C26.613,1.648 26.741,1.656 26.88,1.672 C27.02,1.688 27.147,1.717 27.264,1.76 L27.264,0.576 C27.136,0.533 26.989,0.501 26.824,0.48 C26.659,0.46 26.512,0.448 26.384,0.448 C25.637,0.448 25.069,0.621 24.68,0.968 C24.29,1.315 24.096,1.824 24.096,2.496 L24.096,3.728 L22.704,3.728 L22.704,4.928 L24.096,4.928 L24.096,4.928 Z M42.552,3.92 L43.992,3.92 C43.972,3.29 43.852,2.75 43.632,2.296 C43.412,1.843 43.115,1.466 42.736,1.168 C42.356,0.868 41.916,0.651 41.416,0.512 C40.916,0.372 40.371,0.304 39.784,0.304 C39.261,0.304 38.752,0.371 38.256,0.504 C37.76,0.637 37.316,0.84 36.928,1.112 C36.538,1.384 36.228,1.732 35.992,2.152 C35.757,2.572 35.64,3.072 35.64,3.648 C35.64,4.171 35.744,4.605 35.952,4.952 C36.16,5.299 36.437,5.582 36.784,5.8 C37.131,6.02 37.524,6.195 37.96,6.328 C38.397,6.461 38.843,6.578 39.296,6.68 L40.632,6.976 C41.069,7.072 41.462,7.196 41.808,7.352 C42.155,7.507 42.432,7.707 42.64,7.952 C42.848,8.197 42.952,8.517 42.952,8.912 C42.952,9.328 42.867,9.669 42.696,9.936 C42.526,10.203 42.301,10.413 42.024,10.568 C41.747,10.723 41.434,10.832 41.088,10.896 C40.741,10.96 40.398,10.992 40.056,10.992 C39.629,10.992 39.213,10.939 38.808,10.832 C38.403,10.725 38.048,10.56 37.744,10.336 C37.44,10.112 37.194,9.826 37.008,9.48 C36.821,9.133 36.728,8.72 36.728,8.24 L35.288,8.24 C35.288,8.933 35.413,9.533 35.664,10.04 C35.914,10.547 36.256,10.963 36.688,11.288 C37.12,11.613 37.621,11.856 38.192,12.016 C38.762,12.176 39.368,12.256 40.008,12.256 C40.531,12.256 41.056,12.196 41.584,12.072 C42.112,11.949 42.589,11.752 43.016,11.48 C43.443,11.208 43.792,10.856 44.064,10.424 C44.336,9.992 44.472,9.472 44.472,8.864 C44.472,8.299 44.368,7.829 44.16,7.456 C43.952,7.083 43.675,6.773 43.328,6.528 C42.981,6.283 42.588,6.088 42.152,5.944 C41.715,5.8 41.269,5.674 40.816,5.568 C40.363,5.461 39.916,5.363 39.48,5.272 C39.043,5.182 38.65,5.067 38.304,4.928 C37.957,4.788 37.68,4.611 37.472,4.392 C37.264,4.172 37.16,3.888 37.16,3.536 C37.16,3.163 37.232,2.851 37.376,2.6 C37.52,2.35 37.712,2.15 37.952,2 C38.192,1.85 38.467,1.744 38.776,1.68 C39.086,1.616 39.4,1.584 39.72,1.584 C40.51,1.584 41.157,1.768 41.664,2.136 C42.171,2.504 42.467,3.099 42.552,3.92 L42.552,3.92 Z M51.832,7.072 L47.08,7.072 C47.1,6.752 47.17,6.452 47.288,6.168 C47.405,5.885 47.565,5.638 47.768,5.424 C47.971,5.211 48.213,5.044 48.496,4.92 C48.779,4.797 49.096,4.736 49.448,4.736 C49.788,4.736 50.101,4.796 50.384,4.92 C50.667,5.043 50.912,5.208 51.12,5.416 C51.328,5.624 51.493,5.872 51.616,6.16 C51.739,6.448 51.811,6.752 51.832,7.072 L51.832,7.072 Z M53.144,9.376 L51.8,9.376 C51.683,9.92 51.44,10.326 51.072,10.592 C50.704,10.859 50.232,10.992 49.656,10.992 C49.208,10.992 48.819,10.917 48.488,10.768 C48.158,10.618 47.885,10.418 47.672,10.168 C47.459,9.918 47.304,9.628 47.208,9.304 C47.112,8.979 47.068,8.634 47.08,8.272 L53.272,8.272 C53.292,7.772 53.248,7.242 53.136,6.688 C53.024,6.133 52.821,5.621 52.528,5.152 C52.235,4.682 51.845,4.296 51.36,3.992 C50.875,3.688 50.264,3.536 49.528,3.536 C48.963,3.536 48.443,3.643 47.968,3.856 C47.493,4.069 47.083,4.368 46.736,4.752 C46.389,5.136 46.12,5.589 45.928,6.112 C45.736,6.635 45.64,7.212 45.64,7.84 C45.66,8.47 45.755,9.05 45.92,9.584 C46.085,10.117 46.333,10.576 46.664,10.96 C46.994,11.344 47.404,11.643 47.888,11.856 C48.373,12.069 48.948,12.176 49.608,12.176 C50.548,12.176 51.325,11.941 51.944,11.472 C52.564,11.002 52.964,10.304 53.144,9.376 L53.144,9.376 Z M54.632,3.728 L54.632,12 L55.992,12 L55.992,8.32 C55.992,7.787 56.045,7.315 56.152,6.904 C56.259,6.494 56.429,6.144 56.664,5.856 C56.899,5.568 57.208,5.349 57.592,5.2 C57.976,5.05 58.44,4.976 58.984,4.976 L58.984,3.536 C58.248,3.516 57.64,3.664 57.16,3.984 C56.68,4.304 56.275,4.8 55.944,5.472 L55.912,5.472 L55.912,3.728 L54.632,3.728 L54.632,3.728 Z M63.736,12 L66.76,3.728 L65.336,3.728 L63.08,10.624 L63.048,10.624 L60.728,3.728 L59.208,3.728 L62.28,12 L63.736,12 L63.736,12 Z M69.448,2.24 L69.448,0.576 L68.088,0.576 L68.088,2.24 L69.448,2.24 L69.448,2.24 Z M68.088,3.728 L68.088,12 L69.448,12 L69.448,3.728 L68.088,3.728 L68.088,3.728 Z M77.176,6.384 L78.584,6.384 C78.531,5.894 78.404,5.469 78.2,5.112 C77.997,4.755 77.74,4.459 77.424,4.224 C77.109,3.989 76.747,3.816 76.336,3.704 C75.926,3.592 75.486,3.536 75.016,3.536 C74.366,3.536 73.796,3.651 73.304,3.88 C72.814,4.11 72.404,4.424 72.08,4.824 C71.755,5.224 71.512,5.694 71.352,6.232 C71.192,6.772 71.112,7.349 71.112,7.968 C71.112,8.588 71.195,9.155 71.36,9.672 C71.525,10.189 71.77,10.635 72.096,11.008 C72.421,11.381 72.826,11.668 73.312,11.872 C73.797,12.075 74.355,12.176 74.984,12.176 C76.04,12.176 76.874,11.899 77.488,11.344 C78.101,10.789 78.483,10 78.632,8.976 L77.24,8.976 C77.155,9.616 76.923,10.112 76.544,10.464 C76.164,10.816 75.64,10.992 74.968,10.992 C74.541,10.992 74.173,10.907 73.864,10.736 C73.554,10.566 73.304,10.339 73.112,10.056 C72.92,9.773 72.779,9.451 72.688,9.088 C72.598,8.725 72.552,8.352 72.552,7.968 C72.552,7.552 72.595,7.148 72.68,6.76 C72.765,6.37 72.907,6.027 73.104,5.728 C73.301,5.428 73.564,5.188 73.896,5.008 C74.226,4.828 74.636,4.736 75.128,4.736 C75.704,4.736 76.163,4.88 76.504,5.168 C76.844,5.456 77.069,5.861 77.176,6.384 L77.176,6.384 Z M85.896,7.072 L81.144,7.072 C81.164,6.752 81.234,6.452 81.352,6.168 C81.469,5.885 81.629,5.638 81.832,5.424 C82.035,5.211 82.277,5.044 82.56,4.92 C82.843,4.797 83.16,4.736 83.512,4.736 C83.852,4.736 84.165,4.796 84.448,4.92 C84.731,5.043 84.976,5.208 85.184,5.416 C85.392,5.624 85.557,5.872 85.68,6.16 C85.803,6.448 85.875,6.752 85.896,7.072 L85.896,7.072 Z M87.208,9.376 L85.864,9.376 C85.747,9.92 85.504,10.326 85.136,10.592 C84.768,10.859 84.296,10.992 83.72,10.992 C83.272,10.992 82.883,10.917 82.552,10.768 C82.222,10.618 81.949,10.418 81.736,10.168 C81.523,9.918 81.368,9.628 81.272,9.304 C81.176,8.979 81.132,8.634 81.144,8.272 L87.336,8.272 C87.356,7.772 87.312,7.242 87.2,6.688 C87.088,6.133 86.885,5.621 86.592,5.152 C86.299,4.682 85.909,4.296 85.424,3.992 C84.939,3.688 84.328,3.536 83.592,3.536 C83.027,3.536 82.507,3.643 82.032,3.856 C81.557,4.069 81.147,4.368 80.8,4.752 C80.453,5.136 80.184,5.589 79.992,6.112 C79.8,6.635 79.704,7.212 79.704,7.84 C79.724,8.47 79.819,9.05 79.984,9.584 C80.149,10.117 80.397,10.576 80.728,10.96 C81.058,11.344 81.468,11.643 81.952,11.856 C82.437,12.069 83.012,12.176 83.672,12.176 C84.612,12.176 85.389,11.941 86.008,11.472 C86.628,11.002 87.028,10.304 87.208,9.376 L87.208,9.376 Z M29,6.23 L29,7.43 L33.335,7.43 L33.335,6.23 L29,6.23 Z" fill-opacity="0.25" fill="#000000"></path>
                <path d="M7.856,4.92 L9.296,4.92 C9.276,4.29 9.156,3.75 8.936,3.296 C8.716,2.843 8.419,2.466 8.04,2.168 C7.66,1.868 7.22,1.651 6.72,1.512 C6.22,1.372 5.675,1.304 5.088,1.304 C4.565,1.304 4.056,1.371 3.56,1.504 C3.064,1.637 2.62,1.84 2.232,2.112 C1.842,2.384 1.532,2.732 1.296,3.152 C1.061,3.572 0.944,4.072 0.944,4.648 C0.944,5.171 1.048,5.605 1.256,5.952 C1.464,6.299 1.741,6.582 2.088,6.8 C2.435,7.02 2.828,7.195 3.264,7.328 C3.701,7.461 4.147,7.578 4.6,7.68 L5.936,7.976 C6.373,8.072 6.766,8.196 7.112,8.352 C7.459,8.507 7.736,8.707 7.944,8.952 C8.152,9.197 8.256,9.517 8.256,9.912 C8.256,10.328 8.171,10.669 8,10.936 C7.83,11.203 7.605,11.413 7.328,11.568 C7.051,11.723 6.738,11.832 6.392,11.896 C6.045,11.96 5.702,11.992 5.36,11.992 C4.933,11.992 4.517,11.939 4.112,11.832 C3.707,11.725 3.352,11.56 3.048,11.336 C2.744,11.112 2.498,10.826 2.312,10.48 C2.125,10.133 2.032,9.72 2.032,9.24 L0.592,9.24 C0.592,9.933 0.717,10.533 0.968,11.04 C1.218,11.547 1.56,11.963 1.992,12.288 C2.424,12.613 2.925,12.856 3.496,13.016 C4.066,13.176 4.672,13.256 5.312,13.256 C5.835,13.256 6.36,13.196 6.888,13.072 C7.416,12.949 7.893,12.752 8.32,12.48 C8.747,12.208 9.096,11.856 9.368,11.424 C9.64,10.992 9.776,10.472 9.776,9.864 C9.776,9.299 9.672,8.829 9.464,8.456 C9.256,8.083 8.979,7.773 8.632,7.528 C8.285,7.283 7.892,7.088 7.456,6.944 C7.019,6.8 6.573,6.674 6.12,6.568 C5.667,6.461 5.22,6.363 4.784,6.272 C4.347,6.182 3.954,6.067 3.608,5.928 C3.261,5.788 2.984,5.611 2.776,5.392 C2.568,5.172 2.464,4.888 2.464,4.536 C2.464,4.163 2.536,3.851 2.68,3.6 C2.824,3.35 3.016,3.15 3.256,3 C3.496,2.85 3.771,2.744 4.08,2.68 C4.39,2.616 4.704,2.584 5.024,2.584 C5.814,2.584 6.461,2.768 6.968,3.136 C7.475,3.504 7.771,4.099 7.856,4.92 L7.856,4.92 Z M17.136,8.072 L12.384,8.072 C12.404,7.752 12.474,7.452 12.592,7.168 C12.709,6.885 12.869,6.638 13.072,6.424 C13.275,6.211 13.517,6.044 13.8,5.92 C14.083,5.797 14.4,5.736 14.752,5.736 C15.092,5.736 15.405,5.796 15.688,5.92 C15.971,6.043 16.216,6.208 16.424,6.416 C16.632,6.624 16.797,6.872 16.92,7.16 C17.043,7.448 17.115,7.752 17.136,8.072 L17.136,8.072 Z M18.448,10.376 L17.104,10.376 C16.987,10.92 16.744,11.326 16.376,11.592 C16.008,11.859 15.536,11.992 14.96,11.992 C14.512,11.992 14.123,11.917 13.792,11.768 C13.462,11.618 13.189,11.418 12.976,11.168 C12.763,10.918 12.608,10.628 12.512,10.304 C12.416,9.979 12.372,9.634 12.384,9.272 L18.576,9.272 C18.596,8.772 18.552,8.242 18.44,7.688 C18.328,7.133 18.125,6.621 17.832,6.152 C17.539,5.682 17.149,5.296 16.664,4.992 C16.179,4.688 15.568,4.536 14.832,4.536 C14.267,4.536 13.747,4.643 13.272,4.856 C12.797,5.069 12.387,5.368 12.04,5.752 C11.693,6.136 11.424,6.589 11.232,7.112 C11.04,7.635 10.944,8.212 10.944,8.84 C10.964,9.47 11.059,10.05 11.224,10.584 C11.389,11.117 11.637,11.576 11.968,11.96 C12.298,12.344 12.708,12.643 13.192,12.856 C13.677,13.069 14.252,13.176 14.912,13.176 C15.852,13.176 16.629,12.941 17.248,12.472 C17.868,12.002 18.268,11.304 18.448,10.376 L18.448,10.376 Z M20.064,1.576 L20.064,13 L21.424,13 L21.424,1.576 L20.064,1.576 L20.064,1.576 Z M24.096,5.928 L24.096,13 L25.456,13 L25.456,5.928 L27.056,5.928 L27.056,4.728 L25.456,4.728 L25.456,3.576 C25.456,3.213 25.546,2.968 25.728,2.84 C25.908,2.712 26.165,2.648 26.496,2.648 C26.613,2.648 26.741,2.656 26.88,2.672 C27.02,2.688 27.147,2.717 27.264,2.76 L27.264,1.576 C27.136,1.533 26.989,1.501 26.824,1.48 C26.659,1.46 26.512,1.448 26.384,1.448 C25.637,1.448 25.069,1.621 24.68,1.968 C24.29,2.315 24.096,2.824 24.096,3.496 L24.096,4.728 L22.704,4.728 L22.704,5.928 L24.096,5.928 L24.096,5.928 Z M42.552,4.92 L43.992,4.92 C43.972,4.29 43.852,3.75 43.632,3.296 C43.412,2.843 43.115,2.466 42.736,2.168 C42.356,1.868 41.916,1.651 41.416,1.512 C40.916,1.372 40.371,1.304 39.784,1.304 C39.261,1.304 38.752,1.371 38.256,1.504 C37.76,1.637 37.316,1.84 36.928,2.112 C36.538,2.384 36.228,2.732 35.992,3.152 C35.757,3.572 35.64,4.072 35.64,4.648 C35.64,5.171 35.744,5.605 35.952,5.952 C36.16,6.299 36.437,6.582 36.784,6.8 C37.131,7.02 37.524,7.195 37.96,7.328 C38.397,7.461 38.843,7.578 39.296,7.68 L40.632,7.976 C41.069,8.072 41.462,8.196 41.808,8.352 C42.155,8.507 42.432,8.707 42.64,8.952 C42.848,9.197 42.952,9.517 42.952,9.912 C42.952,10.328 42.867,10.669 42.696,10.936 C42.526,11.203 42.301,11.413 42.024,11.568 C41.747,11.723 41.434,11.832 41.088,11.896 C40.741,11.96 40.398,11.992 40.056,11.992 C39.629,11.992 39.213,11.939 38.808,11.832 C38.403,11.725 38.048,11.56 37.744,11.336 C37.44,11.112 37.194,10.826 37.008,10.48 C36.821,10.133 36.728,9.72 36.728,9.24 L35.288,9.24 C35.288,9.933 35.413,10.533 35.664,11.04 C35.914,11.547 36.256,11.963 36.688,12.288 C37.12,12.613 37.621,12.856 38.192,13.016 C38.762,13.176 39.368,13.256 40.008,13.256 C40.531,13.256 41.056,13.196 41.584,13.072 C42.112,12.949 42.589,12.752 43.016,12.48 C43.443,12.208 43.792,11.856 44.064,11.424 C44.336,10.992 44.472,10.472 44.472,9.864 C44.472,9.299 44.368,8.829 44.16,8.456 C43.952,8.083 43.675,7.773 43.328,7.528 C42.981,7.283 42.588,7.088 42.152,6.944 C41.715,6.8 41.269,6.674 40.816,6.568 C40.363,6.461 39.916,6.363 39.48,6.272 C39.043,6.182 38.65,6.067 38.304,5.928 C37.957,5.788 37.68,5.611 37.472,5.392 C37.264,5.172 37.16,4.888 37.16,4.536 C37.16,4.163 37.232,3.851 37.376,3.6 C37.52,3.35 37.712,3.15 37.952,3 C38.192,2.85 38.467,2.744 38.776,2.68 C39.086,2.616 39.4,2.584 39.72,2.584 C40.51,2.584 41.157,2.768 41.664,3.136 C42.171,3.504 42.467,4.099 42.552,4.92 L42.552,4.92 Z M51.832,8.072 L47.08,8.072 C47.1,7.752 47.17,7.452 47.288,7.168 C47.405,6.885 47.565,6.638 47.768,6.424 C47.971,6.211 48.213,6.044 48.496,5.92 C48.779,5.797 49.096,5.736 49.448,5.736 C49.788,5.736 50.101,5.796 50.384,5.92 C50.667,6.043 50.912,6.208 51.12,6.416 C51.328,6.624 51.493,6.872 51.616,7.16 C51.739,7.448 51.811,7.752 51.832,8.072 L51.832,8.072 Z M53.144,10.376 L51.8,10.376 C51.683,10.92 51.44,11.326 51.072,11.592 C50.704,11.859 50.232,11.992 49.656,11.992 C49.208,11.992 48.819,11.917 48.488,11.768 C48.158,11.618 47.885,11.418 47.672,11.168 C47.459,10.918 47.304,10.628 47.208,10.304 C47.112,9.979 47.068,9.634 47.08,9.272 L53.272,9.272 C53.292,8.772 53.248,8.242 53.136,7.688 C53.024,7.133 52.821,6.621 52.528,6.152 C52.235,5.682 51.845,5.296 51.36,4.992 C50.875,4.688 50.264,4.536 49.528,4.536 C48.963,4.536 48.443,4.643 47.968,4.856 C47.493,5.069 47.083,5.368 46.736,5.752 C46.389,6.136 46.12,6.589 45.928,7.112 C45.736,7.635 45.64,8.212 45.64,8.84 C45.66,9.47 45.755,10.05 45.92,10.584 C46.085,11.117 46.333,11.576 46.664,11.96 C46.994,12.344 47.404,12.643 47.888,12.856 C48.373,13.069 48.948,13.176 49.608,13.176 C50.548,13.176 51.325,12.941 51.944,12.472 C52.564,12.002 52.964,11.304 53.144,10.376 L53.144,10.376 Z M54.632,4.728 L54.632,13 L55.992,13 L55.992,9.32 C55.992,8.787 56.045,8.315 56.152,7.904 C56.259,7.494 56.429,7.144 56.664,6.856 C56.899,6.568 57.208,6.349 57.592,6.2 C57.976,6.05 58.44,5.976 58.984,5.976 L58.984,4.536 C58.248,4.516 57.64,4.664 57.16,4.984 C56.68,5.304 56.275,5.8 55.944,6.472 L55.912,6.472 L55.912,4.728 L54.632,4.728 L54.632,4.728 Z M63.736,13 L66.76,4.728 L65.336,4.728 L63.08,11.624 L63.048,11.624 L60.728,4.728 L59.208,4.728 L62.28,13 L63.736,13 L63.736,13 Z M69.448,3.24 L69.448,1.576 L68.088,1.576 L68.088,3.24 L69.448,3.24 L69.448,3.24 Z M68.088,4.728 L68.088,13 L69.448,13 L69.448,4.728 L68.088,4.728 L68.088,4.728 Z M77.176,7.384 L78.584,7.384 C78.531,6.894 78.404,6.469 78.2,6.112 C77.997,5.755 77.74,5.459 77.424,5.224 C77.109,4.989 76.747,4.816 76.336,4.704 C75.926,4.592 75.486,4.536 75.016,4.536 C74.366,4.536 73.796,4.651 73.304,4.88 C72.814,5.11 72.404,5.424 72.08,5.824 C71.755,6.224 71.512,6.694 71.352,7.232 C71.192,7.772 71.112,8.349 71.112,8.968 C71.112,9.588 71.195,10.155 71.36,10.672 C71.525,11.189 71.77,11.635 72.096,12.008 C72.421,12.381 72.826,12.668 73.312,12.872 C73.797,13.075 74.355,13.176 74.984,13.176 C76.04,13.176 76.874,12.899 77.488,12.344 C78.101,11.789 78.483,11 78.632,9.976 L77.24,9.976 C77.155,10.616 76.923,11.112 76.544,11.464 C76.164,11.816 75.64,11.992 74.968,11.992 C74.541,11.992 74.173,11.907 73.864,11.736 C73.554,11.566 73.304,11.339 73.112,11.056 C72.92,10.773 72.779,10.451 72.688,10.088 C72.598,9.725 72.552,9.352 72.552,8.968 C72.552,8.552 72.595,8.148 72.68,7.76 C72.765,7.37 72.907,7.027 73.104,6.728 C73.301,6.428 73.564,6.188 73.896,6.008 C74.226,5.828 74.636,5.736 75.128,5.736 C75.704,5.736 76.163,5.88 76.504,6.168 C76.844,6.456 77.069,6.861 77.176,7.384 L77.176,7.384 Z M85.896,8.072 L81.144,8.072 C81.164,7.752 81.234,7.452 81.352,7.168 C81.469,6.885 81.629,6.638 81.832,6.424 C82.035,6.211 82.277,6.044 82.56,5.92 C82.843,5.797 83.16,5.736 83.512,5.736 C83.852,5.736 84.165,5.796 84.448,5.92 C84.731,6.043 84.976,6.208 85.184,6.416 C85.392,6.624 85.557,6.872 85.68,7.16 C85.803,7.448 85.875,7.752 85.896,8.072 L85.896,8.072 Z M87.208,10.376 L85.864,10.376 C85.747,10.92 85.504,11.326 85.136,11.592 C84.768,11.859 84.296,11.992 83.72,11.992 C83.272,11.992 82.883,11.917 82.552,11.768 C82.222,11.618 81.949,11.418 81.736,11.168 C81.523,10.918 81.368,10.628 81.272,10.304 C81.176,9.979 81.132,9.634 81.144,9.272 L87.336,9.272 C87.356,8.772 87.312,8.242 87.2,7.688 C87.088,7.133 86.885,6.621 86.592,6.152 C86.299,5.682 85.909,5.296 85.424,4.992 C84.939,4.688 84.328,4.536 83.592,4.536 C83.027,4.536 82.507,4.643 82.032,4.856 C81.557,5.069 81.147,5.368 80.8,5.752 C80.453,6.136 80.184,6.589 79.992,7.112 C79.8,7.635 79.704,8.212 79.704,8.84 C79.724,9.47 79.819,10.05 79.984,10.584 C80.149,11.117 80.397,11.576 80.728,11.96 C81.058,12.344 81.468,12.643 81.952,12.856 C82.437,13.069 83.012,13.176 83.672,13.176 C84.612,13.176 85.389,12.941 86.008,12.472 C86.628,12.002 87.028,11.304 87.208,10.376 L87.208,10.376 Z M29,7.23 L29,8.43 L33.335,8.43 L33.335,7.23 L29,7.23 Z" fill="#FFFFFF"></path>
            </g>
            <g id="Shape">
                <path d="M70.3,0 L64.1,0 C63.5,0 63,0.2 62.6,0.6 C62.2,1 62,1.5 62,2.1 L62,10.9 C62,11.5 62.2,12 62.6,12.4 C63,12.8 63.5,13 64.1,13 L70.3,13 C70.9,13 71.4,12.8 71.8,12.4 C72.2,12 72.4,11.5 72.4,10.9 L72.4,10.3 L64.7,10.3 L64.7,2.7 L72.4,2.7 L72.4,2.1 C72.4,1.5 72.2,1 71.8,0.6 C71.4,0.2 70.9,1.11022302e-16 70.3,1.11022302e-16 L70.3,0 Z M82,0 L75.8,0 C75.2,0 74.7,0.2 74.3,0.6 C73.9,1 73.7,1.5 73.7,2.1 L73.7,2.7 L81.5,2.7 L81.5,5.2 L75.9,5.2 C75.3,5.2 74.8,5.4 74.4,5.8 C74,6.2 73.8,6.7 73.8,7.3 L73.8,10.9 C73.8,11.5 74,12 74.4,12.4 C74.8,12.8 75.3,13 75.9,13 L82,13 C82.6,13 83.1,12.8 83.5,12.4 C83.9,12 84.1,11.5 84.1,10.9 L84.1,2.1 C84.1,1.5 83.9,1 83.5,0.6 C83.1,0.2 82.6,1.11022302e-16 82,1.11022302e-16 L82,0 Z M81.4,10.3 L76.4,10.3 L76.4,7.8 L81.4,7.8 L81.4,10.3 L81.4,10.3 Z M90.6,10.3 L88,10.3 L88,2.1 C88,1.5 87.8,1 87.4,0.6 C87,0.2 86.5,0 85.9,0 L85.3,0 L85.3,10.9 C85.3,11.5 85.5,12 85.9,12.4 C86.3,12.8 86.8,13 87.4,13 L91,13 C91.6,13 92.1,12.8 92.5,12.4 C92.9,12 93.1,11.5 93.1,10.9 L93.1,10.3 L90.6,10.3 L90.6,10.3 Z M102.8,7.8 C103.4,7.8 103.9,7.6 104.3,7.2 C104.7,6.8 104.9,6.3 104.9,5.7 L104.9,2.1 C104.9,1.5 104.7,1 104.3,0.6 C103.9,0.2 103.4,0 102.8,0 L96.6,0 C96,0 95.5,0.2 95.1,0.6 C94.7,1 94.5,1.5 94.5,2.1 L94.5,10.9 C94.5,11.5 94.7,12 95.1,12.4 C95.5,12.8 96,13 96.6,13 L102.8,13 C103.4,13 103.9,12.8 104.3,12.4 C104.7,12 104.9,11.5 104.9,10.9 L104.9,10.3 L97.1,10.3 L97.1,7.8 L102.8,7.8 L102.8,7.8 Z M97.1,2.7 L102.1,2.7 L102.1,5.2 L97.1,5.2 L97.1,2.7 L97.1,2.7 Z M58.7,0 L52.5,0 C51.9,0 51.4,0.2 51,0.6 C50.6,1 50.4,1.5 50.4,2.1 L50.4,5.7 C50.4,6.3 50.6,6.8 51,7.2 C51.4,7.6 51.9,7.8 52.5,7.8 L58.1,7.8 L58.1,10.3 L50.4,10.3 L50.4,10.9 C50.4,11.5 50.6,12 51,12.4 C51.4,12.8 51.9,13 52.5,13 L58.7,13 C59.3,13 59.8,12.8 60.2,12.4 C60.6,12 60.8,11.5 60.8,10.9 L60.8,7.3 C60.8,6.7 60.6,6.2 60.2,5.8 C59.8,5.4 59.3,5.2 58.7,5.2 L53.1,5.2 L53.1,2.7 L60.9,2.7 L60.9,2.1 C60.9,1.5 60.7,1 60.3,0.6 C59.8,0.2 59.2,1.11022302e-16 58.7,1.11022302e-16 L58.7,0 Z M8.3,0 L0,0 L0,13 L2.7,13 L2.7,10.4 L7.7,10.4 L7.7,10.9 C7.7,11.5 7.9,12 8.3,12.4 C8.8,12.8 9.3,13 9.8,13 L10.4,13 L10.4,9.9 C10.4,9.3 10.2,8.8 9.8,8.4 C9.5,8.1 9.2,7.9 8.8,7.8 C9.2,7.7 9.5,7.5 9.8,7.2 C10.2,6.8 10.4,6.3 10.4,5.7 L10.4,2.1 C10.4,1.5 10.2,1 9.8,0.6 C9.4,0.2 8.9,0 8.3,0 L8.3,0 Z M7.7,7.7 L2.7,7.7 L2.7,2.7 L7.7,2.7 L7.7,7.7 L7.7,7.7 Z M12.2,3.1 L11.6,3.1 L11.6,13 L14.3,13 L14.3,5.3 C14.3,4.7 14.1,4.2 13.7,3.8 C13.3,3.3 12.8,3.1 12.2,3.1 L12.2,3.1 Z M16.2,0.6 C15.8,1 15.6,1.5 15.6,2.1 L15.6,10.9 C15.6,11.5 15.8,12 16.2,12.4 C16.6,12.8 17.1,13 17.7,13 L23.9,13 C24.5,13 25,12.8 25.4,12.4 C25.8,12 26,11.5 26,10.9 L26,5.2 L23.3,5.2 L23.3,10.4 L18.3,10.4 L18.3,2.7 L26,2.7 L26,0 L17.7,0 C17.1,0 16.6,0.2 16.2,0.6 L16.2,0.6 Z M35,5.2 L30,5.2 L30,0 L27.3,0 L27.3,13 L30,13 L30,7.8 L35,7.8 L35,13 L37.7,13 L37.7,0 L35,0 L35,5.2 L35,5.2 Z M38.9,0 L38.9,2.7 L41.5,2.7 L41.5,13 L42.1,13 C42.7,13 43.2,12.8 43.6,12.4 C44,12 44.2,11.5 44.2,10.9 L44.2,2.7 L46.8,2.7 L46.8,0 L38.9,0 L38.9,0 Z" fill="#000000" opacity="0.25"></path>
                <path d="M70.3,1 L64.1,1 C63.5,1 63,1.2 62.6,1.6 C62.2,2 62,2.5 62,3.1 L62,11.9 C62,12.5 62.2,13 62.6,13.4 C63,13.8 63.5,14 64.1,14 L70.3,14 C70.9,14 71.4,13.8 71.8,13.4 C72.2,13 72.4,12.5 72.4,11.9 L72.4,11.3 L64.7,11.3 L64.7,3.7 L72.4,3.7 L72.4,3.1 C72.4,2.5 72.2,2 71.8,1.6 C71.4,1.2 70.9,1 70.3,1 L70.3,1 Z M82,1 L75.8,1 C75.2,1 74.7,1.2 74.3,1.6 C73.9,2 73.7,2.5 73.7,3.1 L73.7,3.7 L81.5,3.7 L81.5,6.2 L75.9,6.2 C75.3,6.2 74.8,6.4 74.4,6.8 C74,7.2 73.8,7.7 73.8,8.3 L73.8,11.9 C73.8,12.5 74,13 74.4,13.4 C74.8,13.8 75.3,14 75.9,14 L82,14 C82.6,14 83.1,13.8 83.5,13.4 C83.9,13 84.1,12.5 84.1,11.9 L84.1,3.1 C84.1,2.5 83.9,2 83.5,1.6 C83.1,1.2 82.6,1 82,1 L82,1 Z M81.4,11.3 L76.4,11.3 L76.4,8.8 L81.4,8.8 L81.4,11.3 L81.4,11.3 Z M90.6,11.3 L88,11.3 L88,3.1 C88,2.5 87.8,2 87.4,1.6 C87,1.2 86.5,1 85.9,1 L85.3,1 L85.3,11.9 C85.3,12.5 85.5,13 85.9,13.4 C86.3,13.8 86.8,14 87.4,14 L91,14 C91.6,14 92.1,13.8 92.5,13.4 C92.9,13 93.1,12.5 93.1,11.9 L93.1,11.3 L90.6,11.3 L90.6,11.3 Z M102.8,8.8 C103.4,8.8 103.9,8.6 104.3,8.2 C104.7,7.8 104.9,7.3 104.9,6.7 L104.9,3.1 C104.9,2.5 104.7,2 104.3,1.6 C103.9,1.2 103.4,1 102.8,1 L96.6,1 C96,1 95.5,1.2 95.1,1.6 C94.7,2 94.5,2.5 94.5,3.1 L94.5,11.9 C94.5,12.5 94.7,13 95.1,13.4 C95.5,13.8 96,14 96.6,14 L102.8,14 C103.4,14 103.9,13.8 104.3,13.4 C104.7,13 104.9,12.5 104.9,11.9 L104.9,11.3 L97.1,11.3 L97.1,8.8 L102.8,8.8 L102.8,8.8 Z M97.1,3.7 L102.1,3.7 L102.1,6.2 L97.1,6.2 L97.1,3.7 L97.1,3.7 Z M58.7,1 L52.5,1 C51.9,1 51.4,1.2 51,1.6 C50.6,2 50.4,2.5 50.4,3.1 L50.4,6.7 C50.4,7.3 50.6,7.8 51,8.2 C51.4,8.6 51.9,8.8 52.5,8.8 L58.1,8.8 L58.1,11.3 L50.4,11.3 L50.4,11.9 C50.4,12.5 50.6,13 51,13.4 C51.4,13.8 51.9,14 52.5,14 L58.7,14 C59.3,14 59.8,13.8 60.2,13.4 C60.6,13 60.8,12.5 60.8,11.9 L60.8,8.3 C60.8,7.7 60.6,7.2 60.2,6.8 C59.8,6.4 59.3,6.2 58.7,6.2 L53.1,6.2 L53.1,3.7 L60.9,3.7 L60.9,3.1 C60.9,2.5 60.7,2 60.3,1.6 C59.8,1.2 59.2,1 58.7,1 L58.7,1 Z M8.3,1 L0,1 L0,14 L2.7,14 L2.7,11.4 L7.7,11.4 L7.7,11.9 C7.7,12.5 7.9,13 8.3,13.4 C8.8,13.8 9.3,14 9.8,14 L10.4,14 L10.4,10.9 C10.4,10.3 10.2,9.8 9.8,9.4 C9.5,9.1 9.2,8.9 8.8,8.8 C9.2,8.7 9.5,8.5 9.8,8.2 C10.2,7.8 10.4,7.3 10.4,6.7 L10.4,3.1 C10.4,2.5 10.2,2 9.8,1.6 C9.4,1.2 8.9,1 8.3,1 L8.3,1 Z M7.7,8.7 L2.7,8.7 L2.7,3.7 L7.7,3.7 L7.7,8.7 L7.7,8.7 Z M12.2,4.1 L11.6,4.1 L11.6,14 L14.3,14 L14.3,6.3 C14.3,5.7 14.1,5.2 13.7,4.8 C13.3,4.3 12.8,4.1 12.2,4.1 L12.2,4.1 Z M16.2,1.6 C15.8,2 15.6,2.5 15.6,3.1 L15.6,11.9 C15.6,12.5 15.8,13 16.2,13.4 C16.6,13.8 17.1,14 17.7,14 L23.9,14 C24.5,14 25,13.8 25.4,13.4 C25.8,13 26,12.5 26,11.9 L26,6.2 L23.3,6.2 L23.3,11.4 L18.3,11.4 L18.3,3.7 L26,3.7 L26,1 L17.7,1 C17.1,1 16.6,1.2 16.2,1.6 L16.2,1.6 Z M35,6.2 L30,6.2 L30,1 L27.3,1 L27.3,14 L30,14 L30,8.8 L35,8.8 L35,14 L37.7,14 L37.7,1 L35,1 L35,6.2 L35,6.2 Z M38.9,1 L38.9,3.7 L41.5,3.7 L41.5,14 L42.1,14 C42.7,14 43.2,13.8 43.6,13.4 C44,13 44.2,12.5 44.2,11.9 L44.2,3.7 L46.8,3.7 L46.8,1 L38.9,1 L38.9,1 Z" fill="#FFFFFF"></path>
                <path d="M11.7,0.6 C11.7,1.2 11.9,1.7 12.3,2.1 C12.7,2.5 13.2,2.7 13.8,2.7 L14.4,2.7 L14.4,0 L11.7,0 L11.7,0.6 L11.7,0.6 Z" fill="#000000" opacity="0.25"></path>
                <path d="M11.7,1.6 C11.7,2.2 11.9,2.7 12.3,3.1 C12.7,3.5 13.2,3.7 13.8,3.7 L14.4,3.7 L14.4,1 L11.7,1 L11.7,1.6 L11.7,1.6 Z" fill="#F3A02D"></path>
            </g>
        </g>
    </g>
</svg>
