<svg width="16" height="8" viewBox="0 0 16 8" xmlns="http://www.w3.org/2000/svg"><title>icon-link</title><path d="M12.688 0h-2.02s1.082.708 1.316 2h.704C13.42 2 14 2.58 14 3.313v1.333C14 5.38 13.423 6 12.69 6H8.02c-.732 0-1.353-.62-1.353-1.354V3.333h-2v1.313c0 .48.104.938.288 1.354.525 1.175 1.704 2 3.067 2h4.667C14.53 8 16 6.487 16 4.646V3.313C16.002 1.47 14.532 0 12.69 0zm-1.62 2C10.562.82 9.395 0 8.02 0H3.355C1.512 0 0 1.47 0 3.313v1.333C0 6.488 1.512 8 3.354 8h1.98s-1.076-.708-1.34-2h-.64c-.734 0-1.355-.62-1.355-1.354V3.313C2 2.58 2.62 2 3.352 2H8.02c.733 0 1.313.58 1.313 1.313v1.354h2V3.313c0-.467-.096-.913-.267-1.313z" fill="#8596A5"/></svg>