<svg width="12" height="12" viewBox="0 0 12 12" xmlns="http://www.w3.org/2000/svg"><title>Fill 205</title><path d="M1.273 12h9.454c.588 0 .972-.17 1.163-.49.192-.338.133-.73-.177-1.193l-4.138-6.21V.995h.53c.133 0 .25-.056.354-.154.102-.097.16-.21.16-.35 0-.125-.058-.238-.16-.336C8.355.056 8.237 0 8.09 0H3.91c-.148 0-.266.056-.37.154-.102.098-.16.21-.16.337 0 .14.058.253.16.35.104.1.222.155.37.155h.515v3.112l-4.138 6.21c-.31.463-.37.855-.177 1.192.192.32.575.49 1.163.49zm4.035-7.36l.16-.24V.996H6.53V4.4l.16.24 2.24 3.35H3.07l2.237-3.35z" fill="#8596A5"/></svg>