<svg width="14" height="14" viewBox="0 0 14 14" xmlns="http://www.w3.org/2000/svg"><title>icon-calendar</title><path d="M13.75 1H12v1.272c0 .703-.725 1.228-1.475 1.228C9.775 3.5 9 2.975 9 2.272V1H5v1.272C5 2.975 4.25 3.5 3.5 3.5S2 2.975 2 2.272V1H.25C.112 1 0 1.113 0 1.25v12.5c0 .137.113.25.25.25h13.5c.137 0 .25-.113.25-.25V1.25c0-.137-.113-.25-.25-.25zM12.5 12.5h-11v-8h11v8zm-2-9.5c.553 0 1-.447 1-1V1c0-.553-.447-1-1-1-.553 0-1 .447-1 1v1c0 .553.447 1 1 1zm-7 0c.553 0 1-.447 1-1V1c0-.553-.447-1-1-1-.553 0-1 .447-1 1v1c0 .553.447 1 1 1z" fill="#8596A5"/></svg>