<svg xmlns="http://www.w3.org/2000/svg" width="16" height="14" viewBox="0 0 16 14"><path fill="#76899A" d="M10.5 4h-5c-.2 0-.3.1-.4.2l-4 5.5c-.1.1-.1.2-.1.3v3.5c0 .3.2.5.5.5h13c.3 0 .5-.2.5-.5v-3.5c0-.1 0-.2-.1-.3l-4-5.5c-.1-.1-.2-.2-.4-.2zm-5.5 5c0-1.7 1.3-3 3-3s3 1.3 3 3-1.3 3-3 3-3-1.3-3-3zm-4.5-3.3c0-.1-.5-1.6-.5-2.7 0-1 1.6-1.7 2.6-2.1 1.6-.6 3.5-.9 5.4-.9 1.9 0 3.8.3 5.4.9 1 .4 2.6 1.1 2.6 2.1 0 1.1-.5 2.6-.5 2.7-.1.2-.3.3-.5.3h-.1l-1.7-.4-1.5-2c-.3-.4-.7-.6-1.2-.6h-5c-.5 0-.9.2-1.2.6l-1.5 2-1.7.4h-.1c-.2 0-.4-.1-.5-.3z"/></svg>