<svg width="14" height="13" viewBox="0 0 14 13" xmlns="http://www.w3.org/2000/svg"><title>icon-user-logout</title><g fill="none"><path d="M13 0H7c-.5 0-1 .5-1 1v1l2 1V2h4v10h2V1c0-.5-.5-1-1-1zM5 3c-.1-.1-.7-.4-.8-.4L4 3v2H1c-.4 0-1 .6-1 1v1c0 .4.6 1 1 1h3v2l.2.4c0 .1.7-.4.8-.4l4-3V6L5 3z" opacity=".25" fill="#000"/><path d="M13 1H7c-.5 0-1 .5-1 1v1l2 1V3h4v10h2V2c0-.5-.5-1-1-1zM5 4c-.1-.1-.7-.4-.8-.4L4 4v2H1c-.4 0-1 .6-1 1v1c0 .4.6 1 1 1h3v2l.2.4c0 .1.7-.4.8-.4l4-3V7L5 4z" fill="#fff"/></g></svg>