<svg xmlns="http://www.w3.org/2000/svg" viewBox="-623.5 395 10 12"><path fill="#8596A5" d="M-623.3 406.8c.1.1.3.2.4.2h8.7c.2 0 .3-.1.4-.2.1-.1.2-.3.2-.5v-7.1h-3.5c-.2 0-.3-.1-.4-.2-.1-.1-.2-.3-.2-.5V395h-5.2c-.2 0-.3.1-.4.2-.1.1-.2.3-.2.5v10.7c0 .1.1.3.2.4zm2.3-3c0-.1 0-.1.1-.2 0 0 .1-.1.2-.1h4.6c.1 0 .1 0 .2.1 0 0 .1.1.1.2v.4c0 .1 0 .1-.1.2 0 0-.1.1-.2.1h-4.6c-.1 0-.1 0-.2-.1 0 0-.1-.1-.1-.2v-.4zm0-1.7c0-.1 0-.1.1-.2 0 0 .1-.1.2-.1h4.6c.1 0 .1 0 .2.1 0 0 .1.1.1.2v.4c0 .1 0 .1-.1.2 0 0-.1.1-.2.1h-4.6c-.1 0-.1 0-.2-.1 0 0-.1-.1-.1-.2v-.4zm0-1.7c0-.1 0-.1.1-.2 0 0 .1-.1.2-.1h4.6c.1 0 .1 0 .2.1 0 0 .1.1.1.2v.4c0 .1 0 .1-.1.2 0 0-.1.1-.2.1h-4.6c-.1 0-.1 0-.2-.1 0 0-.1-.1-.1-.2v-.4zm7.2-2l-.2-.3-2.7-2.7-.2-.2v3.2h3.1z"/></svg>