<svg xmlns="http://www.w3.org/2000/svg" width="18" height="24" viewBox="0 0 18 24"><path fill="#76899A" d="M959 146l-9 15h9v9l9-15h-9zM634.5 303.9c-1.5-2.2-6.2-9.5-6.9-10.1-.5-.6-1.4-1.3-2.6-1.3-2 0-3.5 1.5-3.9 3.8-.1.5.3 1.1.8 1.1.5.1 1-.3 1.1-.8.2-1 .8-2.2 1.9-2.2.4 0 .8.2 1.2.7.4.4 2.9 4.2 5.1 7.6-1.1-.1-2.4-.3-3.5-.3-1.9 0-4.7.3-5.5.6-.7.3-1.2.9-1.3 1.6-.7-.1-1.5-.2-2-.2s-1.2.1-2 .2c-.1-.7-.6-1.4-1.3-1.6-.8-.3-3.6-.6-5.5-.6-1.1 0-2.4.1-3.5.3 2.2-3.3 4.8-7.1 5.1-7.6.5-.5.9-.7 1.2-.7 1.2 0 1.8 1.2 1.9 2.2.1.5.6.9 1.1.8.5-.1.9-.6.8-1.1-.4-2.3-1.9-3.8-3.9-3.8-1.2 0-2.1.7-2.6 1.3-.7.7-5.4 7.9-6.9 10.1-.1.2-.2.4-.2.6v.6c0 .8.5 5 1.3 6.1.2.2.4.5.7.6 1.3.7 4.7.7 4.8.7 1.9 0 3.7-.3 4.6-.6.4-.2.7-.5 1-.9.4-.7.8-2.6 1.1-4.2.6-.1 1.5-.3 2.1-.3s1.5.2 2.1.3c.2 1.6.7 3.5 1.1 4.2.2.4.6.7 1 .9.9.4 2.7.6 4.6.6 0 0 3.4 0 4.8-.7.3-.1.5-.3.7-.6.8-1.1 1.3-5.3 1.3-6.1v-.6c.3-.2.3-.4.2-.6zm-20.2 6.1c-.6.3-2.2.5-3.9.5-1.5 0-3.4-.2-3.9-.5-.3-.5-.9-3.7-1-5 .4-.1 2.9-.5 4.8-.5s4.4.3 4.8.5c.1 1.5-.5 4.5-.8 5zm17.4 0c-.5.3-2.3.5-3.9.5-1.7 0-3.2-.2-3.9-.5-.3-.5-1-3.5-1-5 .4-.2 2.9-.5 4.8-.5s4.4.4 4.8.5c.1 1.3-.5 4.5-.8 5zM16.5 10H15V6c0-3.3-2.7-6-6-6S3 2.7 3 6v4H1.5c-.8 0-1.5.7-1.5 1.5V14h18v-2.5c0-.8-.7-1.5-1.5-1.5zM12 10H6V6c0-1.7 1.3-3 3-3s3 1.3 3 3v4zM0 22.5c0 .8.7 1.5 1.5 1.5h15c.8 0 1.5-.7 1.5-1.5V15H0v7.5z"/></svg>