<svg xmlns="http://www.w3.org/2000/svg" width="30" height="30" viewBox="0 0 30 30"><path fill="#CDCAB6" d="M15 1.875c3.506 0 6.802 1.365 9.28 3.844 2.48 2.478 3.845 5.774 3.845 9.28s-1.365 6.802-3.845 9.28c-2.48 2.48-5.774 3.845-9.28 3.845S8.198 26.76 5.72 24.28C3.24 21.803 1.874 18.507 1.874 15S3.24 8.198 5.72 5.72 11.493 1.874 15 1.874M15 0C6.716 0 0 6.716 0 15s6.716 15 15 15 15-6.716 15-15S23.284 0 15 0zm0 5.625c-1.554 0-2.812 1.26-2.812 2.812S13.446 11.25 15 11.25s2.812-1.26 2.812-2.812S16.554 5.625 15 5.625zm0 7.5h-1.875c-1.036 0-1.875.84-1.875 1.875s.84 1.875 1.875 1.875V22.5c0 1.035.84 1.875 1.875 1.875 1.035 0 1.875-.84 1.875-1.875V15c0-1.036-.84-1.875-1.875-1.875z"/></svg>