<svg width="12" height="12" viewBox="0 0 12 12" xmlns="http://www.w3.org/2000/svg"><title>icon-close</title><path d="M11.863 10.07l-4.09-4.104 4.1-4.052c.168-.168.168-.443 0-.61L10.707.13c-.08-.08-.19-.124-.305-.124-.115 0-.224.047-.305.125l-4.08 4.04L1.93.134C1.85.054 1.74.01 1.627.01c-.115 0-.224.046-.305.124L.16 1.306c-.168.168-.168.443 0 .61l4.1 4.053-4.087 4.1c-.08.082-.127.19-.127.306 0 .115.044.224.128.305l1.167 1.173c.084.084.193.128.305.128.11 0 .22-.04.305-.127l4.07-4.09 4.075 4.087c.084.084.193.128.305.128.11 0 .22-.04.305-.128l1.166-1.172c.08-.08.128-.19.128-.305-.003-.112-.05-.22-.13-.302z" fill="#8596A5"/></svg>