<svg xmlns="http://www.w3.org/2000/svg" width="31" height="20" viewBox="0 0 31 20"><path fill="#76899A" d="M959 146l-9 15h9v9l9-15h-9zM30.8 11.4C29.4 9.2 24.6 2 23.9 1.3 23.4.7 22.5 0 21.3 0c-2 0-3.5 1.5-3.9 3.8-.1.5.3 1.1.8 1.1.5.1 1-.3 1.1-.8.2-1 .8-2.2 1.9-2.2.4 0 .8.2 1.2.7.4.4 2.9 4.2 5.1 7.6-1.1-.1-2.4-.3-3.5-.3-1.9 0-4.7.3-5.5.6-.7.3-1.2.9-1.3 1.6-.7-.1-1.5-.2-2-.2s-1.2.1-2 .2c-.1-.7-.6-1.4-1.3-1.6-.4-.2-3.3-.5-5.1-.5-1.1 0-2.4.1-3.5.3C5.5 6.9 8 3.1 8.4 2.7c.5-.5.9-.7 1.3-.7 1.2 0 1.8 1.2 1.9 2.2.1.5.6.9 1.1.8.5-.1.9-.6.8-1.1C13.2 1.5 11.6 0 9.7 0 8.5 0 7.6.7 7.1 1.3 6.4 2 1.6 9.2.2 11.4c-.1.2-.2.4-.2.6v.6c0 .8.5 5 1.3 6.1.2.2.4.5.7.6 1.3.7 4.7.7 4.8.7 1.9 0 3.7-.3 4.6-.6.4-.2.7-.5 1-.9.4-.7.8-2.6 1.1-4.2.6-.1 1.5-.3 2.1-.3s1.5.2 2.1.3c.2 1.6.7 3.5 1.1 4.2.2.4.6.7 1 .9.9.4 2.7.6 4.6.6 0 0 3.4 0 4.8-.7.3-.1.5-.3.7-.6.8-1.1 1.3-5.3 1.3-6.1V12c-.2-.2-.3-.4-.4-.6zm-20.1 6.1c-.7.3-2.2.5-3.9.5-1.5 0-3.4-.2-3.9-.5-.3-.5-.9-3.7-1-5 .5-.1 2.9-.5 4.9-.5s4.4.3 4.8.5c0 1.5-.6 4.5-.9 5zm17.4 0c-.5.3-2.3.5-3.9.5-1.7 0-3.2-.2-3.9-.5-.3-.5-1-3.5-1-5 .4-.2 2.9-.5 4.8-.5s4.4.4 4.8.5c.1 1.3-.5 4.5-.8 5zM902.5 155H901v-4c0-3.3-2.7-6-6-6s-6 2.7-6 6v4h-1.5c-.8 0-1.5.7-1.5 1.5v2.5h18v-2.5c0-.8-.7-1.5-1.5-1.5zm-4.5 0h-6v-4c0-1.7 1.3-3 3-3s3 1.3 3 3v4zm-12 12.5c0 .8.7 1.5 1.5 1.5h15c.8 0 1.5-.7 1.5-1.5V160h-18v7.5z"/></svg>