<svg width="16" height="16" viewBox="0 0 16 16" xmlns="http://www.w3.org/2000/svg"><title>icon-admin</title><path d="M7.067 4C6.483 4 6 4.453 6 5c0 .547.483 1 1.067 1H9c.5 0 1-.453 1-1 0-.547-.5-1-1-1H7.067zm6 4C12.483 8 12 8.453 12 9c0 .547.483 1 1.067 1H15c.5 0 1-.453 1-1 0-.547-.5-1-1-1h-1.933zm-12-1C.483 7 0 7.453 0 8c0 .547.483 1 1.067 1H3c.5 0 1-.453 1-1 0-.547-.5-1-1-1H1.067zM9 0H7v3h2V0zm6 0h-2v7h2V0zm0 16v-5h-2v5h2zm-8 0h2V7H7v9zm-6 0h2v-6H1v6zM3 6H1V0h2v6z" fill="#57626C" fill-rule="evenodd"/></svg>