<svg width="28" height="28" viewBox="0 0 28 28" xmlns="http://www.w3.org/2000/svg"><title>icon-ticket</title><path d="M25.043 7.954l1.76 1.76c.852.852.852 2.23 0 3.08L12.51 27.092c-.85.85-2.23.85-3.08 0l-1.763-1.76c.814-1.315.65-3.062-.49-4.202-1.14-1.14-2.886-1.303-4.2-.49l-1.78-1.78c-.852-.85-.852-2.23 0-3.08L15.49 1.48c.85-.85 2.23-.85 3.08 0l1.782 1.78c-.814 1.315-.65 3.062.49 4.202 1.14 1.14 2.887 1.304 4.2.49zm-9.888-2.11c.436-.435 1.143-.435 1.58 0l5.706 5.708c.437.436.437 1.143 0 1.58l-9.615 9.615c-.436.436-1.143.436-1.58 0L5.54 17.04c-.437-.436-.437-1.143 0-1.58l9.615-9.615zm.652 1.166l5.47 5.47-9.103 9.102-5.47-5.47 9.103-9.102z" fill="#57626C" fill-rule="evenodd"/></svg>
