<svg width="14" height="14" viewBox="0 0 14 14" xmlns="http://www.w3.org/2000/svg" xmlns:sketch="http://www.bohemiancoding.com/sketch/ns"><title>icon-plus-open</title><desc>Created with Sketch.</desc><path d="M12.26 8.185c.686 0 1.24-.555 1.24-1.24 0-.685-.554-1.24-1.24-1.24h-4.02v-4.02c0-.687-.555-1.241-1.24-1.241-.685 0-1.24.554-1.24 1.24v4.02h-4.02c-.686 0-1.242.555-1.242 1.24 0 .343.14.653.364.877.224.225.534.363.877.363h4.02v4.022c0 .342.14.652.363.877.225.224.535.363.877.363.685 0 1.24-.556 1.24-1.24v-4.021h4.021z" sketch:type="MSShapeGroup" fill="#8596A5"/></svg>