<svg width="16" height="17" viewBox="0 0 16 17" xmlns="http://www.w3.org/2000/svg"><title>icon-product-trigger</title><g fill="none"><path d="M8 0C3.6 0 0 3.6 0 8s3.6 8 8 8 8-3.6 8-8-3.6-8-8-8zm3.7 7.8l-2.9 2.9c-.2.2-.5.3-.8.3-.3 0-.6-.1-.8-.3L4.3 7.8c-.2-.2-.3-.5-.3-.7 0-.3.1-.5.3-.8.2-.2.5-.3.8-.3.3 0 .6.1.8.3L8 8.4l2.1-2.1c.3-.2.5-.3.8-.3.3 0 .6.1.8.3.2.2.3.5.3.8 0 .3-.1.5-.3.7z" opacity=".25" fill="#000"/><path d="M8 1C3.6 1 0 4.6 0 9s3.6 8 8 8 8-3.6 8-8-3.6-8-8-8zm3.7 7.8l-2.9 2.9c-.2.2-.5.3-.8.3-.3 0-.6-.1-.8-.3L4.3 8.8c-.2-.2-.3-.5-.3-.7 0-.3.1-.5.3-.8.2-.2.5-.3.8-.3.3 0 .6.1.8.3L8 9.4l2.1-2.1c.3-.2.5-.3.8-.3.3 0 .6.1.8.3.2.2.3.5.3.8 0 .3-.1.5-.3.7z" fill="#fff"/></g></svg>