<svg width="14" height="12" viewBox="0 0 14 12" xmlns="http://www.w3.org/2000/svg"><title>icon-refresh</title><path d="M11.007 8.98L14 5.49h-2.017c-.072-.87-.327-1.683-.733-2.41C10.396 1.548 8.887.43 7.103.1l-.07-.012L6.99.082c-.315-.053-.642-.08-.973-.08h-.012C3.17.006.798 1.983.185 4.633v.003L.16 4.74l-.01.044-.01.065-.017.08-.006.034-.02.112v.006c-.03.196-.05.396-.06.596v.025l-.005.128-.003.157.003.156.006.128v.03c.01.202.032.4.06.595V6.9l.02.113.005.034.016.08.013.066.01.044.02.1v.003C.8 9.99 3.18 11.967 6.02 11.973c1.338-.003 2.59-.443 3.645-1.27l.234-.183L8.55 9.08l-.193.142c-.69.508-1.48.755-2.34.755-2.2 0-3.99-1.777-3.99-3.99 0-2.215 1.79-3.992 3.99-3.992 2.07 0 3.83 1.453 4.04 3.492H7.763l3.243 3.492z" fill="#8596A5"/></svg>