<svg width="12" height="12" viewBox="0 0 12 12" xmlns="http://www.w3.org/2000/svg" xmlns:sketch="http://www.bohemiancoding.com/sketch/ns"><title>Search</title><desc>Created with Sketch.</desc><path d="M1.486 8.667c.452.452.994.814 1.615 1.085.632.271 1.291.401 1.976.401 1.059 0 2.015-.297 2.88-.891l2.467 2.467c.181.181.388.272.646.272s.466-.091.659-.272c.181-.194.272-.401.272-.659 0-.245-.091-.465-.272-.646l-2.467-2.467c.594-.865.891-1.821.891-2.88 0-.685-.129-1.344-.401-1.977-.271-.62-.633-1.162-1.085-1.614-.452-.452-.995-.814-1.615-1.085-.633-.271-1.292-.401-1.976-.401-.685 0-1.344.129-1.976.401-.62.272-1.163.633-1.615 1.085-.452.452-.814.994-1.085 1.614-.271.633-.401 1.292-.401 1.977 0 .684.129 1.343.401 1.976.272.62.633 1.162 1.085 1.614zm3.591-6.82c.891 0 1.653.31 2.286.943.632.633.943 1.395.943 2.286s-.31 1.653-.943 2.286c-.633.632-1.395.943-2.286.943s-1.653-.31-2.286-.943-.943-1.395-.943-2.286.31-1.653.943-2.286 1.395-.943 2.286-.943z" sketch:type="MSShapeGroup" fill="#4990E2"/></svg>