<svg width="14" height="12" viewBox="0 0 14 12" xmlns="http://www.w3.org/2000/svg" xmlns:sketch="http://www.bohemiancoding.com/sketch/ns"><title>icon-refresh</title><desc>Created with Sketch.</desc><path d="M11.007 8.98l2.993-3.489h-2.017c-.072-.87-.327-1.684-.733-2.41-.854-1.534-2.363-2.653-4.147-2.981l-.069-.012-.044-.006c-.315-.053-.642-.081-.973-.081h-.012c-2.834.006-5.207 1.983-5.821 4.633v.003l-.022.103-.009.044-.012.065-.016.081-.006.034-.019.112v.006c-.031.196-.05.396-.059.596v.025l-.006.128-.003.156.003.156.006.128v.028c.009.203.031.402.059.596v.006l.019.112.006.034.016.081.012.065.009.044.022.1v.003c.614 2.65 2.996 4.627 5.834 4.633 1.338-.003 2.591-.443 3.645-1.269l.234-.184-1.347-1.441-.193.143c-.689.508-1.481.755-2.339.755-2.201 0-3.991-1.777-3.991-3.991 0-2.214 1.79-3.991 3.991-3.991 2.07 0 3.829 1.453 4.038 3.492h-2.292l3.243 3.492z" sketch:type="MSShapeGroup" fill="#57626C"></path></svg>