<svg width="8px" height="5px" viewBox="0 0 8 5" version="1.1" xmlns="http://www.w3.org/2000/svg" xmlns:xlink="http://www.w3.org/1999/xlink">
    <!-- Generator: Sketch 43.2 (39069) - http://www.bohemiancoding.com/sketch -->
    <desc>Created with Sketch.</desc>
    <defs></defs>
    <g id="Page-1" stroke="none" stroke-width="1" fill="none" fill-rule="evenodd">
        <g id="icon-caret-2" transform="translate(-34.000000, -36.000000)" fill="#57626C">
            <g transform="translate(34.000000, 36.000000)" id="Group">
                <g>
                    <path d="M7.7,1.8 L4.8,4.7 C4.6,4.9 4.3,5 4,5 C3.7,5 3.4,4.9 3.2,4.7 L0.3,1.8 C0.1,1.6 0,1.3 0,1.1 C0,0.8 0.1,0.6 0.3,0.3 C0.5,0.1 0.8,0 1.1,0 C1.4,0 1.7,0.1 1.9,0.3 L4,2.4 L6.1,0.3 C6.4,0.1 6.6,0 6.9,0 C7.2,0 7.5,0.1 7.7,0.3 C7.9,0.5 8,0.8 8,1.1 C8,1.4 7.9,1.6 7.7,1.8 L7.7,1.8 Z" id="Shape"></path>
                </g>
            </g>
        </g>
    </g>
</svg>
