<svg width="16px" height="14px" viewBox="0 0 16 14" version="1.1" xmlns="http://www.w3.org/2000/svg" xmlns:xlink="http://www.w3.org/1999/xlink">
    <!-- Generator: Sketch 47.1 (45422) - http://www.bohemiancoding.com/sketch -->
    <desc>Created with Sketch.</desc>
    <defs></defs>
    <g id="Page-1" stroke="none" stroke-width="1" fill="none" fill-rule="evenodd">
        <g id="icon-projects" transform="translate(-30.000000, -31.000000)" fill-rule="nonzero" fill="#57626C">
            <g id="icon-project" transform="translate(30.000000, 31.000000)">
                <g id="Group">
                    <path d="M6,2 L10,2 L10,1 L6,1 L6,2 Z M16,8 L16,13.5 L16,13.5 C16,13.7761424 15.7761424,14 15.5,14 L0.5,14 L0.5,14 C0.223857625,14 -8.54360732e-16,13.7761424 -8.8817842e-16,13.5 L2.48412402e-15,8 L6,8 L6,9.5 L6,9.5 C6,9.77614237 6.22385763,10 6.5,10 L9.5,10 L9.5,10 C9.77614237,10 10,9.77614237 10,9.5 L10,8 L16,8 Z M9,8 L9,9 L7,9 L7,8 L9,8 Z M16,7 L1.65145675e-15,7 L-1.43357548e-15,2.5 L-1.77635684e-15,2.5 C-1.81017453e-15,2.22385763 0.223857625,2 0.5,2 L5,2 L5,0 L11,0 L11,2 L15.5,2 L15.5,2 C15.7761424,2 16,2.22385763 16,2.5 L16,7 Z" id="Shape"></path>
                </g>
            </g>
        </g>
    </g>
</svg>
