<svg width="12px" height="12px" viewBox="0 0 12 12" version="1.1" xmlns="http://www.w3.org/2000/svg" xmlns:xlink="http://www.w3.org/1999/xlink">
    <!-- Generator: Sketch 43.2 (39069) - http://www.bohemiancoding.com/sketch -->
    <desc>Created with Sketch.</desc>
    <defs></defs>
    <g id="Page-1" stroke="none" stroke-width="1" fill="none" fill-rule="evenodd">
        <g id="icon-list-view" transform="translate(-32.000000, -32.000000)" fill="#57626C">
            <g transform="translate(32.000000, 32.000000)" id="Group">
                <g>
                    <path d="M1.95,7 L0.052,7 L0,6.948 L0,5.05 L0.054,5 L1.95,5 L2,5.05 L2,6.95 L1.95,7 Z M1.95,2 L0.052,2 L0,1.948 L0,0.05 L0.054,0 L1.95,0 L2,0.05 L2,1.95 L1.95,2 Z M1.95,12 L0.052,12 L0,11.948 L0,10.05 L0.054,10 L1.95,10 L2,10.05 L2,11.948 L1.95,12 Z M11.794,2 L4.207,2 C4.097,2 4,1.976 4,1.948 L4,0.05 C4,0.023 4.097,0 4.207,0 L11.794,0 C11.904,0 12.001,0.023 12.001,0.05 L12.001,1.95 C12.001,1.978 11.905,2.002 11.795,2.002 L11.794,2 Z M11.794,7 L4.207,7 C4.097,7 4,6.976 4,6.948 L4,5.05 C4,5.023 4.097,5 4.207,5 L11.794,5 C11.904,5 12.001,5.023 12.001,5.05 L12.001,6.95 C12.001,6.978 11.905,7.002 11.795,7.002 L11.794,7 Z M11.794,12 L4.207,12 C4.097,12 4,11.976 4,11.948 L4,10.05 C4,10.023 4.097,10 4.207,10 L11.794,10 C11.904,10 12.001,10.023 12.001,10.05 L12.001,11.948 C12.001,11.976 11.905,12 11.795,12 L11.794,12 Z" id="Shape"></path>
                </g>
            </g>
        </g>
    </g>
</svg>
