<svg width="16px" height="16px" viewBox="0 0 16 16" version="1.1" xmlns="http://www.w3.org/2000/svg" xmlns:xlink="http://www.w3.org/1999/xlink">
    <!-- Generator: Sketch 44.1 (41455) - http://www.bohemiancoding.com/sketch -->
    <desc>Created with Sketch.</desc>
    <defs></defs>
    <g id="Page-1" stroke="none" stroke-width="1" fill="none" fill-rule="evenodd">
        <g id="icon-admin" transform="translate(-30.000000, -30.000000)" fill-rule="nonzero" fill="#57626C">
            <g transform="translate(30.000000, 30.000000)" id="Group">
                <g>
                    <path d="M7.067,4 C6.483,4 6,4.453 6,5 C6,5.547 6.483,6 7.067,6 L9,6 C9.5,6 10,5.547 10,5 C10,4.453 9.5,4 9,4 L7.067,4 Z M13.067,8 C12.483,8 12,8.453 12,9 C12,9.547 12.483,10 13.067,10 L15,10 C15.5,10 16,9.547 16,9 C16,8.453 15.5,8 15,8 L13.067,8 Z M1.067,7 C0.483,7 0,7.453 0,8 C0,8.547 0.483,9 1.067,9 L3,9 C3.5,9 4,8.547 4,8 C4,7.453 3.5,7 3,7 L1.067,7 Z M9,0 L7,0 L7,3 L9,3 L9,0 Z M15,0 L13,0 L13,7 L15,7 L15,0 Z M15,16 L15,11 L13,11 L13,16 L15,16 Z M7,16 L9,16 L9,7 L7,7 L7,16 Z M1,16 L3,16 L3,10 L1,10 L1,16 Z M3,6 L1,6 L1,0 L3,0 L3,6 Z" id="Shape"></path>
                </g>
            </g>
        </g>
    </g>
</svg>
