<svg width="12px" height="13px" viewBox="0 0 12 13" version="1.1" xmlns="http://www.w3.org/2000/svg" xmlns:xlink="http://www.w3.org/1999/xlink">
    <!-- Generator: Sketch 43.2 (39069) - http://www.bohemiancoding.com/sketch -->
    <desc>Created with Sketch.</desc>
    <defs></defs>
    <g id="Page-1" stroke="none" stroke-width="1" fill="none" fill-rule="evenodd">
        <g id="icon-arrow-left" transform="translate(-32.000000, -32.000000)" fill-rule="nonzero" fill="#57626C">
            <g id="icon-arrow-left-grey" transform="translate(32.000000, 32.000000)">
                <g id="Group">
                    <path d="M0.4,5.3 L4.7,1.2 C5,0.9 5.4,0.8 5.6,0.8 C5.9,0.8 6.4,0.9 6.8,1.2 C7.2,1.5 7.2,1.9 7.2,2.4 C7.2,2.8 7.1,3.2 6.8,3.6 L5.2,5.1 L12,5.1 L12,7.8 L5.1,7.8 L6.8,9.5 C7.2,9.8 7.2,10.2 7.2,10.6 C7.2,11 7.1,11.4 6.8,11.8 C6.5,12.2 6.1,12.2 5.7,12.2 C5.3,12.2 4.9,12.1 4.6,11.8 L0.5,7.7 C0.1,7.3 2.84217094e-14,7 2.84217094e-14,6.5 C2.84217094e-14,6.1 0.1,5.6 0.4,5.3 L0.4,5.3 Z" id="Shape"></path>
                </g>
            </g>
        </g>
    </g>
</svg>
