<svg width="16px" height="16px" viewBox="0 0 16 16" version="1.1" xmlns="http://www.w3.org/2000/svg" xmlns:xlink="http://www.w3.org/1999/xlink">
    <!-- Generator: Sketch 44.1 (41455) - http://www.bohemiancoding.com/sketch -->
    <desc>Created with Sketch.</desc>
    <defs></defs>
    <g id="Page-1" stroke="none" stroke-width="1" fill="none" fill-rule="evenodd">
        <g id="icon-bell" transform="translate(-30.000000, -30.000000)" fill-rule="nonzero" fill="#57626C">
            <g transform="translate(30.000000, 30.000000)" id="Group">
                <g>
                    <path d="M9.004,0.988 C9.004,0.968 9.008,0.946 9.008,0.921 C9.008,0.41 8.554,0 8,0 C7.446,0 7.008,0.408 7.008,0.92 C7.008,0.946 7.008,0.967 7.013,0.988 C4.963,1.3 2.763,2.688 2.763,6.754 C2.763,11.496 1.583,12.004 0,13 L16,13 C14.425,12 13.238,11.488 13.238,6.746 C13.238,2.679 11.05,1.296 9.004,0.986 L9.004,0.988 Z M8,16 C9.555,16 10.832,15.074 11,14 L5,14 C5.162,15.074 6.445,16 8,16 Z" id="Shape"></path>
                </g>
            </g>
        </g>
    </g>
</svg>
