<svg width="15px" height="16px" viewBox="0 0 15 16" version="1.1" xmlns="http://www.w3.org/2000/svg" xmlns:xlink="http://www.w3.org/1999/xlink">
    <!-- Generator: Sketch 51.2 (57519) - http://www.bohemiancoding.com/sketch -->
    <desc>Created with Sketch.</desc>
    <defs></defs>
    <g id="Page-1" stroke="none" stroke-width="1" fill="none" fill-rule="evenodd">
        <g id="icon-policy-incidents" transform="translate(-31.000000, -30.000000)" fill="#57626C" fill-rule="nonzero">
            <g id="Group" transform="translate(30.000000, 30.000000)">
                <path d="M13.2525077,9.68022136 C13.3897095,9.27369763 13.7709477,9 14.2,9 L16,9 L16,11 L14.9179176,11 L13.7974923,14.3197786 C13.4913927,15.2267405 12.2086073,15.2267405 11.9025077,14.3197786 L9.90284067,8.39483923 L8.66221115,10.506549 C8.48260947,10.812254 8.1545593,11 7.8,11 L6,11 L6,9 L7.22769129,9 L9.28778885,5.49345095 C9.72187097,4.75458777 10.8234612,4.86827737 11.0974923,5.68022136 L12.85,10.8728368 L13.2525077,9.68022136 Z" id="Shape"></path>
                <path d="M2.99715376,8.6933335 C3.05943691,9.8594768 3.47118373,10.4990152 4.90703272,11.9584784 C6.05629933,13.0484089 6.93882289,13.7826717 7.52771343,14.1485267 L6.47228657,15.8473717 C5.74203637,15.3936954 4.77049648,14.5853707 3.50625696,13.3855898 C1.72639103,11.5774948 1.09605375,10.5984347 0.998577025,8.74644274 L0.999991931,2.43708402 L1.91966242,2.36315998 C3.89848166,2.2041005 5.7899806,1.53266712 7.43517367,0.410543425 L7.9997627,0.0254586993 L8.56364197,0.411581969 C10.2028364,1.53404055 12.0939555,2.20486056 14.0795886,2.3633972 L15,2.43688456 L15,5 L13,5 L13,4.25156772 C11.2238376,3.98563242 9.52726505,3.36645994 7.99771507,2.42768651 C6.46583664,3.36510928 4.77046258,3.98426893 2.99934559,4.25075673 L2.99715376,8.6933335 Z" id="Shape"></path>
            </g>
        </g>
    </g>
</svg>