<svg width="12px" height="12px" viewBox="0 0 12 12" version="1.1" xmlns="http://www.w3.org/2000/svg" xmlns:xlink="http://www.w3.org/1999/xlink">
    <!-- Generator: Sketch 43.2 (39069) - http://www.bohemiancoding.com/sketch -->
    <desc>Created with Sketch.</desc>
    <defs></defs>
    <g id="Page-1" stroke="none" stroke-width="1" fill="none" fill-rule="evenodd">
        <g id="icon-checkmark-circled-copy" transform="translate(-32.000000, -32.000000)" fill-rule="nonzero" fill="#57626C">
            <g id="icon-close" transform="translate(32.000000, 32.000000)">
                <g id="Group">
                    <path d="M11.863,10.071 L7.774,5.966 L11.873,1.914 C12.041,1.746 12.041,1.471 11.873,1.303 L10.707,0.131 C10.626,0.05 10.517,0.006 10.402,0.006 C10.287,0.006 10.178,0.053 10.097,0.131 L6.017,4.17 L1.931,0.134 C1.85,0.053 1.741,0.009 1.626,0.009 C1.511,0.009 1.402,0.056 1.321,0.134 L0.158,1.306 C-0.01,1.474 -0.01,1.749 0.158,1.917 L4.257,5.969 L0.171,10.071 C0.09,10.152 0.043,10.261 0.043,10.376 C0.043,10.491 0.087,10.6 0.171,10.681 L1.337,11.853 C1.421,11.937 1.53,11.981 1.642,11.981 C1.751,11.981 1.863,11.94 1.947,11.853 L6.018,7.764 L10.092,11.85 C10.176,11.934 10.285,11.978 10.397,11.978 C10.506,11.978 10.618,11.937 10.702,11.85 L11.868,10.678 C11.949,10.597 11.996,10.488 11.996,10.373 C11.993,10.261 11.946,10.152 11.865,10.071 L11.863,10.071 Z" id="Shape"></path>
                </g>
            </g>
        </g>
    </g>
</svg>
