<svg width="12px" height="12px" viewBox="0 0 12 12" version="1.1" xmlns="http://www.w3.org/2000/svg" xmlns:xlink="http://www.w3.org/1999/xlink">
    <!-- Generator: Sketch 43.2 (39069) - http://www.bohemiancoding.com/sketch -->
    <desc>Created with Sketch.</desc>
    <defs></defs>
    <g id="Page-1" stroke="none" stroke-width="1" fill="none" fill-rule="evenodd">
        <g id="icon-gear" transform="translate(-32.000000, -32.000000)" fill="#57626C">
            <g transform="translate(32.000000, 32.000000)" id="Group">
                <g>
                    <path d="M11.7,4.9 L9.9,4.6 C9.7,4.6 9.7,4.4 9.8,4.3 L10.8,2.8 C10.9,2.7 10.9,2.4 10.8,2.3 L9.8,1.3 C9.7,1.2 9.5,1.2 9.3,1.3 L7.8,2.3 C7.7,2.4 7.5,2.3 7.5,2.2 L7.1,0.3 C7,0.1 6.9,0 6.7,0 L5.3,0 C5.1,0 5,0.1 4.9,0.3 L4.6,2.1 C4.6,2.3 4.4,2.3 4.3,2.2 L2.8,1.2 C2.7,1.1 2.4,1.1 2.3,1.2 L1.3,2.2 C1.2,2.3 1.2,2.5 1.3,2.7 L2.3,4.2 C2.4,4.3 2.3,4.5 2.2,4.5 L0.3,4.9 C0.1,5 0,5.1 0,5.3 L0,6.7 C0,6.9 0.1,7 0.3,7.1 L2.1,7.4 C2.3,7.4 2.3,7.6 2.2,7.7 L1.2,9.2 C1.1,9.3 1.1,9.6 1.2,9.7 L2.2,10.7 C2.3,10.8 2.5,10.8 2.7,10.7 L4.2,9.7 C4.3,9.6 4.5,9.7 4.5,9.8 L4.8,11.6 C5,11.9 5.1,12 5.3,12 L6.7,12 C6.9,12 7,11.9 7.1,11.7 L7.4,9.9 C7.4,9.7 7.6,9.7 7.7,9.8 L9.2,10.8 C9.3,10.9 9.6,10.9 9.7,10.8 L10.7,9.8 C10.8,9.7 10.8,9.5 10.7,9.3 L9.7,7.8 C9.6,7.7 9.7,7.5 9.8,7.5 L11.6,7.2 C11.9,7 12,6.9 12,6.7 L12,5.3 C12,5.1 11.9,5 11.7,4.9 L11.7,4.9 Z M6,8.2 C4.8,8.2 3.8,7.2 3.8,6 C3.8,4.8 4.8,3.8 6,3.8 C7.2,3.8 8.2,4.8 8.2,6 C8.2,7.2 7.2,8.2 6,8.2 L6,8.2 Z" id="Shape"></path>
                </g>
            </g>
        </g>
    </g>
</svg>
