<svg width="14px" height="20px" viewBox="0 0 14 20" version="1.1" xmlns="http://www.w3.org/2000/svg" xmlns:xlink="http://www.w3.org/1999/xlink">
    <!-- Generator: Sketch 44.1 (41455) - http://www.bohemiancoding.com/sketch -->
    <desc>Created with Sketch.</desc>
    <defs></defs>
    <g id="Page-1" stroke="none" stroke-width="1" fill="none" fill-rule="evenodd">
        <g id="icon-attachment-2" transform="translate(-31.000000, -28.000000)" fill="#57626C">
            <g transform="translate(31.000000, 28.000000)" id="Group">
                <g>
                    <path d="M10,10.894 L10,13 C9.99999998,14.6568542 8.65685423,16 7,16 C5.34314577,16 4.00000002,14.6568542 4,13 L4,5.5 C4,4.947 4.444,4.5 5,4.5 C5.553,4.5 6,4.945 6,5.5 L6,13 C6,13.5522847 6.44771525,14 7,14 C7.55228475,14 8,13.5522847 8,13 L8,5 C7.99999998,3.34314577 6.65685423,2.00000004 5,2.00000004 C3.34314577,2.00000004 2.00000002,3.34314577 2,5 L2,13 C2,15.7614237 4.23857625,18 7,18 C9.76142375,18 12,15.7614237 12,13 L12,8.003 C12,7.45071525 12.4477153,7.003 13,7.003 C13.5522847,7.003 14,7.45071525 14,8.003 L14,13 C14,16.8659932 10.8659932,20 7,20 C3.13400675,20 4.73447626e-16,16.8659932 0,13 L0,5 C0,2.24 2.24,0 5,0 C7.76,0 10,2.24 10,5 L10,10.894 Z" id="Shape"></path>
                </g>
            </g>
        </g>
    </g>
</svg>
