<svg width="15px" height="13px" viewBox="0 0 15 13" version="1.1" xmlns="http://www.w3.org/2000/svg" xmlns:xlink="http://www.w3.org/1999/xlink">
    <!-- Generator: Sketch 43.2 (39069) - http://www.bohemiancoding.com/sketch -->
    <desc>Created with Sketch.</desc>
    <defs></defs>
    <g id="Page-1" stroke="none" stroke-width="1" fill="none" fill-rule="evenodd">
        <g id="icon-attachment" transform="translate(-31.000000, -32.000000)" fill-rule="nonzero" fill="#57626C">
            <g id="icon-attachment-grey" transform="translate(31.000000, 32.000000)">
                <g id="Group">
                    <path d="M13.5,6.9 L12.1,5.6 C12.1,5.6 12.4,6.8 11.6,7.7 L12.1,8.1 C12.6,8.6 12.6,9.3 12.1,9.8 L11.2,10.7 C10.7,11.2 9.9,11.2 9.4,10.7 L6.2,7.7 C5.7,7.2 5.7,6.4 6.2,5.9 L7,5.2 L5.7,3.9 L4.8,4.8 C4.4,5.1 4.2,5.4 4,5.8 C3.6,6.9 3.8,8.2 4.8,9.1 L8,12.1 C9.3,13.3 11.3,13.3 12.6,12.1 L13.5,11.2 C14.2,10.2 14.2,8.1 13.5,6.9 Z M11,7.2 C11.5,6.1 11.2,4.8 10.3,3.9 L7.1,0.9 C5.8,-0.3 3.8,-0.3 2.5,0.9 L1.5,1.7 C0.8,2.8 0.8,4.9 1.5,6 L2.9,7.3 C2.9,7.3 2.6,6.1 3.4,5.1 L2.9,4.8 C2.4,4.3 2.4,3.5 2.9,3 L3.8,2.1 C4.3,1.6 5.1,1.7 5.6,2.1 L8.8,5.1 C9.3,5.6 9.3,6.3 8.8,6.8 L8,7.8 L9.4,9.1 L10.3,8.2 C10.6,7.9 10.8,7.6 11,7.2 Z" id="Shape"></path>
                </g>
            </g>
        </g>
    </g>
</svg>
