<svg width="12px" height="12px" viewBox="0 0 12 12" version="1.1" xmlns="http://www.w3.org/2000/svg" xmlns:xlink="http://www.w3.org/1999/xlink">
    <!-- Generator: Sketch 43.2 (39069) - http://www.bohemiancoding.com/sketch -->
    <desc>Created with Sketch.</desc>
    <defs></defs>
    <g id="Page-1" stroke="none" stroke-width="1" fill="none" fill-rule="evenodd">
        <g id="icon-search" transform="translate(-32.000000, -32.000000)" fill-rule="nonzero" fill="#57626C">
            <g transform="translate(31.000000, 32.000000)" id="Shape">
                <path d="M2.486,8.667 C2.938,9.119 3.48,9.481 4.101,9.752 C4.733,10.023 5.392,10.153 6.077,10.153 C7.136,10.153 8.092,9.856 8.957,9.262 L11.424,11.729 C11.605,11.91 11.812,12.001 12.07,12.001 C12.328,12.001 12.536,11.91 12.729,11.729 C12.91,11.535 13.001,11.328 13.001,11.07 C13.001,10.825 12.91,10.605 12.729,10.424 L10.262,7.957 C10.856,7.092 11.153,6.136 11.153,5.077 C11.153,4.392 11.024,3.733 10.752,3.1 C10.481,2.48 10.119,1.938 9.667,1.486 C9.215,1.034 8.672,0.672 8.052,0.401 C7.419,0.13 6.76,-3.55271368e-15 6.076,-3.55271368e-15 C5.391,-3.55271368e-15 4.732,0.129 4.1,0.401 C3.48,0.673 2.937,1.034 2.485,1.486 C2.033,1.938 1.671,2.48 1.4,3.1 C1.129,3.733 0.999,4.392 0.999,5.077 C0.999,5.761 1.128,6.42 1.4,7.053 C1.672,7.673 2.033,8.215 2.485,8.667 L2.486,8.667 Z M6.077,1.847 C6.968,1.847 7.73,2.157 8.363,2.79 C8.995,3.423 9.306,4.185 9.306,5.076 C9.306,5.967 8.996,6.729 8.363,7.362 C7.73,7.994 6.968,8.305 6.077,8.305 C5.186,8.305 4.424,7.995 3.791,7.362 C3.158,6.729 2.848,5.967 2.848,5.076 C2.848,4.185 3.158,3.423 3.791,2.79 C4.424,2.157 5.186,1.847 6.077,1.847 L6.077,1.847 Z"></path>
            </g>
        </g>
    </g>
</svg>
