<svg width="32px" height="20px" viewBox="0 0 32 20" version="1.1" xmlns="http://www.w3.org/2000/svg" xmlns:xlink="http://www.w3.org/1999/xlink">
    <!-- Generator: Sketch 43.2 (39069) - http://www.bohemiancoding.com/sketch -->
    <desc>Created with Sketch.</desc>
    <defs></defs>
    <g id="Page-1" stroke="none" stroke-width="1" fill="none" fill-rule="evenodd">
        <g id="icon-read-only" transform="translate(-22.000000, -28.000000)" fill-rule="nonzero" fill="#57626C">
            <g transform="translate(22.000000, 28.000000)" id="Group">
                <g>
                    <path d="M30.8,11.4 C29.4,9.2 24.6,2 23.9,1.3 C23.4,0.7 22.5,5.99520433e-15 21.3,5.99520433e-15 C19.3,5.99520433e-15 17.8,1.5 17.4,3.8 C17.3,4.3 17.7,4.9 18.2,4.9 C18.7,5 19.2,4.6 19.3,4.1 C19.5,3.1 20.1,1.9 21.2,1.9 C21.6,1.9 22,2.1 22.4,2.6 C22.8,3 25.3,6.8 27.5,10.2 C26.4,10.1 25.1,9.9 24,9.9 C22.1,9.9 19.3,10.2 18.5,10.5 C17.8,10.8 17.3,11.4 17.2,12.1 C16.5,12 15.7,11.9 15.2,11.9 C14.7,11.9 14,12 13.2,12.1 C13.1,11.4 12.6,10.7 11.9,10.5 C11.5,10.3 8.6,10 6.8,10 C5.7,10 4.4,10.1 3.3,10.3 C5.5,6.9 8,3.1 8.4,2.7 C8.9,2.2 9.3,2 9.7,2 C10.9,2 11.5,3.2 11.6,4.2 C11.7,4.7 12.2,5.1 12.7,5 C13.2,4.9 13.6,4.4 13.5,3.9 C13.2,1.5 11.6,6.21724894e-15 9.7,6.21724894e-15 C8.5,6.21724894e-15 7.6,0.7 7.1,1.3 C6.4,2 1.6,9.2 0.2,11.4 C0.1,11.6 -4.33542091e-14,11.8 -4.33542091e-14,12 L-4.33542091e-14,12.6 C-4.33542091e-14,13.4 0.5,17.6 1.3,18.7 C1.5,18.9 1.7,19.2 2,19.3 C3.3,20 6.7,20 6.8,20 C8.7,20 10.5,19.7 11.4,19.4 C11.8,19.2 12.1,18.9 12.4,18.5 C12.8,17.8 13.2,15.9 13.5,14.3 C14.1,14.2 15,14 15.6,14 C16.2,14 17.1,14.2 17.7,14.3 C17.9,15.9 18.4,17.8 18.8,18.5 C19,18.9 19.4,19.2 19.8,19.4 C20.7,19.8 22.5,20 24.4,20 C24.4,20 27.8,20 29.2,19.3 C29.5,19.2 29.7,19 29.9,18.7 C30.7,17.6 31.2,13.4 31.2,12.6 L31.2,12 C31,11.8 30.9,11.6 30.8,11.4 L30.8,11.4 Z M10.7,17.5 C10,17.8 8.5,18 6.8,18 C5.3,18 3.4,17.8 2.9,17.5 C2.6,17 2,13.8 1.9,12.5 C2.4,12.4 4.8,12 6.8,12 C8.8,12 11.2,12.3 11.6,12.5 C11.6,14 11,17 10.7,17.5 L10.7,17.5 Z M28.1,17.5 C27.6,17.8 25.8,18 24.2,18 C22.5,18 21,17.8 20.3,17.5 C20,17 19.3,14 19.3,12.5 C19.7,12.3 22.2,12 24.1,12 C26,12 28.5,12.4 28.9,12.5 C29,13.8 28.4,17 28.1,17.5 L28.1,17.5 Z" id="Shape"></path>
                </g>
            </g>
        </g>
    </g>
</svg>
