<svg width="28px" height="28px" viewBox="0 0 28 28" version="1.1" xmlns="http://www.w3.org/2000/svg" xmlns:xlink="http://www.w3.org/1999/xlink">
    <!-- Generator: Sketch 44.1 (41455) - http://www.bohemiancoding.com/sketch -->
    <desc>Created with Sketch.</desc>
    <defs></defs>
    <g id="Page-1" stroke="none" stroke-width="1" fill="none" fill-rule="evenodd">
        <g id="icon-ticket" transform="translate(-24.000000, -24.000000)" fill="#57626C">
            <g transform="translate(24.000000, 24.000000)" id="Group">
                <g>
                    <path d="M25.043,7.954 L26.803,9.714 C27.655,10.566 27.655,11.944 26.803,12.794 L12.51,27.092 C11.66,27.942 10.28,27.942 9.43,27.092 L7.667,25.332 C8.481,24.017 8.317,22.27 7.177,21.13 C6.037,19.99 4.291,19.827 2.977,20.64 L1.197,18.86 C0.345,18.01 0.345,16.63 1.197,15.78 L15.49,1.48 C16.34,0.63 17.72,0.63 18.57,1.48 L20.352,3.26 C19.538,4.575 19.702,6.322 20.842,7.462 C21.982,8.602 23.729,8.766 25.042,7.952 L25.043,7.954 Z M15.155,5.844 C15.591,5.409 16.298,5.409 16.735,5.844 L22.441,11.552 C22.878,11.988 22.878,12.695 22.441,13.132 L12.826,22.747 C12.39,23.183 11.683,23.183 11.246,22.747 L5.54,17.04 C5.103,16.604 5.103,15.897 5.54,15.46 L15.155,5.845 L15.155,5.844 Z M15.807,7.01 L21.277,12.48 L12.174,21.582 L6.704,16.112 L15.807,7.01 Z" id="Shape"></path>
                </g>
            </g>
        </g>
    </g>
</svg>
