<svg width="16px" height="16px" viewBox="0 0 16 16" version="1.1" xmlns="http://www.w3.org/2000/svg" xmlns:xlink="http://www.w3.org/1999/xlink">
    <!-- Generator: Sketch 44.1 (41455) - http://www.bohemiancoding.com/sketch -->
    <desc>Created with Sketch.</desc>
    <defs></defs>
    <g id="Page-1" stroke="none" stroke-width="1" fill="none" fill-rule="evenodd">
        <g id="icon-user" transform="translate(-30.000000, -30.000000)" fill="#57626C">
            <g transform="translate(30.000000, 30.000000)" id="Group">
                <g>
                    <path d="M15.91,14.326 C15.834,13.872 15.205,13.272 12.53,12.288 C9.897,11.321 10.06,11.792 10.06,10.012 C10.06,8.858 10.647,9.529 11.02,7.338 C11.167,6.475 11.284,7.05 11.6,5.666 C11.767,4.941 11.49,4.886 11.52,4.542 C11.555,4.196 11.588,3.888 11.65,3.179 C11.727,2.303 10.915,0 8,0 C5.088,0 4.275,2.305 4.355,3.183 C4.417,3.888 4.45,4.2 4.485,4.546 C4.518,4.892 4.238,4.946 4.405,5.671 C4.721,7.051 4.838,6.476 4.985,7.343 C5.358,9.533 5.945,8.863 5.945,10.018 C5.945,11.801 6.108,11.331 3.475,12.293 C0.8,13.272 0.167,13.875 0.095,14.33 C0,14.9 0,16 0,16 L16,16 C16,16 16,14.9 15.91,14.326" id="Shape"></path>
                </g>
            </g>
        </g>
    </g>
</svg>
