<svg width="18px" height="21px" viewBox="0 0 18 21" version="1.1" xmlns="http://www.w3.org/2000/svg" xmlns:xlink="http://www.w3.org/1999/xlink">
    <!-- Generator: Sketch 51.2 (57519) - http://www.bohemiancoding.com/sketch -->
    <desc>Created with Sketch.</desc>
    <defs></defs>
    <g id="Page-1" stroke="none" stroke-width="1" fill="none" fill-rule="evenodd">
        <g id="icon-policy-template" transform="translate(-29.000000, -28.000000)" fill="#57626C" fill-rule="nonzero">
            <g id="Group" transform="translate(29.000000, 28.000000)">
                <path d="M12.75,0 L1.5,0 C0.675,0 0,0.675 0,1.5 L0,19.5 C0,20.325 0.675,21 1.5,21 L16.5,21 C17.325,21 18,20.325 18,19.5 L18,5.25 L12.75,0 Z M2,19 L2,2 L12,2 L16,6 L16,19 L2,19 Z M7.5,8.97 L5.25,11.25 L7.5,13.5 L6.75,15 L3,11.25 L6.75,7.5 L7.5,8.97 Z M15,11.25 L11.25,15 L10.5,13.53 L12.75,11.25 L10.5,9 L11.25,7.5 L15,11.25 Z" id="Shape"></path>
            </g>
        </g>
    </g>
</svg>