<svg width="12px" height="13px" viewBox="0 0 12 13" version="1.1" xmlns="http://www.w3.org/2000/svg" xmlns:xlink="http://www.w3.org/1999/xlink">
    <!-- Generator: Sketch 43.2 (39069) - http://www.bohemiancoding.com/sketch -->
    <desc>Created with Sketch.</desc>
    <defs></defs>
    <g id="Page-1" stroke="none" stroke-width="1" fill="none" fill-rule="evenodd">
        <g id="icon-arrow-up" transform="translate(-32.000000, -32.000000)" fill-rule="nonzero" fill="#57626C">
            <g id="icon-arrow-up-grey" transform="translate(32.000000, 32.000000)">
                <g id="Group">
                    <path d="M7.1,0.9 L11.2,5.2 C11.5,5.5 11.6,5.9 11.6,6.1 C11.6,6.4 11.5,6.9 11.2,7.3 C10.9,7.7 10.5,7.7 10,7.7 C9.6,7.7 9.2,7.6 8.8,7.3 L7.3,5.7 L7.3,12.5 L4.6,12.5 L4.6,5.6 L2.9,7.3 C2.6,7.7 2.2,7.7 1.8,7.7 C1.4,7.7 1,7.6 0.6,7.3 C0.2,7 0.2,6.6 0.2,6.2 C0.2,5.8 0.3,5.4 0.6,5.1 L4.7,1 C5.1,0.6 5.4,0.5 5.9,0.5 C6.3,0.5 6.9,0.6 7.1,0.9 L7.1,0.9 Z" id="Shape"></path>
                </g>
            </g>
        </g>
    </g>
</svg>
