<svg width="18px" height="18px" viewBox="0 0 18 18" version="1.1" xmlns="http://www.w3.org/2000/svg" xmlns:xlink="http://www.w3.org/1999/xlink">
    <!-- Generator: Sketch 51.2 (57519) - http://www.bohemiancoding.com/sketch -->
    <desc>Created with Sketch.</desc>
    <defs></defs>
    <g id="Page-1" stroke="none" stroke-width="1" fill="none" fill-rule="evenodd">
        <g id="icon-link-2" transform="translate(-29.000000, -29.000000)" fill="#57626C" fill-rule="nonzero">
            <g id="icon-link" transform="translate(29.000000, 29.000000)">
                <g id="Group">
                    <path d="M12.464953,6.94926058 L11.0001991,8.41401446 C10.8574427,8.11443474 10.6621502,7.83372311 10.4142136,7.58578644 C9.24502461,6.41659748 7.34304135,6.41431797 6.17133972,7.58601959 L3.3433789,10.4139804 C2.17546108,11.5818982 2.17157287,13.4852814 3.34314575,14.6568542 C4.43224307,15.7459516 6.15717769,15.8225347 7.335418,14.8808879 C8.12313644,15.1639152 8.95137396,15.3011465 9.77841224,15.2926556 L8.99648503,16.0745828 C7.04580483,18.025263 3.87758045,18.0197161 1.92893219,16.0710678 C-0.0236892712,14.1184464 -0.0270509488,10.9559831 1.92541722,9.00351497 L4.76087428,6.1680579 C6.71155447,4.21737771 9.87977886,4.22292461 11.8284271,6.17157288 C12.070587,6.41373276 12.2827666,6.67450059 12.464953,6.94926058 Z M5.535047,11.0507394 L6.99980088,9.58598556 C7.14255735,9.88556529 7.33784975,10.1662769 7.58578644,10.4142136 C8.75497541,11.5834025 10.6569586,11.585682 11.8286603,10.4139804 L14.6566211,7.58601957 C15.8245389,6.41810177 15.8284271,4.51471859 14.6568542,3.34314575 C13.5678707,2.25416217 11.8431825,2.17748129 10.6649511,3.11881713 C9.87738533,2.83560758 9.04935994,2.69813857 8.22258227,2.70634992 L9.00351496,1.92541723 C10.9541952,-0.0252629727 14.1224195,-0.0197160806 16.0710678,1.92893219 C18.0236892,3.88155361 18.027051,7.04401685 16.0745828,8.99648504 L13.2391257,11.8319421 C11.2884455,13.7826223 8.12022114,13.7770754 6.17157288,11.8284271 C5.92941296,11.5862672 5.71723349,11.3254994 5.535047,11.0507394 Z" id="Shape"></path>
                </g>
            </g>
        </g>
    </g>
</svg>