<svg width="16px" height="16px" viewBox="0 0 16 16" version="1.1" xmlns="http://www.w3.org/2000/svg" xmlns:xlink="http://www.w3.org/1999/xlink">
    <!-- Generator: Sketch 51.2 (57519) - http://www.bohemiancoding.com/sketch -->
    <desc>Created with Sketch.</desc>
    <defs></defs>
    <g id="Page-1" stroke="none" stroke-width="1" fill="none" fill-rule="evenodd">
        <g id="icon-policy-active" transform="translate(-30.000000, -30.000000)" fill="#57626C" fill-rule="nonzero">
            <g id="Group" transform="translate(29.000000, 30.000000)">
                <polygon id="Shape" points="14.9999994 8 16.4999993 9.49999991 11.5099999 14.4999995 8 10.9999998 9.49999991 9.49999985 11.5099999 11.4999997"></polygon>
                <path d="M2.99715376,8.6933335 C3.05943691,9.8594768 3.47118373,10.4990152 4.90703272,11.9584784 C6.05629933,13.0484089 6.93882289,13.7826717 7.52771343,14.1485267 C7.99683651,14.4399748 8.14087055,15.0565396 7.84942247,15.5256626 C7.55797439,15.9947857 6.94140965,16.1388198 6.47228657,15.8473717 C5.74203637,15.3936954 4.77049648,14.5853707 3.50625696,13.3855898 C1.72639103,11.5774948 1.09605375,10.5984347 0.998577025,8.74644274 L0.999991931,2.43708402 L1.91966242,2.36315998 C3.89848166,2.2041005 5.7899806,1.53266712 7.43517367,0.410543425 L7.9997627,0.0254586993 L8.56364197,0.411581969 C10.2028364,1.53404055 12.0939555,2.20486056 14.0795886,2.3633972 L15,2.43688456 L15,5 C15,5.55228475 14.5522847,6 14,6 C13.4477153,6 13,5.55228475 13,5 L13,4.25156772 C11.2238376,3.98563242 9.52726505,3.36645994 7.99771507,2.42768651 C6.46583664,3.36510928 4.77046258,3.98426893 2.99934559,4.25075673 L2.99715376,8.6933335 Z" id="Shape"></path>
            </g>
        </g>
    </g>
</svg>