<svg width="24px" height="21px" viewBox="0 0 24 21" version="1.1" xmlns="http://www.w3.org/2000/svg" xmlns:xlink="http://www.w3.org/1999/xlink">
    <!-- Generator: Sketch 51.2 (57519) - http://www.bohemiancoding.com/sketch -->
    <desc>Created with Sketch.</desc>
    <defs></defs>
    <g id="Page-1" stroke="none" stroke-width="1" fill="none" fill-rule="evenodd">
        <g id="icon-alert" transform="translate(-26.000000, -28.000000)">
            <g id="Group" transform="translate(26.000000, 28.000000)">
                <path d="M9.43213258,2.34612892 C9.97884849,1.44479398 10.9513707,0.897255995 12,0.897255995 C13.0486293,0.897255995 14.0211515,1.44479398 14.5678674,2.34612892 L23.0459905,16.4999396 C23.5790281,17.4230391 23.5822106,18.55966 23.0543507,19.4857299 C22.5264909,20.4117999 21.5468725,20.9882243 20.47,21 L3.51900947,20.9999396 C2.4531275,20.9882243 1.47350913,20.4117999 0.94564925,19.4857299 C0.41778937,18.55966 0.420971911,17.4230391 0.962132578,16.4861289 L9.43213258,2.34612892 Z" id="Shape" fill="#57626C" fill-rule="nonzero"></path>
                <path d="M13,16 L13,16 C13,16.5522847 12.5522847,17 12,17 L12,17 C11.4477153,17 11,16.5522847 11,16 L11,16 C11,15.4477153 11.4477153,15 12,15 L12,15 C12.5522847,15 13,15.4477153 13,16 Z" id="Shape" fill="#FFFFFF" fill-rule="nonzero"></path>
                <path d="M12,8 L12,12" id="Shape" stroke="#FFFFFF" stroke-width="2" stroke-linecap="round" stroke-linejoin="round"></path>
            </g>
        </g>
    </g>
</svg>