<svg width="13px" height="13px" viewBox="0 0 13 13" version="1.1" xmlns="http://www.w3.org/2000/svg" xmlns:xlink="http://www.w3.org/1999/xlink">
    <!-- Generator: Sketch 43.2 (39069) - http://www.bohemiancoding.com/sketch -->
    <desc>Created with Sketch.</desc>
    <defs></defs>
    <g id="Page-1" stroke="none" stroke-width="1" fill="none" fill-rule="evenodd">
        <g id="icon-copy" transform="translate(-32.000000, -32.000000)" fill-rule="nonzero" fill="#57626C">
            <g id="icon-copy-grey" transform="translate(32.000000, 32.000000)">
                <g id="Group">
                    <path d="M7,5 L10,5 L10,6 L7,6 L7,5 Z M7,7 L10,7 L10,8 L7,8 L7,7 Z" id="Shape"></path>
                    <path d="M0,2 L0,13 L9,13 L9,5 L6,2 L0,2 Z M7,11 L2,11 L2,4 L5,4 L5,6 L7,6 L7,11 Z M4,3 L6,3 L6,2 L9,2 L9,4 L11,4 L11,9 L9,9 L9,11 L13,11 L13,3 L10,0 L4,0 L4,3 Z" id="Shape"></path>
                    <path d="M3,5 L4,5 L4,6 L3,6 L3,5 Z M3,7 L6,7 L6,8 L3,8 L3,7 Z M3,9 L6,9 L6,10 L3,10 L3,9 Z" id="Shape"></path>
                </g>
            </g>
        </g>
    </g>
</svg>
