<svg width="14px" height="16px" viewBox="0 0 14 16" version="1.1" xmlns="http://www.w3.org/2000/svg" xmlns:xlink="http://www.w3.org/1999/xlink">
    <!-- Generator: Sketch 44.1 (41455) - http://www.bohemiancoding.com/sketch -->
    <desc>Created with Sketch.</desc>
    <defs></defs>
    <g id="Page-1" stroke="none" stroke-width="1" fill="none" fill-rule="evenodd">
        <g id="icon-clipboard" transform="translate(-31.000000, -30.000000)" fill="#57626C">
            <g transform="translate(31.000000, 30.000000)" id="Group">
                <g>
                    <path d="M9.5,2 C9.5,1 8.5,0 7,0 C5.5,0 4.5,1 4.5,2 L1,2 C0.5,2 0,2.5 0,3 L0,15 C0,15.5 0.5,16 1,16 L13,16 C13.5,16 14,15.5 14,15 L14,3 C14,2.5 13.5,2 13,2 L9.5,2 Z M7,1.556 C7.467,1.556 7.778,1.866 7.778,2.333 C7.778,2.8 7.468,3.111 7,3.111 C6.533,3.111 6.222,2.801 6.222,2.334 C6.222,1.868 6.532,1.557 7,1.557 L7,1.556 Z M3,11 L7,11 L7,12 L3,12 L3,11 Z M3,8 L10,8 L10,9 L3,9 L3,8 Z M2,14 L2,4 L4,4 L4,6 L10,6 L10,4 L12,4 L12,14 L2,14 Z" id="Shape"></path>
                </g>
            </g>
        </g>
    </g>
</svg>
