<svg width="12px" height="17px" viewBox="0 0 12 17" version="1.1" xmlns="http://www.w3.org/2000/svg" xmlns:xlink="http://www.w3.org/1999/xlink">
    <!-- Generator: Sketch 44.1 (41455) - http://www.bohemiancoding.com/sketch -->
    <desc>Created with Sketch.</desc>
    <defs></defs>
    <g id="Page-1" stroke="none" stroke-width="1" fill="none" fill-rule="evenodd">
        <g id="icon-sort-unsorted" transform="translate(-32.000000, -30.000000)" fill-rule="nonzero" fill="#57626C">
            <g transform="translate(32.000000, 30.000000)" id="Group">
                <g>
                    <path d="M0.1,10.8 L5.3,16.6 C5.5,16.8 5.7,16.9 6,16.9 C6.3,16.9 6.5,16.8 6.7,16.6 L11.8,10.9 L11.9,10.8 C12,10.7 12,10.6 12,10.5 C12,10.2 11.7,9.9 11.4,9.9 L0.6,9.9 C0.3,9.9 0,10.2 0,10.5 C0,10.6 0,10.7 0.1,10.8 Z" id="Shape"></path>
                    <path d="M11.9,7 L6.7,1.2 C6.5,1 6.3,0.9 6,0.9 C5.7,0.9 5.5,1 5.3,1.2 L0.2,6.9 L0.1,7 C-5.68434189e-14,7.1 -5.68434189e-14,7.2 -5.68434189e-14,7.3 C-5.68434189e-14,7.6 0.3,7.9 0.6,7.9 L11.4,7.9 C11.7,7.9 12,7.6 12,7.3 C12,7.2 12,7.1 11.9,7 Z" id="Shape"></path>
                </g>
            </g>
        </g>
    </g>
</svg>
