<svg width="16px" height="16px" viewBox="0 0 16 16" version="1.1" xmlns="http://www.w3.org/2000/svg" xmlns:xlink="http://www.w3.org/1999/xlink">
    <!-- Generator: Sketch 43.2 (39069) - http://www.bohemiancoding.com/sketch -->
    <desc>Created with Sketch.</desc>
    <defs></defs>
    <g id="Page-1" stroke="none" stroke-width="1" fill="none" fill-rule="evenodd">
        <g id="icon-checkmark-circled" transform="translate(-30.000000, -30.000000)" fill-rule="nonzero" fill="#57626C">
            <g transform="translate(30.000000, 30.000000)" id="Group">
                <g>
                    <path d="M8,0 C3.6,0 0,3.6 0,8 C0,12.4 3.6,16 8,16 C12.4,16 16,12.4 16,8 C16,3.6 12.4,0 8,0 Z M12.1,5.3 L7.1,11.7 C7.1,11.7 7,11.8 6.9,11.8 L6.7,11.7 L4,9 L3.9,9 L3.9,8.8 L4.8,7.9 C4.8,7.9 4.9,7.8 5,7.8 L5.2,7.9 L6.8,9.4 L10.8,4.3 L10.9,4.2 L11,4.2 L12.1,5.1 L12.1,5.3 L12.1,5.3 Z" id="Shape"></path>
                </g>
            </g>
        </g>
    </g>
</svg>
