<svg width="13px" height="13px" viewBox="0 0 13 13" version="1.1" xmlns="http://www.w3.org/2000/svg" xmlns:xlink="http://www.w3.org/1999/xlink">
    <!-- Generator: Sketch 43.2 (39069) - http://www.bohemiancoding.com/sketch -->
    <desc>Created with Sketch.</desc>
    <defs></defs>
    <g id="Page-1" stroke="none" stroke-width="1" fill="none" fill-rule="evenodd">
        <g id="icon-filter" transform="translate(-32.000000, -32.000000)" fill-rule="nonzero" fill="#57626C">
            <g transform="translate(32.000000, 32.000000)" id="Group">
                <g>
                    <path d="M6.5,0 C2.9,0 0,1.1 0,2.4 C0,2.7 0.1,3 0.3,3.1 L5,9 L5,12 C5,12.2 5.6,13 6.5,13 C7.4,13 8,12.2 8,12 L8,9 L12.7,3.1 C12.9,3 13,2.7 13,2.4 C13,1.1 10.1,-4.4408921e-16 6.5,-4.4408921e-16 L6.5,0 Z M6.5,4.1 C3.4,4.1 1,3.3 1,2.4 C1,1.5 3.4,1 6.5,1 C9.6,1 12,1.5 12,2.4 C12,3.3 9.6,4.1 6.5,4.1 Z" id="Shape"></path>
                </g>
            </g>
        </g>
    </g>
</svg>
