<svg width="13px" height="14px" viewBox="0 0 13 14" version="1.1" xmlns="http://www.w3.org/2000/svg" xmlns:xlink="http://www.w3.org/1999/xlink">
    <!-- Generator: Sketch 44.1 (41455) - http://www.bohemiancoding.com/sketch -->
    <desc>Created with Sketch.</desc>
    <defs></defs>
    <g id="Page-1" stroke="none" stroke-width="1" fill="none" fill-rule="evenodd">
        <g id="icon-tash" transform="translate(-32.000000, -31.000000)" fill-rule="nonzero" fill="#57626C">
            <g id="icon-trash" transform="translate(32.000000, 31.000000)">
                <g id="Group">
                    <path d="M4,6 L6,6 L6,11 L4,11 L4,6 Z M7,6 L9,6 L9,11 L7,11 L7,6 Z M12,3 L10,3 L10,1 C10,0.448 9.553,0 9,0 L4,0 C3.447,0 3,0.448 3,1 L3,3 L1,3 C0.447,3 0,3.448 0,4 L0,5 L1,5 L1,13 C1,13.553 1.447,14 2,14 L11,14 C11.553,14 12,13.553 12,13 L12,5 L13,5 L13,4 C13,3.448 12.553,3 12,3 Z M5,2 L8,2 L8,3 L5,3 L5,2 Z M10,12 L3,12 L3,5 L10,5 L10,12 Z" id="Shape"></path>
                </g>
            </g>
        </g>
    </g>
</svg>
