<svg width="16" height="16" viewBox="0 0 16 16" xmlns="http://www.w3.org/2000/svg"><title>icon-user</title><path d="M15.91 14.326c-.076-.454-.705-1.054-3.38-2.038-2.633-.967-2.47-.496-2.47-2.276 0-1.154.587-.483.96-2.674.147-.863.264-.288.58-1.672.167-.725-.11-.78-.08-1.124.035-.346.068-.654.13-1.363C11.727 2.303 10.915 0 8 0 5.088 0 4.275 2.305 4.355 3.183c.062.705.095 1.017.13 1.363.033.346-.247.4-.08 1.125.316 1.38.433.805.58 1.672.373 2.19.96 1.52.96 2.675 0 1.783.163 1.313-2.47 2.275C.8 13.272.167 13.875.095 14.33 0 14.9 0 16 0 16h16s0-1.1-.09-1.674" fill="#57626C" fill-rule="evenodd"></path></svg>