<svg width="11px" height="12px" viewBox="0 0 11 12" version="1.1" xmlns="http://www.w3.org/2000/svg" xmlns:xlink="http://www.w3.org/1999/xlink">
    <!-- Generator: Sketch 43.2 (39069) - http://www.bohemiancoding.com/sketch -->
    <desc>Created with Sketch.</desc>
    <defs></defs>
    <g id="Page-1" stroke="none" stroke-width="1" fill="none" fill-rule="evenodd">
        <g id="icon-docs" transform="translate(-33.000000, -32.000000)" fill-rule="nonzero" fill="#57626C">
            <g transform="translate(33.000000, 32.000000)" id="Group">
                <g>
                    <path d="M0.7,11.8 C0.8,11.9 1,12 1.1,12 L9.8,12 C10,12 10.1,11.9 10.2,11.8 C10.3,11.7 10.4,11.5 10.4,11.3 L10.4,4.2 L6.9,4.2 C6.7,4.2 6.6,4.1 6.5,4 C6.4,3.9 6.3,3.7 6.3,3.5 L6.3,0 L1.1,0 C0.9,0 0.8,0.1 0.7,0.2 C0.6,0.3 0.5,0.5 0.5,0.7 L0.5,11.4 C0.5,11.5 0.6,11.7 0.7,11.8 L0.7,11.8 Z M3,8.8 C3,8.7 3,8.7 3.1,8.6 C3.1,8.6 3.2,8.5 3.3,8.5 L7.9,8.5 C8,8.5 8,8.5 8.1,8.6 C8.1,8.6 8.2,8.7 8.2,8.8 L8.2,9.2 C8.2,9.3 8.2,9.3 8.1,9.4 C8.1,9.4 8,9.5 7.9,9.5 L3.3,9.5 C3.2,9.5 3.2,9.5 3.1,9.4 C3.1,9.4 3,9.3 3,9.2 L3,8.8 Z M3,7.1 C3,7 3,7 3.1,6.9 C3.1,6.9 3.2,6.8 3.3,6.8 L7.9,6.8 C8,6.8 8,6.8 8.1,6.9 C8.1,6.9 8.2,7 8.2,7.1 L8.2,7.5 C8.2,7.6 8.2,7.6 8.1,7.7 C8.1,7.7 8,7.8 7.9,7.8 L3.3,7.8 C3.2,7.8 3.2,7.8 3.1,7.7 C3.1,7.7 3,7.6 3,7.5 L3,7.1 Z M3,5.4 C3,5.3 3,5.3 3.1,5.2 C3.1,5.2 3.2,5.1 3.3,5.1 L7.9,5.1 C8,5.1 8,5.1 8.1,5.2 C8.1,5.2 8.2,5.3 8.2,5.4 L8.2,5.8 C8.2,5.9 8.2,5.9 8.1,6 C8.1,6 8,6.1 7.9,6.1 L3.3,6.1 C3.2,6.1 3.2,6.1 3.1,6 C3.1,6 3,5.9 3,5.8 L3,5.4 Z M10.2,3.4 L10,3.1 L7.3,0.4 L7.1,0.2 L7.1,3.4 L10.2,3.4 L10.2,3.4 Z" id="Shape"></path>
                </g>
            </g>
        </g>
    </g>
</svg>
