<?xml version="1.0" encoding="UTF-8"?>
<svg width="800px" height="250px" viewBox="0 0 800 250" version="1.1" xmlns="http://www.w3.org/2000/svg" xmlns:xlink="http://www.w3.org/1999/xlink">
    <!-- Generator: Sketch 45.2 (43514) - http://www.bohemiancoding.com/sketch -->
    <title>budget_alerts</title>
    <desc>Created with Sketch.</desc>
    <defs>
        <linearGradient x1="0%" y1="0%" x2="100%" y2="100%" id="linearGradient-1">
            <stop stop-color="#0069CC" offset="0%"></stop>
            <stop stop-color="#065BAC" offset="100%"></stop>
        </linearGradient>
        <filter x="-9.4%" y="-7.1%" width="118.8%" height="118.8%" filterUnits="objectBoundingBox" id="filter-2">
            <feOffset dx="0" dy="2" in="SourceAlpha" result="shadowOffsetOuter1"></feOffset>
            <feGaussianBlur stdDeviation="2" in="shadowOffsetOuter1" result="shadowBlurOuter1"></feGaussianBlur>
            <feColorMatrix values="0 0 0 0 0   0 0 0 0 0   0 0 0 0 0  0 0 0 0.22 0" type="matrix" in="shadowBlurOuter1" result="shadowMatrixOuter1"></feColorMatrix>
            <feMerge>
                <feMergeNode in="shadowMatrixOuter1"></feMergeNode>
                <feMergeNode in="SourceGraphic"></feMergeNode>
            </feMerge>
        </filter>
        <path d="M52.3478533,24.0227198 L62.7592394,5.98967013 M60.2076939,31.4062064 L78.2407435,20.9948203 M60.8584055,52.2289786 L78.8914552,62.6403647 M53.4749189,60.0888192 L63.886305,78.1218689 M32.6521467,60.7395308 L22.2407606,78.7725805 M24.7923061,53.3560442 L6.75925645,63.7674303 M24.1415945,32.533272 L6.10854482,22.1218859 M31.5250811,24.6734314 L21.113695,6.64038176" id="path-3"></path>
        <filter x="-11.0%" y="-8.2%" width="122.0%" height="122.0%" filterUnits="objectBoundingBox" id="filter-4">
            <feMorphology radius="1" operator="dilate" in="SourceAlpha" result="shadowSpreadOuter1"></feMorphology>
            <feOffset dx="0" dy="2" in="shadowSpreadOuter1" result="shadowOffsetOuter1"></feOffset>
            <feMorphology radius="1" operator="erode" in="SourceAlpha" result="shadowInner"></feMorphology>
            <feOffset dx="0" dy="2" in="shadowInner" result="shadowInner"></feOffset>
            <feComposite in="shadowOffsetOuter1" in2="shadowInner" operator="out" result="shadowOffsetOuter1"></feComposite>
            <feGaussianBlur stdDeviation="2" in="shadowOffsetOuter1" result="shadowBlurOuter1"></feGaussianBlur>
            <feColorMatrix values="0 0 0 0 0   0 0 0 0 0   0 0 0 0 0  0 0 0 0.24 0" type="matrix" in="shadowBlurOuter1"></feColorMatrix>
        </filter>
        <filter x="-44.4%" y="-31.6%" width="188.9%" height="178.9%" filterUnits="objectBoundingBox" id="filter-5">
            <feOffset dx="0" dy="2" in="SourceAlpha" result="shadowOffsetOuter1"></feOffset>
            <feGaussianBlur stdDeviation="2" in="shadowOffsetOuter1" result="shadowBlurOuter1"></feGaussianBlur>
            <feColorMatrix values="0 0 0 0 0   0 0 0 0 0   0 0 0 0 0  0 0 0 0.19 0" type="matrix" in="shadowBlurOuter1" result="shadowMatrixOuter1"></feColorMatrix>
            <feMerge>
                <feMergeNode in="shadowMatrixOuter1"></feMergeNode>
                <feMergeNode in="SourceGraphic"></feMergeNode>
            </feMerge>
        </filter>
    </defs>
    <g id="Approved" stroke="none" stroke-width="1" fill="none" fill-rule="evenodd">
        <g id="budget_alerts">
            <g id="background">
                <g>
                    <rect id="Rectangle" fill="url(#linearGradient-1)" x="0" y="0" width="800" height="280"></rect>
                    <rect id="Rectangle-Copy" x="30" y="230" width="740" height="50"></rect>
                </g>
            </g>
            <g id="stroke-background" transform="translate(5.000000, 41.000000)">
                <g id="bg_tr" transform="translate(493.000000, 23.000000)" fill="#FFFFFF">
                    <rect id="Rectangle-Copy-12" opacity="0.175384964" x="8" y="0" width="5" height="3" rx="1.5"></rect>
                    <rect id="Rectangle-Copy-15" x="17" y="0" width="24" height="3" rx="1.5"></rect>
                    <rect id="Rectangle-Copy-14" opacity="0.175384964" x="60" y="7" width="5" height="3" rx="1.5"></rect>
                    <rect id="Rectangle-Copy-17" x="30" y="7" width="24" height="3" rx="1.5"></rect>
                    <rect id="Rectangle-Copy-21" opacity="0.191689312" x="11" y="14" width="24" height="3" rx="1.5"></rect>
                    <rect id="Rectangle-Copy-20" x="0" y="7" width="24" height="3" rx="1.5"></rect>
                </g>
                <g id="bg_br" transform="translate(518.500000, 124.500000) scale(1, -1) translate(-518.500000, -124.500000) translate(480.000000, 116.000000)">
                    <rect id="Rectangle-Copy-12" fill="#FFFFFF" opacity="0.175384964" x="0" y="7" width="5" height="3" rx="1.5"></rect>
                    <rect id="Rectangle-Copy-15" fill="#FFFFFF" x="9" y="7" width="24" height="3" rx="1.5"></rect>
                    <rect id="Rectangle-Copy-14" fill="#FFFFFF" opacity="0.175384964" x="52" y="14" width="5" height="3" rx="1.5"></rect>
                    <rect id="Rectangle-Copy-17" fill="#FFFFFF" x="22" y="14" width="24" height="3" rx="1.5"></rect>
                    <rect id="Rectangle-Copy-22" stroke="#FFFFFF" x="72.5" y="14.5" width="4" height="2" rx="1"></rect>
                    <rect id="Rectangle-Copy-12" fill="#FFFFFF" opacity="0.175384964" x="20" y="0" width="5" height="3" rx="1.5"></rect>
                    <rect id="Rectangle-Copy-15" fill="#FFFFFF" x="29" y="0" width="24" height="3" rx="1.5"></rect>
                    <rect id="Rectangle-Copy-14" fill="#FFFFFF" opacity="0.175384964" x="72" y="7" width="5" height="3" rx="1.5"></rect>
                    <rect id="Rectangle-Copy-17" fill="#FFFFFF" x="42" y="7" width="24" height="3" rx="1.5"></rect>
                </g>
                <g id="bg_tl" transform="translate(274.000000, 28.000000) scale(1, -1) translate(-274.000000, -28.000000) translate(240.000000, 23.000000)">
                    <rect id="Rectangle-Copy-12" fill="#FFFFFF" opacity="0.175384964" x="11" y="0" width="5" height="3" rx="1.5"></rect>
                    <rect id="Rectangle-Copy-15" fill="#FFFFFF" x="20" y="0" width="24" height="3" rx="1.5"></rect>
                    <rect id="Rectangle-Copy-14" fill="#FFFFFF" opacity="0.175384964" x="63" y="7" width="5" height="3" rx="1.5"></rect>
                    <rect id="Rectangle-Copy-17" fill="#FFFFFF" x="33" y="7" width="24" height="3" rx="1.5"></rect>
                    <rect id="Rectangle-Copy-22" stroke="#FFFFFF" x="0.5" y="0.5" width="4" height="2" rx="1"></rect>
                    <rect id="Rectangle-Copy-19" fill="#FFFFFF" x="3" y="7" width="24" height="3" rx="1.5"></rect>
                </g>
                <g id="bg_bl" transform="translate(249.000000, 120.000000)">
                    <rect id="Rectangle-Copy-12" fill="#FFFFFF" opacity="0.175384964" x="0" y="0" width="5" height="3" rx="1.5"></rect>
                    <rect id="Rectangle-Copy-15" fill="#FFFFFF" x="9" y="0" width="24" height="3" rx="1.5"></rect>
                    <rect id="Rectangle-Copy-22" stroke="#FFFFFF" x="42.5" y="0.5" width="4" height="2" rx="1"></rect>
                    <rect id="Rectangle-Copy-14" fill="#FFFFFF" opacity="0.175384964" x="52" y="7" width="5" height="3" rx="1.5"></rect>
                    <rect id="Rectangle-Copy-17" fill="#FFFFFF" x="22" y="7" width="24" height="3" rx="1.5"></rect>
                    <rect id="Rectangle-Copy-18" fill="#FFFFFF" x="2" y="14" width="24" height="3" rx="1.5"></rect>
                </g>
                <g id="dots" opacity="0.414855072" stroke="#FFFFFF">
                    <g id="Group-5" transform="translate(90.000000, 10.000000)">
                        <rect id="Rectangle-Copy-22" x="0.5" y="30.5" width="4" height="2" rx="1"></rect>
                        <rect id="Rectangle-Copy-23" x="80.5" y="0.5" width="4" height="2" rx="1"></rect>
                    </g>
                    <g id="Group-2" transform="translate(0.000000, 140.000000)">
                        <rect id="Rectangle-Copy-29" x="0.5" y="30.5" width="4" height="2" rx="1"></rect>
                        <rect id="Rectangle-Copy-28" x="80.5" y="0.5" width="4" height="2" rx="1"></rect>
                    </g>
                    <g id="Group-2-Copy-4" transform="translate(639.000000, 130.000000)">
                        <rect id="Rectangle-Copy-29" x="0.5" y="30.5" width="4" height="2" rx="1"></rect>
                        <rect id="Rectangle-Copy-28" x="80.5" y="0.5" width="4" height="2" rx="1"></rect>
                    </g>
                    <g id="Group-2-Copy-6" transform="translate(720.000000, 0.000000)">
                        <rect id="Rectangle-Copy-29" x="0.5" y="30.5" width="4" height="2" rx="1"></rect>
                    </g>
                </g>
            </g>
            <g transform="translate(357.000000, 79.000000)">
                <g id="radial" filter="url(#filter-2)" stroke-linecap="round">
                    <g id="Path-Copy-3" opacity="0.539628623" stroke-dasharray="4,4,4,4">
                        <use fill="black" fill-opacity="1" filter="url(#filter-4)" xlink:href="#path-3"></use>
                        <use stroke="#FFFFFF" stroke-width="2" xlink:href="#path-3"></use>
                    </g>
                    <path d="M41.8492884,21.5583531 L41.8492884,0.73558096 M63.3227722,41.7304137 L84.1455444,41.7304137 M43.1507116,63.2038975 L43.1507116,84.0266697 M21.6772278,43.0318369 L0.85445565,43.0318369" id="Path-Copy-4" stroke="#80C11A" stroke-width="2" stroke-dasharray="6,9,8"></path>
                </g>
                <g id="bell" filter="url(#filter-5)" transform="translate(34.000000, 33.000000)" fill-rule="nonzero">
                    <path d="M11.7,16.525 L6.075,16.525 C6.525,17.875 7.425,18.775 8.775,18.775 C10.125,18.775 11.25,17.875 11.7,16.525 Z" id="Shape" fill="#0C8EF7"></path>
                    <path d="M17.55,13.5 C11.7,9.45 16.2,0 9,0 C1.8,0 6.075,9.45 0.225,13.5 C0,13.5 0,13.725 0,13.95 L0,14.175 C0,14.4 0.225,14.4 0.45,14.4 L17.1,14.4 C17.325,14.4 17.55,14.4 17.55,14.175 L17.55,13.95 C17.775,13.725 17.775,13.5 17.55,13.5 Z" id="Shape" stroke="#FFFFFF" stroke-width="2"></path>
                </g>
            </g>
        </g>
    </g>
</svg>