
<svg width="800px" height="280px" viewBox="0 0 800 280" version="1.1" xmlns="http://www.w3.org/2000/svg" xmlns:xlink="http://www.w3.org/1999/xlink">
    <!-- Generator: Sketch 46.2 (44496) - http://www.bohemiancoding.com/sketch -->
    <desc>Created with Sketch.</desc>
    <defs>
        <linearGradient x1="49.2496875%" y1="0%" x2="50.7503125%" y2="100%" id="linearGradient-1">
            <stop stop-color="#0069CC" offset="0%"></stop>
            <stop stop-color="#065BAC" offset="100%"></stop>
        </linearGradient>
    </defs>
    <g id="Page-1" stroke="none" stroke-width="1" fill="none" fill-rule="evenodd">
        <g id="recommendations" fill-rule="nonzero">
            <rect id="Rectangle" fill="url(#linearGradient-1)" x="0" y="0" width="800" height="280"></rect>
            <g id="Group" transform="translate(248.000000, 94.000000)" fill="#FFFFFF">
                <g>
                    <rect id="Rectangle-3" x="0" y="0" width="44.2678571" height="4.13793103" rx="2.06896551"></rect>
                    <g id="Group-3" transform="translate(5.000000, 9.000000)">
                        <rect id="Rectangle-3" opacity="0.5" x="0" y="0" width="6" height="4.13793103" rx="2.06896551"></rect>
                        <rect id="Rectangle-3" x="9" y="0" width="20" height="4.13793103" rx="2.06896551"></rect>
                        <rect id="Rectangle-3" opacity="0.5" x="31" y="0" width="20" height="4.13793103" rx="2.06896551"></rect>
                    </g>
                    <rect id="Rectangle-3" x="0" y="18" width="44.2700005" height="4" rx="2"></rect>
                </g>
                <g id="Rectangle-3" transform="translate(23.000000, 82.000000)">
                    <rect id="Rectangle-path" opacity="0.5" x="0" y="10" width="22" height="4" rx="2"></rect>
                    <rect id="Rectangle-path" opacity="0.5" x="25" y="10" width="22" height="4" rx="2"></rect>
                    <rect id="Rectangle-path" opacity="0.5" x="50" y="10" width="7" height="4" rx="2"></rect>
                    <rect id="Rectangle-path" x="7" y="0" width="44" height="4" rx="2"></rect>
                </g>
                <g id="Rectangle-3" transform="translate(260.000000, 4.000000)">
                    <rect id="Rectangle-path" opacity="0.5" x="10" y="0" width="36" height="4" rx="2"></rect>
                    <rect id="Rectangle-path" opacity="0.5" x="0" y="9" width="20" height="4.13793103" rx="2.06896551"></rect>
                    <rect id="Rectangle-path" x="23" y="9" width="20" height="4.13793103" rx="2.06896551"></rect>
                </g>
                <g id="Rectangle-3" transform="translate(238.000000, 77.000000)">
                    <rect id="Rectangle-path" x="17" y="0" width="44" height="4" rx="2"></rect>
                    <rect id="Rectangle-path" opacity="0.5" x="0" y="10" width="10" height="4" rx="2"></rect>
                    <rect id="Rectangle-path" opacity="0.5" x="13" y="10" width="23" height="4" rx="2"></rect>
                    <rect id="Rectangle-path" opacity="0.5" x="38" y="10" width="20" height="4" rx="2"></rect>
                    <rect id="Rectangle-path" x="7" y="20" width="44" height="4" rx="2"></rect>
                </g>
            </g>
            <g id="Group" transform="translate(342.000000, 76.000000)" fill="#FFFFFF">
                <path d="M59.2,64.64 C59.2266668,65.5333378 59.5033307,66.2399974 60.03,66.76 C60.5566693,67.2800026 61.219996,67.606666 62.02,67.74 L62.02,62.44 C61.3133298,62.2666658 60.7033359,62.0766677 60.19,61.87 C59.6766641,61.6633323 59.2500017,61.4166681 58.91,61.13 C58.5699983,60.8433319 58.3200008,60.4933354 58.16,60.08 C57.9999992,59.6666646 57.92,59.1666696 57.92,58.58 C57.92,57.979997 58.0266656,57.4300025 58.24,56.93 C58.4533344,56.4299975 58.7433315,55.9966685 59.11,55.63 C59.4766685,55.2633315 59.9099975,54.9733344 60.41,54.76 C60.9100025,54.5466656 61.4466638,54.4200002 62.02,54.38 L62.02,53.06 L63.12,53.06 L63.12,54.4 C64.2000054,54.533334 65.0599968,54.93333 65.7,55.6 C66.3400032,56.26667 66.793332,57.1866608 67.06,58.36 L65.36,58.36 C65.093332,57.0399934 64.3466728,56.2666678 63.12,56.04 L63.12,60.96 L64.32,61.28 C64.586668,61.346667 64.8999982,61.4633325 65.26,61.63 C65.6200018,61.7966675 65.966665,62.0266652 66.3,62.32 C66.633335,62.6133348 66.9166655,62.9799978 67.15,63.42 C67.3833345,63.8600022 67.5,64.3866636 67.5,65 C67.5,65.6533366 67.3900011,66.2333308 67.17,66.74 C66.9499989,67.2466692 66.6466686,67.6833315 66.26,68.05 C65.8733314,68.4166685 65.413336,68.7066656 64.88,68.92 C64.346664,69.1333344 63.7600032,69.2666664 63.12,69.32 L63.12,70.96 L62.02,70.96 L62.02,69.32 C60.68666,69.186666 59.6266706,68.7233373 58.84,67.93 C58.0533294,67.1366627 57.6066672,66.040007 57.5,64.64 L59.2,64.64 Z M63.12,67.74 C63.4933352,67.7133332 63.8366651,67.6466672 64.15,67.54 C64.4633349,67.4333328 64.7366655,67.2766677 64.97,67.07 C65.2033345,66.8633323 65.3833327,66.6033349 65.51,66.29 C65.6366673,65.9766651 65.7,65.6066688 65.7,65.18 C65.7,64.7933314 65.633334,64.4700013 65.5,64.21 C65.366666,63.9499987 65.1866678,63.7266676 64.96,63.54 C64.7333322,63.3533324 64.4600016,63.1966673 64.14,63.07 C63.8199984,62.9433327 63.4800018,62.8266672 63.12,62.72 L63.12,67.74 Z M62.02,55.98 C61.3799968,56.046667 60.8366689,56.2766647 60.39,56.67 C59.9433311,57.0633353 59.72,57.6399962 59.72,58.4 C59.72,58.7466684 59.7766661,59.0433321 59.89,59.29 C60.0033339,59.5366679 60.1633323,59.7433325 60.37,59.91 C60.5766677,60.0766675 60.8199986,60.2199994 61.1,60.34 C61.3800014,60.4600006 61.686665,60.5666662 62.02,60.66 L62.02,55.98 Z" id="$"></path>
                <path d="M89.1,56.3 L95.7,54.2 C96.1,54.1 96.3,53.6 96.2,53.3 C96.1,52.9 95.6,52.7 95.3,52.8 L88.7,54.9 C88.3,55 88.1,55.5 88.2,55.8 C88.3,56.1 88.6,56.3 88.9,56.3 L89.1,56.3 Z" id="Shape" opacity="0.5"></path>
                <path d="M80.3,62.1 L80.3,62.1 C80.2,52 71.8,44 61.8,44.1 C51.7,44.2 43.6,52.5 43.7,62.6 C43.8,72.6 52,80.7 62,80.7 L62.2,80.7 C72.3,80.5 80.4,72.2 80.3,62.1 Z M62.2,79.1 C52.9,79.2 45.3,71.8 45.2,62.5 C45.1,53.2 52.5,45.6 61.8,45.5 L62,45.5 C71.2,45.5 78.7,52.9 78.8,62.1 C78.9,71.4 71.5,79 62.2,79.1 Z" id="Shape"></path>
                <path d="M65.5,94.7 L65.5,87.5 C78,85.8 87.6,75 87.4,62 C87.2,48.1 75.9,36.9 62,36.9 L61.7,36.9 C47.7,37.1 36.4,48.6 36.6,62.6 C36.7,69.4 39.4,75.7 44.3,80.5 C48.2,84.3 53.2,86.7 58.5,87.5 L58.5,94.7 C56.7,95.6 55.4,97.5 55.4,99.7 L55.4,123.5 C55.4,125.7 57.2,127.6 59.5,127.6 L64.6,127.6 C66.8,127.6 68.7,125.8 68.7,123.5 L68.7,99.7 C68.6,97.5 67.3,95.6 65.5,94.7 Z M38.1,62.6 C37.9,49.4 48.5,38.6 61.7,38.4 L62,38.4 C75,38.4 85.7,48.9 85.9,62 C86.1,75.2 75.5,86 62.3,86.2 C55.9,86.3 49.9,83.9 45.3,79.4 C40.7,75 38.2,69 38.1,62.6 Z M60,94.1 L60,87.8 L64,87.8 L64,94.1 L63,94.1 L61,94.1 L60,94.1 Z M61,95.6 L63,95.6 C65,95.6 66.7,97.1 67,99.1 L57,99.1 C57.3,97.1 58.9,95.6 61,95.6 Z M67,100 L67,114 L57,114 L57,100 L67,100 Z M57,115 L67,115 L67,119 L57,119 L57,115 Z M64.5,126 L59.4,126 C58,126 56.8,124.9 56.8,123.4 L56.8,120.2 L67,120.2 L67,123.4 C67.1,124.8 65.9,126 64.5,126 Z" id="Shape"></path>
                <path d="M47.3,39 C47.4,39.2 47.7,39.4 47.9,39.4 C48,39.4 48.2,39.4 48.3,39.3 C48.7,39.1 48.8,38.6 48.6,38.3 L42.8,28.4 C42.6,28 42.1,27.9 41.8,28.1 C41.4,28.3 41.3,28.8 41.5,29.1 L47.3,39 Z" id="Shape" opacity="0.5"></path>
                <path d="M39.3,26 C39.4,26.2 39.7,26.4 39.9,26.4 C40,26.4 40.2,26.4 40.3,26.3 C40.7,26.1 40.8,25.6 40.6,25.3 L34.8,15.4 C34.6,15 34.1,14.9 33.8,15.1 C33.4,15.3 33.3,15.8 33.5,16.1 L39.3,26 Z" id="Shape" opacity="0.5"></path>
                <path d="M27.6,43.8 L37.6,49.5 C37.7,49.6 37.8,49.6 38,49.6 C38.3,49.6 38.5,49.5 38.7,49.2 C38.9,48.8 38.8,48.4 38.4,48.2 L28.4,42.5 C28,42.3 27.6,42.4 27.4,42.8 C27.2,43.1 27.3,43.5 27.6,43.8 Z" id="Shape" opacity="0.5"></path>
                <path d="M13.0040518,35.7403093 L23.0040518,41.4403093 C23.1040518,41.5403093 23.2040518,41.5403093 23.4040518,41.5403093 C23.7040518,41.5403093 23.9040518,41.4403093 24.1040518,41.1403093 C24.3040518,40.7403093 24.2040518,40.3403093 23.8040518,40.1403093 L13.8040518,34.4403093 C13.4040518,34.2403093 13.0040518,34.3403093 12.8040518,34.7403093 C12.6040518,35.0403093 12.7040518,35.4403093 13.0040518,35.7403093 Z" id="Shape" opacity="0.5"></path>
                <path d="M85.4,49.2 C85.5,49.4 85.8,49.6 86.1,49.6 C86.2,49.6 86.4,49.6 86.5,49.5 L96.5,43.9 C96.9,43.7 97,43.2 96.8,42.9 C96.6,42.5 96.1,42.4 95.8,42.6 L85.8,48.2 C85.3,48.3 85.2,48.8 85.4,49.2 Z" id="Shape" opacity="0.5"></path>
                <path d="M98.4,42.2 C98.5,42.4 98.8,42.6 99.1,42.6 C99.2,42.6 99.4,42.6 99.5,42.5 L109.5,36.9 C109.9,36.7 110,36.2 109.8,35.9 C109.6,35.5 109.1,35.4 108.8,35.6 L98.8,41.2 C98.3,41.3 98.2,41.8 98.4,42.2 Z" id="Shape" opacity="0.5"></path>
                <path d="M75.7,39.3 C75.8,39.4 76,39.4 76.1,39.4 C76.4,39.4 76.6,39.3 76.7,39 L82.6,29.1 C82.8,28.7 82.7,28.3 82.3,28.1 C81.9,27.9 81.5,28 81.3,28.4 L75.4,38.3 C75.2,38.6 75.3,39.1 75.7,39.3 Z" id="Shape" opacity="0.5"></path>
                <path d="M83.7,26.3 C83.8,26.4 84,26.4 84.1,26.4 C84.4,26.4 84.6,26.3 84.7,26 L90.6,16.1 C90.8,15.7 90.7,15.3 90.3,15.1 C89.9,14.9 89.5,15 89.3,15.4 L83.4,25.3 C83.2,25.6 83.3,26.1 83.7,26.3 Z" id="Shape" opacity="0.5"></path>
                <path d="M53.2,28.1 C52.8,28.2 52.6,28.6 52.7,29 L54.8,35.6 C54.9,35.9 55.2,36.1 55.5,36.1 L55.7,36.1 C56.1,36 56.3,35.6 56.2,35.2 L54.1,28.6 C54,28.2 53.6,28 53.2,28.1 Z" id="Shape" opacity="0.5"></path>
                <path d="M37.2,37.1 C36.9,37.4 36.9,37.9 37.2,38.2 L42.3,42.9 C42.4,43 42.6,43.1 42.8,43.1 C43,43.1 43.2,43 43.4,42.9 C43.7,42.6 43.7,42.1 43.4,41.8 L38.3,37.1 C38,36.8 37.5,36.8 37.2,37.1 Z" id="Shape" opacity="0.5"></path>
                <path d="M35.6,53.9 L28.9,52.4 C28.5,52.3 28.1,52.6 28,53 C27.9,53.4 28.2,53.8 28.6,53.9 L35.3,55.4 L35.5,55.4 C35.8,55.4 36.2,55.2 36.2,54.8 C36.2,54.4 36,54 35.6,53.9 Z" id="Shape" opacity="0.5"></path>
                <path d="M81.3,43.6 C81.4,43.7 81.6,43.8 81.8,43.8 C82,43.8 82.2,43.7 82.4,43.5 L87,38.4 C87.3,38.1 87.3,37.6 86.9,37.3 C86.6,37 86.1,37 85.8,37.4 L81.2,42.5 C81,42.8 81,43.3 81.3,43.6 Z" id="Shape" opacity="0.5"></path>
                <path d="M70.1,28.8 L68.7,35.6 C68.6,36 68.9,36.4 69.3,36.5 L69.5,36.5 C69.8,36.5 70.2,36.3 70.2,35.9 L71.6,29.1 C71.7,28.7 71.4,28.3 71,28.2 C70.6,28.1 70.2,28.4 70.1,28.8 Z" id="Shape" opacity="0.5"></path>
                <path d="M61.2,20.7 L61.2,34.8 C61.2,35.2 61.5,35.6 62,35.6 C62.4,35.6 62.8,35.3 62.8,34.8 L62.8,20.7 C68,20.3 72.2,15.9 72.2,10.6 C72.1,5 67.6,0.5 62,0.5 C56.4,0.5 51.9,5 51.9,10.6 C51.9,16 56,20.3 61.2,20.7 Z M62,2 C66.8,2 70.6,5.9 70.6,10.6 C70.6,15.3 66.8,19.2 62,19.2 L62,19.2 L62,19.2 C57.3,19.2 53.4,15.3 53.4,10.6 C53.4,5.9 57.2,2 62,2 Z" id="Shape"></path>
                <path d="M113.7,52.4 C108.4,52.4 104,56.5 103.6,61.8 L89.6,61.8 C89.2,61.8 88.8,62.1 88.8,62.6 C88.8,63 89.1,63.4 89.6,63.4 L103.7,63.4 C104.1,68.6 108.5,72.8 113.8,72.8 C119.4,72.8 123.9,68.3 123.9,62.7 C123.9,57.1 119.3,52.4 113.7,52.4 Z M113.7,71.2 C109,71.2 105.1,67.4 105.1,62.6 L105.1,62.6 L105.1,62.6 C105.1,57.9 109,54 113.7,54 C118.5,54 122.3,57.9 122.3,62.6 C122.3,67.3 118.5,71.2 113.7,71.2 Z" id="Shape"></path>
                <path d="M34.4,63.3 C34.8,63.3 35.2,63 35.2,62.5 C35.2,62.1 34.9,61.7 34.4,61.7 L20.4,61.7 C20,56.5 15.6,52.3 10.3,52.3 C4.7,52.4 0.2,57 0.2,62.6 C0.2,68.2 4.7,72.7 10.3,72.7 C15.6,72.7 20,68.6 20.4,63.3 L34.4,63.3 L34.4,63.3 Z M10.3,71.2 C5.5,71.2 1.7,67.3 1.7,62.6 C1.7,57.8 5.6,54 10.3,54 C15,54 18.9,57.8 18.9,62.6 L18.9,62.6 L18.9,62.6 C18.9,67.3 15,71.2 10.3,71.2 Z" id="Shape"></path>
                <path d="M60.668516,14.1081831 C60.4743412,14.1081831 60.2524272,14.0249653 60.1137309,13.8862691 L57.2288488,11.001387 C56.9237171,10.6962552 56.9237171,10.1969487 57.2288488,9.89181692 C57.5339806,9.58668516 58.0332871,9.58668516 58.3384189,9.89181692 L60.668516,12.221914 L65.6615811,7.22884882 C65.9667129,6.92371706 66.4660194,6.92371706 66.7711512,7.22884882 C67.0762829,7.53398058 67.0762829,8.0332871 66.7711512,8.33841886 L61.223301,13.8862691 C61.0568655,14.0249653 60.8626907,14.1081831 60.668516,14.1081831 Z" id="Shape" opacity="0.5"></path>
                <path d="M8.66851595,67.1081831 C8.47434119,67.1081831 8.25242718,67.0249653 8.11373093,66.8862691 L5.22884882,64.001387 C4.92371706,63.6962552 4.92371706,63.1969487 5.22884882,62.8918169 C5.53398058,62.5866852 6.0332871,62.5866852 6.33841886,62.8918169 L8.66851595,65.221914 L13.6615811,60.2288488 C13.9667129,59.9237171 14.4660194,59.9237171 14.7711512,60.2288488 C15.0762829,60.5339806 15.0762829,61.0332871 14.7711512,61.3384189 L9.22330097,66.8862691 C9.05686546,67.0249653 8.86269071,67.1081831 8.66851595,67.1081831 Z" id="Shape" opacity="0.5"></path>
                <path d="M112.668516,67.1081831 C112.474341,67.1081831 112.252427,67.0249653 112.113731,66.8862691 L109.228849,64.001387 C108.923717,63.6962552 108.923717,63.1969487 109.228849,62.8918169 C109.533981,62.5866852 110.033287,62.5866852 110.338419,62.8918169 L112.668516,65.221914 L117.661581,60.2288488 C117.966713,59.9237171 118.466019,59.9237171 118.771151,60.2288488 C119.076283,60.5339806 119.076283,61.0332871 118.771151,61.3384189 L113.223301,66.8862691 C113.056865,67.0249653 112.862691,67.1081831 112.668516,67.1081831 Z" id="Shape" opacity="0.5"></path>
            </g>
        </g>
    </g>
</svg>
