<?xml version="1.0" encoding="UTF-8" standalone="no"?>
<svg width="16px" height="8px" viewBox="0 0 16 8" version="1.1" xmlns="http://www.w3.org/2000/svg" xmlns:xlink="http://www.w3.org/1999/xlink" xmlns:sketch="http://www.bohemiancoding.com/sketch/ns">
    <!-- Generator: Sketch 3.3.2 (12043) - http://www.bohemiancoding.com/sketch -->
    <title>icon-link</title>
    <desc>Created with Sketch.</desc>
    <defs></defs>
    <g id="Page-1" stroke="none" stroke-width="1" fill="none" fill-rule="evenodd" sketch:type="MSPage">
        <g id="icon-link" sketch:type="MSLayerGroup" fill="#FFFFFF">
            <g id="Group" sketch:type="MSShapeGroup">
                <path d="M12.6875,0 L10.6666667,0 C10.6666667,0 11.75,0.708333333 11.9833333,2 L12.6666667,2 L12.6875,2 C13.4208333,2 14,2.57916667 14,3.3125 L14,4.64583333 C14,5.37916667 13.4208333,6 12.6875,6 L8.02083333,6 C7.2875,6 6.66666667,5.37916667 6.66666667,4.64583333 L6.66666667,3.33333333 L4.66666667,3.33333333 L4.66666667,4.64583333 C4.66666667,5.125 4.77083333,5.58333333 4.95416667,6 C5.47916667,7.175 6.65833333,8 8.02083333,8 L12.6875,8 C14.5291667,8 16,6.4875 16,4.64583333 L16,3.3125 C16,1.47083333 14.5291667,0 12.6875,0 Z M11.0666667,2 C10.5625,0.820833333 9.39583333,0 8.02083333,0 L3.35416667,0 C1.5125,0 0,1.47083333 0,3.3125 L0,4.64583333 C0,6.4875 1.5125,8 3.35416667,8 L5.33333333,8 C5.33333333,8 4.25833333,7.29166667 3.99583333,6 L3.35416667,6 C2.62083333,6 2,5.37916667 2,4.64583333 L2,3.3125 C2,2.57916667 2.62083333,2 3.35416667,2 L8,2 L8.02083333,2 C8.75416667,2 9.33333333,2.57916667 9.33333333,3.3125 L9.33333333,4.64583333 L9.33333333,4.66666667 L11.3333333,4.66666667 L11.3333333,4.64583333 L11.3333333,3.3125 C11.3333333,2.84583333 11.2375,2.4 11.0666667,2 Z" id="Shape"></path>
            </g>
        </g>
    </g>
</svg>