<svg xmlns="http://www.w3.org/2000/svg" width="52" height="37" viewBox="0 0 52 37">
  <g fill="none" fill-rule="evenodd">
    <path fill="#F7A626" d="M45.7 16.9V16c0-8.5-7.1-16-15.6-16-6.2 0-11.3 4.1-13.8 9.3-1.2-.9-2.7-1.5-4.4-1.5C8 7.9 4.8 11 4.8 15c0 .7.1 1.5.3 2.1C2 18.9 0 22.3 0 26.1 0 31.8 4.3 36.9 10 37h32.1c5.7 0 9.9-5 9.9-10.6 0-4.3-2.6-7.9-6.3-9.5z"/>
    <path fill="#FFF" d="M22.6 20l.9 3H28v-3h-5.4zm6.4 0v3h3.8l1-3H29zm9-4.3h-.3c-.5 0-.9.3-1 .8l-.2.5H20.3l-.6-2.1c-.1-.5-.6-.9-1.1-.9H13c-.6 0-1.1.5-1.1 1.1 0 .6.4.9 1 .9h4.7l2.6 9.2c.1.5.6.8 1.1.8h13.3c.5 0 .9-.2 1-.7l2.8-8.1c0-.1.1-.3.1-.4.1-.5-.1-.9-.5-1.1zM34 24H21.9l-1.1-5h15L34 24z"/>
    <circle cx="24" cy="29" r="2" fill="#FFF"/>
    <circle cx="32" cy="29" r="2" fill="#FFF"/>
  </g>
</svg>
