<?xml version="1.0" encoding="utf-8"?>
<!-- Generator: Adobe Illustrator 18.1.0, SVG Export Plug-In . SVG Version: 6.00 Build 0)  -->
<!DOCTYPE svg PUBLIC "-//W3C//DTD SVG 1.1//EN" "http://www.w3.org/Graphics/SVG/1.1/DTD/svg11.dtd">
<svg version="1.1" id="Layer_1" xmlns="http://www.w3.org/2000/svg" xmlns:xlink="http://www.w3.org/1999/xlink" x="0px" y="0px"
	 width="52px" height="37px" viewBox="0 0 52 37" enable-background="new 0 0 52 37" xml:space="preserve">
<path fill="#F7A626" d="M45.7,16.9c0-0.3,0-0.6,0-0.9c0-8.5-7.1-16-15.6-16c-6.2,0-11.3,4.1-13.8,9.3c-1.2-0.9-2.7-1.5-4.4-1.5
	C8,7.9,4.8,11,4.8,15c0,0.7,0.1,1.5,0.3,2.1c-3.1,1.8-5.1,5.2-5.1,9C0,31.8,4.3,36.9,10,37v0h0.1c0,0,0,0,0,0s0,0,0,0l31.4,0
	c0.2,0,0.4,0,0.6,0c5.7,0,9.9-5,9.9-10.6C52,22.1,49.4,18.5,45.7,16.9z"/>
<g>
	<polygon fill="#FFFFFF" points="22.6,20 23.5,23 28,23 28,20 	"/>
	<polygon fill="#FFFFFF" points="29,20 29,23 32.8,23 33.8,20 	"/>
	<g>
		<path fill="#FFFFFF" d="M38,15.7c-0.1,0-0.2,0-0.3,0c-0.5,0-0.9,0.3-1,0.8L36.5,17l-16.2,0l-0.6-2.1c-0.1-0.5-0.6-0.9-1.1-0.9
			h-5.6c-0.6,0-1.1,0.5-1.1,1.1c0,0.6,0.4,0.9,1,0.9h4.7l2.6,9.2c0.1,0.5,0.6,0.8,1.1,0.8h13.3c0.5,0,0.9-0.2,1-0.7l2.8-8.1
			c0-0.1,0.1-0.3,0.1-0.4C38.6,16.3,38.4,15.9,38,15.7 M34,24L34,24H21.9l-1.1-5h15L34,24z"/>
	</g>
</g>
<circle fill="#FFFFFF" cx="24" cy="29" r="2"/>
<circle fill="#FFFFFF" cx="32" cy="29" r="2"/>
</svg>
