<svg width="16" height="16" viewBox="0 0 16 16" xmlns="http://www.w3.org/2000/svg" xmlns:sketch="http://www.bohemiancoding.com/sketch/ns"><title>icn-feed</title><desc>Created with Sketch.</desc><g sketch:type="MSArtboardGroup" fill="none"><rect fill="#F7A626" sketch:type="MSShapeGroup" x="1" y="1" width="14" height="14" rx="1.5"/><path d="M5.028 12.361c0-.767-.622-1.389-1.389-1.389s-1.389.622-1.389 1.389.622 1.389 1.389 1.389 1.389-.622 1.389-1.389zM3.176 7.268c-.511 0-.926.415-.926.926 0 .511.415.926.926.926 2.043 0 3.704 1.662 3.704 3.704 0 .511.415.926.926.926.511 0 .926-.415.926-.926 0-3.064-2.492-5.556-5.556-5.556zM12.437 12.824c0-5.106-4.154-9.26-9.26-9.26-.511 0-.926.415-.926.926 0 .511.415.926.926.926 4.085 0 7.408 3.323 7.408 7.408 0 .511.415.926.926.926.511 0 .926-.415.926-.926z" fill="#fff" sketch:type="MSShapeGroup"/></g></svg>