<svg width="223" height="17" viewBox="0 0 223 17" xmlns="http://www.w3.org/2000/svg"><title>CA logo</title><g fill="none" fill-rule="evenodd"><path d="M70.3 0h-6.2c-.6 0-1.1.2-1.5.6-.4.4-.6.9-.6 1.5v8.8c0 .6.2 1.1.6 1.5.4.4.9.6 1.5.6h6.2c.6 0 1.1-.2 1.5-.6.4-.4.6-.9.6-1.5v-.6h-7.7V2.7h7.7v-.6c0-.6-.2-1.1-.6-1.5-.4-.4-.9-.6-1.5-.6zM82 0h-6.2c-.6 0-1.1.2-1.5.6-.4.4-.6.9-.6 1.5v.6h7.8v2.5h-5.6c-.6 0-1.1.2-1.5.6-.4.4-.6.9-.6 1.5v3.6c0 .6.2 1.1.6 1.5.4.4.9.6 1.5.6H82c.6 0 1.1-.2 1.5-.6.4-.4.6-.9.6-1.5V2.1c0-.6-.2-1.1-.6-1.5-.4-.4-.9-.6-1.5-.6zm-.6 10.3h-5V7.8h5v2.5zm9.2 0H88V2.1c0-.6-.2-1.1-.6-1.5-.4-.4-.9-.6-1.5-.6h-.6v10.9c0 .6.2 1.1.6 1.5.4.4.9.6 1.5.6H91c.6 0 1.1-.2 1.5-.6.4-.4.6-.9.6-1.5v-.6h-2.5zm12.2-2.5c.6 0 1.1-.2 1.5-.6.4-.4.6-.9.6-1.5V2.1c0-.6-.2-1.1-.6-1.5-.4-.4-.9-.6-1.5-.6h-6.2c-.6 0-1.1.2-1.5.6-.4.4-.6.9-.6 1.5v8.8c0 .6.2 1.1.6 1.5.4.4.9.6 1.5.6h6.2c.6 0 1.1-.2 1.5-.6.4-.4.6-.9.6-1.5v-.6h-7.8V7.8h5.7zm-5.7-5.1h5v2.5h-5V2.7zM58.7 0h-6.2c-.6 0-1.1.2-1.5.6-.4.4-.6.9-.6 1.5v3.6c0 .6.2 1.1.6 1.5.4.4.9.6 1.5.6h5.6v2.5h-7.7v.6c0 .6.2 1.1.6 1.5.4.4.9.6 1.5.6h6.2c.6 0 1.1-.2 1.5-.6.4-.4.6-.9.6-1.5V7.3c0-.6-.2-1.1-.6-1.5-.4-.4-.9-.6-1.5-.6h-5.6V2.7h7.8v-.6c0-.6-.2-1.1-.6-1.5-.5-.4-1.1-.6-1.6-.6zM8.3 0H0v13h2.7v-2.6h5v.5c0 .6.2 1.1.6 1.5.5.4 1 .6 1.5.6h.6V9.9c0-.6-.2-1.1-.6-1.5-.3-.3-.6-.5-1-.6.4-.1.7-.3 1-.6.4-.4.6-.9.6-1.5V2.1c0-.6-.2-1.1-.6-1.5C9.4.2 8.9 0 8.3 0zm-.6 7.7h-5v-5h5v5zm4.5-4.6h-.6V13h2.7V5.3c0-.6-.2-1.1-.6-1.5-.4-.5-.9-.7-1.5-.7zm4-2.5c-.4.4-.6.9-.6 1.5v8.8c0 .6.2 1.1.6 1.5.4.4.9.6 1.5.6h6.2c.6 0 1.1-.2 1.5-.6.4-.4.6-.9.6-1.5V5.2h-2.7v5.2h-5V2.7H26V0h-8.3c-.6 0-1.1.2-1.5.6zM35 5.2h-5V0h-2.7v13H30V7.8h5V13h2.7V0H35v5.2zM38.9 0v2.7h2.6V13h.6c.6 0 1.1-.2 1.5-.6.4-.4.6-.9.6-1.5V2.7h2.6V0h-7.9z" opacity=".25" fill="#000"/><path d="M70.3 1h-6.2c-.6 0-1.1.2-1.5.6-.4.4-.6.9-.6 1.5v8.8c0 .6.2 1.1.6 1.5.4.4.9.6 1.5.6h6.2c.6 0 1.1-.2 1.5-.6.4-.4.6-.9.6-1.5v-.6h-7.7V3.7h7.7v-.6c0-.6-.2-1.1-.6-1.5-.4-.4-.9-.6-1.5-.6zM82 1h-6.2c-.6 0-1.1.2-1.5.6-.4.4-.6.9-.6 1.5v.6h7.8v2.5h-5.6c-.6 0-1.1.2-1.5.6-.4.4-.6.9-.6 1.5v3.6c0 .6.2 1.1.6 1.5.4.4.9.6 1.5.6H82c.6 0 1.1-.2 1.5-.6.4-.4.6-.9.6-1.5V3.1c0-.6-.2-1.1-.6-1.5-.4-.4-.9-.6-1.5-.6zm-.6 10.3h-5V8.8h5v2.5zm9.2 0H88V3.1c0-.6-.2-1.1-.6-1.5-.4-.4-.9-.6-1.5-.6h-.6v10.9c0 .6.2 1.1.6 1.5.4.4.9.6 1.5.6H91c.6 0 1.1-.2 1.5-.6.4-.4.6-.9.6-1.5v-.6h-2.5zm12.2-2.5c.6 0 1.1-.2 1.5-.6.4-.4.6-.9.6-1.5V3.1c0-.6-.2-1.1-.6-1.5-.4-.4-.9-.6-1.5-.6h-6.2c-.6 0-1.1.2-1.5.6-.4.4-.6.9-.6 1.5v8.8c0 .6.2 1.1.6 1.5.4.4.9.6 1.5.6h6.2c.6 0 1.1-.2 1.5-.6.4-.4.6-.9.6-1.5v-.6h-7.8V8.8h5.7zm-5.7-5.1h5v2.5h-5V3.7zM58.7 1h-6.2c-.6 0-1.1.2-1.5.6-.4.4-.6.9-.6 1.5v3.6c0 .6.2 1.1.6 1.5.4.4.9.6 1.5.6h5.6v2.5h-7.7v.6c0 .6.2 1.1.6 1.5.4.4.9.6 1.5.6h6.2c.6 0 1.1-.2 1.5-.6.4-.4.6-.9.6-1.5V8.3c0-.6-.2-1.1-.6-1.5-.4-.4-.9-.6-1.5-.6h-5.6V3.7h7.8v-.6c0-.6-.2-1.1-.6-1.5-.5-.4-1.1-.6-1.6-.6zM8.3 1H0v13h2.7v-2.6h5v.5c0 .6.2 1.1.6 1.5.5.4 1 .6 1.5.6h.6v-3.1c0-.6-.2-1.1-.6-1.5-.3-.3-.6-.5-1-.6.4-.1.7-.3 1-.6.4-.4.6-.9.6-1.5V3.1c0-.6-.2-1.1-.6-1.5-.4-.4-.9-.6-1.5-.6zm-.6 7.7h-5v-5h5v5zm4.5-4.6h-.6V14h2.7V6.3c0-.6-.2-1.1-.6-1.5-.4-.5-.9-.7-1.5-.7zm4-2.5c-.4.4-.6.9-.6 1.5v8.8c0 .6.2 1.1.6 1.5.4.4.9.6 1.5.6h6.2c.6 0 1.1-.2 1.5-.6.4-.4.6-.9.6-1.5V6.2h-2.7v5.2h-5V3.7H26V1h-8.3c-.6 0-1.1.2-1.5.6zM35 6.2h-5V1h-2.7v13H30V8.8h5V14h2.7V1H35v5.2zM38.9 1v2.7h2.6V14h.6c.6 0 1.1-.2 1.5-.6.4-.4.6-.9.6-1.5V3.7h2.6V1h-7.9z" fill="#fff"/><path d="M11.7.6c0 .6.2 1.1.6 1.5.4.4.9.6 1.5.6h.6V0h-2.7v.6z" opacity=".25" fill="#000"/><path d="M11.7 1.6c0 .6.2 1.1.6 1.5.4.4.9.6 1.5.6h.6V1h-2.7v.6z" fill="#F3A02D"/><g><path d="M120.28 4.016h1.52c-.085-.608-.267-1.144-.544-1.608-.277-.464-.624-.85-1.04-1.16-.416-.31-.89-.544-1.424-.704-.533-.16-1.1-.24-1.696-.24-.875 0-1.65.157-2.328.472-.677.315-1.243.744-1.696 1.288-.453.544-.797 1.18-1.032 1.912-.235.73-.352 1.512-.352 2.344 0 .832.11 1.61.328 2.336.22.725.547 1.355.984 1.888.437.533.987.952 1.648 1.256.66.304 1.435.456 2.32.456 1.46 0 2.613-.4 3.456-1.2.843-.8 1.34-1.92 1.488-3.36h-1.52c-.032.47-.128.907-.288 1.312-.16.405-.38.755-.664 1.048-.283.293-.62.523-1.008.688-.39.165-.835.248-1.336.248-.683 0-1.27-.128-1.76-.384s-.893-.6-1.208-1.032c-.315-.432-.547-.94-.696-1.52-.15-.58-.224-1.197-.224-1.848 0-.597.075-1.173.224-1.728.15-.555.38-1.048.696-1.48.315-.432.715-.776 1.2-1.032s1.07-.384 1.752-.384c.8 0 1.49.203 2.072.608.58.405.957 1.013 1.128 1.824zm3.376-3.44V12h1.36V.576h-1.36zm4.464 7.296c0-.5.067-.947.2-1.336.133-.39.317-.717.552-.984.235-.267.51-.47.824-.608.315-.14.648-.208 1-.208s.685.07 1 .208c.315.14.59.34.824.608.235.267.42.595.552.984.133.39.2.835.2 1.336 0 .5-.067.947-.2 1.336-.133.39-.317.715-.552.976-.235.26-.51.46-.824.6-.315.14-.648.208-1 .208s-.685-.07-1-.208c-.315-.14-.59-.34-.824-.6-.235-.26-.42-.587-.552-.976-.133-.39-.2-.835-.2-1.336zm-1.44 0c0 .608.085 1.173.256 1.696.17.523.427.98.768 1.368.34.39.763.693 1.264.912.5.22 1.077.328 1.728.328.66 0 1.24-.11 1.736-.328.496-.22.915-.523 1.256-.912.34-.39.597-.845.768-1.368.17-.523.256-1.088.256-1.696 0-.608-.085-1.176-.256-1.704-.17-.528-.427-.987-.768-1.376-.34-.39-.76-.696-1.256-.92-.496-.224-1.075-.336-1.736-.336-.65 0-1.227.112-1.728.336-.5.224-.923.53-1.264.92-.34.39-.597.848-.768 1.376-.17.528-.256 1.096-.256 1.704zM143.16 12V3.728h-1.36V8.4c0 .373-.05.717-.152 1.032-.1.315-.253.59-.456.824-.203.235-.456.416-.76.544-.304.128-.664.192-1.08.192-.523 0-.933-.15-1.232-.448-.3-.3-.448-.704-.448-1.216v-5.6h-1.36v5.44c0 .448.045.856.136 1.224.09.368.248.685.472.952.224.267.517.472.88.616.363.144.816.216 1.36.216.608 0 1.136-.12 1.584-.36.448-.24.816-.616 1.104-1.128h.032V12h1.28zm3.04-4.064c0-.405.043-.8.128-1.184.085-.384.224-.725.416-1.024.192-.3.448-.54.768-.72.32-.18.71-.272 1.168-.272.47 0 .87.088 1.2.264.33.176.6.408.808.696.208.288.36.62.456 1 .096.38.144.77.144 1.176 0 .384-.045.763-.136 1.136-.09.373-.237.707-.44 1-.203.293-.464.53-.784.712-.32.18-.71.272-1.168.272-.437 0-.82-.085-1.144-.256-.325-.17-.592-.4-.8-.688-.208-.288-.363-.616-.464-.984-.1-.368-.152-.744-.152-1.128zM152.6 12V.576h-1.36v4.256h-.032c-.15-.245-.333-.45-.552-.616-.22-.165-.45-.3-.696-.4-.245-.1-.49-.173-.736-.216-.245-.043-.475-.064-.688-.064-.63 0-1.18.115-1.656.344-.475.23-.87.54-1.184.928-.315.39-.55.845-.704 1.368-.155.523-.232 1.077-.232 1.664s.08 1.14.24 1.664c.16.523.397.98.712 1.376.315.395.71.71 1.184.944.475.235 1.032.352 1.672.352.576 0 1.104-.1 1.584-.304.48-.203.832-.533 1.056-.992h.032V12h1.36zm8.736-4.72l1.936-5.328h.032l1.904 5.328h-3.872zm1.136-6.704L158.024 12h1.552l1.28-3.44h4.832l1.248 3.44h1.68L164.152.576h-1.68zm7.04 3.152V12h1.36V7.328c0-.373.05-.717.152-1.032.1-.315.253-.59.456-.824.203-.235.456-.416.76-.544.304-.128.664-.192 1.08-.192.523 0 .933.15 1.232.448.3.3.448.704.448 1.216V12h1.36V6.56c0-.448-.045-.856-.136-1.224-.09-.368-.248-.685-.472-.952-.224-.267-.517-.475-.88-.624-.363-.15-.816-.224-1.36-.224-1.227 0-2.123.5-2.688 1.504h-.032V3.728h-1.28zm16.224 8.24c-.235.14-.56.208-.976.208-.352 0-.632-.1-.84-.296-.208-.197-.312-.52-.312-.968-.373.448-.808.77-1.304.968-.496.197-1.032.296-1.608.296-.373 0-.728-.043-1.064-.128-.336-.085-.627-.22-.872-.4-.245-.18-.44-.42-.584-.712-.144-.293-.216-.648-.216-1.064 0-.47.08-.853.24-1.152.16-.3.37-.54.632-.728.26-.187.56-.328.896-.424.336-.096.68-.176 1.032-.24.373-.075.728-.13 1.064-.168.336-.037.632-.09.888-.16s.46-.17.608-.304c.15-.133.224-.328.224-.584 0-.3-.056-.54-.168-.72-.112-.18-.256-.32-.432-.416-.176-.096-.373-.16-.592-.192-.22-.032-.435-.048-.648-.048-.576 0-1.056.11-1.44.328-.384.22-.592.632-.624 1.24h-1.36c.02-.512.128-.944.32-1.296.192-.352.448-.637.768-.856.32-.22.685-.376 1.096-.472.41-.096.85-.144 1.32-.144.373 0 .744.027 1.112.08.368.053.7.163 1 .328.3.165.54.397.72.696.18.3.272.688.272 1.168v4.256c0 .32.02.555.056.704.037.15.163.224.376.224.117 0 .256-.027.416-.08v1.056zm-2.208-4.24c-.17.128-.395.22-.672.28-.277.06-.568.107-.872.144-.304.037-.61.08-.92.128-.31.048-.587.125-.832.232-.245.107-.445.26-.6.456-.155.197-.232.467-.232.808 0 .224.045.413.136.568.09.155.208.28.352.376.144.096.312.165.504.208.192.043.395.064.608.064.448 0 .832-.06 1.152-.184.32-.123.58-.277.784-.464.203-.187.352-.39.448-.608.096-.22.144-.424.144-.616V7.728zM187.08.576V12h1.36V.576h-1.36zm6.72 12.528c-.16.405-.317.747-.472 1.024-.155.277-.325.504-.512.68-.187.176-.395.304-.624.384-.23.08-.493.12-.792.12-.16 0-.32-.01-.48-.032-.16-.02-.315-.06-.464-.112V13.92c.117.053.253.1.408.136.155.037.285.056.392.056.277 0 .51-.067.696-.2.187-.133.328-.323.424-.568l.56-1.392-3.28-8.224h1.536l2.416 6.768h.032l2.32-6.768h1.44l-3.6 9.376zm6.64-9.376v-2.48h-1.36v2.48h-1.408v1.2h1.408v5.264c0 .384.037.693.112.928.075.235.19.416.344.544.155.128.357.216.608.264.25.048.552.072.904.072h1.04v-1.2h-.624c-.213 0-.387-.008-.52-.024s-.237-.05-.312-.104c-.075-.053-.125-.128-.152-.224-.027-.096-.04-.224-.04-.384V4.928h1.648v-1.2h-1.648zm4.592-1.488V.576h-1.36V2.24h1.36zm-1.36 1.488V12h1.36V3.728h-1.36zm9.088 2.656h1.408c-.053-.49-.18-.915-.384-1.272-.203-.357-.46-.653-.776-.888-.315-.235-.677-.408-1.088-.52-.41-.112-.85-.168-1.32-.168-.65 0-1.22.115-1.712.344-.49.23-.9.544-1.224.944-.325.4-.568.87-.728 1.408-.16.54-.24 1.117-.24 1.736 0 .62.083 1.187.248 1.704.165.517.41.963.736 1.336.325.373.73.66 1.216.864.485.203 1.043.304 1.672.304 1.056 0 1.89-.277 2.504-.832.613-.555.995-1.344 1.144-2.368h-1.392c-.085.64-.317 1.136-.696 1.488-.38.352-.904.528-1.576.528-.427 0-.795-.085-1.104-.256-.31-.17-.56-.397-.752-.68-.192-.283-.333-.605-.424-.968-.09-.363-.136-.736-.136-1.12 0-.416.043-.82.128-1.208.085-.39.227-.733.424-1.032.197-.3.46-.54.792-.72.33-.18.74-.272 1.232-.272.576 0 1.035.144 1.376.432.34.288.565.693.672 1.216zm3.808 3.008h-1.36c.02.512.128.947.32 1.304.192.357.448.645.768.864.32.22.688.376 1.104.472.416.096.853.144 1.312.144.416 0 .835-.04 1.256-.12.42-.08.8-.22 1.136-.424.336-.203.608-.47.816-.8.208-.33.312-.747.312-1.248 0-.395-.077-.725-.232-.992-.155-.267-.357-.488-.608-.664-.25-.176-.54-.317-.864-.424-.325-.107-.66-.197-1-.272-.32-.075-.64-.147-.96-.216-.32-.07-.608-.155-.864-.256-.256-.1-.467-.23-.632-.384-.165-.155-.248-.35-.248-.584 0-.213.053-.387.16-.52.107-.133.245-.24.416-.32.17-.08.36-.136.568-.168.208-.032.413-.048.616-.048.224 0 .445.024.664.072.22.048.42.125.6.232.18.107.33.248.448.424.117.176.187.397.208.664h1.36c-.032-.5-.14-.92-.32-1.256-.18-.336-.424-.603-.728-.8-.304-.197-.653-.336-1.048-.416-.395-.08-.827-.12-1.296-.12-.363 0-.728.045-1.096.136-.368.09-.7.23-.992.416-.293.187-.533.43-.72.728-.187.3-.28.656-.28 1.072 0 .533.133.95.4 1.248.267.3.6.53 1 .696.4.165.835.293 1.304.384.47.09.904.192 1.304.304.4.112.733.26 1 .44s.4.448.4.8c0 .256-.064.467-.192.632-.128.165-.29.29-.488.376-.197.085-.413.144-.648.176-.235.032-.46.048-.672.048-.277 0-.547-.027-.808-.08-.26-.053-.496-.14-.704-.264-.208-.123-.376-.288-.504-.496-.128-.208-.197-.46-.208-.76z" fill-opacity=".25" fill="#000"/><path d="M120.28 5.016h1.52c-.085-.608-.267-1.144-.544-1.608-.277-.464-.624-.85-1.04-1.16-.416-.31-.89-.544-1.424-.704-.533-.16-1.1-.24-1.696-.24-.875 0-1.65.157-2.328.472-.677.315-1.243.744-1.696 1.288-.453.544-.797 1.18-1.032 1.912-.235.73-.352 1.512-.352 2.344 0 .832.11 1.61.328 2.336.22.725.547 1.355.984 1.888.437.533.987.952 1.648 1.256.66.304 1.435.456 2.32.456 1.46 0 2.613-.4 3.456-1.2.843-.8 1.34-1.92 1.488-3.36h-1.52c-.032.47-.128.907-.288 1.312-.16.405-.38.755-.664 1.048-.283.293-.62.523-1.008.688-.39.165-.835.248-1.336.248-.683 0-1.27-.128-1.76-.384s-.893-.6-1.208-1.032c-.315-.432-.547-.94-.696-1.52-.15-.58-.224-1.197-.224-1.848 0-.597.075-1.173.224-1.728.15-.555.38-1.048.696-1.48.315-.432.715-.776 1.2-1.032s1.07-.384 1.752-.384c.8 0 1.49.203 2.072.608.58.405.957 1.013 1.128 1.824zm3.376-3.44V13h1.36V1.576h-1.36zm4.464 7.296c0-.5.067-.947.2-1.336.133-.39.317-.717.552-.984.235-.267.51-.47.824-.608.315-.14.648-.208 1-.208s.685.07 1 .208c.315.14.59.34.824.608.235.267.42.595.552.984.133.39.2.835.2 1.336 0 .5-.067.947-.2 1.336-.133.39-.317.715-.552.976-.235.26-.51.46-.824.6-.315.14-.648.208-1 .208s-.685-.07-1-.208c-.315-.14-.59-.34-.824-.6-.235-.26-.42-.587-.552-.976-.133-.39-.2-.835-.2-1.336zm-1.44 0c0 .608.085 1.173.256 1.696.17.523.427.98.768 1.368.34.39.763.693 1.264.912.5.22 1.077.328 1.728.328.66 0 1.24-.11 1.736-.328.496-.22.915-.523 1.256-.912.34-.39.597-.845.768-1.368.17-.523.256-1.088.256-1.696 0-.608-.085-1.176-.256-1.704-.17-.528-.427-.987-.768-1.376-.34-.39-.76-.696-1.256-.92-.496-.224-1.075-.336-1.736-.336-.65 0-1.227.112-1.728.336-.5.224-.923.53-1.264.92-.34.39-.597.848-.768 1.376-.17.528-.256 1.096-.256 1.704zM143.16 13V4.728h-1.36V9.4c0 .373-.05.717-.152 1.032-.1.315-.253.59-.456.824-.203.235-.456.416-.76.544-.304.128-.664.192-1.08.192-.523 0-.933-.15-1.232-.448-.3-.3-.448-.704-.448-1.216v-5.6h-1.36v5.44c0 .448.045.856.136 1.224.09.368.248.685.472.952.224.267.517.472.88.616.363.144.816.216 1.36.216.608 0 1.136-.12 1.584-.36.448-.24.816-.616 1.104-1.128h.032V13h1.28zm3.04-4.064c0-.405.043-.8.128-1.184.085-.384.224-.725.416-1.024.192-.3.448-.54.768-.72.32-.18.71-.272 1.168-.272.47 0 .87.088 1.2.264.33.176.6.408.808.696.208.288.36.62.456 1 .096.38.144.77.144 1.176 0 .384-.045.763-.136 1.136-.09.373-.237.707-.44 1-.203.293-.464.53-.784.712-.32.18-.71.272-1.168.272-.437 0-.82-.085-1.144-.256-.325-.17-.592-.4-.8-.688-.208-.288-.363-.616-.464-.984-.1-.368-.152-.744-.152-1.128zM152.6 13V1.576h-1.36v4.256h-.032c-.15-.245-.333-.45-.552-.616-.22-.165-.45-.3-.696-.4-.245-.1-.49-.173-.736-.216-.245-.043-.475-.064-.688-.064-.63 0-1.18.115-1.656.344-.475.23-.87.54-1.184.928-.315.39-.55.845-.704 1.368-.155.523-.232 1.077-.232 1.664s.08 1.14.24 1.664c.16.523.397.98.712 1.376.315.395.71.71 1.184.944.475.235 1.032.352 1.672.352.576 0 1.104-.1 1.584-.304.48-.203.832-.533 1.056-.992h.032V13h1.36zm8.736-4.72l1.936-5.328h.032l1.904 5.328h-3.872zm1.136-6.704L158.024 13h1.552l1.28-3.44h4.832l1.248 3.44h1.68l-4.464-11.424h-1.68zm7.04 3.152V13h1.36V8.328c0-.373.05-.717.152-1.032.1-.315.253-.59.456-.824.203-.235.456-.416.76-.544.304-.128.664-.192 1.08-.192.523 0 .933.15 1.232.448.3.3.448.704.448 1.216V13h1.36V7.56c0-.448-.045-.856-.136-1.224-.09-.368-.248-.685-.472-.952-.224-.267-.517-.475-.88-.624-.363-.15-.816-.224-1.36-.224-1.227 0-2.123.5-2.688 1.504h-.032V4.728h-1.28zm16.224 8.24c-.235.14-.56.208-.976.208-.352 0-.632-.1-.84-.296-.208-.197-.312-.52-.312-.968-.373.448-.808.77-1.304.968-.496.197-1.032.296-1.608.296-.373 0-.728-.043-1.064-.128-.336-.085-.627-.22-.872-.4-.245-.18-.44-.42-.584-.712-.144-.293-.216-.648-.216-1.064 0-.47.08-.853.24-1.152.16-.3.37-.54.632-.728.26-.187.56-.328.896-.424.336-.096.68-.176 1.032-.24.373-.075.728-.13 1.064-.168.336-.037.632-.09.888-.16s.46-.17.608-.304c.15-.133.224-.328.224-.584 0-.3-.056-.54-.168-.72-.112-.18-.256-.32-.432-.416-.176-.096-.373-.16-.592-.192-.22-.032-.435-.048-.648-.048-.576 0-1.056.11-1.44.328-.384.22-.592.632-.624 1.24h-1.36c.02-.512.128-.944.32-1.296.192-.352.448-.637.768-.856.32-.22.685-.376 1.096-.472.41-.096.85-.144 1.32-.144.373 0 .744.027 1.112.08.368.053.7.163 1 .328.3.165.54.397.72.696.18.3.272.688.272 1.168v4.256c0 .32.02.555.056.704.037.15.163.224.376.224.117 0 .256-.027.416-.08v1.056zm-2.208-4.24c-.17.128-.395.22-.672.28-.277.06-.568.107-.872.144-.304.037-.61.08-.92.128-.31.048-.587.125-.832.232-.245.107-.445.26-.6.456-.155.197-.232.467-.232.808 0 .224.045.413.136.568.09.155.208.28.352.376.144.096.312.165.504.208.192.043.395.064.608.064.448 0 .832-.06 1.152-.184.32-.123.58-.277.784-.464.203-.187.352-.39.448-.608.096-.22.144-.424.144-.616V8.728zm3.552-7.152V13h1.36V1.576h-1.36zm6.72 12.528c-.16.405-.317.747-.472 1.024-.155.277-.325.504-.512.68-.187.176-.395.304-.624.384-.23.08-.493.12-.792.12-.16 0-.32-.01-.48-.032-.16-.02-.315-.06-.464-.112V14.92c.117.053.253.1.408.136.155.037.285.056.392.056.277 0 .51-.067.696-.2.187-.133.328-.323.424-.568l.56-1.392-3.28-8.224h1.536l2.416 6.768h.032l2.32-6.768h1.44l-3.6 9.376zm6.64-9.376v-2.48h-1.36v2.48h-1.408v1.2h1.408v5.264c0 .384.037.693.112.928.075.235.19.416.344.544.155.128.357.216.608.264.25.048.552.072.904.072h1.04v-1.2h-.624c-.213 0-.387-.008-.52-.024s-.237-.05-.312-.104c-.075-.053-.125-.128-.152-.224-.027-.096-.04-.224-.04-.384V5.928h1.648v-1.2h-1.648zm4.592-1.488V1.576h-1.36V3.24h1.36zm-1.36 1.488V13h1.36V4.728h-1.36zm9.088 2.656h1.408c-.053-.49-.18-.915-.384-1.272-.203-.357-.46-.653-.776-.888-.315-.235-.677-.408-1.088-.52-.41-.112-.85-.168-1.32-.168-.65 0-1.22.115-1.712.344-.49.23-.9.544-1.224.944-.325.4-.568.87-.728 1.408-.16.54-.24 1.117-.24 1.736 0 .62.083 1.187.248 1.704.165.517.41.963.736 1.336.325.373.73.66 1.216.864.485.203 1.043.304 1.672.304 1.056 0 1.89-.277 2.504-.832.613-.555.995-1.344 1.144-2.368h-1.392c-.085.64-.317 1.136-.696 1.488-.38.352-.904.528-1.576.528-.427 0-.795-.085-1.104-.256-.31-.17-.56-.397-.752-.68-.192-.283-.333-.605-.424-.968-.09-.363-.136-.736-.136-1.12 0-.416.043-.82.128-1.208.085-.39.227-.733.424-1.032.197-.3.46-.54.792-.72.33-.18.74-.272 1.232-.272.576 0 1.035.144 1.376.432.34.288.565.693.672 1.216zm3.808 3.008h-1.36c.02.512.128.947.32 1.304.192.357.448.645.768.864.32.22.688.376 1.104.472.416.096.853.144 1.312.144.416 0 .835-.04 1.256-.12.42-.08.8-.22 1.136-.424.336-.203.608-.47.816-.8.208-.33.312-.747.312-1.248 0-.395-.077-.725-.232-.992-.155-.267-.357-.488-.608-.664-.25-.176-.54-.317-.864-.424-.325-.107-.66-.197-1-.272-.32-.075-.64-.147-.96-.216-.32-.07-.608-.155-.864-.256-.256-.1-.467-.23-.632-.384-.165-.155-.248-.35-.248-.584 0-.213.053-.387.16-.52.107-.133.245-.24.416-.32.17-.08.36-.136.568-.168.208-.032.413-.048.616-.048.224 0 .445.024.664.072.22.048.42.125.6.232.18.107.33.248.448.424.117.176.187.397.208.664h1.36c-.032-.5-.14-.92-.32-1.256-.18-.336-.424-.603-.728-.8-.304-.197-.653-.336-1.048-.416-.395-.08-.827-.12-1.296-.12-.363 0-.728.045-1.096.136-.368.09-.7.23-.992.416-.293.187-.533.43-.72.728-.187.3-.28.656-.28 1.072 0 .533.133.95.4 1.248.267.3.6.53 1 .696.4.165.835.293 1.304.384.47.09.904.192 1.304.304.4.112.733.26 1 .44s.4.448.4.8c0 .256-.064.467-.192.632-.128.165-.29.29-.488.376-.197.085-.413.144-.648.176-.235.032-.46.048-.672.048-.277 0-.547-.027-.808-.08-.26-.053-.496-.14-.704-.264-.208-.123-.376-.288-.504-.496-.128-.208-.197-.46-.208-.76z" fill="#fff"/></g></g></svg>