<svg xmlns="http://www.w3.org/2000/svg" width="52" height="37" viewBox="0 0 52 37">
  <g fill="none" fill-rule="evenodd">
    <path fill="#80C11A" d="M45.7 16.9V16c0-8.5-7.1-16-15.6-16-6.2 0-11.3 4.1-13.8 9.3-1.2-.9-2.7-1.5-4.4-1.5C8 7.9 4.8 11 4.8 15c0 .7.1 1.5.3 2.1C2 18.9 0 22.3 0 26.1 0 31.8 4.3 36.9 10 37h32.1c5.7 0 9.9-5 9.9-10.6 0-4.3-2.6-7.9-6.3-9.5z"/>
    <path fill="#FFF" d="M38 11c-1.7 0-3 1.3-3 3 0 .3.1.7.2 1l-5.6 8.1c-.2-.1-.4-.1-.6-.1-.3 0-.6.1-.9.1l-5.2-4.5c0-.2.1-.4.1-.7 0-1.7-1.3-3-3-3s-3 1.3-3 3c0 .3.1.6.1.9L11.6 25H11c-1.7 0-3 1.3-3 3s1.3 3 3 3 3-1.3 3-3c0-.3-.1-.6-.1-.9l5.5-6.2c.1.1.4.1.6.1.3 0 .6-.1.9-.1l5.2 4.5c0 .2-.1.4-.1.7 0 1.7 1.3 3 3 3s3-1.3 3-3c0-.3-.1-.7-.2-1l5.6-8.1c.2 0 .3.1.5.1 1.7 0 3-1.3 3-3S39.7 11 38 11zm-19 6h2v2h-2v-2zm-7 12h-2v-2h2v2zm18-2h-2v-2h2v2zm9-12h-2v-2h2v2z"/>
  </g>
</svg>
