<svg width="12" height="12" viewBox="0 0 12 12" xmlns="http://www.w3.org/2000/svg" xmlns:sketch="http://www.bohemiancoding.com/sketch/ns"><title>icon-close</title><desc>Created with Sketch.</desc><path d="M11.863 10.071l-4.089-4.105 4.099-4.052c.168-.168.168-.443 0-.611l-1.166-1.172c-.081-.081-.19-.125-.305-.125-.115 0-.224.047-.305.125l-4.08 4.039-4.086-4.036c-.081-.081-.19-.125-.305-.125-.115 0-.224.047-.305.125l-1.163 1.172c-.168.168-.168.443 0 .611l4.099 4.052-4.086 4.102c-.081.081-.128.19-.128.305 0 .115.044.224.128.305l1.166 1.172c.084.084.193.128.305.128.109 0 .221-.041.305-.128l4.071-4.089 4.074 4.086c.084.084.193.128.305.128.109 0 .221-.041.305-.128l1.166-1.172c.081-.081.128-.19.128-.305-.003-.112-.05-.221-.131-.302z" sketch:type="MSShapeGroup" fill="#54A9F9"></path></svg>