<svg xmlns="http://www.w3.org/2000/svg" width="16" height="16" viewBox="0 0 16 16"><path fill="#4990E2" d="M16 7.9v1c0 .3-.2.5-.5.5l-2.2.3c-.1.6-.4 1.1-.7 1.6l1.4 1.8c.2.2.1.5 0 .7l-.7.7c-.1.1-.2.1-.4.1-.1 0-.2 0-.3-.1l-1.8-1.4c-.5.3-1 .5-1.6.7l-.3 2c0 .2-.3.2-.5.2h-1c-.3 0-.5 0-.5-.2l-.3-2.1c-.6-.2-1.1-.3-1.6-.6l-1.8 1.4c-.1.1-.2.1-.3.1-.1 0-.3 0-.4-.1l-.7-.7c-.2-.2-.2-.5 0-.7l1.4-1.8c-.3-.5-.5-1-.7-1.6L.4 9.4c-.3 0-.4-.2-.4-.5v-1c0-.3.1-.5.4-.5l2.2-.3c.1-.5.3-1.1.6-1.5L1.8 3.8c-.2-.2-.1-.5 0-.7l.7-.7c.1-.1.2-.1.4-.1.1 0 .2 0 .3.1L5 3.7c.5-.3 1-.5 1.6-.7L6.9.6c0-.2.2-.6.5-.6h1c.3 0 .5.4.5.6L9.2 3c.6.1 1.1.4 1.6.7l1.8-1.3c.1-.1.2-.1.3-.1.1 0 .3.1.4.2l.7.7c.2.2.2.5 0 .7l-1.4 1.8c.3.5.5 1 .7 1.6l2.3.3c.2-.1.4.1.4.3zm-8.1 3.5c1.7 0 3-1.3 3-3s-1.3-3-3-3-3 1.3-3 3 1.3 3 3 3z"/></svg>