<svg width="12" height="12" viewBox="0 0 12 12" xmlns="http://www.w3.org/2000/svg"><title>Search</title><path d="M1.486 8.667c.452.452.994.814 1.615 1.085.633.27 1.292.4 1.977.4 1.06 0 2.015-.296 2.88-.89l2.467 2.467c.18.18.388.27.646.27s.466-.09.66-.27c.18-.195.27-.402.27-.66 0-.245-.09-.465-.27-.646L9.26 7.957c.594-.865.89-1.82.89-2.88 0-.685-.128-1.344-.4-1.977-.27-.62-.633-1.162-1.085-1.614C8.215 1.034 7.672.672 7.052.4 6.42.13 5.76 0 5.076 0 4.39 0 3.732.13 3.1.4c-.62.273-1.163.634-1.615 1.086C1.033 1.938.67 2.48.4 3.1.13 3.733 0 4.392 0 5.077 0 5.76.127 6.42.4 7.053c.272.62.633 1.162 1.085 1.614zm3.59-6.82c.892 0 1.654.31 2.287.943.632.633.943 1.395.943 2.286s-.31 1.653-.943 2.286c-.633.632-1.395.943-2.286.943s-1.653-.31-2.286-.943-.942-1.395-.942-2.286.31-1.653.943-2.286 1.396-.943 2.287-.943z" fill="#8596A5"/></svg>