<svg width="80" height="96" viewBox="0 0 80 96" xmlns="http://www.w3.org/2000/svg"><title>paper</title><path d="M68 0H12C5.37 0 0 5.37 0 12v72c0 6.63 5.37 12 12 12h56c6.63 0 12-5.37 12-12V12c0-6.63-5.37-12-12-12zm4 84c0 2.21-1.79 4-4 4H12c-2.21 0-4-1.79-4-4V12c0-2.21 1.79-4 4-4h56c2.21 0 4 1.79 4 4v72zM56 68H24c-2.21 0-4 1.79-4 4s1.79 4 4 4h32c2.21 0 4-1.79 4-4s-1.79-4-4-4zm0-16H24c-2.21 0-4 1.79-4 4s1.79 4 4 4h32c2.21 0 4-1.79 4-4s-1.79-4-4-4zm0-16H24c-2.21 0-4 1.79-4 4s1.79 4 4 4h32c2.21 0 4-1.79 4-4s-1.79-4-4-4zm-32-8h16c2.21 0 4-1.79 4-4s-1.79-4-4-4H24c-2.21 0-4 1.79-4 4s1.79 4 4 4z" fill="#FFF" fill-rule="evenodd"/></svg>