<svg width="39" height="50" viewBox="0 0 39 50" xmlns="http://www.w3.org/2000/svg"><title>T</title><path d="M.512 4.21c0-1.007.357-1.868 1.072-2.583C2.3.912 3.16.555 4.168.555h30.41c1.008 0 1.87.357 2.584 1.072.715.715 1.072 1.576 1.072 2.584 0 1.01-.357 1.876-1.072 2.603-.715.726-1.576 1.09-2.584 1.09h-11.04v37.51c0 1.173-.397 2.157-1.194 2.954-.797.797-1.78 1.196-2.953 1.196-1.17 0-2.16-.405-2.97-1.213-.81-.81-1.213-1.787-1.213-2.936V7.902H4.167c-1.007 0-1.868-.363-2.583-1.09C.87 6.087.512 5.22.512 4.213z" fill="#FFF" fill-rule="evenodd"/></svg>