<svg width="299" height="169" viewBox="0 0 299 169" xmlns="http://www.w3.org/2000/svg"><title>Shape</title><path d="M269.825 0H189.09c-7.812 0-14.323 2.6-19.532 7.8-5.208 5.2-7.813 11.7-7.813 19.5v46.8c0 7.8 2.605 14.3 7.813 19.5 5.21 5.2 11.72 7.8 19.533 7.8h72.922v32.5H161.745v7.8c0 7.8 2.605 14.3 7.813 19.5 5.21 5.2 11.72 7.8 19.533 7.8h80.735c7.813 0 14.324-2.6 19.533-7.8 5.208-5.2 7.813-11.7 7.813-19.5V94.9c0-7.8-2.604-14.3-7.812-19.5-5.21-5.2-11.72-7.8-19.533-7.8h-72.92V35.1h101.568v-7.8c0-7.8-2.605-14.3-7.813-19.5-6.51-5.2-14.324-7.8-20.835-7.8zM108.08 0H0v169h35.158v-33.8h65.11v6.5c0 7.8 2.603 14.3 7.812 19.5 6.51 5.2 13.02 7.8 19.532 7.8h7.813v-40.3c0-7.8-2.604-14.3-7.813-19.5-3.906-3.9-7.813-6.5-13.022-7.8 5.21-1.3 9.116-3.9 13.022-7.8 5.21-5.2 7.813-11.7 7.813-19.5V27.3c0-7.8-2.604-14.3-7.813-19.5-5.21-5.2-11.72-7.8-19.532-7.8zm-7.813 100.1h-65.11v-65h65.11v65z" fill="#FFF" fill-rule="evenodd"/></svg>