<svg width="196" height="14" viewBox="0 0 196 14" xmlns="http://www.w3.org/2000/svg"><title>SS logo</title><g fill="none" fill-rule="evenodd"><g id="Group"><path d="M70.3 0h-6.2c-.6 0-1.1.2-1.5.6-.4.4-.6.9-.6 1.5v8.8c0 .6.2 1.1.6 1.5.4.4.9.6 1.5.6h6.2c.6 0 1.1-.2 1.5-.6.4-.4.6-.9.6-1.5v-.6h-7.7V2.7h7.7v-.6c0-.6-.2-1.1-.6-1.5-.4-.4-.9-.6-1.5-.6zM82 0h-6.2c-.6 0-1.1.2-1.5.6-.4.4-.6.9-.6 1.5v.6h7.8v2.5h-5.6c-.6 0-1.1.2-1.5.6-.4.4-.6.9-.6 1.5v3.6c0 .6.2 1.1.6 1.5.4.4.9.6 1.5.6H82c.6 0 1.1-.2 1.5-.6.4-.4.6-.9.6-1.5V2.1c0-.6-.2-1.1-.6-1.5-.4-.4-.9-.6-1.5-.6zm-.6 10.3h-5V7.8h5v2.5zm9.2 0H88V2.1c0-.6-.2-1.1-.6-1.5-.4-.4-.9-.6-1.5-.6h-.6v10.9c0 .6.2 1.1.6 1.5.4.4.9.6 1.5.6H91c.6 0 1.1-.2 1.5-.6.4-.4.6-.9.6-1.5v-.6h-2.5zm12.2-2.5c.6 0 1.1-.2 1.5-.6.4-.4.6-.9.6-1.5V2.1c0-.6-.2-1.1-.6-1.5-.4-.4-.9-.6-1.5-.6h-6.2c-.6 0-1.1.2-1.5.6-.4.4-.6.9-.6 1.5v8.8c0 .6.2 1.1.6 1.5.4.4.9.6 1.5.6h6.2c.6 0 1.1-.2 1.5-.6.4-.4.6-.9.6-1.5v-.6h-7.8V7.8h5.7zm-5.7-5.1h5v2.5h-5V2.7zM58.7 0h-6.2c-.6 0-1.1.2-1.5.6-.4.4-.6.9-.6 1.5v3.6c0 .6.2 1.1.6 1.5.4.4.9.6 1.5.6h5.6v2.5h-7.7v.6c0 .6.2 1.1.6 1.5.4.4.9.6 1.5.6h6.2c.6 0 1.1-.2 1.5-.6.4-.4.6-.9.6-1.5V7.3c0-.6-.2-1.1-.6-1.5-.4-.4-.9-.6-1.5-.6h-5.6V2.7h7.8v-.6c0-.6-.2-1.1-.6-1.5-.5-.4-1.1-.6-1.6-.6zM8.3 0H0v13h2.7v-2.6h5v.5c0 .6.2 1.1.6 1.5.5.4 1 .6 1.5.6h.6V9.9c0-.6-.2-1.1-.6-1.5-.3-.3-.6-.5-1-.6.4-.1.7-.3 1-.6.4-.4.6-.9.6-1.5V2.1c0-.6-.2-1.1-.6-1.5C9.4.2 8.9 0 8.3 0zm-.6 7.7h-5v-5h5v5zm4.5-4.6h-.6V13h2.7V5.3c0-.6-.2-1.1-.6-1.5-.4-.5-.9-.7-1.5-.7zm4-2.5c-.4.4-.6.9-.6 1.5v8.8c0 .6.2 1.1.6 1.5.4.4.9.6 1.5.6h6.2c.6 0 1.1-.2 1.5-.6.4-.4.6-.9.6-1.5V5.2h-2.7v5.2h-5V2.7H26V0h-8.3c-.6 0-1.1.2-1.5.6zM35 5.2h-5V0h-2.7v13H30V7.8h5V13h2.7V0H35v5.2zM38.9 0v2.7h2.6V13h.6c.6 0 1.1-.2 1.5-.6.4-.4.6-.9.6-1.5V2.7h2.6V0h-7.9z" id="Shape" opacity=".25" fill="#000"/><path d="M70.3 1h-6.2c-.6 0-1.1.2-1.5.6-.4.4-.6.9-.6 1.5v8.8c0 .6.2 1.1.6 1.5.4.4.9.6 1.5.6h6.2c.6 0 1.1-.2 1.5-.6.4-.4.6-.9.6-1.5v-.6h-7.7V3.7h7.7v-.6c0-.6-.2-1.1-.6-1.5-.4-.4-.9-.6-1.5-.6zM82 1h-6.2c-.6 0-1.1.2-1.5.6-.4.4-.6.9-.6 1.5v.6h7.8v2.5h-5.6c-.6 0-1.1.2-1.5.6-.4.4-.6.9-.6 1.5v3.6c0 .6.2 1.1.6 1.5.4.4.9.6 1.5.6H82c.6 0 1.1-.2 1.5-.6.4-.4.6-.9.6-1.5V3.1c0-.6-.2-1.1-.6-1.5-.4-.4-.9-.6-1.5-.6zm-.6 10.3h-5V8.8h5v2.5zm9.2 0H88V3.1c0-.6-.2-1.1-.6-1.5-.4-.4-.9-.6-1.5-.6h-.6v10.9c0 .6.2 1.1.6 1.5.4.4.9.6 1.5.6H91c.6 0 1.1-.2 1.5-.6.4-.4.6-.9.6-1.5v-.6h-2.5zm12.2-2.5c.6 0 1.1-.2 1.5-.6.4-.4.6-.9.6-1.5V3.1c0-.6-.2-1.1-.6-1.5-.4-.4-.9-.6-1.5-.6h-6.2c-.6 0-1.1.2-1.5.6-.4.4-.6.9-.6 1.5v8.8c0 .6.2 1.1.6 1.5.4.4.9.6 1.5.6h6.2c.6 0 1.1-.2 1.5-.6.4-.4.6-.9.6-1.5v-.6h-7.8V8.8h5.7zm-5.7-5.1h5v2.5h-5V3.7zM58.7 1h-6.2c-.6 0-1.1.2-1.5.6-.4.4-.6.9-.6 1.5v3.6c0 .6.2 1.1.6 1.5.4.4.9.6 1.5.6h5.6v2.5h-7.7v.6c0 .6.2 1.1.6 1.5.4.4.9.6 1.5.6h6.2c.6 0 1.1-.2 1.5-.6.4-.4.6-.9.6-1.5V8.3c0-.6-.2-1.1-.6-1.5-.4-.4-.9-.6-1.5-.6h-5.6V3.7h7.8v-.6c0-.6-.2-1.1-.6-1.5-.5-.4-1.1-.6-1.6-.6zM8.3 1H0v13h2.7v-2.6h5v.5c0 .6.2 1.1.6 1.5.5.4 1 .6 1.5.6h.6v-3.1c0-.6-.2-1.1-.6-1.5-.3-.3-.6-.5-1-.6.4-.1.7-.3 1-.6.4-.4.6-.9.6-1.5V3.1c0-.6-.2-1.1-.6-1.5-.4-.4-.9-.6-1.5-.6zm-.6 7.7h-5v-5h5v5zm4.5-4.6h-.6V14h2.7V6.3c0-.6-.2-1.1-.6-1.5-.4-.5-.9-.7-1.5-.7zm4-2.5c-.4.4-.6.9-.6 1.5v8.8c0 .6.2 1.1.6 1.5.4.4.9.6 1.5.6h6.2c.6 0 1.1-.2 1.5-.6.4-.4.6-.9.6-1.5V6.2h-2.7v5.2h-5V3.7H26V1h-8.3c-.6 0-1.1.2-1.5.6zM35 6.2h-5V1h-2.7v13H30V8.8h5V14h2.7V1H35v5.2zM38.9 1v2.7h2.6V14h.6c.6 0 1.1-.2 1.5-.6.4-.4.6-.9.6-1.5V3.7h2.6V1h-7.9z" id="Shape" fill="#FFF"/><path d="M11.7.6c0 .6.2 1.1.6 1.5.4.4.9.6 1.5.6h.6V0h-2.7v.6z" id="Shape" opacity=".25" fill="#000"/><path d="M11.7 1.6c0 .6.2 1.1.6 1.5.4.4.9.6 1.5.6h.6V1h-2.7v.6z" fill="#F3A02D"/></g><path d="M118.856 3.92h1.44c-.02-.63-.14-1.17-.36-1.624-.22-.453-.517-.83-.896-1.128-.38-.3-.82-.517-1.32-.656-.5-.14-1.045-.208-1.632-.208-.523 0-1.032.067-1.528.2s-.94.336-1.328.608c-.39.272-.7.62-.936 1.04-.235.42-.352.92-.352 1.496 0 .523.104.957.312 1.304.208.347.485.63.832.848.347.22.74.395 1.176.528.437.133.883.25 1.336.352l1.336.296c.437.096.83.22 1.176.376.347.155.624.355.832.6.208.245.312.565.312.96 0 .416-.085.757-.256 1.024-.17.267-.395.477-.672.632-.277.155-.59.264-.936.328-.347.064-.69.096-1.032.096-.427 0-.843-.053-1.248-.16-.405-.107-.76-.272-1.064-.496-.304-.224-.55-.51-.736-.856-.187-.347-.28-.76-.28-1.24h-1.44c0 .693.125 1.293.376 1.8.25.507.592.923 1.024 1.248.432.325.933.568 1.504.728.57.16 1.176.24 1.816.24.523 0 1.048-.06 1.576-.184.528-.123 1.005-.32 1.432-.592.427-.272.776-.624 1.048-1.056.272-.432.408-.952.408-1.56 0-.565-.104-1.035-.312-1.408-.208-.373-.485-.683-.832-.928s-.74-.44-1.176-.584c-.437-.144-.883-.27-1.336-.376-.453-.107-.9-.205-1.336-.296-.437-.09-.83-.205-1.176-.344-.347-.14-.624-.317-.832-.536-.208-.22-.312-.504-.312-.856 0-.373.072-.685.216-.936.144-.25.336-.45.576-.6.24-.15.515-.256.824-.32.31-.064.624-.096.944-.096.79 0 1.437.184 1.944.552.507.368.803.963.888 1.784zm9.28 3.152h-4.752c.02-.32.09-.62.208-.904.117-.283.277-.53.48-.744.203-.213.445-.38.728-.504.283-.123.6-.184.952-.184.34 0 .653.06.936.184.283.123.528.288.736.496.208.208.373.456.496.744s.195.592.216.912zm1.312 2.304h-1.344c-.117.544-.36.95-.728 1.216-.368.267-.84.4-1.416.4-.448 0-.837-.075-1.168-.224-.33-.15-.603-.35-.816-.6-.213-.25-.368-.54-.464-.864-.096-.325-.14-.67-.128-1.032h6.192c.02-.5-.024-1.03-.136-1.584-.112-.555-.315-1.067-.608-1.536-.293-.47-.683-.856-1.168-1.16-.485-.304-1.096-.456-1.832-.456-.565 0-1.085.107-1.56.32-.475.213-.885.512-1.232.896s-.616.837-.808 1.36c-.192.523-.288 1.1-.288 1.728.02.63.115 1.21.28 1.744.165.533.413.992.744 1.376.33.384.74.683 1.224.896.485.213 1.06.32 1.72.32.94 0 1.717-.235 2.336-.704.62-.47 1.02-1.168 1.2-2.096zm1.616-8.8V12h1.36V.576h-1.36zm4.032 4.352V12h1.36V4.928h1.6v-1.2h-1.6V2.576c0-.363.09-.608.272-.736.18-.128.437-.192.768-.192.117 0 .245.008.384.024.14.016.267.045.384.088V.576c-.128-.043-.275-.075-.44-.096-.165-.02-.312-.032-.44-.032-.747 0-1.315.173-1.704.52-.39.347-.584.856-.584 1.528v1.232h-1.392v1.2h1.392zm15.456-1.008h1.44c-.02-.63-.14-1.17-.36-1.624-.22-.453-.517-.83-.896-1.128-.38-.3-.82-.517-1.32-.656-.5-.14-1.045-.208-1.632-.208-.523 0-1.032.067-1.528.2s-.94.336-1.328.608c-.39.272-.7.62-.936 1.04-.235.42-.352.92-.352 1.496 0 .523.104.957.312 1.304.208.347.485.63.832.848.347.22.74.395 1.176.528.437.133.883.25 1.336.352l1.336.296c.437.096.83.22 1.176.376.347.155.624.355.832.6.208.245.312.565.312.96 0 .416-.085.757-.256 1.024-.17.267-.395.477-.672.632-.277.155-.59.264-.936.328-.347.064-.69.096-1.032.096-.427 0-.843-.053-1.248-.16-.405-.107-.76-.272-1.064-.496-.304-.224-.55-.51-.736-.856-.187-.347-.28-.76-.28-1.24h-1.44c0 .693.125 1.293.376 1.8.25.507.592.923 1.024 1.248.432.325.933.568 1.504.728.57.16 1.176.24 1.816.24.523 0 1.048-.06 1.576-.184.528-.123 1.005-.32 1.432-.592.427-.272.776-.624 1.048-1.056.272-.432.408-.952.408-1.56 0-.565-.104-1.035-.312-1.408-.208-.373-.485-.683-.832-.928s-.74-.44-1.176-.584c-.437-.144-.883-.27-1.336-.376-.453-.107-.9-.205-1.336-.296-.437-.09-.83-.205-1.176-.344-.347-.14-.624-.317-.832-.536-.208-.22-.312-.504-.312-.856 0-.373.072-.685.216-.936.144-.25.336-.45.576-.6.24-.15.515-.256.824-.32.31-.064.624-.096.944-.096.79 0 1.437.184 1.944.552.507.368.803.963.888 1.784zm9.28 3.152h-4.752c.02-.32.09-.62.208-.904.117-.283.277-.53.48-.744.203-.213.445-.38.728-.504.283-.123.6-.184.952-.184.34 0 .653.06.936.184.283.123.528.288.736.496.208.208.373.456.496.744s.195.592.216.912zm1.312 2.304H159.8c-.117.544-.36.95-.728 1.216-.368.267-.84.4-1.416.4-.448 0-.837-.075-1.168-.224-.33-.15-.603-.35-.816-.6-.213-.25-.368-.54-.464-.864-.096-.325-.14-.67-.128-1.032h6.192c.02-.5-.024-1.03-.136-1.584-.112-.555-.315-1.067-.608-1.536-.293-.47-.683-.856-1.168-1.16-.485-.304-1.096-.456-1.832-.456-.565 0-1.085.107-1.56.32-.475.213-.885.512-1.232.896s-.616.837-.808 1.36c-.192.523-.288 1.1-.288 1.728.02.63.115 1.21.28 1.744.165.533.413.992.744 1.376.33.384.74.683 1.224.896.485.213 1.06.32 1.72.32.94 0 1.717-.235 2.336-.704.62-.47 1.02-1.168 1.2-2.096zm1.488-5.648V12h1.36V8.32c0-.533.053-1.005.16-1.416.107-.41.277-.76.512-1.048.235-.288.544-.507.928-.656.384-.15.848-.224 1.392-.224v-1.44c-.736-.02-1.344.128-1.824.448s-.885.816-1.216 1.488h-.032V3.728h-1.28zM171.736 12l3.024-8.272h-1.424l-2.256 6.896h-.032l-2.32-6.896h-1.52L170.28 12h1.456zm5.712-9.76V.576h-1.36V2.24h1.36zm-1.36 1.488V12h1.36V3.728h-1.36zm9.088 2.656h1.408c-.053-.49-.18-.915-.384-1.272-.203-.357-.46-.653-.776-.888-.315-.235-.677-.408-1.088-.52-.41-.112-.85-.168-1.32-.168-.65 0-1.22.115-1.712.344-.49.23-.9.544-1.224.944-.325.4-.568.87-.728 1.408-.16.54-.24 1.117-.24 1.736 0 .62.083 1.187.248 1.704.165.517.41.963.736 1.336.325.373.73.66 1.216.864.485.203 1.043.304 1.672.304 1.056 0 1.89-.277 2.504-.832.613-.555.995-1.344 1.144-2.368h-1.392c-.085.64-.317 1.136-.696 1.488-.38.352-.904.528-1.576.528-.427 0-.795-.085-1.104-.256-.31-.17-.56-.397-.752-.68-.192-.283-.333-.605-.424-.968-.09-.363-.136-.736-.136-1.12 0-.416.043-.82.128-1.208.085-.39.227-.733.424-1.032.197-.3.46-.54.792-.72.33-.18.74-.272 1.232-.272.576 0 1.035.144 1.376.432.34.288.565.693.672 1.216zm8.72.688h-4.752c.02-.32.09-.62.208-.904.117-.283.277-.53.48-.744.203-.213.445-.38.728-.504.283-.123.6-.184.952-.184.34 0 .653.06.936.184.283.123.528.288.736.496.208.208.373.456.496.744s.195.592.216.912zm1.312 2.304h-1.344c-.117.544-.36.95-.728 1.216-.368.267-.84.4-1.416.4-.448 0-.837-.075-1.168-.224-.33-.15-.603-.35-.816-.6-.213-.25-.368-.54-.464-.864-.096-.325-.14-.67-.128-1.032h6.192c.02-.5-.024-1.03-.136-1.584-.112-.555-.315-1.067-.608-1.536-.293-.47-.683-.856-1.168-1.16-.485-.304-1.096-.456-1.832-.456-.565 0-1.085.107-1.56.32-.475.213-.885.512-1.232.896s-.616.837-.808 1.36c-.192.523-.288 1.1-.288 1.728.02.63.115 1.21.28 1.744.165.533.413.992.744 1.376.33.384.74.683 1.224.896.485.213 1.06.32 1.72.32.94 0 1.717-.235 2.336-.704.62-.47 1.02-1.168 1.2-2.096z" id="Self-Service" fill-opacity=".25" fill="#000"/><path d="M118.856 4.92h1.44c-.02-.63-.14-1.17-.36-1.624-.22-.453-.517-.83-.896-1.128-.38-.3-.82-.517-1.32-.656-.5-.14-1.045-.208-1.632-.208-.523 0-1.032.067-1.528.2s-.94.336-1.328.608c-.39.272-.7.62-.936 1.04-.235.42-.352.92-.352 1.496 0 .523.104.957.312 1.304.208.347.485.63.832.848.347.22.74.395 1.176.528.437.133.883.25 1.336.352l1.336.296c.437.096.83.22 1.176.376.347.155.624.355.832.6.208.245.312.565.312.96 0 .416-.085.757-.256 1.024-.17.267-.395.477-.672.632-.277.155-.59.264-.936.328-.347.064-.69.096-1.032.096-.427 0-.843-.053-1.248-.16-.405-.107-.76-.272-1.064-.496-.304-.224-.55-.51-.736-.856-.187-.347-.28-.76-.28-1.24h-1.44c0 .693.125 1.293.376 1.8.25.507.592.923 1.024 1.248.432.325.933.568 1.504.728.57.16 1.176.24 1.816.24.523 0 1.048-.06 1.576-.184.528-.123 1.005-.32 1.432-.592.427-.272.776-.624 1.048-1.056.272-.432.408-.952.408-1.56 0-.565-.104-1.035-.312-1.408-.208-.373-.485-.683-.832-.928s-.74-.44-1.176-.584c-.437-.144-.883-.27-1.336-.376-.453-.107-.9-.205-1.336-.296-.437-.09-.83-.205-1.176-.344-.347-.14-.624-.317-.832-.536-.208-.22-.312-.504-.312-.856 0-.373.072-.685.216-.936.144-.25.336-.45.576-.6.24-.15.515-.256.824-.32.31-.064.624-.096.944-.096.79 0 1.437.184 1.944.552.507.368.803.963.888 1.784zm9.28 3.152h-4.752c.02-.32.09-.62.208-.904.117-.283.277-.53.48-.744.203-.213.445-.38.728-.504.283-.123.6-.184.952-.184.34 0 .653.06.936.184.283.123.528.288.736.496.208.208.373.456.496.744s.195.592.216.912zm1.312 2.304h-1.344c-.117.544-.36.95-.728 1.216-.368.267-.84.4-1.416.4-.448 0-.837-.075-1.168-.224-.33-.15-.603-.35-.816-.6-.213-.25-.368-.54-.464-.864-.096-.325-.14-.67-.128-1.032h6.192c.02-.5-.024-1.03-.136-1.584-.112-.555-.315-1.067-.608-1.536-.293-.47-.683-.856-1.168-1.16-.485-.304-1.096-.456-1.832-.456-.565 0-1.085.107-1.56.32-.475.213-.885.512-1.232.896s-.616.837-.808 1.36c-.192.523-.288 1.1-.288 1.728.02.63.115 1.21.28 1.744.165.533.413.992.744 1.376.33.384.74.683 1.224.896.485.213 1.06.32 1.72.32.94 0 1.717-.235 2.336-.704.62-.47 1.02-1.168 1.2-2.096zm1.616-8.8V13h1.36V1.576h-1.36zm4.032 4.352V13h1.36V5.928h1.6v-1.2h-1.6V3.576c0-.363.09-.608.272-.736.18-.128.437-.192.768-.192.117 0 .245.008.384.024.14.016.267.045.384.088V1.576c-.128-.043-.275-.075-.44-.096-.165-.02-.312-.032-.44-.032-.747 0-1.315.173-1.704.52-.39.347-.584.856-.584 1.528v1.232h-1.392v1.2h1.392zm15.456-1.008h1.44c-.02-.63-.14-1.17-.36-1.624-.22-.453-.517-.83-.896-1.128-.38-.3-.82-.517-1.32-.656-.5-.14-1.045-.208-1.632-.208-.523 0-1.032.067-1.528.2s-.94.336-1.328.608c-.39.272-.7.62-.936 1.04-.235.42-.352.92-.352 1.496 0 .523.104.957.312 1.304.208.347.485.63.832.848.347.22.74.395 1.176.528.437.133.883.25 1.336.352l1.336.296c.437.096.83.22 1.176.376.347.155.624.355.832.6.208.245.312.565.312.96 0 .416-.085.757-.256 1.024-.17.267-.395.477-.672.632-.277.155-.59.264-.936.328-.347.064-.69.096-1.032.096-.427 0-.843-.053-1.248-.16-.405-.107-.76-.272-1.064-.496-.304-.224-.55-.51-.736-.856-.187-.347-.28-.76-.28-1.24h-1.44c0 .693.125 1.293.376 1.8.25.507.592.923 1.024 1.248.432.325.933.568 1.504.728.57.16 1.176.24 1.816.24.523 0 1.048-.06 1.576-.184.528-.123 1.005-.32 1.432-.592.427-.272.776-.624 1.048-1.056.272-.432.408-.952.408-1.56 0-.565-.104-1.035-.312-1.408-.208-.373-.485-.683-.832-.928s-.74-.44-1.176-.584c-.437-.144-.883-.27-1.336-.376-.453-.107-.9-.205-1.336-.296-.437-.09-.83-.205-1.176-.344-.347-.14-.624-.317-.832-.536-.208-.22-.312-.504-.312-.856 0-.373.072-.685.216-.936.144-.25.336-.45.576-.6.24-.15.515-.256.824-.32.31-.064.624-.096.944-.096.79 0 1.437.184 1.944.552.507.368.803.963.888 1.784zm9.28 3.152h-4.752c.02-.32.09-.62.208-.904.117-.283.277-.53.48-.744.203-.213.445-.38.728-.504.283-.123.6-.184.952-.184.34 0 .653.06.936.184.283.123.528.288.736.496.208.208.373.456.496.744s.195.592.216.912zm1.312 2.304H159.8c-.117.544-.36.95-.728 1.216-.368.267-.84.4-1.416.4-.448 0-.837-.075-1.168-.224-.33-.15-.603-.35-.816-.6-.213-.25-.368-.54-.464-.864-.096-.325-.14-.67-.128-1.032h6.192c.02-.5-.024-1.03-.136-1.584-.112-.555-.315-1.067-.608-1.536-.293-.47-.683-.856-1.168-1.16-.485-.304-1.096-.456-1.832-.456-.565 0-1.085.107-1.56.32-.475.213-.885.512-1.232.896s-.616.837-.808 1.36c-.192.523-.288 1.1-.288 1.728.02.63.115 1.21.28 1.744.165.533.413.992.744 1.376.33.384.74.683 1.224.896.485.213 1.06.32 1.72.32.94 0 1.717-.235 2.336-.704.62-.47 1.02-1.168 1.2-2.096zm1.488-5.648V13h1.36V9.32c0-.533.053-1.005.16-1.416.107-.41.277-.76.512-1.048.235-.288.544-.507.928-.656.384-.15.848-.224 1.392-.224v-1.44c-.736-.02-1.344.128-1.824.448s-.885.816-1.216 1.488h-.032V4.728h-1.28zM171.736 13l3.024-8.272h-1.424l-2.256 6.896h-.032l-2.32-6.896h-1.52L170.28 13h1.456zm5.712-9.76V1.576h-1.36V3.24h1.36zm-1.36 1.488V13h1.36V4.728h-1.36zm9.088 2.656h1.408c-.053-.49-.18-.915-.384-1.272-.203-.357-.46-.653-.776-.888-.315-.235-.677-.408-1.088-.52-.41-.112-.85-.168-1.32-.168-.65 0-1.22.115-1.712.344-.49.23-.9.544-1.224.944-.325.4-.568.87-.728 1.408-.16.54-.24 1.117-.24 1.736 0 .62.083 1.187.248 1.704.165.517.41.963.736 1.336.325.373.73.66 1.216.864.485.203 1.043.304 1.672.304 1.056 0 1.89-.277 2.504-.832.613-.555.995-1.344 1.144-2.368h-1.392c-.085.64-.317 1.136-.696 1.488-.38.352-.904.528-1.576.528-.427 0-.795-.085-1.104-.256-.31-.17-.56-.397-.752-.68-.192-.283-.333-.605-.424-.968-.09-.363-.136-.736-.136-1.12 0-.416.043-.82.128-1.208.085-.39.227-.733.424-1.032.197-.3.46-.54.792-.72.33-.18.74-.272 1.232-.272.576 0 1.035.144 1.376.432.34.288.565.693.672 1.216zm8.72.688h-4.752c.02-.32.09-.62.208-.904.117-.283.277-.53.48-.744.203-.213.445-.38.728-.504.283-.123.6-.184.952-.184.34 0 .653.06.936.184.283.123.528.288.736.496.208.208.373.456.496.744s.195.592.216.912zm1.312 2.304h-1.344c-.117.544-.36.95-.728 1.216-.368.267-.84.4-1.416.4-.448 0-.837-.075-1.168-.224-.33-.15-.603-.35-.816-.6-.213-.25-.368-.54-.464-.864-.096-.325-.14-.67-.128-1.032h6.192c.02-.5-.024-1.03-.136-1.584-.112-.555-.315-1.067-.608-1.536-.293-.47-.683-.856-1.168-1.16-.485-.304-1.096-.456-1.832-.456-.565 0-1.085.107-1.56.32-.475.213-.885.512-1.232.896s-.616.837-.808 1.36c-.192.523-.288 1.1-.288 1.728.02.63.115 1.21.28 1.744.165.533.413.992.744 1.376.33.384.74.683 1.224.896.485.213 1.06.32 1.72.32.94 0 1.717-.235 2.336-.704.62-.47 1.02-1.168 1.2-2.096z" fill="#FFF"/></g></svg>