<?xml version="1.0" encoding="UTF-8"?>
<svg width="40px" height="40px" viewBox="0 0 40 40" version="1.1" xmlns="http://www.w3.org/2000/svg" xmlns:xlink="http://www.w3.org/1999/xlink" style="background: #353B41;">
    <!-- Generator: Sketch 41.2 (35397) - http://www.bohemiancoding.com/sketch -->
    <title>dk-icon-patterns</title>
    <desc>Created with Sketch.</desc>
    <defs></defs>
    <g id="Page-1" stroke="none" stroke-width="1" fill="none" fill-rule="evenodd">
        <g id="dk-icon-patterns">
            <g id="Page-1" transform="translate(1.000000, 2.000000)">
                <path d="M3,18.7295 C3,10.8195 8.741,4.2565 16.283,2.9655 C16.99,2.8445 17.5,2.2205 17.5,1.5025 C17.5,0.5825 16.672,-0.1345 15.765,0.0215 C6.814,1.5575 0,9.3405 0,18.7295 C0,22.8195 1.3,26.6005 3.5,29.6985 C4.034,30.4495 5.124,30.5305 5.776,29.8785 C6.289,29.3655 6.359,28.5605 5.94,27.9695 C4.089,25.3595 3,22.1725 3,18.7295 Z M19,34.7295 C15.579,34.7295 12.409,33.6555 9.808,31.8265 C9.217,31.4115 8.414,31.4825 7.904,31.9935 C7.251,32.6465 7.333,33.7395 8.087,34.2715 C11.175,36.4465 14.936,37.7295 19,37.7295 C23.078,37.7295 26.849,36.4375 29.943,34.2495 C30.696,33.7165 30.777,32.6245 30.125,31.9725 L30.124,31.9725 C29.613,31.4605 28.809,31.3895 28.218,31.8075 C25.612,33.6475 22.433,34.7295 19,34.7295 Z M35,18.7295 C35,22.1605 33.919,25.3385 32.08,27.9445 C31.663,28.5355 31.734,29.3385 32.245,29.8505 C32.898,30.5025 33.99,30.4215 34.523,29.6685 C36.709,26.5755 38,22.8055 38,18.7295 C38,9.3405 31.185,1.5565 22.235,0.0215 C21.327,-0.1345 20.5,0.5815 20.5,1.5025 C20.5,2.2205 21.01,2.8445 21.717,2.9655 C29.259,4.2565 35,10.8195 35,18.7295 Z" id="Combined-Shape" fill="#FFFFFF"></path>
                <path d="M12.6317,12.4659 C16.2067,8.8909 22.0397,8.9519 25.5377,12.6489 C28.7667,16.0619 28.7667,21.5989 25.5377,25.0109 C22.0397,28.7079 16.2067,28.7689 12.6317,25.1939 C10.8157,23.3769 9.9447,20.9789 10.0077,18.5989 C10.0267,17.8689 9.6117,17.1999 8.9347,16.9299 L8.9347,16.9299 C8.0457,16.5759 7.0777,17.2039 7.0237,18.1589 C6.8137,21.8729 8.3167,25.6649 11.5487,28.2429 C15.5257,31.4149 22.4387,31.4239 26.4217,28.2589 C32.3297,23.5649 32.5147,14.8139 26.9747,9.8669 C23.8647,7.0889 17.9867,6.3279 14.1387,7.9339 C12.3447,8.6819 10.9797,9.7459 9.9207,10.9819 C9.2827,11.7259 9.5857,12.8839 10.4967,13.2469 L10.4967,13.2469 C11.1137,13.4929 11.8337,13.3489 12.2717,12.8509 C12.3867,12.7189 12.5067,12.5909 12.6317,12.4659" id="Fill-9" fill="#2997FF"></path>
                <path d="M18.4429,13.3508 L15.7739,16.0198 C15.2779,16.5158 15.6289,17.3648 16.3309,17.3648 L21.6689,17.3648 C22.3709,17.3648 22.7229,16.5158 22.2259,16.0198 L19.5569,13.3508 C19.2499,13.0428 18.7509,13.0428 18.4429,13.3508" id="Fill-11" fill="#FFFFFF"></path>
                <path d="M19.5571,23.3787 L22.2261,20.7097 C22.7221,20.2137 22.3711,19.3647 21.6691,19.3647 L16.3311,19.3647 C15.6291,19.3647 15.2771,20.2137 15.7741,20.7097 L18.4431,23.3787 C18.7501,23.6867 19.2491,23.6867 19.5571,23.3787" id="Fill-13" fill="#FFFFFF" transform="translate(18.999878, 21.487200) scale(1, -1) translate(-18.999878, -21.487200) "></path>
            </g>
        </g>
    </g>
</svg>