<?xml version="1.0" encoding="UTF-8"?>
<svg width="40px" height="40px" viewBox="0 0 40 40" version="1.1" xmlns="http://www.w3.org/2000/svg" xmlns:xlink="http://www.w3.org/1999/xlink" style="background: #353B41;">
    <!-- Generator: Sketch 41.2 (35397) - http://www.bohemiancoding.com/sketch -->
    <title>dk-icon-modules</title>
    <desc>Created with Sketch.</desc>
    <defs></defs>
    <g id="Page-1" stroke="none" stroke-width="1" fill="none" fill-rule="evenodd">
        <g id="dk-icon-modules">
            <g id="Group-2" transform="translate(1.000000, 2.000000)">
                <g id="Group-8">
                    <path d="M35,19 C35,26.91 29.259,33.473 21.717,34.764 C21.01,34.885 20.5,35.509 20.5,36.227 C20.5,37.147 21.328,37.864 22.235,37.708 C31.186,36.172 38,28.389 38,19 C38,14.91 36.7,11.129 34.5,8.031 C33.966,7.28 32.876,7.199 32.224,7.851 C31.711,8.364 31.641,9.169 32.06,9.76 C33.911,12.37 35,15.557 35,19 Z M3,19 C3,15.569 4.081,12.391 5.92,9.785 C6.337,9.194 6.266,8.391 5.755,7.879 C5.102,7.227 4.01,7.308 3.477,8.061 C1.291,11.154 0,14.924 0,19 C0,28.389 6.815,36.173 15.765,37.708 C16.673,37.864 17.5,37.148 17.5,36.227 C17.5,35.509 16.99,34.885 16.283,34.764 C8.741,33.473 3,26.91 3,19 Z M19,3 C22.421,3 25.591,4.074 28.192,5.903 C28.783,6.318 29.586,6.247 30.096,5.736 C30.749,5.083 30.667,3.99 29.913,3.458 C26.825,1.283 23.064,0 19,0 C14.922,0 11.151,1.292 8.057,3.48 C7.304,4.013 7.223,5.105 7.875,5.757 L7.876,5.757 C8.387,6.269 9.191,6.34 9.782,5.922 C12.388,4.082 15.567,3 19,3 Z" id="Combined-Shape" fill="#FFFFFF"></path>
                    <path d="M15,12 C15,14.209 16.791,16 19,16 C21.209,16 23,14.209 23,12 C23,9.791 21.209,8 19,8 C16.791,8 15,9.791 15,12 Z M9,24 C9,26.209 10.791,28 13,28 C15.209,28 17,26.209 17,24 C17,21.791 15.209,20 13,20 C10.791,20 9,21.791 9,24 Z" id="Combined-Shape" fill="#2997FF"></path>
                </g>
                <g id="Group-8" transform="translate(21.000000, 20.000000)" fill="#FFFFFF">
                    <path d="M0,4 C0,6.209 1.791,8 4,8 C6.209,8 8,6.209 8,4 C8,1.791 6.209,0 4,0 C1.791,0 0,1.791 0,4 Z" id="Clip-7"></path>
                </g>
                <g id="Group-8"></g>
            </g>
        </g>
    </g>
</svg>