<svg width="16" height="16" viewBox="0 0 16 16" xmlns="http://www.w3.org/2000/svg" xmlns:sketch="http://www.bohemiancoding.com/sketch/ns"><title>icon-deploy</title><desc>Created with Sketch.</desc><g sketch:type="MSArtboardGroup" fill="none"><rect fill="#FFD725" sketch:type="MSShapeGroup" x="1" y="1" width="14" height="14" rx="2"/><path d="M4.492 10.893v-5.241h.637c.285 0 .513.054.684.162.171.108.299.268.386.48.087.212.144.478.172.799.028.32.042.693.042 1.117 0 .508-.016.933-.047 1.274-.031.341-.094.616-.188.825-.094.209-.221.358-.381.449-.16.09-.372.136-.637.136h-.668zm-1.503-6.348v7.454h2.37c.501 0 .915-.077 1.242-.23.327-.153.588-.386.783-.699.195-.313.332-.712.412-1.195.08-.484.12-1.053.12-1.707 0-.55-.031-1.047-.094-1.493-.063-.445-.183-.826-.36-1.143-.177-.317-.426-.56-.746-.731-.32-.171-.741-.256-1.263-.256h-2.464zm5.878 1.837v7.423h1.441v-2.328h.021c.153.223.325.385.517.485.191.101.423.151.694.151.592 0 1.027-.226 1.305-.679.278-.452.418-1.201.418-2.245s-.139-1.797-.418-2.26c-.278-.463-.713-.694-1.305-.694-.292 0-.538.057-.736.172-.198.115-.378.304-.538.569h-.021v-.595h-1.378zm1.441 2.808c0-.612.047-1.074.141-1.383.094-.31.301-.465.621-.465.313 0 .517.155.611.465.094.31.141.771.141 1.383s-.047 1.074-.141 1.383c-.094.31-.298.465-.611.465-.32 0-.527-.155-.621-.465-.094-.31-.141-.771-.141-1.383z" fill="#fff" sketch:type="MSShapeGroup"/></g></svg>