<svg width="16" height="16" viewBox="0 0 16 16" xmlns="http://www.w3.org/2000/svg" xmlns:sketch="http://www.bohemiancoding.com/sketch/ns"><title>icon-server-instance-b</title><desc>Created with Sketch.</desc><g sketch:type="MSArtboardGroup" fill="none"><rect fill="#0A83F6" sketch:type="MSShapeGroup" x="1" y="1" width="14" height="14" rx="2"/><path d="M6.177 9.672h-1.503v.303c0 .689.183 1.218.548 1.587.365.369.973.553 1.822.553.814 0 1.449-.179 1.905-.538.456-.358.684-.931.684-1.717 0-.23-.021-.438-.063-.626-.042-.188-.117-.36-.224-.517-.108-.157-.252-.303-.433-.438-.181-.136-.414-.266-.699-.392l-1.159-.501c-.32-.132-.529-.277-.626-.433-.097-.157-.146-.35-.146-.579 0-.111.012-.219.037-.324.024-.104.07-.197.136-.277.066-.08.155-.144.266-.193.111-.049.251-.073.418-.073.292 0 .501.096.626.287.125.191.188.465.188.82h1.441v-.209c0-.355-.057-.659-.172-.913-.115-.254-.275-.463-.48-.626-.205-.164-.449-.282-.731-.355-.282-.073-.59-.11-.924-.11-.717 0-1.281.181-1.691.543-.411.362-.616.912-.616 1.65 0 .306.038.576.115.809.077.233.197.438.36.616.164.177.367.332.611.465.244.132.532.254.867.365.251.084.461.165.632.245.171.08.308.169.412.266.104.097.179.207.224.329.045.122.068.266.068.433 0 .313-.092.545-.277.694-.184.15-.391.224-.621.224-.195 0-.357-.028-.485-.084-.129-.056-.231-.132-.308-.23-.077-.097-.129-.217-.157-.36-.028-.143-.042-.301-.042-.475v-.219zm4.28 2.328h1.503v-7.454h-1.503v7.454z" fill="#fff" sketch:type="MSShapeGroup"/></g></svg>