<svg xmlns="http://www.w3.org/2000/svg" width="52" height="37" viewBox="0 0 52 37">
  <g fill="none" fill-rule="evenodd">
    <path fill="#D05A5A" d="M45.7 16.9V16c0-8.5-7.1-16-15.6-16-6.2 0-11.3 4.1-13.8 9.3-1.2-.9-2.7-1.5-4.4-1.5C8 7.9 4.8 11 4.8 15c0 .7.1 1.5.3 2.1C2 18.9 0 22.3 0 26.1 0 31.8 4.3 36.9 10 37h32.1c5.7 0 9.9-5 9.9-10.6 0-4.3-2.6-7.9-6.3-9.5z"/>
    <path fill="#FFF" d="M20.422 21.133l-4.097 2.5 10.338 6.308L37 23.634l-4.097-2.5 4.097-2.5-10.337-6.308-10.338 6.308 4.097 2.5z"/>
    <path fill="#D05A5A" d="M16.325 18.633l10.338 6.308L37 18.634l-10.337-6.308-10.338 6.308zm-1.04-1.707l10.336-6.308 1.043-.636 1.04.636 10.34 6.308 2.797 1.707-2.798 1.707-10.338 6.308-1.04.636-1.043-.636-10.336-6.308-2.798-1.707 2.798-1.707z"/>
  </g>
</svg>
