<?xml version="1.0" encoding="UTF-8" standalone="no"?>
<svg width="52px" height="37px" viewBox="0 0 52 37" version="1.1" xmlns="http://www.w3.org/2000/svg" xmlns:xlink="http://www.w3.org/1999/xlink" xmlns:sketch="http://www.bohemiancoding.com/sketch/ns">
    <!-- Generator: Sketch 3.3.2 (12043) - http://www.bohemiancoding.com/sketch -->
    <title>product-icon-ss</title>
    <desc>Created with Sketch.</desc>
    <defs></defs>
    <g id="Page-1" stroke="none" stroke-width="1" fill="none" fill-rule="evenodd" sketch:type="MSPage">
        <g id="Application-Branding-Guide" sketch:type="MSArtboardGroup" transform="translate(-168.000000, -901.000000)">
            <g id="product-icon-ss" sketch:type="MSLayerGroup" transform="translate(168.000000, 901.000000)">
                <path d="M45.7,16.9 L45.7,16 C45.7,7.5 38.6,0 30.1,0 C23.9,0 18.8,4.1 16.3,9.3 C15.1,8.4 13.6,7.8 11.9,7.8 C8,7.9 4.8,11 4.8,15 C4.8,15.7 4.9,16.5 5.1,17.1 C2,18.9 0,22.3 0,26.1 C0,31.8 4.3,36.9 10,37 L42.1,37 C47.8,37 52,32 52,26.4 C52,22.1 49.4,18.5 45.7,16.9 L45.7,16.9 Z" id="Shape" fill="#F7A626" sketch:type="MSShapeGroup"></path>
                <path d="M22.6,20 L23.5,23 L28,23 L28,20 L22.6,20 Z M29,20 L29,23 L32.8,23 L33.8,20 L29,20 Z M38,15.7 L37.7,15.7 C37.2,15.7 36.8,16 36.7,16.5 L36.5,17 L20.3,17 L19.7,14.9 C19.6,14.4 19.1,14 18.6,14 L13,14 C12.4,14 11.9,14.5 11.9,15.1 C11.9,15.7 12.3,16 12.9,16 L17.6,16 L20.2,25.2 C20.3,25.7 20.8,26 21.3,26 L34.6,26 C35.1,26 35.5,25.8 35.6,25.3 L38.4,17.2 C38.4,17.1 38.5,16.9 38.5,16.8 C38.6,16.3 38.4,15.9 38,15.7 L38,15.7 Z M34,24 L21.9,24 L20.8,19 L35.8,19 L34,24 L34,24 Z" id="Shape" fill="#FFFFFF" sketch:type="MSShapeGroup"></path>
                <circle id="Oval" fill="#FFFFFF" sketch:type="MSShapeGroup" cx="24" cy="29" r="2"></circle>
                <circle id="Oval" fill="#FFFFFF" sketch:type="MSShapeGroup" cx="32" cy="29" r="2"></circle>
            </g>
        </g>
    </g>
</svg>